%TF.GenerationSoftware,KiCad,Pcbnew,8.0.9-8.0.9-0~ubuntu24.04.1*%
%TF.CreationDate,2025-08-06T19:27:30-03:00*%
%TF.ProjectId,eeg,6565672e-6b69-4636-9164-5f7063625858,rev?*%
%TF.SameCoordinates,Original*%
%TF.FileFunction,Legend,Bot*%
%TF.FilePolarity,Positive*%
%FSLAX46Y46*%
G04 Gerber Fmt 4.6, Leading zero omitted, Abs format (unit mm)*
G04 Created by KiCad (PCBNEW 8.0.9-8.0.9-0~ubuntu24.04.1) date 2025-08-06 19:27:30*
%MOMM*%
%LPD*%
G01*
G04 APERTURE LIST*
%ADD10C,0.200000*%
%ADD11C,0.600000*%
%ADD12C,0.150000*%
%ADD13C,0.000000*%
G04 APERTURE END LIST*
D10*
G36*
X163997376Y-82060000D02*
G01*
X164003973Y-82009778D01*
X164010299Y-81956659D01*
X164015696Y-81907009D01*
X164019602Y-81868269D01*
X164024594Y-81815406D01*
X164029311Y-81761840D01*
X164033753Y-81707572D01*
X164037921Y-81652602D01*
X164041722Y-81597602D01*
X164045309Y-81543243D01*
X164048683Y-81489525D01*
X164051842Y-81436448D01*
X164054636Y-81384576D01*
X164056911Y-81334720D01*
X164058849Y-81281041D01*
X164059903Y-81241053D01*
X164060742Y-81187773D01*
X164060784Y-81135501D01*
X164059903Y-81089867D01*
X163861333Y-81089867D01*
X163864815Y-81139302D01*
X163867630Y-81193269D01*
X163869592Y-81245715D01*
X163870126Y-81264012D01*
X163871286Y-81313883D01*
X163872080Y-81364823D01*
X163872507Y-81416832D01*
X163872568Y-81469909D01*
X163872202Y-81523108D01*
X163871347Y-81575727D01*
X163870004Y-81627766D01*
X163868172Y-81679225D01*
X163865867Y-81728974D01*
X163862726Y-81781840D01*
X163859006Y-81831422D01*
X163856204Y-81862651D01*
X163832520Y-81815317D01*
X163810916Y-81770583D01*
X163788793Y-81723345D01*
X163769009Y-81679958D01*
X163749086Y-81635213D01*
X163729279Y-81589884D01*
X163709589Y-81543971D01*
X163690016Y-81497474D01*
X163678884Y-81470642D01*
X163659728Y-81423855D01*
X163641157Y-81377957D01*
X163620648Y-81326590D01*
X163600902Y-81276383D01*
X163596085Y-81264012D01*
X163577569Y-81216125D01*
X163558307Y-81165719D01*
X163540706Y-81118984D01*
X163529896Y-81089867D01*
X163331570Y-81089867D01*
X163351033Y-81138166D01*
X163372298Y-81189274D01*
X163392382Y-81236297D01*
X163413845Y-81285471D01*
X163420230Y-81299916D01*
X163443268Y-81351257D01*
X163463796Y-81396194D01*
X163485045Y-81441989D01*
X163507015Y-81488643D01*
X163529707Y-81536156D01*
X163533559Y-81544159D01*
X163556855Y-81592281D01*
X163580580Y-81640661D01*
X163604734Y-81689299D01*
X163629318Y-81738194D01*
X163654331Y-81787347D01*
X163662764Y-81803789D01*
X163688255Y-81852907D01*
X163713986Y-81901528D01*
X163739958Y-81949650D01*
X163766170Y-81997275D01*
X163792623Y-82044401D01*
X163801494Y-82060000D01*
X163997376Y-82060000D01*
G37*
G36*
X163371382Y-82060000D02*
G01*
X163338165Y-81900509D01*
X163138130Y-81900509D01*
X163025290Y-81357313D01*
X163070276Y-81383025D01*
X163116068Y-81404724D01*
X163134711Y-81412512D01*
X163180741Y-81430663D01*
X163228651Y-81448356D01*
X163236560Y-81451102D01*
X163264892Y-81291367D01*
X163218629Y-81273395D01*
X163173062Y-81253085D01*
X163145213Y-81239588D01*
X163100893Y-81216701D01*
X163057267Y-81192372D01*
X163018207Y-81169002D01*
X162974014Y-81139784D01*
X162934493Y-81110017D01*
X162910740Y-81089867D01*
X162782024Y-81089867D01*
X162950551Y-81900509D01*
X162761508Y-81900509D01*
X162794725Y-82060000D01*
X163371382Y-82060000D01*
G37*
X163526041Y-91219735D02*
X163416517Y-91257830D01*
X163416517Y-91257830D02*
X163226041Y-91257830D01*
X163226041Y-91257830D02*
X163145088Y-91219735D01*
X163145088Y-91219735D02*
X163102231Y-91181639D01*
X163102231Y-91181639D02*
X163054612Y-91105449D01*
X163054612Y-91105449D02*
X163045088Y-91029258D01*
X163045088Y-91029258D02*
X163073660Y-90953068D01*
X163073660Y-90953068D02*
X163106993Y-90914973D01*
X163106993Y-90914973D02*
X163178422Y-90876877D01*
X163178422Y-90876877D02*
X163326041Y-90838782D01*
X163326041Y-90838782D02*
X163397469Y-90800687D01*
X163397469Y-90800687D02*
X163430802Y-90762592D01*
X163430802Y-90762592D02*
X163459374Y-90686401D01*
X163459374Y-90686401D02*
X163449850Y-90610211D01*
X163449850Y-90610211D02*
X163402231Y-90534020D01*
X163402231Y-90534020D02*
X163359374Y-90495925D01*
X163359374Y-90495925D02*
X163278422Y-90457830D01*
X163278422Y-90457830D02*
X163087945Y-90457830D01*
X163087945Y-90457830D02*
X162978422Y-90495925D01*
X162778421Y-90724496D02*
X162473659Y-90724496D01*
X162630802Y-90457830D02*
X162716517Y-91143544D01*
X162716517Y-91143544D02*
X162687945Y-91219735D01*
X162687945Y-91219735D02*
X162616517Y-91257830D01*
X162616517Y-91257830D02*
X162540326Y-91257830D01*
X161964135Y-91219735D02*
X162045088Y-91257830D01*
X162045088Y-91257830D02*
X162197469Y-91257830D01*
X162197469Y-91257830D02*
X162268897Y-91219735D01*
X162268897Y-91219735D02*
X162297469Y-91143544D01*
X162297469Y-91143544D02*
X162259374Y-90838782D01*
X162259374Y-90838782D02*
X162211754Y-90762592D01*
X162211754Y-90762592D02*
X162130802Y-90724496D01*
X162130802Y-90724496D02*
X161978421Y-90724496D01*
X161978421Y-90724496D02*
X161906993Y-90762592D01*
X161906993Y-90762592D02*
X161878421Y-90838782D01*
X161878421Y-90838782D02*
X161887945Y-90914973D01*
X161887945Y-90914973D02*
X162278421Y-90991163D01*
X161521279Y-90724496D02*
X161621279Y-91524496D01*
X161526040Y-90762592D02*
X161445088Y-90724496D01*
X161445088Y-90724496D02*
X161292707Y-90724496D01*
X161292707Y-90724496D02*
X161221279Y-90762592D01*
X161221279Y-90762592D02*
X161187945Y-90800687D01*
X161187945Y-90800687D02*
X161159374Y-90876877D01*
X161159374Y-90876877D02*
X161187945Y-91105449D01*
X161187945Y-91105449D02*
X161235564Y-91181639D01*
X161235564Y-91181639D02*
X161278421Y-91219735D01*
X161278421Y-91219735D02*
X161359374Y-91257830D01*
X161359374Y-91257830D02*
X161511755Y-91257830D01*
X161511755Y-91257830D02*
X161583183Y-91219735D01*
X160864135Y-91257830D02*
X160764135Y-90457830D01*
X160521278Y-91257830D02*
X160468897Y-90838782D01*
X160468897Y-90838782D02*
X160497469Y-90762592D01*
X160497469Y-90762592D02*
X160568897Y-90724496D01*
X160568897Y-90724496D02*
X160683183Y-90724496D01*
X160683183Y-90724496D02*
X160764135Y-90762592D01*
X160764135Y-90762592D02*
X160806992Y-90800687D01*
X159797468Y-91257830D02*
X159745087Y-90838782D01*
X159745087Y-90838782D02*
X159773659Y-90762592D01*
X159773659Y-90762592D02*
X159845087Y-90724496D01*
X159845087Y-90724496D02*
X159997468Y-90724496D01*
X159997468Y-90724496D02*
X160078420Y-90762592D01*
X159792706Y-91219735D02*
X159873659Y-91257830D01*
X159873659Y-91257830D02*
X160064135Y-91257830D01*
X160064135Y-91257830D02*
X160135563Y-91219735D01*
X160135563Y-91219735D02*
X160164135Y-91143544D01*
X160164135Y-91143544D02*
X160154611Y-91067354D01*
X160154611Y-91067354D02*
X160106992Y-90991163D01*
X160106992Y-90991163D02*
X160026040Y-90953068D01*
X160026040Y-90953068D02*
X159835563Y-90953068D01*
X159835563Y-90953068D02*
X159754611Y-90914973D01*
X159349849Y-90724496D02*
X159416515Y-91257830D01*
X159359372Y-90800687D02*
X159316515Y-90762592D01*
X159316515Y-90762592D02*
X159235563Y-90724496D01*
X159235563Y-90724496D02*
X159121277Y-90724496D01*
X159121277Y-90724496D02*
X159049849Y-90762592D01*
X159049849Y-90762592D02*
X159021277Y-90838782D01*
X159021277Y-90838782D02*
X159073658Y-91257830D01*
X157616515Y-91181639D02*
X157659372Y-91219735D01*
X157659372Y-91219735D02*
X157778419Y-91257830D01*
X157778419Y-91257830D02*
X157854610Y-91257830D01*
X157854610Y-91257830D02*
X157964134Y-91219735D01*
X157964134Y-91219735D02*
X158030800Y-91143544D01*
X158030800Y-91143544D02*
X158059372Y-91067354D01*
X158059372Y-91067354D02*
X158078419Y-90914973D01*
X158078419Y-90914973D02*
X158064134Y-90800687D01*
X158064134Y-90800687D02*
X158006991Y-90648306D01*
X158006991Y-90648306D02*
X157959372Y-90572115D01*
X157959372Y-90572115D02*
X157873657Y-90495925D01*
X157873657Y-90495925D02*
X157754610Y-90457830D01*
X157754610Y-90457830D02*
X157678419Y-90457830D01*
X157678419Y-90457830D02*
X157568896Y-90495925D01*
X157568896Y-90495925D02*
X157535562Y-90534020D01*
X157273657Y-91181639D02*
X157240324Y-91219735D01*
X157240324Y-91219735D02*
X157283181Y-91257830D01*
X157283181Y-91257830D02*
X157316515Y-91219735D01*
X157316515Y-91219735D02*
X157273657Y-91181639D01*
X157273657Y-91181639D02*
X157283181Y-91257830D01*
X155973658Y-90838782D02*
X155864134Y-90876877D01*
X155864134Y-90876877D02*
X155830800Y-90914973D01*
X155830800Y-90914973D02*
X155802229Y-90991163D01*
X155802229Y-90991163D02*
X155816515Y-91105449D01*
X155816515Y-91105449D02*
X155864134Y-91181639D01*
X155864134Y-91181639D02*
X155906991Y-91219735D01*
X155906991Y-91219735D02*
X155987943Y-91257830D01*
X155987943Y-91257830D02*
X156292705Y-91257830D01*
X156292705Y-91257830D02*
X156192705Y-90457830D01*
X156192705Y-90457830D02*
X155926039Y-90457830D01*
X155926039Y-90457830D02*
X155854610Y-90495925D01*
X155854610Y-90495925D02*
X155821277Y-90534020D01*
X155821277Y-90534020D02*
X155792705Y-90610211D01*
X155792705Y-90610211D02*
X155802229Y-90686401D01*
X155802229Y-90686401D02*
X155849848Y-90762592D01*
X155849848Y-90762592D02*
X155892705Y-90800687D01*
X155892705Y-90800687D02*
X155973658Y-90838782D01*
X155973658Y-90838782D02*
X156240324Y-90838782D01*
X155149848Y-91257830D02*
X155097467Y-90838782D01*
X155097467Y-90838782D02*
X155126039Y-90762592D01*
X155126039Y-90762592D02*
X155197467Y-90724496D01*
X155197467Y-90724496D02*
X155349848Y-90724496D01*
X155349848Y-90724496D02*
X155430800Y-90762592D01*
X155145086Y-91219735D02*
X155226039Y-91257830D01*
X155226039Y-91257830D02*
X155416515Y-91257830D01*
X155416515Y-91257830D02*
X155487943Y-91219735D01*
X155487943Y-91219735D02*
X155516515Y-91143544D01*
X155516515Y-91143544D02*
X155506991Y-91067354D01*
X155506991Y-91067354D02*
X155459372Y-90991163D01*
X155459372Y-90991163D02*
X155378420Y-90953068D01*
X155378420Y-90953068D02*
X155187943Y-90953068D01*
X155187943Y-90953068D02*
X155106991Y-90914973D01*
X154768895Y-91257830D02*
X154702229Y-90724496D01*
X154721276Y-90876877D02*
X154673657Y-90800687D01*
X154673657Y-90800687D02*
X154630800Y-90762592D01*
X154630800Y-90762592D02*
X154549848Y-90724496D01*
X154549848Y-90724496D02*
X154473657Y-90724496D01*
X154273657Y-91257830D02*
X154206991Y-90724496D01*
X154226038Y-90876877D02*
X154178419Y-90800687D01*
X154178419Y-90800687D02*
X154135562Y-90762592D01*
X154135562Y-90762592D02*
X154054610Y-90724496D01*
X154054610Y-90724496D02*
X153978419Y-90724496D01*
X153664134Y-91257830D02*
X153735562Y-91219735D01*
X153735562Y-91219735D02*
X153768895Y-91181639D01*
X153768895Y-91181639D02*
X153797467Y-91105449D01*
X153797467Y-91105449D02*
X153768895Y-90876877D01*
X153768895Y-90876877D02*
X153721276Y-90800687D01*
X153721276Y-90800687D02*
X153678419Y-90762592D01*
X153678419Y-90762592D02*
X153597467Y-90724496D01*
X153597467Y-90724496D02*
X153483181Y-90724496D01*
X153483181Y-90724496D02*
X153411753Y-90762592D01*
X153411753Y-90762592D02*
X153378419Y-90800687D01*
X153378419Y-90800687D02*
X153349848Y-90876877D01*
X153349848Y-90876877D02*
X153378419Y-91105449D01*
X153378419Y-91105449D02*
X153426038Y-91181639D01*
X153426038Y-91181639D02*
X153468895Y-91219735D01*
X153468895Y-91219735D02*
X153549848Y-91257830D01*
X153549848Y-91257830D02*
X153664134Y-91257830D01*
X153087943Y-91219735D02*
X153016514Y-91257830D01*
X153016514Y-91257830D02*
X152864133Y-91257830D01*
X152864133Y-91257830D02*
X152783181Y-91219735D01*
X152783181Y-91219735D02*
X152735562Y-91143544D01*
X152735562Y-91143544D02*
X152730800Y-91105449D01*
X152730800Y-91105449D02*
X152759371Y-91029258D01*
X152759371Y-91029258D02*
X152830800Y-90991163D01*
X152830800Y-90991163D02*
X152945085Y-90991163D01*
X152945085Y-90991163D02*
X153016514Y-90953068D01*
X153016514Y-90953068D02*
X153045085Y-90876877D01*
X153045085Y-90876877D02*
X153040324Y-90838782D01*
X153040324Y-90838782D02*
X152992704Y-90762592D01*
X152992704Y-90762592D02*
X152911752Y-90724496D01*
X152911752Y-90724496D02*
X152797466Y-90724496D01*
X152797466Y-90724496D02*
X152726038Y-90762592D01*
X163526041Y-92507690D02*
X163454612Y-92545785D01*
X163454612Y-92545785D02*
X163302231Y-92545785D01*
X163302231Y-92545785D02*
X163221279Y-92507690D01*
X163221279Y-92507690D02*
X163173660Y-92431499D01*
X163173660Y-92431499D02*
X163168898Y-92393404D01*
X163168898Y-92393404D02*
X163197469Y-92317213D01*
X163197469Y-92317213D02*
X163268898Y-92279118D01*
X163268898Y-92279118D02*
X163383183Y-92279118D01*
X163383183Y-92279118D02*
X163454612Y-92241023D01*
X163454612Y-92241023D02*
X163483183Y-92164832D01*
X163483183Y-92164832D02*
X163478422Y-92126737D01*
X163478422Y-92126737D02*
X163430802Y-92050547D01*
X163430802Y-92050547D02*
X163349850Y-92012451D01*
X163349850Y-92012451D02*
X163235564Y-92012451D01*
X163235564Y-92012451D02*
X163164136Y-92050547D01*
X162892707Y-92012451D02*
X162587945Y-92012451D01*
X162745088Y-91745785D02*
X162830803Y-92431499D01*
X162830803Y-92431499D02*
X162802231Y-92507690D01*
X162802231Y-92507690D02*
X162730803Y-92545785D01*
X162730803Y-92545785D02*
X162654612Y-92545785D01*
X162078421Y-92507690D02*
X162159374Y-92545785D01*
X162159374Y-92545785D02*
X162311755Y-92545785D01*
X162311755Y-92545785D02*
X162383183Y-92507690D01*
X162383183Y-92507690D02*
X162411755Y-92431499D01*
X162411755Y-92431499D02*
X162373660Y-92126737D01*
X162373660Y-92126737D02*
X162326040Y-92050547D01*
X162326040Y-92050547D02*
X162245088Y-92012451D01*
X162245088Y-92012451D02*
X162092707Y-92012451D01*
X162092707Y-92012451D02*
X162021279Y-92050547D01*
X162021279Y-92050547D02*
X161992707Y-92126737D01*
X161992707Y-92126737D02*
X162002231Y-92202928D01*
X162002231Y-92202928D02*
X162392707Y-92279118D01*
X161635565Y-92012451D02*
X161735565Y-92812451D01*
X161640326Y-92050547D02*
X161559374Y-92012451D01*
X161559374Y-92012451D02*
X161406993Y-92012451D01*
X161406993Y-92012451D02*
X161335565Y-92050547D01*
X161335565Y-92050547D02*
X161302231Y-92088642D01*
X161302231Y-92088642D02*
X161273660Y-92164832D01*
X161273660Y-92164832D02*
X161302231Y-92393404D01*
X161302231Y-92393404D02*
X161349850Y-92469594D01*
X161349850Y-92469594D02*
X161392707Y-92507690D01*
X161392707Y-92507690D02*
X161473660Y-92545785D01*
X161473660Y-92545785D02*
X161626041Y-92545785D01*
X161626041Y-92545785D02*
X161697469Y-92507690D01*
X160978421Y-92545785D02*
X160878421Y-91745785D01*
X160635564Y-92545785D02*
X160583183Y-92126737D01*
X160583183Y-92126737D02*
X160611755Y-92050547D01*
X160611755Y-92050547D02*
X160683183Y-92012451D01*
X160683183Y-92012451D02*
X160797469Y-92012451D01*
X160797469Y-92012451D02*
X160878421Y-92050547D01*
X160878421Y-92050547D02*
X160921278Y-92088642D01*
X159911754Y-92545785D02*
X159859373Y-92126737D01*
X159859373Y-92126737D02*
X159887945Y-92050547D01*
X159887945Y-92050547D02*
X159959373Y-92012451D01*
X159959373Y-92012451D02*
X160111754Y-92012451D01*
X160111754Y-92012451D02*
X160192706Y-92050547D01*
X159906992Y-92507690D02*
X159987945Y-92545785D01*
X159987945Y-92545785D02*
X160178421Y-92545785D01*
X160178421Y-92545785D02*
X160249849Y-92507690D01*
X160249849Y-92507690D02*
X160278421Y-92431499D01*
X160278421Y-92431499D02*
X160268897Y-92355309D01*
X160268897Y-92355309D02*
X160221278Y-92279118D01*
X160221278Y-92279118D02*
X160140326Y-92241023D01*
X160140326Y-92241023D02*
X159949849Y-92241023D01*
X159949849Y-92241023D02*
X159868897Y-92202928D01*
X159464135Y-92012451D02*
X159530801Y-92545785D01*
X159473658Y-92088642D02*
X159430801Y-92050547D01*
X159430801Y-92050547D02*
X159349849Y-92012451D01*
X159349849Y-92012451D02*
X159235563Y-92012451D01*
X159235563Y-92012451D02*
X159164135Y-92050547D01*
X159164135Y-92050547D02*
X159135563Y-92126737D01*
X159135563Y-92126737D02*
X159187944Y-92545785D01*
X158806991Y-92545785D02*
X158706991Y-91745785D01*
X158745086Y-92050547D02*
X158664134Y-92012451D01*
X158664134Y-92012451D02*
X158511753Y-92012451D01*
X158511753Y-92012451D02*
X158440325Y-92050547D01*
X158440325Y-92050547D02*
X158406991Y-92088642D01*
X158406991Y-92088642D02*
X158378420Y-92164832D01*
X158378420Y-92164832D02*
X158406991Y-92393404D01*
X158406991Y-92393404D02*
X158454610Y-92469594D01*
X158454610Y-92469594D02*
X158497467Y-92507690D01*
X158497467Y-92507690D02*
X158578420Y-92545785D01*
X158578420Y-92545785D02*
X158730801Y-92545785D01*
X158730801Y-92545785D02*
X158802229Y-92507690D01*
X158083181Y-92545785D02*
X158016515Y-92012451D01*
X158035562Y-92164832D02*
X157987943Y-92088642D01*
X157987943Y-92088642D02*
X157945086Y-92050547D01*
X157945086Y-92050547D02*
X157864134Y-92012451D01*
X157864134Y-92012451D02*
X157787943Y-92012451D01*
X157587943Y-92545785D02*
X157521277Y-92012451D01*
X157540324Y-92164832D02*
X157492705Y-92088642D01*
X157492705Y-92088642D02*
X157449848Y-92050547D01*
X157449848Y-92050547D02*
X157368896Y-92012451D01*
X157368896Y-92012451D02*
X157292705Y-92012451D01*
X157126039Y-92507690D02*
X157054610Y-92545785D01*
X157054610Y-92545785D02*
X156902229Y-92545785D01*
X156902229Y-92545785D02*
X156821277Y-92507690D01*
X156821277Y-92507690D02*
X156773658Y-92431499D01*
X156773658Y-92431499D02*
X156768896Y-92393404D01*
X156768896Y-92393404D02*
X156797467Y-92317213D01*
X156797467Y-92317213D02*
X156868896Y-92279118D01*
X156868896Y-92279118D02*
X156983181Y-92279118D01*
X156983181Y-92279118D02*
X157054610Y-92241023D01*
X157054610Y-92241023D02*
X157083181Y-92164832D01*
X157083181Y-92164832D02*
X157078420Y-92126737D01*
X157078420Y-92126737D02*
X157030800Y-92050547D01*
X157030800Y-92050547D02*
X156949848Y-92012451D01*
X156949848Y-92012451D02*
X156835562Y-92012451D01*
X156835562Y-92012451D02*
X156764134Y-92050547D01*
X156273658Y-92088642D02*
X156345086Y-92050547D01*
X156345086Y-92050547D02*
X156378420Y-92012451D01*
X156378420Y-92012451D02*
X156406991Y-91936261D01*
X156406991Y-91936261D02*
X156402229Y-91898166D01*
X156402229Y-91898166D02*
X156354610Y-91821975D01*
X156354610Y-91821975D02*
X156311753Y-91783880D01*
X156311753Y-91783880D02*
X156230801Y-91745785D01*
X156230801Y-91745785D02*
X156078420Y-91745785D01*
X156078420Y-91745785D02*
X156006991Y-91783880D01*
X156006991Y-91783880D02*
X155973658Y-91821975D01*
X155973658Y-91821975D02*
X155945086Y-91898166D01*
X155945086Y-91898166D02*
X155949848Y-91936261D01*
X155949848Y-91936261D02*
X155997467Y-92012451D01*
X155997467Y-92012451D02*
X156040324Y-92050547D01*
X156040324Y-92050547D02*
X156121277Y-92088642D01*
X156121277Y-92088642D02*
X156273658Y-92088642D01*
X156273658Y-92088642D02*
X156354610Y-92126737D01*
X156354610Y-92126737D02*
X156397467Y-92164832D01*
X156397467Y-92164832D02*
X156445086Y-92241023D01*
X156445086Y-92241023D02*
X156464134Y-92393404D01*
X156464134Y-92393404D02*
X156435562Y-92469594D01*
X156435562Y-92469594D02*
X156402229Y-92507690D01*
X156402229Y-92507690D02*
X156330801Y-92545785D01*
X156330801Y-92545785D02*
X156178420Y-92545785D01*
X156178420Y-92545785D02*
X156097467Y-92507690D01*
X156097467Y-92507690D02*
X156054610Y-92469594D01*
X156054610Y-92469594D02*
X156006991Y-92393404D01*
X156006991Y-92393404D02*
X155987943Y-92241023D01*
X155987943Y-92241023D02*
X156016515Y-92164832D01*
X156016515Y-92164832D02*
X156049848Y-92126737D01*
X156049848Y-92126737D02*
X156121277Y-92088642D01*
X155140324Y-92164832D02*
X155173657Y-92126737D01*
X155173657Y-92126737D02*
X155245086Y-92088642D01*
X155245086Y-92088642D02*
X155321276Y-92088642D01*
X155321276Y-92088642D02*
X155402229Y-92126737D01*
X155402229Y-92126737D02*
X155445086Y-92164832D01*
X155445086Y-92164832D02*
X155492705Y-92241023D01*
X155492705Y-92241023D02*
X155502229Y-92317213D01*
X155502229Y-92317213D02*
X155473657Y-92393404D01*
X155473657Y-92393404D02*
X155440324Y-92431499D01*
X155440324Y-92431499D02*
X155368896Y-92469594D01*
X155368896Y-92469594D02*
X155292705Y-92469594D01*
X155292705Y-92469594D02*
X155211753Y-92431499D01*
X155211753Y-92431499D02*
X155168896Y-92393404D01*
X155130800Y-92088642D02*
X155168896Y-92393404D01*
X155168896Y-92393404D02*
X155135562Y-92431499D01*
X155135562Y-92431499D02*
X155097467Y-92431499D01*
X155097467Y-92431499D02*
X155016515Y-92393404D01*
X155016515Y-92393404D02*
X154968896Y-92317213D01*
X154968896Y-92317213D02*
X154945086Y-92126737D01*
X154945086Y-92126737D02*
X155006991Y-92012451D01*
X155006991Y-92012451D02*
X155111753Y-91936261D01*
X155111753Y-91936261D02*
X155259372Y-91898166D01*
X155259372Y-91898166D02*
X155416515Y-91936261D01*
X155416515Y-91936261D02*
X155540324Y-92012451D01*
X155540324Y-92012451D02*
X155630800Y-92126737D01*
X155630800Y-92126737D02*
X155687943Y-92279118D01*
X155687943Y-92279118D02*
X155668896Y-92431499D01*
X155668896Y-92431499D02*
X155606991Y-92545785D01*
X155606991Y-92545785D02*
X155502229Y-92621975D01*
X155502229Y-92621975D02*
X155354610Y-92660070D01*
X155354610Y-92660070D02*
X155197467Y-92621975D01*
X155197467Y-92621975D02*
X155073657Y-92545785D01*
X154245086Y-92012451D02*
X154326039Y-92660070D01*
X154326039Y-92660070D02*
X154373658Y-92736261D01*
X154373658Y-92736261D02*
X154416515Y-92774356D01*
X154416515Y-92774356D02*
X154497467Y-92812451D01*
X154497467Y-92812451D02*
X154611753Y-92812451D01*
X154611753Y-92812451D02*
X154683182Y-92774356D01*
X154306991Y-92507690D02*
X154387944Y-92545785D01*
X154387944Y-92545785D02*
X154540325Y-92545785D01*
X154540325Y-92545785D02*
X154611753Y-92507690D01*
X154611753Y-92507690D02*
X154645086Y-92469594D01*
X154645086Y-92469594D02*
X154673658Y-92393404D01*
X154673658Y-92393404D02*
X154645086Y-92164832D01*
X154645086Y-92164832D02*
X154597467Y-92088642D01*
X154597467Y-92088642D02*
X154554610Y-92050547D01*
X154554610Y-92050547D02*
X154473658Y-92012451D01*
X154473658Y-92012451D02*
X154321277Y-92012451D01*
X154321277Y-92012451D02*
X154249848Y-92050547D01*
X153930800Y-92545785D02*
X153864134Y-92012451D01*
X153873657Y-92088642D02*
X153830800Y-92050547D01*
X153830800Y-92050547D02*
X153749848Y-92012451D01*
X153749848Y-92012451D02*
X153635562Y-92012451D01*
X153635562Y-92012451D02*
X153564134Y-92050547D01*
X153564134Y-92050547D02*
X153535562Y-92126737D01*
X153535562Y-92126737D02*
X153587943Y-92545785D01*
X153535562Y-92126737D02*
X153487943Y-92050547D01*
X153487943Y-92050547D02*
X153406991Y-92012451D01*
X153406991Y-92012451D02*
X153292705Y-92012451D01*
X153292705Y-92012451D02*
X153221276Y-92050547D01*
X153221276Y-92050547D02*
X153192705Y-92126737D01*
X153192705Y-92126737D02*
X153245086Y-92545785D01*
X152521276Y-92545785D02*
X152468895Y-92126737D01*
X152468895Y-92126737D02*
X152497467Y-92050547D01*
X152497467Y-92050547D02*
X152568895Y-92012451D01*
X152568895Y-92012451D02*
X152721276Y-92012451D01*
X152721276Y-92012451D02*
X152802228Y-92050547D01*
X152516514Y-92507690D02*
X152597467Y-92545785D01*
X152597467Y-92545785D02*
X152787943Y-92545785D01*
X152787943Y-92545785D02*
X152859371Y-92507690D01*
X152859371Y-92507690D02*
X152887943Y-92431499D01*
X152887943Y-92431499D02*
X152878419Y-92355309D01*
X152878419Y-92355309D02*
X152830800Y-92279118D01*
X152830800Y-92279118D02*
X152749848Y-92241023D01*
X152749848Y-92241023D02*
X152559371Y-92241023D01*
X152559371Y-92241023D02*
X152478419Y-92202928D01*
X152140323Y-92545785D02*
X152073657Y-92012451D01*
X152040323Y-91745785D02*
X152083180Y-91783880D01*
X152083180Y-91783880D02*
X152049847Y-91821975D01*
X152049847Y-91821975D02*
X152006990Y-91783880D01*
X152006990Y-91783880D02*
X152040323Y-91745785D01*
X152040323Y-91745785D02*
X152049847Y-91821975D01*
X151645086Y-92545785D02*
X151716514Y-92507690D01*
X151716514Y-92507690D02*
X151745086Y-92431499D01*
X151745086Y-92431499D02*
X151659371Y-91745785D01*
X151330799Y-92469594D02*
X151297466Y-92507690D01*
X151297466Y-92507690D02*
X151340323Y-92545785D01*
X151340323Y-92545785D02*
X151373657Y-92507690D01*
X151373657Y-92507690D02*
X151330799Y-92469594D01*
X151330799Y-92469594D02*
X151340323Y-92545785D01*
X150611752Y-92507690D02*
X150692705Y-92545785D01*
X150692705Y-92545785D02*
X150845086Y-92545785D01*
X150845086Y-92545785D02*
X150916514Y-92507690D01*
X150916514Y-92507690D02*
X150949847Y-92469594D01*
X150949847Y-92469594D02*
X150978419Y-92393404D01*
X150978419Y-92393404D02*
X150949847Y-92164832D01*
X150949847Y-92164832D02*
X150902228Y-92088642D01*
X150902228Y-92088642D02*
X150859371Y-92050547D01*
X150859371Y-92050547D02*
X150778419Y-92012451D01*
X150778419Y-92012451D02*
X150626038Y-92012451D01*
X150626038Y-92012451D02*
X150554609Y-92050547D01*
X150159372Y-92545785D02*
X150230800Y-92507690D01*
X150230800Y-92507690D02*
X150264133Y-92469594D01*
X150264133Y-92469594D02*
X150292705Y-92393404D01*
X150292705Y-92393404D02*
X150264133Y-92164832D01*
X150264133Y-92164832D02*
X150216514Y-92088642D01*
X150216514Y-92088642D02*
X150173657Y-92050547D01*
X150173657Y-92050547D02*
X150092705Y-92012451D01*
X150092705Y-92012451D02*
X149978419Y-92012451D01*
X149978419Y-92012451D02*
X149906991Y-92050547D01*
X149906991Y-92050547D02*
X149873657Y-92088642D01*
X149873657Y-92088642D02*
X149845086Y-92164832D01*
X149845086Y-92164832D02*
X149873657Y-92393404D01*
X149873657Y-92393404D02*
X149921276Y-92469594D01*
X149921276Y-92469594D02*
X149964133Y-92507690D01*
X149964133Y-92507690D02*
X150045086Y-92545785D01*
X150045086Y-92545785D02*
X150159372Y-92545785D01*
X149549847Y-92545785D02*
X149483181Y-92012451D01*
X149492704Y-92088642D02*
X149449847Y-92050547D01*
X149449847Y-92050547D02*
X149368895Y-92012451D01*
X149368895Y-92012451D02*
X149254609Y-92012451D01*
X149254609Y-92012451D02*
X149183181Y-92050547D01*
X149183181Y-92050547D02*
X149154609Y-92126737D01*
X149154609Y-92126737D02*
X149206990Y-92545785D01*
X149154609Y-92126737D02*
X149106990Y-92050547D01*
X149106990Y-92050547D02*
X149026038Y-92012451D01*
X149026038Y-92012451D02*
X148911752Y-92012451D01*
X148911752Y-92012451D02*
X148840323Y-92050547D01*
X148840323Y-92050547D02*
X148811752Y-92126737D01*
X148811752Y-92126737D02*
X148864133Y-92545785D01*
D11*
G36*
X189923182Y-82320000D02*
G01*
X189417599Y-79888073D01*
X190169378Y-79888073D01*
X190069727Y-79409602D01*
X187999769Y-79409602D01*
X188099420Y-79888073D01*
X188851200Y-79888073D01*
X189356782Y-82320000D01*
X189923182Y-82320000D01*
G37*
G36*
X188147780Y-82320000D02*
G01*
X187489057Y-79153147D01*
X186906538Y-79056427D01*
X187129288Y-80127676D01*
X186982630Y-80088050D01*
X186951235Y-80081514D01*
X186805599Y-80061012D01*
X186778311Y-80060265D01*
X186628468Y-80068279D01*
X186484418Y-80096454D01*
X186343620Y-80158439D01*
X186302037Y-80188492D01*
X186202466Y-80298573D01*
X186138959Y-80436475D01*
X186116657Y-80543866D01*
X186107355Y-80692815D01*
X186114400Y-80839596D01*
X186136051Y-80998432D01*
X186150362Y-81072896D01*
X186409748Y-82320000D01*
X186976880Y-82320000D01*
X186733614Y-81148367D01*
X186706349Y-80993894D01*
X186694425Y-80847513D01*
X186694780Y-80814242D01*
X186725099Y-80669792D01*
X186755596Y-80625198D01*
X186895390Y-80566520D01*
X186940976Y-80564382D01*
X187090470Y-80581126D01*
X187100711Y-80583433D01*
X187231137Y-80619337D01*
X187585045Y-82320000D01*
X188147780Y-82320000D01*
G37*
G36*
X184615067Y-80054174D02*
G01*
X184767738Y-80064512D01*
X184919378Y-80083712D01*
X184944211Y-80087673D01*
X185088321Y-80114538D01*
X185231521Y-80152588D01*
X185250572Y-80619337D01*
X185144505Y-80590153D01*
X184997048Y-80562916D01*
X184987470Y-80561474D01*
X184832475Y-80544621D01*
X184684173Y-80539469D01*
X184571344Y-80546579D01*
X184431381Y-80590027D01*
X184405178Y-80606492D01*
X184315610Y-80726315D01*
X184304848Y-80770645D01*
X184310481Y-80921221D01*
X184325136Y-80993028D01*
X184349239Y-80987923D01*
X184497327Y-80965917D01*
X184559179Y-80960121D01*
X184708353Y-80954926D01*
X184851077Y-80961295D01*
X185005595Y-80983011D01*
X185157515Y-81020139D01*
X185288505Y-81069126D01*
X185418874Y-81142020D01*
X185534870Y-81234829D01*
X185630969Y-81350250D01*
X185702651Y-81491993D01*
X185746629Y-81643691D01*
X185753790Y-81680938D01*
X185769344Y-81829987D01*
X185753956Y-81985875D01*
X185710639Y-82098175D01*
X185616203Y-82210823D01*
X185498051Y-82283363D01*
X185351688Y-82332456D01*
X185279345Y-82347302D01*
X185133644Y-82365200D01*
X184986057Y-82370558D01*
X184892108Y-82369681D01*
X184729582Y-82363686D01*
X184575518Y-82352010D01*
X184429916Y-82334654D01*
X184354153Y-82323595D01*
X184196845Y-82298368D01*
X184048897Y-82269441D01*
X183864341Y-81383572D01*
X184406468Y-81383572D01*
X184511981Y-81891353D01*
X184520494Y-81891903D01*
X184668785Y-81900146D01*
X184696527Y-81901413D01*
X184847571Y-81904542D01*
X184978100Y-81893780D01*
X185120146Y-81839330D01*
X185173864Y-81778879D01*
X185184626Y-81626838D01*
X185172164Y-81581598D01*
X185086441Y-81461242D01*
X185046736Y-81434955D01*
X184903991Y-81383572D01*
X184828641Y-81371475D01*
X184677578Y-81362323D01*
X184535429Y-81368918D01*
X184406468Y-81383572D01*
X183864341Y-81383572D01*
X183774124Y-80950530D01*
X183767369Y-80916203D01*
X183746606Y-80769030D01*
X183742027Y-80619508D01*
X183759469Y-80472058D01*
X183784584Y-80388320D01*
X183865829Y-80256247D01*
X183980753Y-80161381D01*
X184040688Y-80129929D01*
X184186318Y-80083017D01*
X184346751Y-80059028D01*
X184512714Y-80052205D01*
X184615067Y-80054174D01*
G37*
G36*
X182236859Y-82370558D02*
G01*
X182387355Y-82360111D01*
X182538480Y-82319994D01*
X182639860Y-82263579D01*
X182744766Y-82150258D01*
X182805007Y-82010874D01*
X182818646Y-81948506D01*
X182831310Y-81794791D01*
X182822838Y-81636568D01*
X182798939Y-81479116D01*
X182791535Y-81442191D01*
X182400990Y-79564940D01*
X183001095Y-79564940D01*
X182900711Y-79082072D01*
X181734207Y-79082072D01*
X182233928Y-81483956D01*
X182251162Y-81629706D01*
X182240523Y-81715498D01*
X182153328Y-81832735D01*
X182009920Y-81866408D01*
X182004584Y-81866441D01*
X181855767Y-81856298D01*
X181709295Y-81820279D01*
X181570672Y-81769995D01*
X181547362Y-81761660D01*
X181570809Y-82227676D01*
X181707051Y-82282183D01*
X181775973Y-82307543D01*
X181921843Y-82345943D01*
X182068117Y-82364404D01*
X182218974Y-82370496D01*
X182236859Y-82370558D01*
G37*
G36*
X179913881Y-80054174D02*
G01*
X180066552Y-80064512D01*
X180218192Y-80083712D01*
X180243025Y-80087673D01*
X180387135Y-80114538D01*
X180530334Y-80152588D01*
X180549385Y-80619337D01*
X180443319Y-80590153D01*
X180295861Y-80562916D01*
X180286284Y-80561474D01*
X180131289Y-80544621D01*
X179982986Y-80539469D01*
X179870157Y-80546579D01*
X179730195Y-80590027D01*
X179703991Y-80606492D01*
X179614424Y-80726315D01*
X179603662Y-80770645D01*
X179609295Y-80921221D01*
X179623949Y-80993028D01*
X179648053Y-80987923D01*
X179796140Y-80965917D01*
X179857993Y-80960121D01*
X180007166Y-80954926D01*
X180149891Y-80961295D01*
X180304409Y-80983011D01*
X180456329Y-81020139D01*
X180587318Y-81069126D01*
X180717688Y-81142020D01*
X180833684Y-81234829D01*
X180929782Y-81350250D01*
X181001465Y-81491993D01*
X181045443Y-81643691D01*
X181052604Y-81680938D01*
X181068157Y-81829987D01*
X181052770Y-81985875D01*
X181009453Y-82098175D01*
X180915017Y-82210823D01*
X180796864Y-82283363D01*
X180650502Y-82332456D01*
X180578159Y-82347302D01*
X180432458Y-82365200D01*
X180284870Y-82370558D01*
X180190922Y-82369681D01*
X180028395Y-82363686D01*
X179874331Y-82352010D01*
X179728729Y-82334654D01*
X179652966Y-82323595D01*
X179495659Y-82298368D01*
X179347711Y-82269441D01*
X179163154Y-81383572D01*
X179705282Y-81383572D01*
X179810795Y-81891353D01*
X179819307Y-81891903D01*
X179967599Y-81900146D01*
X179995341Y-81901413D01*
X180146385Y-81904542D01*
X180276913Y-81893780D01*
X180418960Y-81839330D01*
X180472678Y-81778879D01*
X180483440Y-81626838D01*
X180470978Y-81581598D01*
X180385254Y-81461242D01*
X180345549Y-81434955D01*
X180202805Y-81383572D01*
X180127455Y-81371475D01*
X179976392Y-81362323D01*
X179834242Y-81368918D01*
X179705282Y-81383572D01*
X179163154Y-81383572D01*
X179072937Y-80950530D01*
X179066183Y-80916203D01*
X179045420Y-80769030D01*
X179040840Y-80619508D01*
X179058283Y-80472058D01*
X179083397Y-80388320D01*
X179164643Y-80256247D01*
X179279567Y-80161381D01*
X179339502Y-80129929D01*
X179485132Y-80083017D01*
X179645565Y-80059028D01*
X179811528Y-80052205D01*
X179913881Y-80054174D01*
G37*
G36*
X178905875Y-82320000D02*
G01*
X178464040Y-80195087D01*
X178320952Y-80157786D01*
X178169195Y-80126215D01*
X178088883Y-80113021D01*
X177939057Y-80094488D01*
X177791870Y-80086016D01*
X177775275Y-80085910D01*
X177626606Y-80099763D01*
X177568646Y-80115219D01*
X177443027Y-80194412D01*
X177425031Y-80215603D01*
X177288004Y-80151517D01*
X177225729Y-80127676D01*
X177081301Y-80091783D01*
X176994919Y-80085910D01*
X176844613Y-80097859D01*
X176699395Y-80147627D01*
X176646140Y-80187027D01*
X176564624Y-80312690D01*
X176535072Y-80464118D01*
X176534033Y-80488911D01*
X176538645Y-80639824D01*
X176556964Y-80798505D01*
X176584952Y-80958816D01*
X176592651Y-80996692D01*
X176867424Y-82320000D01*
X177327578Y-82320000D01*
X177046943Y-80971779D01*
X177022739Y-80826192D01*
X177019832Y-80709462D01*
X177065994Y-80593691D01*
X177151723Y-80564382D01*
X177243314Y-80570976D01*
X177331242Y-80598087D01*
X177342279Y-80748443D01*
X177348094Y-80795191D01*
X177372047Y-80947637D01*
X177389127Y-81034794D01*
X177482184Y-81480293D01*
X177942337Y-81480293D01*
X177836092Y-80971779D01*
X177811362Y-80823058D01*
X177810194Y-80675163D01*
X177814110Y-80656706D01*
X177930367Y-80564472D01*
X177936475Y-80564382D01*
X178005352Y-80568778D01*
X178085219Y-80585631D01*
X178445722Y-82320000D01*
X178905875Y-82320000D01*
G37*
G36*
X175546315Y-82370558D02*
G01*
X175711087Y-82362315D01*
X175868210Y-82333335D01*
X176007715Y-82276663D01*
X176063621Y-82238667D01*
X176166489Y-82125082D01*
X176229996Y-81983265D01*
X176250467Y-81873035D01*
X176256750Y-81720650D01*
X176248088Y-81572737D01*
X176225863Y-81414622D01*
X176211632Y-81341074D01*
X175955910Y-80110823D01*
X175389511Y-80110823D01*
X175629846Y-81265603D01*
X175656404Y-81418318D01*
X175668715Y-81567178D01*
X175668681Y-81601926D01*
X175638627Y-81748255D01*
X175602735Y-81801228D01*
X175467684Y-81862365D01*
X175404166Y-81866441D01*
X175274473Y-81860579D01*
X175141116Y-81845191D01*
X174780614Y-80110823D01*
X174210551Y-80110823D01*
X174654584Y-82244528D01*
X174799197Y-82278463D01*
X174953722Y-82309787D01*
X175053189Y-82328060D01*
X175202096Y-82350471D01*
X175355725Y-82364581D01*
X175514078Y-82370392D01*
X175546315Y-82370558D01*
G37*
G36*
X173302700Y-82370558D02*
G01*
X173456413Y-82364527D01*
X173603674Y-82344681D01*
X173630963Y-82339050D01*
X173780345Y-82300359D01*
X173880823Y-82265778D01*
X174017653Y-82209229D01*
X174062540Y-82189574D01*
X173870565Y-81702309D01*
X173730012Y-81760581D01*
X173586918Y-81813514D01*
X173554759Y-81824675D01*
X173412323Y-81862628D01*
X173266018Y-81881232D01*
X173197187Y-81883293D01*
X173042156Y-81878093D01*
X172893184Y-81857417D01*
X172870390Y-81851786D01*
X172746438Y-81765436D01*
X172733370Y-81727955D01*
X172767808Y-81595331D01*
X172895075Y-81516705D01*
X172912156Y-81509602D01*
X173055470Y-81455209D01*
X173117320Y-81434131D01*
X173262205Y-81382496D01*
X173351060Y-81347669D01*
X173483073Y-81280683D01*
X173562086Y-81223838D01*
X173661142Y-81107742D01*
X173696908Y-81033328D01*
X173720504Y-80885002D01*
X173704235Y-80744633D01*
X173657687Y-80596709D01*
X173581148Y-80458943D01*
X173535708Y-80398785D01*
X173425455Y-80289494D01*
X173301580Y-80204880D01*
X173183998Y-80146727D01*
X173034762Y-80096881D01*
X172883319Y-80067804D01*
X172735079Y-80054512D01*
X172635917Y-80052205D01*
X172483933Y-80056945D01*
X172329749Y-80072777D01*
X172251235Y-80085910D01*
X172106818Y-80119810D01*
X171966501Y-80170918D01*
X171950816Y-80178234D01*
X172144256Y-80669162D01*
X172277613Y-80620802D01*
X172418771Y-80578917D01*
X172482044Y-80564382D01*
X172634486Y-80542973D01*
X172733370Y-80539469D01*
X172885815Y-80548176D01*
X173028216Y-80588980D01*
X173033789Y-80592226D01*
X173132588Y-80703336D01*
X173133440Y-80707264D01*
X173101200Y-80825233D01*
X172975835Y-80908352D01*
X172964912Y-80913161D01*
X172828000Y-80969529D01*
X172769274Y-80993028D01*
X172631469Y-81046499D01*
X172534801Y-81087550D01*
X172400531Y-81158369D01*
X172319378Y-81217243D01*
X172221261Y-81330072D01*
X172181625Y-81412882D01*
X172158261Y-81563552D01*
X172175031Y-81706706D01*
X172220500Y-81851290D01*
X172294992Y-81984991D01*
X172339162Y-82043028D01*
X172448487Y-82147476D01*
X172575677Y-82227832D01*
X172698932Y-82282630D01*
X172841191Y-82325134D01*
X172985745Y-82351238D01*
X173147334Y-82366350D01*
X173302700Y-82370558D01*
G37*
G36*
X170372427Y-79352953D02*
G01*
X170522362Y-79385239D01*
X170665519Y-79439048D01*
X170801898Y-79514382D01*
X170851138Y-79548130D01*
X170976274Y-79652418D01*
X171078405Y-79760725D01*
X171173664Y-79884950D01*
X171262051Y-80025094D01*
X171309003Y-80112071D01*
X171374150Y-80252025D01*
X171432960Y-80403365D01*
X171485433Y-80566091D01*
X171524320Y-80710393D01*
X171558806Y-80862602D01*
X171565115Y-80893409D01*
X171592217Y-81042914D01*
X171614963Y-81212354D01*
X171627044Y-81370924D01*
X171627660Y-81542183D01*
X171613761Y-81698646D01*
X171590422Y-81820241D01*
X171543116Y-81964017D01*
X171467780Y-82100693D01*
X171369030Y-82210823D01*
X171290728Y-82269341D01*
X171155790Y-82334417D01*
X170999872Y-82372252D01*
X170843663Y-82383014D01*
X170685165Y-82372252D01*
X170534269Y-82339966D01*
X170390974Y-82286157D01*
X170255282Y-82210823D01*
X170206454Y-82177062D01*
X170082417Y-82072614D01*
X169981247Y-81964017D01*
X169886950Y-81839360D01*
X169799525Y-81698646D01*
X169752917Y-81611050D01*
X169688199Y-81470598D01*
X169629715Y-81319275D01*
X169577465Y-81157082D01*
X169538686Y-81013617D01*
X169504235Y-80862602D01*
X169497925Y-80831528D01*
X169470773Y-80680900D01*
X169447873Y-80510584D01*
X169435533Y-80351653D01*
X169434615Y-80201549D01*
X170002083Y-80201549D01*
X170003956Y-80348227D01*
X170008833Y-80406273D01*
X170026837Y-80559201D01*
X170050137Y-80706381D01*
X170080160Y-80862602D01*
X170094986Y-80931135D01*
X170130941Y-81080144D01*
X170170489Y-81221966D01*
X170218646Y-81371116D01*
X170261785Y-81480751D01*
X170330374Y-81612655D01*
X170425275Y-81740411D01*
X170466076Y-81780307D01*
X170597830Y-81856041D01*
X170743279Y-81878897D01*
X170897217Y-81848951D01*
X171007062Y-81742609D01*
X171036737Y-81668558D01*
X171061518Y-81523025D01*
X171059818Y-81375512D01*
X171054781Y-81316848D01*
X171036577Y-81163376D01*
X171013341Y-81016931D01*
X170983614Y-80862602D01*
X170968788Y-80793085D01*
X170932833Y-80642698D01*
X170893285Y-80500657D01*
X170845129Y-80352623D01*
X170802035Y-80243630D01*
X170733659Y-80112308D01*
X170639232Y-79984794D01*
X170598220Y-79944898D01*
X170466065Y-79869163D01*
X170320495Y-79846308D01*
X170308302Y-79846441D01*
X170164046Y-79876254D01*
X170055247Y-79982595D01*
X170026213Y-80056555D01*
X170002083Y-80201549D01*
X169434615Y-80201549D01*
X169434487Y-80180625D01*
X169447815Y-80025094D01*
X169470579Y-79903996D01*
X169517038Y-79760725D01*
X169591311Y-79624396D01*
X169688883Y-79514382D01*
X169766566Y-79455864D01*
X169901349Y-79390788D01*
X170058041Y-79352953D01*
X170215715Y-79342191D01*
X170372427Y-79352953D01*
G37*
G36*
X169343035Y-82320000D02*
G01*
X168897536Y-80178234D01*
X168743523Y-80142030D01*
X168589856Y-80112560D01*
X168505526Y-80098367D01*
X168357779Y-80078274D01*
X168204879Y-80065623D01*
X168046827Y-80060414D01*
X168014598Y-80060265D01*
X167853627Y-80068279D01*
X167699357Y-80096454D01*
X167561255Y-80151552D01*
X167505352Y-80188492D01*
X167400869Y-80298573D01*
X167334718Y-80436475D01*
X167311912Y-80543866D01*
X167302609Y-80692815D01*
X167309655Y-80839596D01*
X167331306Y-80998432D01*
X167345617Y-81072896D01*
X167605003Y-82320000D01*
X168172135Y-82320000D01*
X167928869Y-81148367D01*
X167901241Y-80993894D01*
X167887996Y-80847513D01*
X167887836Y-80814242D01*
X167919950Y-80669792D01*
X167953782Y-80625198D01*
X168091581Y-80568183D01*
X168156748Y-80564382D01*
X168282777Y-80570976D01*
X168419797Y-80585631D01*
X168780300Y-82320000D01*
X169343035Y-82320000D01*
G37*
G36*
X165747078Y-80056784D02*
G01*
X165893601Y-80080827D01*
X166041360Y-80125478D01*
X166162618Y-80178715D01*
X166291539Y-80254466D01*
X166415785Y-80348227D01*
X166426821Y-80357594D01*
X166542077Y-80469883D01*
X166637089Y-80586690D01*
X166722798Y-80717522D01*
X166761645Y-80788233D01*
X166823096Y-80924529D01*
X166873650Y-81072418D01*
X166913307Y-81231898D01*
X166939509Y-81389958D01*
X166949618Y-81556516D01*
X166938570Y-81708054D01*
X166900851Y-81860579D01*
X166882501Y-81907013D01*
X166802359Y-82045888D01*
X166693022Y-82160291D01*
X166569658Y-82242330D01*
X166424262Y-82304315D01*
X166278575Y-82342383D01*
X166117409Y-82364422D01*
X165963691Y-82370558D01*
X165887562Y-82369373D01*
X165730038Y-82358675D01*
X165582672Y-82336852D01*
X165549893Y-82330352D01*
X165402030Y-82295250D01*
X165252944Y-82248925D01*
X165227299Y-81757264D01*
X165360937Y-81796555D01*
X165504270Y-81830537D01*
X165545543Y-81838952D01*
X165690901Y-81859568D01*
X165837662Y-81866441D01*
X165982607Y-81856645D01*
X166132528Y-81818069D01*
X166261912Y-81742609D01*
X166310890Y-81692978D01*
X166372279Y-81552329D01*
X166365959Y-81404089D01*
X164961318Y-81404089D01*
X164934207Y-81301507D01*
X164907829Y-81185736D01*
X164880656Y-81029779D01*
X164865486Y-80865281D01*
X164865636Y-80852580D01*
X165403225Y-80852580D01*
X165416343Y-81001088D01*
X166282428Y-81001088D01*
X166246624Y-80905043D01*
X166174717Y-80774675D01*
X166110801Y-80695718D01*
X165995198Y-80604682D01*
X165884999Y-80557874D01*
X165739476Y-80539469D01*
X165643441Y-80547435D01*
X165508667Y-80606880D01*
X165473175Y-80642646D01*
X165411214Y-80779071D01*
X165403225Y-80852580D01*
X164865636Y-80852580D01*
X164867261Y-80715438D01*
X164889511Y-80564382D01*
X164939099Y-80418795D01*
X165023564Y-80286253D01*
X165139371Y-80182630D01*
X165202072Y-80145057D01*
X165346471Y-80089014D01*
X165498088Y-80060356D01*
X165650083Y-80052205D01*
X165747078Y-80056784D01*
G37*
D12*
X146309523Y-72059580D02*
X146357142Y-72107200D01*
X146357142Y-72107200D02*
X146499999Y-72154819D01*
X146499999Y-72154819D02*
X146595237Y-72154819D01*
X146595237Y-72154819D02*
X146738094Y-72107200D01*
X146738094Y-72107200D02*
X146833332Y-72011961D01*
X146833332Y-72011961D02*
X146880951Y-71916723D01*
X146880951Y-71916723D02*
X146928570Y-71726247D01*
X146928570Y-71726247D02*
X146928570Y-71583390D01*
X146928570Y-71583390D02*
X146880951Y-71392914D01*
X146880951Y-71392914D02*
X146833332Y-71297676D01*
X146833332Y-71297676D02*
X146738094Y-71202438D01*
X146738094Y-71202438D02*
X146595237Y-71154819D01*
X146595237Y-71154819D02*
X146499999Y-71154819D01*
X146499999Y-71154819D02*
X146357142Y-71202438D01*
X146357142Y-71202438D02*
X146309523Y-71250057D01*
X145880951Y-72154819D02*
X145880951Y-71154819D01*
X145880951Y-71631009D02*
X145309523Y-71631009D01*
X145309523Y-72154819D02*
X145309523Y-71154819D01*
X144880951Y-71250057D02*
X144833332Y-71202438D01*
X144833332Y-71202438D02*
X144738094Y-71154819D01*
X144738094Y-71154819D02*
X144499999Y-71154819D01*
X144499999Y-71154819D02*
X144404761Y-71202438D01*
X144404761Y-71202438D02*
X144357142Y-71250057D01*
X144357142Y-71250057D02*
X144309523Y-71345295D01*
X144309523Y-71345295D02*
X144309523Y-71440533D01*
X144309523Y-71440533D02*
X144357142Y-71583390D01*
X144357142Y-71583390D02*
X144928570Y-72154819D01*
X144928570Y-72154819D02*
X144309523Y-72154819D01*
X143880951Y-71773866D02*
X143119047Y-71773866D01*
X146309523Y-75289580D02*
X146357142Y-75337200D01*
X146357142Y-75337200D02*
X146499999Y-75384819D01*
X146499999Y-75384819D02*
X146595237Y-75384819D01*
X146595237Y-75384819D02*
X146738094Y-75337200D01*
X146738094Y-75337200D02*
X146833332Y-75241961D01*
X146833332Y-75241961D02*
X146880951Y-75146723D01*
X146880951Y-75146723D02*
X146928570Y-74956247D01*
X146928570Y-74956247D02*
X146928570Y-74813390D01*
X146928570Y-74813390D02*
X146880951Y-74622914D01*
X146880951Y-74622914D02*
X146833332Y-74527676D01*
X146833332Y-74527676D02*
X146738094Y-74432438D01*
X146738094Y-74432438D02*
X146595237Y-74384819D01*
X146595237Y-74384819D02*
X146499999Y-74384819D01*
X146499999Y-74384819D02*
X146357142Y-74432438D01*
X146357142Y-74432438D02*
X146309523Y-74480057D01*
X145880951Y-75384819D02*
X145880951Y-74384819D01*
X145880951Y-74861009D02*
X145309523Y-74861009D01*
X145309523Y-75384819D02*
X145309523Y-74384819D01*
X144880951Y-74480057D02*
X144833332Y-74432438D01*
X144833332Y-74432438D02*
X144738094Y-74384819D01*
X144738094Y-74384819D02*
X144499999Y-74384819D01*
X144499999Y-74384819D02*
X144404761Y-74432438D01*
X144404761Y-74432438D02*
X144357142Y-74480057D01*
X144357142Y-74480057D02*
X144309523Y-74575295D01*
X144309523Y-74575295D02*
X144309523Y-74670533D01*
X144309523Y-74670533D02*
X144357142Y-74813390D01*
X144357142Y-74813390D02*
X144928570Y-75384819D01*
X144928570Y-75384819D02*
X144309523Y-75384819D01*
X143880951Y-75003866D02*
X143119047Y-75003866D01*
X143499999Y-75384819D02*
X143499999Y-74622914D01*
X146309523Y-87354580D02*
X146357142Y-87402200D01*
X146357142Y-87402200D02*
X146499999Y-87449819D01*
X146499999Y-87449819D02*
X146595237Y-87449819D01*
X146595237Y-87449819D02*
X146738094Y-87402200D01*
X146738094Y-87402200D02*
X146833332Y-87306961D01*
X146833332Y-87306961D02*
X146880951Y-87211723D01*
X146880951Y-87211723D02*
X146928570Y-87021247D01*
X146928570Y-87021247D02*
X146928570Y-86878390D01*
X146928570Y-86878390D02*
X146880951Y-86687914D01*
X146880951Y-86687914D02*
X146833332Y-86592676D01*
X146833332Y-86592676D02*
X146738094Y-86497438D01*
X146738094Y-86497438D02*
X146595237Y-86449819D01*
X146595237Y-86449819D02*
X146499999Y-86449819D01*
X146499999Y-86449819D02*
X146357142Y-86497438D01*
X146357142Y-86497438D02*
X146309523Y-86545057D01*
X145880951Y-87449819D02*
X145880951Y-86449819D01*
X145880951Y-86926009D02*
X145309523Y-86926009D01*
X145309523Y-87449819D02*
X145309523Y-86449819D01*
X144309523Y-87449819D02*
X144880951Y-87449819D01*
X144595237Y-87449819D02*
X144595237Y-86449819D01*
X144595237Y-86449819D02*
X144690475Y-86592676D01*
X144690475Y-86592676D02*
X144785713Y-86687914D01*
X144785713Y-86687914D02*
X144880951Y-86735533D01*
X143880951Y-87068866D02*
X143119047Y-87068866D01*
X143499999Y-87449819D02*
X143499999Y-86687914D01*
X146309523Y-63459580D02*
X146357142Y-63507200D01*
X146357142Y-63507200D02*
X146499999Y-63554819D01*
X146499999Y-63554819D02*
X146595237Y-63554819D01*
X146595237Y-63554819D02*
X146738094Y-63507200D01*
X146738094Y-63507200D02*
X146833332Y-63411961D01*
X146833332Y-63411961D02*
X146880951Y-63316723D01*
X146880951Y-63316723D02*
X146928570Y-63126247D01*
X146928570Y-63126247D02*
X146928570Y-62983390D01*
X146928570Y-62983390D02*
X146880951Y-62792914D01*
X146880951Y-62792914D02*
X146833332Y-62697676D01*
X146833332Y-62697676D02*
X146738094Y-62602438D01*
X146738094Y-62602438D02*
X146595237Y-62554819D01*
X146595237Y-62554819D02*
X146499999Y-62554819D01*
X146499999Y-62554819D02*
X146357142Y-62602438D01*
X146357142Y-62602438D02*
X146309523Y-62650057D01*
X145880951Y-63554819D02*
X145880951Y-62554819D01*
X145880951Y-63031009D02*
X145309523Y-63031009D01*
X145309523Y-63554819D02*
X145309523Y-62554819D01*
X144928570Y-62554819D02*
X144309523Y-62554819D01*
X144309523Y-62554819D02*
X144642856Y-62935771D01*
X144642856Y-62935771D02*
X144499999Y-62935771D01*
X144499999Y-62935771D02*
X144404761Y-62983390D01*
X144404761Y-62983390D02*
X144357142Y-63031009D01*
X144357142Y-63031009D02*
X144309523Y-63126247D01*
X144309523Y-63126247D02*
X144309523Y-63364342D01*
X144309523Y-63364342D02*
X144357142Y-63459580D01*
X144357142Y-63459580D02*
X144404761Y-63507200D01*
X144404761Y-63507200D02*
X144499999Y-63554819D01*
X144499999Y-63554819D02*
X144785713Y-63554819D01*
X144785713Y-63554819D02*
X144880951Y-63507200D01*
X144880951Y-63507200D02*
X144928570Y-63459580D01*
X143880951Y-63173866D02*
X143119047Y-63173866D01*
X143499999Y-63554819D02*
X143499999Y-62792914D01*
X145571428Y-68018819D02*
X145904761Y-67542628D01*
X146142856Y-68018819D02*
X146142856Y-67018819D01*
X146142856Y-67018819D02*
X145761904Y-67018819D01*
X145761904Y-67018819D02*
X145666666Y-67066438D01*
X145666666Y-67066438D02*
X145619047Y-67114057D01*
X145619047Y-67114057D02*
X145571428Y-67209295D01*
X145571428Y-67209295D02*
X145571428Y-67352152D01*
X145571428Y-67352152D02*
X145619047Y-67447390D01*
X145619047Y-67447390D02*
X145666666Y-67495009D01*
X145666666Y-67495009D02*
X145761904Y-67542628D01*
X145761904Y-67542628D02*
X146142856Y-67542628D01*
X145142856Y-67495009D02*
X144809523Y-67495009D01*
X144666666Y-68018819D02*
X145142856Y-68018819D01*
X145142856Y-68018819D02*
X145142856Y-67018819D01*
X145142856Y-67018819D02*
X144666666Y-67018819D01*
X143904761Y-67495009D02*
X144238094Y-67495009D01*
X144238094Y-68018819D02*
X144238094Y-67018819D01*
X144238094Y-67018819D02*
X143761904Y-67018819D01*
X146309523Y-84159580D02*
X146357142Y-84207200D01*
X146357142Y-84207200D02*
X146499999Y-84254819D01*
X146499999Y-84254819D02*
X146595237Y-84254819D01*
X146595237Y-84254819D02*
X146738094Y-84207200D01*
X146738094Y-84207200D02*
X146833332Y-84111961D01*
X146833332Y-84111961D02*
X146880951Y-84016723D01*
X146880951Y-84016723D02*
X146928570Y-83826247D01*
X146928570Y-83826247D02*
X146928570Y-83683390D01*
X146928570Y-83683390D02*
X146880951Y-83492914D01*
X146880951Y-83492914D02*
X146833332Y-83397676D01*
X146833332Y-83397676D02*
X146738094Y-83302438D01*
X146738094Y-83302438D02*
X146595237Y-83254819D01*
X146595237Y-83254819D02*
X146499999Y-83254819D01*
X146499999Y-83254819D02*
X146357142Y-83302438D01*
X146357142Y-83302438D02*
X146309523Y-83350057D01*
X145880951Y-84254819D02*
X145880951Y-83254819D01*
X145880951Y-83731009D02*
X145309523Y-83731009D01*
X145309523Y-84254819D02*
X145309523Y-83254819D01*
X144309523Y-84254819D02*
X144880951Y-84254819D01*
X144595237Y-84254819D02*
X144595237Y-83254819D01*
X144595237Y-83254819D02*
X144690475Y-83397676D01*
X144690475Y-83397676D02*
X144785713Y-83492914D01*
X144785713Y-83492914D02*
X144880951Y-83540533D01*
X143880951Y-83873866D02*
X143119047Y-83873866D01*
X146309523Y-60159580D02*
X146357142Y-60207200D01*
X146357142Y-60207200D02*
X146499999Y-60254819D01*
X146499999Y-60254819D02*
X146595237Y-60254819D01*
X146595237Y-60254819D02*
X146738094Y-60207200D01*
X146738094Y-60207200D02*
X146833332Y-60111961D01*
X146833332Y-60111961D02*
X146880951Y-60016723D01*
X146880951Y-60016723D02*
X146928570Y-59826247D01*
X146928570Y-59826247D02*
X146928570Y-59683390D01*
X146928570Y-59683390D02*
X146880951Y-59492914D01*
X146880951Y-59492914D02*
X146833332Y-59397676D01*
X146833332Y-59397676D02*
X146738094Y-59302438D01*
X146738094Y-59302438D02*
X146595237Y-59254819D01*
X146595237Y-59254819D02*
X146499999Y-59254819D01*
X146499999Y-59254819D02*
X146357142Y-59302438D01*
X146357142Y-59302438D02*
X146309523Y-59350057D01*
X145880951Y-60254819D02*
X145880951Y-59254819D01*
X145880951Y-59731009D02*
X145309523Y-59731009D01*
X145309523Y-60254819D02*
X145309523Y-59254819D01*
X144928570Y-59254819D02*
X144309523Y-59254819D01*
X144309523Y-59254819D02*
X144642856Y-59635771D01*
X144642856Y-59635771D02*
X144499999Y-59635771D01*
X144499999Y-59635771D02*
X144404761Y-59683390D01*
X144404761Y-59683390D02*
X144357142Y-59731009D01*
X144357142Y-59731009D02*
X144309523Y-59826247D01*
X144309523Y-59826247D02*
X144309523Y-60064342D01*
X144309523Y-60064342D02*
X144357142Y-60159580D01*
X144357142Y-60159580D02*
X144404761Y-60207200D01*
X144404761Y-60207200D02*
X144499999Y-60254819D01*
X144499999Y-60254819D02*
X144785713Y-60254819D01*
X144785713Y-60254819D02*
X144880951Y-60207200D01*
X144880951Y-60207200D02*
X144928570Y-60159580D01*
X143880951Y-59873866D02*
X143119047Y-59873866D01*
D13*
%TO.C,G\u002A\u002A\u002A*%
G36*
X177135829Y-71296780D02*
G01*
X177235244Y-71304333D01*
X177302801Y-71329012D01*
X177362951Y-71378576D01*
X177374130Y-71390278D01*
X177435271Y-71496496D01*
X177435443Y-71608891D01*
X177374373Y-71719304D01*
X177329418Y-71762323D01*
X177271802Y-71791721D01*
X177185556Y-71812192D01*
X177053745Y-71829561D01*
X176978421Y-71839241D01*
X176652377Y-71915817D01*
X176360160Y-72044998D01*
X176101842Y-72226744D01*
X175877494Y-72461019D01*
X175758264Y-72632832D01*
X175621585Y-72912909D01*
X175535759Y-73212007D01*
X175506125Y-73514969D01*
X175506241Y-73657808D01*
X175701630Y-73758949D01*
X175955610Y-73915176D01*
X176216262Y-74135104D01*
X176441644Y-74391801D01*
X176626351Y-74676764D01*
X176764977Y-74981490D01*
X176852117Y-75297476D01*
X176882364Y-75616220D01*
X176881977Y-75658911D01*
X176873976Y-75757930D01*
X176850674Y-75824250D01*
X176805584Y-75880166D01*
X176766194Y-75912789D01*
X176657678Y-75955131D01*
X176545685Y-75945493D01*
X176449080Y-75883691D01*
X176438254Y-75871294D01*
X176400474Y-75805067D01*
X176373118Y-75706246D01*
X176351681Y-75559855D01*
X176348125Y-75530076D01*
X176291559Y-75235715D01*
X176197043Y-74980529D01*
X176057980Y-74750504D01*
X175867779Y-74531630D01*
X175821052Y-74486154D01*
X175609578Y-74313160D01*
X175385140Y-74186705D01*
X175133051Y-74099854D01*
X174838626Y-74045672D01*
X174743530Y-74031638D01*
X174600270Y-73995613D01*
X174507469Y-73943826D01*
X174457432Y-73870954D01*
X174442463Y-73771675D01*
X174457448Y-73666078D01*
X174514416Y-73581111D01*
X174617926Y-73532519D01*
X174772194Y-73517045D01*
X174965897Y-73517045D01*
X175000192Y-73251372D01*
X175025542Y-73089195D01*
X175109320Y-72765307D01*
X175237060Y-72473026D01*
X175414877Y-72199931D01*
X175648884Y-71933601D01*
X175680244Y-71902110D01*
X175807695Y-71781463D01*
X175922173Y-71690337D01*
X176045331Y-71612986D01*
X176198820Y-71533664D01*
X176477529Y-71415840D01*
X176799671Y-71327045D01*
X177104884Y-71296652D01*
X177135829Y-71296780D01*
G37*
G36*
X180551016Y-71875633D02*
G01*
X180860553Y-71945967D01*
X181165774Y-72066074D01*
X181454652Y-72229941D01*
X181715158Y-72431554D01*
X181935266Y-72664899D01*
X182054605Y-72832229D01*
X182203993Y-73101283D01*
X182318507Y-73385471D01*
X182392050Y-73668761D01*
X182418521Y-73935119D01*
X182419064Y-74087307D01*
X182583288Y-74067825D01*
X182611706Y-74064879D01*
X182760429Y-74069623D01*
X182869327Y-74116189D01*
X182946881Y-74207842D01*
X182973739Y-74285431D01*
X182964537Y-74392889D01*
X182910025Y-74487524D01*
X182819564Y-74555039D01*
X182702513Y-74581135D01*
X182692450Y-74581257D01*
X182521184Y-74598768D01*
X182324044Y-74641074D01*
X182127149Y-74701449D01*
X181956621Y-74773169D01*
X181904661Y-74801518D01*
X181725192Y-74925843D01*
X181546486Y-75084261D01*
X181387549Y-75258633D01*
X181267390Y-75430824D01*
X181204154Y-75562769D01*
X181143139Y-75727877D01*
X181091619Y-75902839D01*
X181056005Y-76065844D01*
X181042709Y-76195084D01*
X181031342Y-76299267D01*
X180983976Y-76412971D01*
X180906197Y-76483415D01*
X180792133Y-76511363D01*
X180677437Y-76489112D01*
X180584224Y-76421165D01*
X180528916Y-76314862D01*
X180523032Y-76257073D01*
X180527012Y-76142627D01*
X180541728Y-75999861D01*
X180564758Y-75846996D01*
X180593681Y-75702257D01*
X180626074Y-75583867D01*
X180739342Y-75311348D01*
X180920187Y-75008507D01*
X181143922Y-74736592D01*
X181402459Y-74505202D01*
X181687709Y-74323937D01*
X181887059Y-74220862D01*
X181887175Y-73999754D01*
X181861141Y-73720631D01*
X181776016Y-73430317D01*
X181634816Y-73157973D01*
X181440750Y-72909680D01*
X181197025Y-72691516D01*
X181123857Y-72639414D01*
X180907256Y-72519026D01*
X180667430Y-72436761D01*
X180387386Y-72386209D01*
X180351157Y-72381660D01*
X180207470Y-72357558D01*
X180111139Y-72327821D01*
X180049544Y-72288812D01*
X180016282Y-72248756D01*
X179980439Y-72144276D01*
X179990687Y-72030940D01*
X180047177Y-71931561D01*
X180076311Y-71904094D01*
X180128634Y-71875757D01*
X180204651Y-71862468D01*
X180323700Y-71859163D01*
X180551016Y-71875633D01*
G37*
G36*
X173388525Y-67158841D02*
G01*
X173477959Y-67209692D01*
X173542180Y-67296259D01*
X173567144Y-67415369D01*
X173571099Y-67510695D01*
X173621567Y-67795317D01*
X173725640Y-68076223D01*
X173877733Y-68340581D01*
X174072256Y-68575558D01*
X174101864Y-68604772D01*
X174350609Y-68803899D01*
X174622519Y-68948408D01*
X174910650Y-69038057D01*
X175208058Y-69072603D01*
X175507799Y-69051807D01*
X175802930Y-68975424D01*
X176086505Y-68843214D01*
X176351582Y-68654936D01*
X176353399Y-68653386D01*
X176443690Y-68581658D01*
X176520612Y-68529647D01*
X176567687Y-68508516D01*
X176653638Y-68510326D01*
X176772494Y-68549322D01*
X176850114Y-68624703D01*
X176881489Y-68725991D01*
X176861615Y-68842706D01*
X176785485Y-68964370D01*
X176628201Y-69111803D01*
X176420635Y-69255969D01*
X176182516Y-69384140D01*
X175930057Y-69487618D01*
X175679472Y-69557706D01*
X175650870Y-69563649D01*
X175559354Y-69585949D01*
X175508027Y-69612747D01*
X175479699Y-69657715D01*
X175457186Y-69734523D01*
X175401666Y-69907319D01*
X175262519Y-70188627D01*
X175074869Y-70440002D01*
X174845827Y-70652636D01*
X174582504Y-70817723D01*
X174559956Y-70828550D01*
X174367014Y-70899896D01*
X174114015Y-70963014D01*
X174111681Y-70963495D01*
X174001471Y-70976752D01*
X173884192Y-70977019D01*
X173782810Y-70965451D01*
X173720294Y-70943205D01*
X173666295Y-70891685D01*
X173610538Y-70784128D01*
X173610591Y-70669580D01*
X173668263Y-70561313D01*
X173684995Y-70543349D01*
X173743701Y-70501001D01*
X173828107Y-70472020D01*
X173956640Y-70449244D01*
X174032243Y-70436802D01*
X174298194Y-70359097D01*
X174523727Y-70234702D01*
X174707451Y-70064552D01*
X174847978Y-69849582D01*
X174895169Y-69750370D01*
X174929749Y-69668260D01*
X174942955Y-69623638D01*
X174942615Y-69621553D01*
X174908935Y-69596327D01*
X174830927Y-69565476D01*
X174723944Y-69535198D01*
X174602422Y-69501883D01*
X174276803Y-69370349D01*
X173973960Y-69186414D01*
X173702290Y-68956776D01*
X173470183Y-68688139D01*
X173286035Y-68387203D01*
X173209611Y-68215673D01*
X173136227Y-68002715D01*
X173084192Y-67792281D01*
X173055961Y-67597302D01*
X173053988Y-67430707D01*
X173080727Y-67305429D01*
X173109364Y-67252325D01*
X173190184Y-67176984D01*
X173287919Y-67146880D01*
X173388525Y-67158841D01*
G37*
G36*
X182790022Y-67436388D02*
G01*
X182895018Y-67513064D01*
X182940253Y-67560328D01*
X182968183Y-67603402D01*
X182979936Y-67657024D01*
X182979168Y-67738459D01*
X182969534Y-67864972D01*
X182945264Y-68041771D01*
X182878392Y-68313583D01*
X182781981Y-68580405D01*
X182665095Y-68813976D01*
X182599498Y-68912135D01*
X182463798Y-69079956D01*
X182303518Y-69248988D01*
X182136637Y-69400757D01*
X181981133Y-69516789D01*
X181747964Y-69647087D01*
X181493375Y-69754948D01*
X181250571Y-69824970D01*
X181166323Y-69843822D01*
X181106788Y-69864822D01*
X181086332Y-69890782D01*
X181092364Y-69930065D01*
X181094850Y-69937971D01*
X181188484Y-70144511D01*
X181326190Y-70333090D01*
X181497018Y-70494970D01*
X181690020Y-70621415D01*
X181894245Y-70703688D01*
X182098746Y-70733054D01*
X182192962Y-70742458D01*
X182312367Y-70792543D01*
X182389622Y-70880169D01*
X182417074Y-70998941D01*
X182414608Y-71039814D01*
X182373930Y-71145657D01*
X182278300Y-71228821D01*
X182266275Y-71234958D01*
X182172071Y-71252863D01*
X182028054Y-71248074D01*
X181928322Y-71235423D01*
X181621240Y-71158215D01*
X181340352Y-71029092D01*
X181091639Y-70852896D01*
X180881080Y-70634470D01*
X180714656Y-70378656D01*
X180598345Y-70090298D01*
X180533402Y-69869831D01*
X180357261Y-69836357D01*
X180285889Y-69820914D01*
X180089150Y-69761497D01*
X179889603Y-69680003D01*
X179696197Y-69582191D01*
X179517884Y-69473818D01*
X179363615Y-69360643D01*
X179242341Y-69248422D01*
X179163013Y-69142913D01*
X179134581Y-69049874D01*
X179148098Y-68968383D01*
X179203479Y-68872264D01*
X179287934Y-68804450D01*
X179386582Y-68775704D01*
X179484540Y-68796787D01*
X179535184Y-68829239D01*
X179619827Y-68890986D01*
X179714479Y-68965319D01*
X179924784Y-69110032D01*
X180203540Y-69241903D01*
X180499419Y-69326011D01*
X180795279Y-69356157D01*
X180890641Y-69350272D01*
X181064374Y-69321077D01*
X181253568Y-69273098D01*
X181434348Y-69212698D01*
X181582843Y-69146238D01*
X181702535Y-69068707D01*
X181861777Y-68936371D01*
X182018167Y-68779606D01*
X182154651Y-68615786D01*
X182254176Y-68462286D01*
X182303650Y-68358282D01*
X182379689Y-68146612D01*
X182430835Y-67930103D01*
X182449882Y-67735513D01*
X182452357Y-67680033D01*
X182477666Y-67589885D01*
X182541781Y-67508727D01*
X182586272Y-67469471D01*
X182688262Y-67421871D01*
X182790022Y-67436388D01*
G37*
G36*
X185458195Y-72390936D02*
G01*
X185443025Y-72643265D01*
X185371454Y-72997060D01*
X185244442Y-73332202D01*
X185065605Y-73641535D01*
X184838560Y-73917902D01*
X184566926Y-74154147D01*
X184358473Y-74306397D01*
X184358473Y-74578513D01*
X184346128Y-74834416D01*
X184277569Y-75219335D01*
X184148917Y-75586851D01*
X183960167Y-75936985D01*
X183951058Y-75951031D01*
X183799364Y-76151324D01*
X183612771Y-76349110D01*
X183404169Y-76533861D01*
X183186449Y-76695052D01*
X182972501Y-76822155D01*
X182775216Y-76904644D01*
X182718265Y-76928907D01*
X182631251Y-76997356D01*
X182536153Y-77112911D01*
X182342782Y-77351748D01*
X182054110Y-77625241D01*
X181730714Y-77846696D01*
X181372693Y-78016049D01*
X180980148Y-78133232D01*
X180823123Y-78159741D01*
X180525609Y-78174609D01*
X180209271Y-78152123D01*
X179892561Y-78094028D01*
X179593934Y-78002070D01*
X179419154Y-77922831D01*
X179177252Y-77778057D01*
X178939358Y-77600002D01*
X178719672Y-77400664D01*
X178532393Y-77192042D01*
X178391720Y-76986137D01*
X178354365Y-76922181D01*
X178312527Y-76857803D01*
X178290000Y-76832872D01*
X178275573Y-76846938D01*
X178237738Y-76902606D01*
X178188279Y-76986137D01*
X178165403Y-77024334D01*
X178060389Y-77169217D01*
X177922231Y-77329512D01*
X177765349Y-77490186D01*
X177604162Y-77636207D01*
X177453091Y-77752543D01*
X177213880Y-77894285D01*
X176879788Y-78034899D01*
X176525126Y-78128051D01*
X176162031Y-78171618D01*
X175802639Y-78163475D01*
X175459088Y-78101499D01*
X175281629Y-78046143D01*
X174926605Y-77888255D01*
X174597390Y-77676890D01*
X174300849Y-77416843D01*
X174043847Y-77112911D01*
X173982022Y-77033700D01*
X173893594Y-76949307D01*
X173804784Y-76904644D01*
X173791594Y-76900480D01*
X173592700Y-76814475D01*
X173378059Y-76684603D01*
X173160561Y-76521392D01*
X172953097Y-76335367D01*
X172768557Y-76137056D01*
X172619832Y-75936985D01*
X172491925Y-75714542D01*
X172341700Y-75353267D01*
X172251569Y-74974598D01*
X172221527Y-74578513D01*
X172221527Y-74306397D01*
X172013073Y-74154147D01*
X171792325Y-73968878D01*
X171558736Y-73704075D01*
X171373047Y-73408459D01*
X171236934Y-73089120D01*
X171152072Y-72753144D01*
X171120136Y-72407618D01*
X171142800Y-72059632D01*
X171221739Y-71716272D01*
X171358629Y-71384627D01*
X171492942Y-71123604D01*
X171418845Y-71006527D01*
X171350389Y-70886633D01*
X171232551Y-70601955D01*
X171154352Y-70288573D01*
X171119140Y-69962342D01*
X171121682Y-69888473D01*
X171646739Y-69888473D01*
X171672527Y-70203130D01*
X171752111Y-70494146D01*
X171887720Y-70761200D01*
X172081587Y-71010049D01*
X172159007Y-71090049D01*
X172373075Y-71271850D01*
X172601493Y-71404966D01*
X172858197Y-71496439D01*
X173157125Y-71553307D01*
X173243584Y-71565536D01*
X173361709Y-71589388D01*
X173440458Y-71619111D01*
X173494819Y-71659414D01*
X173509249Y-71675100D01*
X173559807Y-71778346D01*
X173554801Y-71892483D01*
X173494256Y-72002341D01*
X173492367Y-72004531D01*
X173447929Y-72048806D01*
X173398958Y-72072850D01*
X173326152Y-72082066D01*
X173210214Y-72081857D01*
X173069733Y-72073611D01*
X172728744Y-72010090D01*
X172396119Y-71886385D01*
X172076898Y-71704175D01*
X171851700Y-71551380D01*
X171789290Y-71697451D01*
X171700364Y-71957797D01*
X171649118Y-72270397D01*
X171655656Y-72578739D01*
X171717862Y-72876304D01*
X171833620Y-73156572D01*
X172000813Y-73413026D01*
X172217326Y-73639146D01*
X172481042Y-73828413D01*
X172522329Y-73853448D01*
X172628032Y-73924654D01*
X172708344Y-73988994D01*
X172748447Y-74035018D01*
X172757692Y-74075422D01*
X172765212Y-74173804D01*
X172766996Y-74311219D01*
X172762617Y-74474388D01*
X172758522Y-74619188D01*
X172766367Y-74844396D01*
X172797105Y-75041819D01*
X172854650Y-75232335D01*
X172942911Y-75436822D01*
X173056412Y-75646126D01*
X173202880Y-75849959D01*
X173377531Y-76027453D01*
X173588944Y-76185949D01*
X173845692Y-76332786D01*
X174156353Y-76475304D01*
X174204472Y-76498258D01*
X174279751Y-76551526D01*
X174354727Y-76632907D01*
X174443600Y-76756292D01*
X174476348Y-76803576D01*
X174706815Y-77078127D01*
X174970364Y-77300912D01*
X175264622Y-77470215D01*
X175587215Y-77584315D01*
X175608951Y-77589679D01*
X175834345Y-77627614D01*
X176079607Y-77642621D01*
X176318910Y-77634216D01*
X176526425Y-77601914D01*
X176533729Y-77600089D01*
X176645864Y-77564666D01*
X176783106Y-77511882D01*
X176917435Y-77452448D01*
X177170570Y-77308761D01*
X177435767Y-77095847D01*
X177654298Y-76842795D01*
X177824157Y-76552509D01*
X177943338Y-76227892D01*
X178009832Y-75871847D01*
X178013372Y-75823549D01*
X178018197Y-75699138D01*
X178022425Y-75512879D01*
X178026054Y-75265203D01*
X178029081Y-74956535D01*
X178031505Y-74587305D01*
X178033324Y-74157940D01*
X178034535Y-73668868D01*
X178035136Y-73120516D01*
X178035125Y-72513313D01*
X178034501Y-71847687D01*
X178033260Y-71124064D01*
X178024113Y-66682192D01*
X177950188Y-66518686D01*
X177922790Y-66462845D01*
X177798367Y-66286884D01*
X177632329Y-66151817D01*
X177420916Y-66055147D01*
X177160366Y-65994377D01*
X177139169Y-65990447D01*
X177027458Y-65940262D01*
X176955529Y-65856451D01*
X176927843Y-65753511D01*
X176948862Y-65645936D01*
X177023046Y-65548220D01*
X177060776Y-65517908D01*
X177116733Y-65489089D01*
X177186643Y-65481233D01*
X177294359Y-65489145D01*
X177428395Y-65510333D01*
X177612347Y-65558578D01*
X177781103Y-65622509D01*
X177910980Y-65694249D01*
X177922702Y-65702489D01*
X177985651Y-65742944D01*
X178021122Y-65759409D01*
X178024044Y-65753746D01*
X178029874Y-65699524D01*
X178034392Y-65594599D01*
X178037555Y-65451540D01*
X178539621Y-65451540D01*
X178539777Y-65725960D01*
X178540707Y-65985508D01*
X178542432Y-66223373D01*
X178544973Y-66432741D01*
X178548350Y-66606803D01*
X178552584Y-66738745D01*
X178557696Y-66821755D01*
X178563707Y-66849023D01*
X178565596Y-66848165D01*
X178609092Y-66827384D01*
X178690855Y-66787734D01*
X178794900Y-66736964D01*
X178863085Y-66705885D01*
X179044386Y-66642428D01*
X179221054Y-66605065D01*
X179377151Y-66596467D01*
X179496741Y-66619306D01*
X179535264Y-66639109D01*
X179617064Y-66721744D01*
X179653596Y-66829560D01*
X179636806Y-66943897D01*
X179633424Y-66951812D01*
X179592609Y-67016711D01*
X179528507Y-67063942D01*
X179428049Y-67100394D01*
X179278168Y-67132956D01*
X179085417Y-67186229D01*
X178889847Y-67292752D01*
X178733018Y-67447667D01*
X178611596Y-67653581D01*
X178608489Y-67660741D01*
X178599790Y-67685263D01*
X178592075Y-67716977D01*
X178585273Y-67759575D01*
X178579314Y-67816749D01*
X178574127Y-67892188D01*
X178569641Y-67989585D01*
X178565785Y-68112631D01*
X178562489Y-68265017D01*
X178559682Y-68450434D01*
X178557292Y-68672574D01*
X178555251Y-68935128D01*
X178553486Y-69241787D01*
X178551926Y-69596243D01*
X178550502Y-70002186D01*
X178549143Y-70463308D01*
X178547777Y-70983301D01*
X178539667Y-74189582D01*
X178688540Y-74028060D01*
X178740857Y-73973082D01*
X179033056Y-73719522D01*
X179364450Y-73512205D01*
X179728354Y-73355453D01*
X179801017Y-73333203D01*
X179941263Y-73313864D01*
X180049721Y-73340434D01*
X180135185Y-73414182D01*
X180185691Y-73511110D01*
X180184862Y-73617034D01*
X180127467Y-73716626D01*
X180016604Y-73804764D01*
X179855374Y-73876330D01*
X179592780Y-73990301D01*
X179325378Y-74164343D01*
X179085600Y-74381575D01*
X178884209Y-74632130D01*
X178731965Y-74906145D01*
X178637214Y-75173137D01*
X178574735Y-75511828D01*
X178570655Y-75855954D01*
X178624943Y-76196253D01*
X178737565Y-76523464D01*
X178816219Y-76672727D01*
X178951319Y-76872094D01*
X179108404Y-77059537D01*
X179269146Y-77211339D01*
X179367414Y-77282443D01*
X179543362Y-77387221D01*
X179738730Y-77484216D01*
X179931089Y-77562597D01*
X180098005Y-77611532D01*
X180301968Y-77638061D01*
X180543156Y-77642245D01*
X180786871Y-77623548D01*
X181005119Y-77582854D01*
X181051705Y-77570000D01*
X181366209Y-77446741D01*
X181654456Y-77268115D01*
X181912501Y-77037005D01*
X182136399Y-76756292D01*
X182189235Y-76680491D01*
X182268499Y-76582584D01*
X182341902Y-76518819D01*
X182423646Y-76475304D01*
X182702695Y-76348657D01*
X182964995Y-76202660D01*
X183181009Y-76045818D01*
X183359311Y-75870791D01*
X183508479Y-75670238D01*
X183637089Y-75436822D01*
X183690145Y-75320257D01*
X183760859Y-75126109D01*
X183803029Y-74934333D01*
X183820567Y-74724052D01*
X183817382Y-74474388D01*
X183813484Y-74348997D01*
X183813810Y-74204104D01*
X183819976Y-74095019D01*
X183831552Y-74035018D01*
X183840387Y-74021328D01*
X183896625Y-73967413D01*
X183987755Y-73899292D01*
X184098957Y-73828413D01*
X184251105Y-73728343D01*
X184491652Y-73514639D01*
X184683474Y-73263201D01*
X184823835Y-72977956D01*
X184910005Y-72662832D01*
X184924817Y-72564721D01*
X184935173Y-72274609D01*
X184891071Y-71990382D01*
X184790709Y-71697451D01*
X184728300Y-71551380D01*
X184503101Y-71704175D01*
X184374693Y-71785538D01*
X184049390Y-71944061D01*
X183712742Y-72043393D01*
X183369785Y-72081857D01*
X183364271Y-72081974D01*
X183250358Y-72081920D01*
X183178832Y-72072231D01*
X183130393Y-72047506D01*
X183085743Y-72002341D01*
X183071258Y-71984250D01*
X183020347Y-71872561D01*
X183024980Y-71759226D01*
X183085180Y-71659414D01*
X183112732Y-71635820D01*
X183178547Y-71601876D01*
X183276932Y-71575941D01*
X183422874Y-71553307D01*
X183537933Y-71536085D01*
X183819809Y-71467383D01*
X184064556Y-71361503D01*
X184286111Y-71211404D01*
X184498413Y-71010049D01*
X184689306Y-70765830D01*
X184825946Y-70499155D01*
X184906520Y-70208622D01*
X184933260Y-69888473D01*
X184930186Y-69772977D01*
X184887837Y-69478899D01*
X184793122Y-69206476D01*
X184642660Y-68947636D01*
X184433070Y-68694305D01*
X184360455Y-68613529D01*
X184292922Y-68514107D01*
X184265423Y-68417215D01*
X184273608Y-68303195D01*
X184313124Y-68152389D01*
X184363653Y-67938291D01*
X184385356Y-67627993D01*
X184347301Y-67323800D01*
X184251063Y-67031833D01*
X184098218Y-66758215D01*
X183890339Y-66509069D01*
X183805663Y-66429429D01*
X183544934Y-66238260D01*
X183262147Y-66104166D01*
X182961971Y-66028496D01*
X182649076Y-66012598D01*
X182328133Y-66057821D01*
X182211371Y-66090545D01*
X181939520Y-66209005D01*
X181692024Y-66375711D01*
X181475250Y-66582749D01*
X181295564Y-66822203D01*
X181159334Y-67086156D01*
X181072926Y-67366693D01*
X181042709Y-67655898D01*
X181035520Y-67719491D01*
X180986554Y-67822994D01*
X180903583Y-67895504D01*
X180801169Y-67930350D01*
X180693875Y-67920863D01*
X180596263Y-67860373D01*
X180563341Y-67821214D01*
X180540679Y-67767643D01*
X180531190Y-67688250D01*
X180530832Y-67564769D01*
X180564841Y-67247978D01*
X180656447Y-66924703D01*
X180800076Y-66616272D01*
X180990354Y-66330699D01*
X181221905Y-66075996D01*
X181489355Y-65860178D01*
X181787330Y-65691259D01*
X181810414Y-65680860D01*
X182114042Y-65572085D01*
X182460767Y-65494223D01*
X182504216Y-65482938D01*
X182596877Y-65419632D01*
X182662234Y-65305308D01*
X182701251Y-65137771D01*
X182714889Y-64914828D01*
X182712534Y-64772381D01*
X182700252Y-64662831D01*
X182673100Y-64565198D01*
X182626157Y-64453927D01*
X182591807Y-64387062D01*
X182461409Y-64201901D01*
X182297396Y-64039766D01*
X182118519Y-63920366D01*
X182108180Y-63915187D01*
X181874509Y-63831777D01*
X181626483Y-63800305D01*
X181379867Y-63821189D01*
X181150427Y-63894843D01*
X181106357Y-63916186D01*
X180940914Y-64018219D01*
X180799241Y-64149643D01*
X180663306Y-64326433D01*
X180584448Y-64432681D01*
X180491979Y-64522726D01*
X180403554Y-64562886D01*
X180310783Y-64558690D01*
X180296708Y-64554651D01*
X180202145Y-64501089D01*
X180131835Y-64419006D01*
X180104285Y-64328989D01*
X180106076Y-64298326D01*
X180146225Y-64163503D01*
X180232583Y-64014408D01*
X180356401Y-63859938D01*
X180508926Y-63708989D01*
X180681407Y-63570461D01*
X180865091Y-63453251D01*
X181051227Y-63366257D01*
X181106486Y-63344857D01*
X181170583Y-63317181D01*
X181191990Y-63303384D01*
X181179343Y-63293927D01*
X181106891Y-63249789D01*
X180996372Y-63189721D01*
X180862263Y-63121017D01*
X180719041Y-63050976D01*
X180581184Y-62986893D01*
X180463167Y-62936064D01*
X180346386Y-62889963D01*
X180122358Y-62810742D01*
X179923349Y-62756402D01*
X179729670Y-62722065D01*
X179521631Y-62702856D01*
X179436221Y-62698228D01*
X179319405Y-62696159D01*
X179232835Y-62704496D01*
X179155917Y-62725989D01*
X179068059Y-62763385D01*
X178914562Y-62849260D01*
X178752842Y-62993424D01*
X178640601Y-63174013D01*
X178574237Y-63395634D01*
X178569623Y-63436480D01*
X178563747Y-63538214D01*
X178558458Y-63686383D01*
X178553777Y-63874174D01*
X178549725Y-64094777D01*
X178546322Y-64341379D01*
X178543590Y-64607168D01*
X178541548Y-64885332D01*
X178540737Y-65058429D01*
X178540218Y-65169060D01*
X178539621Y-65451540D01*
X178037555Y-65451540D01*
X178037650Y-65447252D01*
X178039702Y-65265768D01*
X178040603Y-65058429D01*
X178040406Y-64833518D01*
X178039165Y-64599319D01*
X178036933Y-64364114D01*
X178033765Y-64136188D01*
X178029714Y-63923823D01*
X178024835Y-63735301D01*
X178019181Y-63578908D01*
X178012805Y-63462924D01*
X178005762Y-63395634D01*
X177960971Y-63227637D01*
X177861034Y-63036797D01*
X177712557Y-62883583D01*
X177511940Y-62763385D01*
X177460624Y-62740511D01*
X177381378Y-62712277D01*
X177301649Y-62698422D01*
X177200843Y-62696197D01*
X177058369Y-62702856D01*
X176959706Y-62710118D01*
X176760713Y-62735675D01*
X176567029Y-62778600D01*
X176358965Y-62843771D01*
X176116832Y-62936064D01*
X176082592Y-62950238D01*
X175956748Y-63006039D01*
X175815632Y-63072792D01*
X175673724Y-63143199D01*
X175545499Y-63209964D01*
X175445435Y-63265792D01*
X175388009Y-63303384D01*
X175395735Y-63310117D01*
X175446033Y-63333536D01*
X175528773Y-63366257D01*
X175575419Y-63384839D01*
X175761762Y-63480284D01*
X175943448Y-63603704D01*
X176111725Y-63746199D01*
X176257843Y-63898874D01*
X176373048Y-64052828D01*
X176448589Y-64199166D01*
X176475714Y-64328989D01*
X176475126Y-64341260D01*
X176440498Y-64431406D01*
X176365692Y-64510745D01*
X176269216Y-64558690D01*
X176197406Y-64565672D01*
X176108718Y-64536362D01*
X176017943Y-64458458D01*
X175916693Y-64326433D01*
X175884457Y-64280168D01*
X175748796Y-64115423D01*
X175603178Y-63992306D01*
X175429572Y-63894843D01*
X175419429Y-63890205D01*
X175188832Y-63819034D01*
X174941797Y-63800614D01*
X174694092Y-63834530D01*
X174461480Y-63920366D01*
X174398104Y-63956218D01*
X174222314Y-64092882D01*
X174067977Y-64265353D01*
X173953842Y-64453927D01*
X173907861Y-64562551D01*
X173880250Y-64660217D01*
X173867640Y-64769125D01*
X173865111Y-64914828D01*
X173867445Y-65007929D01*
X173890802Y-65209143D01*
X173939911Y-65355800D01*
X174015734Y-65450096D01*
X174119233Y-65494223D01*
X174462057Y-65573307D01*
X174817249Y-65708919D01*
X175133716Y-65891784D01*
X175409438Y-66120468D01*
X175642398Y-66393539D01*
X175830579Y-66709563D01*
X175899041Y-66864671D01*
X175970646Y-67072837D01*
X176021142Y-67278287D01*
X176049113Y-67470393D01*
X176053145Y-67638528D01*
X176031825Y-67772064D01*
X175983737Y-67860373D01*
X175935285Y-67898482D01*
X175830841Y-67931723D01*
X175724256Y-67917415D01*
X175630095Y-67862228D01*
X175562919Y-67772832D01*
X175537290Y-67655898D01*
X175533768Y-67561202D01*
X175484711Y-67279785D01*
X175382422Y-67002475D01*
X175232702Y-66742634D01*
X175041353Y-66513625D01*
X174921597Y-66404281D01*
X174659036Y-66221868D01*
X174378686Y-66095290D01*
X174087093Y-66024560D01*
X173790805Y-66009690D01*
X173496370Y-66050693D01*
X173210335Y-66147583D01*
X172939250Y-66300370D01*
X172689660Y-66509069D01*
X172540645Y-66677776D01*
X172370506Y-66944435D01*
X172256484Y-67231348D01*
X172200155Y-67532393D01*
X172203093Y-67841447D01*
X172266875Y-68152389D01*
X172297402Y-68261767D01*
X172315658Y-68384979D01*
X172299565Y-68485033D01*
X172244773Y-68581589D01*
X172146929Y-68694305D01*
X172062559Y-68787576D01*
X171875163Y-69041999D01*
X171745648Y-69304908D01*
X171670634Y-69584375D01*
X171646739Y-69888473D01*
X171121682Y-69888473D01*
X171130261Y-69639119D01*
X171150358Y-69500142D01*
X171244360Y-69147031D01*
X171396255Y-68814591D01*
X171603585Y-68508691D01*
X171664159Y-68432658D01*
X171715740Y-68360235D01*
X171738873Y-68306603D01*
X171740012Y-68254799D01*
X171725606Y-68187859D01*
X171679801Y-67932834D01*
X171669797Y-67587097D01*
X171715019Y-67241742D01*
X171812529Y-66906226D01*
X171959385Y-66590004D01*
X172152648Y-66302533D01*
X172389377Y-66053267D01*
X172393212Y-66049890D01*
X172563635Y-65910738D01*
X172733961Y-65796745D01*
X172919743Y-65699767D01*
X173136537Y-65611662D01*
X173399897Y-65524289D01*
X173414758Y-65512993D01*
X173418064Y-65467793D01*
X173395994Y-65378153D01*
X173352420Y-65194516D01*
X173328421Y-64886953D01*
X173362824Y-64582948D01*
X173453528Y-64290920D01*
X173598434Y-64019289D01*
X173795443Y-63776474D01*
X173815904Y-63756069D01*
X173930170Y-63651554D01*
X174047445Y-63556830D01*
X174145295Y-63490248D01*
X174160405Y-63481382D01*
X174254002Y-63422880D01*
X174380541Y-63340038D01*
X174525326Y-63242589D01*
X174673662Y-63140269D01*
X174873978Y-63004916D01*
X175330586Y-62730905D01*
X175782299Y-62507198D01*
X176223297Y-62336503D01*
X176647758Y-62221529D01*
X176789899Y-62195220D01*
X177114004Y-62164456D01*
X177404595Y-62183042D01*
X177666492Y-62252037D01*
X177904514Y-62372496D01*
X178123480Y-62545480D01*
X178290000Y-62702967D01*
X178456519Y-62545480D01*
X178543362Y-62468904D01*
X178769478Y-62317356D01*
X179016604Y-62217902D01*
X179289561Y-62169485D01*
X179593167Y-62171047D01*
X179932241Y-62221529D01*
X180115998Y-62264922D01*
X180548429Y-62404669D01*
X180994844Y-62598948D01*
X181449420Y-62845051D01*
X181906338Y-63140269D01*
X181939487Y-63163368D01*
X182088306Y-63265438D01*
X182230246Y-63360430D01*
X182350611Y-63438612D01*
X182434704Y-63490248D01*
X182451593Y-63500401D01*
X182555108Y-63574060D01*
X182673573Y-63672202D01*
X182784557Y-63776474D01*
X182909464Y-63918963D01*
X183075309Y-64180161D01*
X183187785Y-64465098D01*
X183244793Y-64765355D01*
X183244233Y-65072513D01*
X183184006Y-65378153D01*
X183167186Y-65440213D01*
X183161061Y-65500524D01*
X183180102Y-65524289D01*
X183186454Y-65526244D01*
X183448632Y-65613547D01*
X183664583Y-65701758D01*
X183849863Y-65799020D01*
X184020024Y-65913476D01*
X184190622Y-66053267D01*
X184372915Y-66237170D01*
X184577167Y-66516101D01*
X184735736Y-66826113D01*
X184845684Y-67157751D01*
X184904070Y-67501558D01*
X184907953Y-67848079D01*
X184854394Y-68187859D01*
X184842463Y-68239725D01*
X184838992Y-68293799D01*
X184855860Y-68345343D01*
X184899516Y-68411319D01*
X184976414Y-68508691D01*
X185061921Y-68621925D01*
X185248386Y-68938646D01*
X185378477Y-69279667D01*
X185449739Y-69639119D01*
X185460976Y-69790348D01*
X185449803Y-70116967D01*
X185393878Y-70439107D01*
X185296546Y-70740912D01*
X185161154Y-71006527D01*
X185087058Y-71123604D01*
X185221371Y-71384627D01*
X185262444Y-71468037D01*
X185374867Y-71760280D01*
X185438552Y-72061264D01*
X185451264Y-72274609D01*
X185458195Y-72390936D01*
G37*
G36*
X193203661Y-91715509D02*
G01*
X193209524Y-91730780D01*
X193206913Y-91741716D01*
X193195460Y-91749533D01*
X193187258Y-91746052D01*
X193181395Y-91730780D01*
X193184006Y-91719845D01*
X193195460Y-91712028D01*
X193203661Y-91715509D01*
G37*
G36*
X192721724Y-91923163D02*
G01*
X192742947Y-91931388D01*
X192749900Y-91948641D01*
X192740342Y-91970323D01*
X192732775Y-91977376D01*
X192717276Y-91983937D01*
X192702688Y-91978449D01*
X192689262Y-91961156D01*
X192686157Y-91939850D01*
X192694418Y-91927531D01*
X192717276Y-91922992D01*
X192721724Y-91923163D01*
G37*
G36*
X193219890Y-91789936D02*
G01*
X193228276Y-91801102D01*
X193226642Y-91807660D01*
X193214212Y-91815166D01*
X193209809Y-91816123D01*
X193203949Y-91824730D01*
X193200975Y-91845139D01*
X193200148Y-91880799D01*
X193200353Y-91901347D01*
X193202197Y-91928693D01*
X193206570Y-91942572D01*
X193214212Y-91946432D01*
X193220771Y-91948066D01*
X193228276Y-91960496D01*
X193226560Y-91966461D01*
X193213893Y-91972720D01*
X193186083Y-91974560D01*
X193164412Y-91972993D01*
X193147094Y-91967182D01*
X193144232Y-91958835D01*
X193157955Y-91949823D01*
X193163372Y-91945688D01*
X193168550Y-91932153D01*
X193171245Y-91906618D01*
X193172019Y-91865731D01*
X193172019Y-91787037D01*
X193200148Y-91787037D01*
X193219890Y-91789936D01*
G37*
G36*
X193341780Y-91724303D02*
G01*
X193350166Y-91735468D01*
X193348532Y-91742027D01*
X193336102Y-91749533D01*
X193332396Y-91750312D01*
X193327216Y-91757217D01*
X193324051Y-91773779D01*
X193322469Y-91803025D01*
X193322038Y-91847982D01*
X193322149Y-91873923D01*
X193323135Y-91910186D01*
X193325501Y-91932341D01*
X193329679Y-91943414D01*
X193336102Y-91946432D01*
X193342661Y-91948066D01*
X193350166Y-91960496D01*
X193347166Y-91967842D01*
X193332767Y-91973055D01*
X193303285Y-91974560D01*
X193297515Y-91974478D01*
X193271055Y-91971288D01*
X193257162Y-91964786D01*
X193257856Y-91956798D01*
X193275157Y-91949149D01*
X193279682Y-91947679D01*
X193286207Y-91942623D01*
X193290366Y-91931873D01*
X193292685Y-91912167D01*
X193293691Y-91880239D01*
X193293909Y-91832824D01*
X193293909Y-91721404D01*
X193322038Y-91721404D01*
X193341780Y-91724303D01*
G37*
G36*
X191161445Y-91729437D02*
G01*
X191165522Y-91754221D01*
X191166135Y-91769036D01*
X191171350Y-91783366D01*
X191184275Y-91787037D01*
X191195210Y-91789648D01*
X191203027Y-91801102D01*
X191199546Y-91809303D01*
X191184275Y-91815166D01*
X191178008Y-91815678D01*
X191171251Y-91820186D01*
X191167493Y-91832442D01*
X191165871Y-91856112D01*
X191165522Y-91894863D01*
X191164945Y-91934137D01*
X191162793Y-91958772D01*
X191158489Y-91971158D01*
X191151458Y-91974560D01*
X191144527Y-91971289D01*
X191140180Y-91959094D01*
X191137994Y-91934707D01*
X191137394Y-91894863D01*
X191137185Y-91856575D01*
X191135828Y-91832889D01*
X191132232Y-91820568D01*
X191125304Y-91815897D01*
X191113953Y-91815166D01*
X191103229Y-91813804D01*
X191091452Y-91804838D01*
X191094070Y-91793122D01*
X191111609Y-91785345D01*
X191116707Y-91784338D01*
X191130039Y-91774652D01*
X191135644Y-91751877D01*
X191135653Y-91751784D01*
X191142088Y-91727871D01*
X191152159Y-91720538D01*
X191161445Y-91729437D01*
G37*
G36*
X192366876Y-91789062D02*
G01*
X192371803Y-91799521D01*
X192374214Y-91821943D01*
X192374748Y-91859702D01*
X192374639Y-91871112D01*
X192372304Y-91911552D01*
X192365686Y-91938971D01*
X192353099Y-91957935D01*
X192332853Y-91973013D01*
X192312607Y-91979148D01*
X192285973Y-91978791D01*
X192261406Y-91975336D01*
X192232060Y-91973609D01*
X192206275Y-91973805D01*
X192206275Y-91880421D01*
X192206286Y-91872939D01*
X192207010Y-91831094D01*
X192209158Y-91804723D01*
X192213127Y-91790985D01*
X192219315Y-91787037D01*
X192221991Y-91787575D01*
X192228550Y-91796799D01*
X192232999Y-91819490D01*
X192235952Y-91858282D01*
X192236728Y-91871142D01*
X192242279Y-91912259D01*
X192252983Y-91938265D01*
X192270530Y-91951875D01*
X192296609Y-91955808D01*
X192312489Y-91952845D01*
X192331764Y-91935202D01*
X192343166Y-91901270D01*
X192346918Y-91850584D01*
X192347075Y-91832988D01*
X192348854Y-91805145D01*
X192353234Y-91790986D01*
X192360982Y-91787037D01*
X192366876Y-91789062D01*
G37*
G36*
X191318184Y-91781903D02*
G01*
X191345577Y-91786117D01*
X191374142Y-91787989D01*
X191399926Y-91787792D01*
X191399926Y-91881176D01*
X191399863Y-91900164D01*
X191398967Y-91937346D01*
X191396645Y-91960080D01*
X191392432Y-91971455D01*
X191385862Y-91974560D01*
X191383951Y-91974417D01*
X191376617Y-91968289D01*
X191372857Y-91950555D01*
X191371798Y-91917687D01*
X191370829Y-91893494D01*
X191362909Y-91850917D01*
X191348216Y-91821288D01*
X191328203Y-91806053D01*
X191304325Y-91806656D01*
X191278036Y-91824542D01*
X191272658Y-91830625D01*
X191264446Y-91846856D01*
X191260379Y-91871198D01*
X191259284Y-91908927D01*
X191259079Y-91929475D01*
X191257234Y-91956822D01*
X191252861Y-91970701D01*
X191245220Y-91974560D01*
X191239683Y-91972837D01*
X191234499Y-91962807D01*
X191231880Y-91940827D01*
X191231155Y-91903518D01*
X191231216Y-91886918D01*
X191232433Y-91855742D01*
X191236480Y-91835343D01*
X191244986Y-91820013D01*
X191259583Y-91804048D01*
X191278057Y-91787626D01*
X191296108Y-91780035D01*
X191318184Y-91781903D01*
G37*
G36*
X193026726Y-91712032D02*
G01*
X193050555Y-91719971D01*
X193072620Y-91738466D01*
X193084707Y-91760682D01*
X193091975Y-91778940D01*
X193102870Y-91787037D01*
X193108859Y-91788658D01*
X193115762Y-91801102D01*
X193114129Y-91807660D01*
X193101698Y-91815166D01*
X193097295Y-91816123D01*
X193091435Y-91824730D01*
X193088461Y-91845139D01*
X193087634Y-91880799D01*
X193087839Y-91901347D01*
X193089683Y-91928693D01*
X193094057Y-91942572D01*
X193101698Y-91946432D01*
X193108257Y-91948066D01*
X193115762Y-91960496D01*
X193114047Y-91966461D01*
X193101379Y-91972720D01*
X193073570Y-91974560D01*
X193055674Y-91973988D01*
X193036899Y-91969766D01*
X193031377Y-91960496D01*
X193033010Y-91953937D01*
X193045441Y-91946432D01*
X193049844Y-91945475D01*
X193055704Y-91936867D01*
X193058678Y-91916458D01*
X193059505Y-91880799D01*
X193059300Y-91860251D01*
X193057456Y-91832904D01*
X193053082Y-91819026D01*
X193045441Y-91815166D01*
X193038882Y-91813532D01*
X193031377Y-91801102D01*
X193033010Y-91794543D01*
X193045441Y-91787037D01*
X193050987Y-91786253D01*
X193058917Y-91776931D01*
X193055264Y-91761923D01*
X193040753Y-91747357D01*
X193036672Y-91744406D01*
X193025377Y-91730955D01*
X193020971Y-91717894D01*
X193026248Y-91712028D01*
X193026726Y-91712032D01*
G37*
G36*
X191052357Y-90605692D02*
G01*
X191105271Y-90606112D01*
X191143628Y-90607149D01*
X191170083Y-90609033D01*
X191187292Y-90611992D01*
X191197911Y-90616255D01*
X191204596Y-90622050D01*
X191208286Y-90629087D01*
X191218704Y-90651951D01*
X191234740Y-90688505D01*
X191255538Y-90736706D01*
X191280243Y-90794516D01*
X191307997Y-90859892D01*
X191337946Y-90930795D01*
X191369232Y-91005184D01*
X191400999Y-91081018D01*
X191432392Y-91156257D01*
X191462553Y-91228860D01*
X191490628Y-91296786D01*
X191515760Y-91357995D01*
X191537093Y-91410447D01*
X191553770Y-91452100D01*
X191564936Y-91480915D01*
X191566766Y-91491486D01*
X191558343Y-91507266D01*
X191551856Y-91509458D01*
X191528424Y-91512059D01*
X191493455Y-91512959D01*
X191451495Y-91511958D01*
X191389881Y-91507120D01*
X191329380Y-91495794D01*
X191278715Y-91476720D01*
X191233328Y-91448097D01*
X191188657Y-91408124D01*
X191132094Y-91351046D01*
X190984725Y-90994006D01*
X190970920Y-90960490D01*
X190940018Y-90884950D01*
X190911798Y-90815254D01*
X190887014Y-90753312D01*
X190866422Y-90701035D01*
X190850779Y-90660334D01*
X190840838Y-90633120D01*
X190837357Y-90621304D01*
X190838115Y-90617215D01*
X190842909Y-90612778D01*
X190854264Y-90609633D01*
X190874617Y-90607563D01*
X190906407Y-90606352D01*
X190952072Y-90605783D01*
X191014051Y-90605642D01*
X191052357Y-90605692D01*
G37*
G36*
X192621139Y-91911969D02*
G01*
X192601450Y-91945545D01*
X192574171Y-91969259D01*
X192552889Y-91978355D01*
X192514330Y-91982324D01*
X192480270Y-91969341D01*
X192465749Y-91961911D01*
X192459431Y-91964653D01*
X192455911Y-91970414D01*
X192440679Y-91974560D01*
X192439675Y-91974553D01*
X192431475Y-91972937D01*
X192426280Y-91966148D01*
X192423409Y-91950792D01*
X192422184Y-91923473D01*
X192421935Y-91882176D01*
X192455591Y-91882176D01*
X192464211Y-91913833D01*
X192489054Y-91940798D01*
X192494906Y-91944539D01*
X192527125Y-91953679D01*
X192559051Y-91944968D01*
X192588055Y-91918984D01*
X192594181Y-91909394D01*
X192600330Y-91881002D01*
X192592711Y-91853323D01*
X192574684Y-91829836D01*
X192549610Y-91814019D01*
X192520849Y-91809351D01*
X192491761Y-91819311D01*
X192486616Y-91822926D01*
X192463093Y-91850362D01*
X192455591Y-91882176D01*
X192421935Y-91882176D01*
X192421927Y-91880799D01*
X192421928Y-91875777D01*
X192422251Y-91834780D01*
X192423609Y-91808801D01*
X192426681Y-91794447D01*
X192432144Y-91788324D01*
X192440679Y-91787037D01*
X192451572Y-91788659D01*
X192459431Y-91795695D01*
X192459734Y-91796789D01*
X192469439Y-91797220D01*
X192488559Y-91789822D01*
X192494842Y-91787028D01*
X192530900Y-91781705D01*
X192566720Y-91791078D01*
X192597843Y-91812302D01*
X192619812Y-91842531D01*
X192628167Y-91878920D01*
X192627724Y-91881002D01*
X192621139Y-91911969D01*
G37*
G36*
X190844362Y-91906378D02*
G01*
X190826686Y-91941261D01*
X190826317Y-91941726D01*
X190806471Y-91961811D01*
X190786837Y-91974747D01*
X190773652Y-91979349D01*
X190740635Y-91982011D01*
X190705625Y-91969631D01*
X190703054Y-91968339D01*
X190685054Y-91962023D01*
X190677962Y-91964943D01*
X190676374Y-91969370D01*
X190663898Y-91974560D01*
X190662306Y-91974421D01*
X190657007Y-91970249D01*
X190653414Y-91958249D01*
X190651223Y-91935690D01*
X190650131Y-91899844D01*
X190649964Y-91870723D01*
X190678913Y-91870723D01*
X190682214Y-91902982D01*
X190700976Y-91932794D01*
X190706582Y-91937893D01*
X190737284Y-91952910D01*
X190769632Y-91952111D01*
X190798622Y-91936572D01*
X190819250Y-91907370D01*
X190824362Y-91881502D01*
X190816820Y-91850731D01*
X190796970Y-91825897D01*
X190768378Y-91811087D01*
X190734612Y-91810391D01*
X190713278Y-91818581D01*
X190689719Y-91840947D01*
X190678913Y-91870723D01*
X190649964Y-91870723D01*
X190649834Y-91847982D01*
X190649849Y-91833650D01*
X190650313Y-91785963D01*
X190651646Y-91753625D01*
X190654153Y-91733905D01*
X190658136Y-91724075D01*
X190663898Y-91721404D01*
X190669945Y-91723181D01*
X190676142Y-91735941D01*
X190677962Y-91763838D01*
X190677962Y-91806271D01*
X190707230Y-91791136D01*
X190715463Y-91787329D01*
X190752290Y-91780558D01*
X190786347Y-91788663D01*
X190815108Y-91808472D01*
X190836047Y-91836810D01*
X190846641Y-91870503D01*
X190845942Y-91881502D01*
X190844362Y-91906378D01*
G37*
G36*
X192993574Y-91882422D02*
G01*
X192988758Y-91920514D01*
X192972487Y-91947951D01*
X192941416Y-91969615D01*
X192916984Y-91979557D01*
X192895423Y-91983844D01*
X192890789Y-91983539D01*
X192867456Y-91976380D01*
X192842943Y-91962765D01*
X192823586Y-91946780D01*
X192815725Y-91932505D01*
X192820125Y-91920372D01*
X192833935Y-91921356D01*
X192855390Y-91937056D01*
X192878128Y-91951686D01*
X192908589Y-91953338D01*
X192941039Y-91936375D01*
X192943487Y-91934430D01*
X192962425Y-91916481D01*
X192966659Y-91903837D01*
X192955210Y-91895743D01*
X192927102Y-91891441D01*
X192881358Y-91890175D01*
X192862524Y-91890049D01*
X192828896Y-91889086D01*
X192805651Y-91887383D01*
X192796973Y-91885186D01*
X192797086Y-91884259D01*
X192801406Y-91870839D01*
X192805503Y-91860441D01*
X192834478Y-91860441D01*
X192838693Y-91865323D01*
X192860218Y-91869901D01*
X192900111Y-91871423D01*
X192918951Y-91871212D01*
X192949146Y-91868735D01*
X192962875Y-91862502D01*
X192961652Y-91851300D01*
X192946991Y-91833918D01*
X192944569Y-91831647D01*
X192919550Y-91818743D01*
X192890551Y-91816462D01*
X192863053Y-91823513D01*
X192842535Y-91838603D01*
X192834478Y-91860441D01*
X192805503Y-91860441D01*
X192810047Y-91848907D01*
X192814974Y-91838529D01*
X192839711Y-91807908D01*
X192871076Y-91790747D01*
X192905247Y-91786348D01*
X192938403Y-91794014D01*
X192966724Y-91813047D01*
X192986388Y-91842749D01*
X192989966Y-91862502D01*
X192993574Y-91882422D01*
G37*
G36*
X191074268Y-91871279D02*
G01*
X191071046Y-91909837D01*
X191053560Y-91944887D01*
X191022617Y-91971511D01*
X191011011Y-91977016D01*
X190972239Y-91982639D01*
X190930931Y-91969775D01*
X190910509Y-91955556D01*
X190891744Y-91934171D01*
X190884238Y-91914232D01*
X190884928Y-91911061D01*
X190894381Y-91908883D01*
X190911001Y-91916713D01*
X190929759Y-91932530D01*
X190956662Y-91951544D01*
X190986738Y-91953269D01*
X191018927Y-91936375D01*
X191021376Y-91934430D01*
X191040314Y-91916481D01*
X191044547Y-91903837D01*
X191033098Y-91895743D01*
X191004991Y-91891441D01*
X190959247Y-91890175D01*
X190942495Y-91890120D01*
X190904920Y-91888769D01*
X190883080Y-91884201D01*
X190874732Y-91874567D01*
X190877635Y-91858021D01*
X190879839Y-91853340D01*
X190912366Y-91853340D01*
X190912447Y-91853770D01*
X190922537Y-91857956D01*
X190946219Y-91860921D01*
X190978781Y-91862047D01*
X191003272Y-91861629D01*
X191030616Y-91858554D01*
X191040801Y-91851568D01*
X191034750Y-91839592D01*
X191013385Y-91821547D01*
X190994410Y-91810907D01*
X190965407Y-91809270D01*
X190963832Y-91809687D01*
X190939547Y-91820885D01*
X190920238Y-91837225D01*
X190912366Y-91853340D01*
X190879839Y-91853340D01*
X190889548Y-91832714D01*
X190897390Y-91820835D01*
X190925720Y-91797082D01*
X190961277Y-91783023D01*
X190996405Y-91782273D01*
X191000043Y-91783260D01*
X191024595Y-91795745D01*
X191048281Y-91815125D01*
X191062419Y-91834131D01*
X191067981Y-91851568D01*
X191074268Y-91871279D01*
G37*
G36*
X191634295Y-91878920D02*
G01*
X191627267Y-91911969D01*
X191607578Y-91945545D01*
X191580299Y-91969259D01*
X191566630Y-91975653D01*
X191525766Y-91982736D01*
X191487489Y-91971692D01*
X191454047Y-91942990D01*
X191445281Y-91931051D01*
X191438248Y-91914363D01*
X191444076Y-91908560D01*
X191460692Y-91914332D01*
X191486021Y-91932368D01*
X191490706Y-91936203D01*
X191518789Y-91952622D01*
X191544226Y-91952600D01*
X191572120Y-91936375D01*
X191574569Y-91934430D01*
X191593507Y-91916481D01*
X191597740Y-91903837D01*
X191586292Y-91895743D01*
X191558184Y-91891441D01*
X191512440Y-91890175D01*
X191495167Y-91890142D01*
X191458974Y-91889130D01*
X191438139Y-91885305D01*
X191430168Y-91876812D01*
X191432568Y-91861797D01*
X191436278Y-91853351D01*
X191465559Y-91853351D01*
X191465611Y-91853698D01*
X191475404Y-91857917D01*
X191498845Y-91860910D01*
X191531192Y-91862047D01*
X191533813Y-91862040D01*
X191565659Y-91860742D01*
X191588243Y-91857637D01*
X191596825Y-91853351D01*
X191596784Y-91852652D01*
X191588408Y-91839532D01*
X191570156Y-91824067D01*
X191548820Y-91811179D01*
X191531192Y-91805790D01*
X191530228Y-91805819D01*
X191512123Y-91811889D01*
X191490782Y-91825116D01*
X191472997Y-91840577D01*
X191465559Y-91853351D01*
X191436278Y-91853351D01*
X191442843Y-91838404D01*
X191451511Y-91823481D01*
X191481251Y-91795711D01*
X191519226Y-91782741D01*
X191561118Y-91786468D01*
X191571205Y-91790192D01*
X191603128Y-91812274D01*
X191625703Y-91843801D01*
X191628039Y-91853351D01*
X191634295Y-91878920D01*
G37*
G36*
X191774533Y-91790101D02*
G01*
X191790621Y-91797224D01*
X191808885Y-91799088D01*
X191830552Y-91790658D01*
X191848862Y-91783909D01*
X191884464Y-91783903D01*
X191906201Y-91787878D01*
X191927335Y-91788350D01*
X191934192Y-91788703D01*
X191939235Y-91794749D01*
X191942123Y-91809864D01*
X191943434Y-91837276D01*
X191943743Y-91880209D01*
X191943729Y-91889058D01*
X191942984Y-91930716D01*
X191940826Y-91956963D01*
X191936863Y-91970633D01*
X191930704Y-91974560D01*
X191928028Y-91974023D01*
X191921468Y-91964799D01*
X191917019Y-91942107D01*
X191914066Y-91903316D01*
X191912574Y-91879423D01*
X191908720Y-91848785D01*
X191902400Y-91830077D01*
X191892497Y-91818931D01*
X191879333Y-91810909D01*
X191864046Y-91805790D01*
X191853887Y-91808540D01*
X191835594Y-91818931D01*
X191829562Y-91824475D01*
X191821796Y-91839300D01*
X191816989Y-91864124D01*
X191814025Y-91903316D01*
X191813196Y-91917789D01*
X191809826Y-91951083D01*
X191804762Y-91969130D01*
X191797388Y-91974560D01*
X191794444Y-91973990D01*
X191788445Y-91965420D01*
X191785275Y-91944202D01*
X191784348Y-91907322D01*
X191780831Y-91860313D01*
X191770511Y-91826387D01*
X191754287Y-91807903D01*
X191733061Y-91805872D01*
X191707733Y-91821307D01*
X191702686Y-91826732D01*
X191695331Y-91842173D01*
X191691615Y-91866935D01*
X191690587Y-91905692D01*
X191690302Y-91930714D01*
X191688369Y-91957346D01*
X191684008Y-91970825D01*
X191676523Y-91974560D01*
X191670293Y-91972172D01*
X191665524Y-91961135D01*
X191663121Y-91938038D01*
X191662458Y-91899551D01*
X191663017Y-91864652D01*
X191665650Y-91836863D01*
X191671318Y-91818919D01*
X191680972Y-91806028D01*
X191702281Y-91789899D01*
X191737454Y-91780829D01*
X191774533Y-91790101D01*
G37*
G36*
X192427432Y-90629014D02*
G01*
X192435840Y-90647482D01*
X192437169Y-90674609D01*
X192434911Y-90679091D01*
X192420707Y-90697022D01*
X192395313Y-90724612D01*
X192360625Y-90759907D01*
X192318542Y-90800951D01*
X192270960Y-90845792D01*
X192232464Y-90881672D01*
X192180087Y-90931505D01*
X192139071Y-90972386D01*
X192107672Y-91006375D01*
X192084146Y-91035533D01*
X192066748Y-91061921D01*
X192053733Y-91087598D01*
X192043358Y-91114626D01*
X192031468Y-91167371D01*
X192031312Y-91236594D01*
X192046468Y-91305403D01*
X192075617Y-91370084D01*
X192117436Y-91426925D01*
X192170604Y-91472213D01*
X192188808Y-91484742D01*
X192207635Y-91499513D01*
X192215141Y-91508097D01*
X192215124Y-91508215D01*
X192205507Y-91510398D01*
X192180163Y-91512296D01*
X192141970Y-91513793D01*
X192093804Y-91514776D01*
X192038543Y-91515129D01*
X192008225Y-91515096D01*
X191952605Y-91514701D01*
X191911766Y-91513677D01*
X191882961Y-91511795D01*
X191863445Y-91508827D01*
X191850475Y-91504545D01*
X191841304Y-91498721D01*
X191840870Y-91498309D01*
X191832988Y-91485260D01*
X191819170Y-91457315D01*
X191800257Y-91416480D01*
X191777088Y-91364760D01*
X191750504Y-91304160D01*
X191721343Y-91236685D01*
X191690447Y-91164340D01*
X191658654Y-91089130D01*
X191626805Y-91013061D01*
X191595740Y-90938136D01*
X191566298Y-90866362D01*
X191539320Y-90799744D01*
X191515645Y-90740286D01*
X191496114Y-90689993D01*
X191481565Y-90650871D01*
X191472840Y-90624926D01*
X191470777Y-90614161D01*
X191479820Y-90612481D01*
X191506236Y-90610830D01*
X191548477Y-90609358D01*
X191605030Y-90608093D01*
X191674380Y-90607062D01*
X191755014Y-90606291D01*
X191845419Y-90605809D01*
X191944080Y-90605642D01*
X192412118Y-90605642D01*
X192427432Y-90629014D01*
G37*
G36*
X192176078Y-91899900D02*
G01*
X192163296Y-91932646D01*
X192140808Y-91959220D01*
X192110967Y-91976476D01*
X192076127Y-91981272D01*
X192038644Y-91970461D01*
X192020576Y-91961863D01*
X192011386Y-91961104D01*
X192009376Y-91969631D01*
X192010703Y-91977908D01*
X192024475Y-91998800D01*
X192048152Y-92014958D01*
X192075435Y-92021441D01*
X192097474Y-92017354D01*
X192127430Y-91998001D01*
X192129961Y-91995521D01*
X192147745Y-91980639D01*
X192159821Y-91974560D01*
X192166623Y-91976600D01*
X192168355Y-91987885D01*
X192158920Y-92005482D01*
X192139923Y-92025296D01*
X192120388Y-92038644D01*
X192081627Y-92050295D01*
X192043099Y-92044771D01*
X192008655Y-92022162D01*
X192000203Y-92013485D01*
X191991077Y-92001660D01*
X191985481Y-91987623D01*
X191982554Y-91967241D01*
X191981430Y-91936377D01*
X191981248Y-91890896D01*
X191981334Y-91874281D01*
X192009942Y-91874281D01*
X192013601Y-91903997D01*
X192032390Y-91932794D01*
X192033594Y-91933978D01*
X192063511Y-91952478D01*
X192095213Y-91952439D01*
X192127618Y-91933852D01*
X192141118Y-91919267D01*
X192153523Y-91888202D01*
X192148675Y-91856066D01*
X192126611Y-91826880D01*
X192120585Y-91822120D01*
X192090601Y-91809201D01*
X192061744Y-91811107D01*
X192036815Y-91824687D01*
X192018614Y-91846795D01*
X192009942Y-91874281D01*
X191981334Y-91874281D01*
X191981419Y-91857717D01*
X191982490Y-91822349D01*
X191984895Y-91800755D01*
X191989035Y-91789973D01*
X191995312Y-91787037D01*
X192001786Y-91788124D01*
X192009376Y-91796654D01*
X192009671Y-91797903D01*
X192019298Y-91798797D01*
X192038644Y-91791136D01*
X192044257Y-91788446D01*
X192083493Y-91780427D01*
X192121398Y-91789957D01*
X192154141Y-91816204D01*
X192163103Y-91828466D01*
X192176798Y-91864125D01*
X192176313Y-91888202D01*
X192176078Y-91899900D01*
G37*
G36*
X191744971Y-90155593D02*
G01*
X191885503Y-90155631D01*
X192009348Y-90155719D01*
X192117634Y-90155879D01*
X192211493Y-90156131D01*
X192292056Y-90156495D01*
X192360452Y-90156992D01*
X192417813Y-90157641D01*
X192465268Y-90158463D01*
X192503949Y-90159479D01*
X192534985Y-90160708D01*
X192559508Y-90162172D01*
X192578647Y-90163890D01*
X192593533Y-90165882D01*
X192605298Y-90168170D01*
X192615070Y-90170772D01*
X192623981Y-90173711D01*
X192646239Y-90182529D01*
X192702993Y-90213519D01*
X192753598Y-90252691D01*
X192791765Y-90295479D01*
X192797755Y-90306379D01*
X192810896Y-90333945D01*
X192829565Y-90375161D01*
X192852899Y-90427975D01*
X192880033Y-90490334D01*
X192910105Y-90560188D01*
X192942250Y-90635484D01*
X192975604Y-90714169D01*
X193009305Y-90794192D01*
X193042488Y-90873500D01*
X193074290Y-90950042D01*
X193103847Y-91021766D01*
X193130296Y-91086618D01*
X193152772Y-91142548D01*
X193170412Y-91187503D01*
X193182353Y-91219431D01*
X193187730Y-91236280D01*
X193193152Y-91262156D01*
X192744526Y-91259720D01*
X192295899Y-91257285D01*
X192284989Y-91235397D01*
X192279224Y-91217547D01*
X192278921Y-91194987D01*
X192283659Y-91187635D01*
X192300664Y-91168122D01*
X192328099Y-91139357D01*
X192364029Y-91103306D01*
X192406521Y-91061939D01*
X192453640Y-91017224D01*
X192512685Y-90961442D01*
X192562857Y-90912525D01*
X192601836Y-90871869D01*
X192631086Y-90837329D01*
X192652068Y-90806759D01*
X192666243Y-90778013D01*
X192675075Y-90748945D01*
X192680024Y-90717411D01*
X192682554Y-90681264D01*
X192679991Y-90607788D01*
X192662771Y-90537553D01*
X192630195Y-90477851D01*
X192581980Y-90428181D01*
X192517844Y-90388040D01*
X192455153Y-90357174D01*
X191590952Y-90354595D01*
X191546897Y-90354460D01*
X191397705Y-90353931D01*
X191266108Y-90353335D01*
X191151198Y-90352660D01*
X191052068Y-90351888D01*
X190967808Y-90351007D01*
X190897511Y-90350001D01*
X190840269Y-90348856D01*
X190795174Y-90347558D01*
X190761317Y-90346090D01*
X190737790Y-90344440D01*
X190723685Y-90342592D01*
X190718094Y-90340531D01*
X190712618Y-90331805D01*
X190700535Y-90307180D01*
X190686884Y-90274924D01*
X190673518Y-90239983D01*
X190662291Y-90207304D01*
X190655054Y-90181832D01*
X190653661Y-90168514D01*
X190654462Y-90167552D01*
X190659827Y-90165524D01*
X190670920Y-90163731D01*
X190688743Y-90162159D01*
X190714299Y-90160794D01*
X190748588Y-90159623D01*
X190792613Y-90158632D01*
X190847376Y-90157808D01*
X190913877Y-90157138D01*
X190993120Y-90156608D01*
X191086107Y-90156204D01*
X191193837Y-90155914D01*
X191317315Y-90155723D01*
X191457541Y-90155618D01*
X191615518Y-90155587D01*
X191744971Y-90155593D01*
G37*
G36*
X201958725Y-90656742D02*
G01*
X201969313Y-90667236D01*
X201969313Y-91185134D01*
X201969313Y-91703033D01*
X202358544Y-92092266D01*
X202747774Y-92481499D01*
X202439090Y-92481499D01*
X202130406Y-92481499D01*
X201725992Y-92077087D01*
X201321578Y-91672675D01*
X201321578Y-91159462D01*
X201321578Y-90646248D01*
X201634858Y-90646248D01*
X201948137Y-90646248D01*
X201958725Y-90656742D01*
G37*
G36*
X203273218Y-90633167D02*
G01*
X203273218Y-91547832D01*
X203211236Y-91609831D01*
X203149255Y-91671829D01*
X202807675Y-91671829D01*
X202466096Y-91671829D01*
X202404097Y-91609848D01*
X202342099Y-91547866D01*
X202342099Y-91024951D01*
X202342099Y-90502036D01*
X202235413Y-90395340D01*
X202128727Y-90288644D01*
X201841964Y-90288564D01*
X201555201Y-90288485D01*
X201841116Y-90003550D01*
X202127030Y-89718616D01*
X202700124Y-89718559D01*
X203273218Y-89718502D01*
X203273218Y-90633167D01*
G37*
G36*
X203824805Y-90269246D02*
G01*
X204081201Y-90525637D01*
X204081201Y-91099997D01*
X204081201Y-91674357D01*
X203677632Y-92077928D01*
X203274064Y-92481499D01*
X203095262Y-92481499D01*
X202916460Y-92481499D01*
X202502769Y-92067810D01*
X202089077Y-91654120D01*
X202089077Y-91130351D01*
X202089077Y-90606582D01*
X202049006Y-90566537D01*
X202008936Y-90526493D01*
X201663868Y-90526067D01*
X201318800Y-90525641D01*
X201378586Y-90467025D01*
X201438372Y-90408408D01*
X201753175Y-90408408D01*
X202067978Y-90408408D01*
X202141783Y-90482199D01*
X202215588Y-90555990D01*
X202215588Y-91073001D01*
X202215588Y-91590013D01*
X202405773Y-91780204D01*
X202595958Y-91970395D01*
X202934144Y-91970395D01*
X203272330Y-91970395D01*
X203420370Y-91822390D01*
X203568410Y-91674386D01*
X203568410Y-90843620D01*
X203568410Y-90012855D01*
X203824805Y-90269246D01*
G37*
G36*
X198804768Y-91904960D02*
G01*
X198848749Y-91948889D01*
X198937855Y-92039017D01*
X199027900Y-92131345D01*
X199110474Y-92217220D01*
X199177163Y-92287991D01*
X199330759Y-92453643D01*
X198908233Y-92453643D01*
X198485707Y-92453643D01*
X198137724Y-92105349D01*
X197789740Y-91757055D01*
X198143695Y-91757055D01*
X198187229Y-91757038D01*
X198296015Y-91756660D01*
X198377318Y-91755462D01*
X198436001Y-91753020D01*
X198476928Y-91748909D01*
X198504963Y-91742704D01*
X198524969Y-91733982D01*
X198541809Y-91722318D01*
X198585969Y-91687582D01*
X198804768Y-91904960D01*
G37*
G36*
X198074012Y-90690621D02*
G01*
X198469028Y-90695182D01*
X198474020Y-90818359D01*
X198479012Y-90941536D01*
X198291378Y-90941536D01*
X198103744Y-90941536D01*
X198103744Y-90992506D01*
X198103744Y-91043476D01*
X198303376Y-91047129D01*
X198503008Y-91050783D01*
X198303376Y-91056164D01*
X198103744Y-91061544D01*
X198103744Y-91120470D01*
X198103744Y-91179396D01*
X198290634Y-91179396D01*
X198477523Y-91179396D01*
X198477523Y-91328907D01*
X198477523Y-91328963D01*
X198475073Y-91411761D01*
X198468094Y-91469901D01*
X198457135Y-91498807D01*
X198453592Y-91501263D01*
X198427563Y-91508054D01*
X198377442Y-91513117D01*
X198300765Y-91516578D01*
X198195064Y-91518562D01*
X198057871Y-91519195D01*
X197678995Y-91519195D01*
X197678995Y-91102628D01*
X197678995Y-90686060D01*
X198074012Y-90690621D01*
G37*
G36*
X199564881Y-90604647D02*
G01*
X199564801Y-90795361D01*
X199564496Y-90958308D01*
X199563876Y-91092890D01*
X199562850Y-91201939D01*
X199561330Y-91288285D01*
X199559224Y-91354760D01*
X199556443Y-91404192D01*
X199552896Y-91439414D01*
X199548494Y-91463257D01*
X199543146Y-91478550D01*
X199536763Y-91488125D01*
X199536246Y-91488691D01*
X199523865Y-91499087D01*
X199505448Y-91506831D01*
X199476339Y-91512306D01*
X199431879Y-91515895D01*
X199367413Y-91517984D01*
X199278283Y-91518956D01*
X199159831Y-91519195D01*
X199158902Y-91519195D01*
X199033289Y-91519963D01*
X198934916Y-91519790D01*
X198860481Y-91515015D01*
X198806683Y-91501978D01*
X198770220Y-91477017D01*
X198747791Y-91436471D01*
X198736093Y-91376679D01*
X198731825Y-91293980D01*
X198731686Y-91184714D01*
X198732373Y-91045219D01*
X198732373Y-90645126D01*
X198626676Y-90538482D01*
X198520980Y-90431837D01*
X198163859Y-90431837D01*
X197806738Y-90431837D01*
X198146219Y-90092038D01*
X198485700Y-89752239D01*
X199025290Y-89752239D01*
X199564881Y-89752239D01*
X199564881Y-90604647D01*
G37*
G36*
X200168025Y-90363877D02*
G01*
X200380399Y-90575742D01*
X200380399Y-91111051D01*
X200380399Y-91646360D01*
X199977021Y-92050001D01*
X199862963Y-92163234D01*
X199758124Y-92265229D01*
X199672336Y-92346224D01*
X199606635Y-92405263D01*
X199562059Y-92441389D01*
X199539645Y-92453643D01*
X199535839Y-92452686D01*
X199507582Y-92433701D01*
X199457163Y-92391019D01*
X199385460Y-92325458D01*
X199293354Y-92237836D01*
X199181726Y-92128972D01*
X199051455Y-91999684D01*
X198597262Y-91545725D01*
X198540831Y-91600420D01*
X198484401Y-91655115D01*
X198099690Y-91655115D01*
X198041306Y-91654968D01*
X197935973Y-91653908D01*
X197844973Y-91651959D01*
X197773216Y-91649280D01*
X197725616Y-91646032D01*
X197707083Y-91642372D01*
X197708910Y-91640836D01*
X197735287Y-91637648D01*
X197788926Y-91635321D01*
X197865072Y-91633957D01*
X197958969Y-91633661D01*
X198065863Y-91634537D01*
X198432541Y-91639445D01*
X198515854Y-91558083D01*
X198599167Y-91476720D01*
X198593563Y-91074146D01*
X198587958Y-90671572D01*
X198528845Y-90610589D01*
X198469732Y-90549606D01*
X198075967Y-90554434D01*
X198007355Y-90555081D01*
X197903545Y-90555250D01*
X197815315Y-90554385D01*
X197747265Y-90552578D01*
X197703993Y-90549925D01*
X197690096Y-90546519D01*
X197697413Y-90544319D01*
X197733963Y-90540930D01*
X197796760Y-90538029D01*
X197880968Y-90535769D01*
X197981751Y-90534300D01*
X198094275Y-90533777D01*
X198490559Y-90533777D01*
X198552001Y-90601786D01*
X198613443Y-90669795D01*
X198613443Y-91073012D01*
X198613443Y-91476229D01*
X198821315Y-91684602D01*
X199029187Y-91892974D01*
X199326463Y-91892974D01*
X199623738Y-91892974D01*
X199789694Y-91727641D01*
X199955650Y-91562307D01*
X199955650Y-90857160D01*
X199955650Y-90152013D01*
X200168025Y-90363877D01*
G37*
G36*
X195539890Y-90309995D02*
G01*
X195542507Y-90320505D01*
X195537766Y-90325525D01*
X195516779Y-90332652D01*
X195508683Y-90331015D01*
X195506065Y-90320505D01*
X195510806Y-90315485D01*
X195531794Y-90308358D01*
X195539890Y-90309995D01*
G37*
G36*
X195646645Y-90309936D02*
G01*
X195663980Y-90320505D01*
X195666491Y-90329452D01*
X195655868Y-90331236D01*
X195633612Y-90320505D01*
X195631168Y-90318907D01*
X195622338Y-90310510D01*
X195635932Y-90308544D01*
X195646645Y-90309936D01*
G37*
G36*
X195325904Y-90428691D02*
G01*
X195348683Y-90447481D01*
X195354577Y-90452714D01*
X195397463Y-90483348D01*
X195451086Y-90513200D01*
X195507912Y-90538809D01*
X195560408Y-90556714D01*
X195601041Y-90563451D01*
X195618471Y-90562487D01*
X195679743Y-90547048D01*
X195738930Y-90516565D01*
X195785669Y-90475948D01*
X195792822Y-90467850D01*
X195812612Y-90449849D01*
X195824062Y-90446169D01*
X195824165Y-90446277D01*
X195820657Y-90458559D01*
X195802194Y-90479873D01*
X195773806Y-90505646D01*
X195740522Y-90531304D01*
X195707372Y-90552274D01*
X195688860Y-90560628D01*
X195628668Y-90571932D01*
X195559425Y-90566898D01*
X195486414Y-90546796D01*
X195414920Y-90512895D01*
X195350225Y-90466465D01*
X195334314Y-90451853D01*
X195315216Y-90431598D01*
X195309949Y-90421468D01*
X195311452Y-90421055D01*
X195325904Y-90428691D01*
G37*
G36*
X195909175Y-90298070D02*
G01*
X195912177Y-90394994D01*
X195917075Y-90460694D01*
X195918139Y-90474961D01*
X195928172Y-90542032D01*
X195943389Y-90600262D01*
X195964903Y-90653710D01*
X195993825Y-90706435D01*
X196031269Y-90762494D01*
X196078346Y-90825945D01*
X196157619Y-90934378D01*
X196249802Y-91076835D01*
X196320878Y-91209757D01*
X196371206Y-91333928D01*
X196394745Y-91425311D01*
X196401140Y-91450137D01*
X196411039Y-91559169D01*
X196411156Y-91583814D01*
X196413344Y-91622054D01*
X196420876Y-91650566D01*
X196437034Y-91678915D01*
X196465099Y-91716660D01*
X196483180Y-91739382D01*
X196514947Y-91772596D01*
X196548449Y-91795283D01*
X196592888Y-91814488D01*
X196616158Y-91824131D01*
X196664326Y-91850714D01*
X196697599Y-91878880D01*
X196702755Y-91885105D01*
X196714794Y-91902243D01*
X196722113Y-91921094D01*
X196725649Y-91947299D01*
X196726341Y-91986499D01*
X196725127Y-92044334D01*
X196724699Y-92079662D01*
X196726096Y-92140691D01*
X196729786Y-92194714D01*
X196735306Y-92233107D01*
X196740596Y-92262844D01*
X196740420Y-92270748D01*
X196739258Y-92322971D01*
X196718475Y-92368643D01*
X196678280Y-92399761D01*
X196655850Y-92407745D01*
X196611957Y-92418923D01*
X196556437Y-92430212D01*
X196496169Y-92440090D01*
X196458747Y-92445927D01*
X196356407Y-92467918D01*
X196276077Y-92495460D01*
X196256260Y-92503881D01*
X196189672Y-92528811D01*
X196123719Y-92549107D01*
X196065466Y-92562758D01*
X196021978Y-92567755D01*
X195998224Y-92566451D01*
X195932843Y-92551433D01*
X195872166Y-92522808D01*
X195825661Y-92484588D01*
X195810967Y-92468231D01*
X195794145Y-92453250D01*
X195774173Y-92442526D01*
X195745829Y-92434108D01*
X195703894Y-92426046D01*
X195643144Y-92416389D01*
X195600151Y-92410011D01*
X195541662Y-92403054D01*
X195493373Y-92400619D01*
X195446761Y-92402426D01*
X195393302Y-92408197D01*
X195377562Y-92410150D01*
X195321583Y-92416183D01*
X195270931Y-92420401D01*
X195234965Y-92421988D01*
X195228916Y-92422052D01*
X195195641Y-92426452D01*
X195184162Y-92437389D01*
X195182898Y-92445938D01*
X195168315Y-92476313D01*
X195142017Y-92511342D01*
X195109812Y-92543964D01*
X195077504Y-92567118D01*
X195033581Y-92583250D01*
X194959437Y-92591394D01*
X194926516Y-92590092D01*
X194863469Y-92577581D01*
X194801391Y-92550088D01*
X194736089Y-92505494D01*
X194663371Y-92441678D01*
X194614364Y-92397567D01*
X194541193Y-92342982D01*
X194460259Y-92296910D01*
X194434225Y-92283362D01*
X194384825Y-92255190D01*
X194343573Y-92228593D01*
X194317415Y-92207896D01*
X194306753Y-92195912D01*
X194288565Y-92158417D01*
X194289022Y-92119289D01*
X194324280Y-92119289D01*
X194326695Y-92156223D01*
X194349035Y-92187496D01*
X194362041Y-92197312D01*
X194395575Y-92218420D01*
X194440826Y-92244261D01*
X194491766Y-92271299D01*
X194564972Y-92312216D01*
X194629050Y-92357650D01*
X194689594Y-92412584D01*
X194705668Y-92428152D01*
X194750693Y-92467827D01*
X194794421Y-92501615D01*
X194829288Y-92523509D01*
X194878140Y-92544298D01*
X194952098Y-92560188D01*
X195018158Y-92553961D01*
X195075240Y-92525792D01*
X195122263Y-92475858D01*
X195130906Y-92462398D01*
X195147230Y-92426967D01*
X195154618Y-92387345D01*
X195153388Y-92348445D01*
X195815867Y-92348445D01*
X195815912Y-92352544D01*
X195822257Y-92387345D01*
X195827041Y-92413586D01*
X195855590Y-92464552D01*
X195898416Y-92499685D01*
X195923588Y-92509827D01*
X195980714Y-92521828D01*
X196044545Y-92525221D01*
X196104489Y-92519012D01*
X196109997Y-92517757D01*
X196149246Y-92505823D01*
X196199139Y-92487386D01*
X196250256Y-92465879D01*
X196289653Y-92449357D01*
X196346199Y-92430740D01*
X196410169Y-92416235D01*
X196489997Y-92403651D01*
X196546897Y-92395141D01*
X196614732Y-92381050D01*
X196662185Y-92363686D01*
X196691612Y-92340927D01*
X196705373Y-92310654D01*
X196705825Y-92270748D01*
X196695328Y-92219089D01*
X196686112Y-92173406D01*
X196682155Y-92114908D01*
X196685246Y-92042616D01*
X196686838Y-92020245D01*
X196687861Y-91962250D01*
X196680489Y-91921340D01*
X196661915Y-91892369D01*
X196629329Y-91870191D01*
X196579923Y-91849660D01*
X196557388Y-91840953D01*
X196518096Y-91820863D01*
X196485135Y-91793755D01*
X196449145Y-91752688D01*
X196419568Y-91718431D01*
X196371929Y-91675691D01*
X196327076Y-91653712D01*
X196283593Y-91652972D01*
X196240069Y-91673944D01*
X196195088Y-91717106D01*
X196147238Y-91782934D01*
X196095105Y-91871903D01*
X196065996Y-91923267D01*
X196027120Y-91987149D01*
X195988872Y-92045687D01*
X195956428Y-92090716D01*
X195930239Y-92124544D01*
X195883868Y-92187487D01*
X195851185Y-92237789D01*
X195830252Y-92279011D01*
X195819126Y-92314710D01*
X195815867Y-92348445D01*
X195153388Y-92348445D01*
X195153087Y-92338925D01*
X195142656Y-92277100D01*
X195123343Y-92197263D01*
X195111074Y-92146802D01*
X195095169Y-92070256D01*
X195082280Y-91995509D01*
X195074397Y-91933293D01*
X195066395Y-91857761D01*
X195056039Y-91793962D01*
X195042788Y-91745717D01*
X195025355Y-91708455D01*
X195002455Y-91677604D01*
X194967708Y-91638716D01*
X194958917Y-91685574D01*
X194956678Y-91694916D01*
X194939248Y-91736190D01*
X194914045Y-91773528D01*
X194893119Y-91794882D01*
X194865655Y-91810623D01*
X194830242Y-91814623D01*
X194803079Y-91813008D01*
X194732326Y-91792497D01*
X194664332Y-91748125D01*
X194639720Y-91729678D01*
X194611548Y-91719474D01*
X194575322Y-91720961D01*
X194557690Y-91723809D01*
X194524431Y-91734221D01*
X194498818Y-91753160D01*
X194477899Y-91784477D01*
X194458719Y-91832024D01*
X194438327Y-91899654D01*
X194426377Y-91932793D01*
X194400688Y-91984773D01*
X194370715Y-92031457D01*
X194342129Y-92074263D01*
X194324280Y-92119289D01*
X194289022Y-92119289D01*
X194289080Y-92114369D01*
X194308659Y-92061250D01*
X194347661Y-91996546D01*
X194389362Y-91924859D01*
X194417712Y-91844991D01*
X194428086Y-91806482D01*
X194447647Y-91765159D01*
X194478021Y-91729592D01*
X194500982Y-91706661D01*
X194514202Y-91686930D01*
X194515496Y-91665501D01*
X194511109Y-91646321D01*
X194577948Y-91646321D01*
X194580532Y-91671467D01*
X194595735Y-91681002D01*
X194604425Y-91679315D01*
X194607386Y-91669212D01*
X194604175Y-91652679D01*
X194616668Y-91625110D01*
X194645007Y-91594639D01*
X194685097Y-91564249D01*
X194732844Y-91536923D01*
X194784153Y-91515645D01*
X194834932Y-91503399D01*
X194849883Y-91501733D01*
X194898480Y-91504805D01*
X194932077Y-91524731D01*
X194954172Y-91563266D01*
X194954336Y-91563713D01*
X194974622Y-91597597D01*
X195002788Y-91622995D01*
X195004625Y-91624082D01*
X195039143Y-91657627D01*
X195068453Y-91710805D01*
X195091161Y-91779453D01*
X195105870Y-91859408D01*
X195111187Y-91946505D01*
X195113642Y-91981417D01*
X195121038Y-92032153D01*
X195131633Y-92083761D01*
X195151987Y-92168092D01*
X195225774Y-92208962D01*
X195264251Y-92228596D01*
X195317597Y-92252052D01*
X195363615Y-92268529D01*
X195431930Y-92284684D01*
X195535124Y-92294617D01*
X195631900Y-92286678D01*
X195719113Y-92261549D01*
X195793618Y-92219914D01*
X195852268Y-92162455D01*
X195853608Y-92160694D01*
X195880708Y-92122057D01*
X195891201Y-92097883D01*
X195885489Y-92085407D01*
X195863974Y-92081863D01*
X195842111Y-92073162D01*
X195820417Y-92050944D01*
X195808780Y-92028783D01*
X195806825Y-92004866D01*
X195815169Y-91969927D01*
X195834505Y-91929528D01*
X195872074Y-91878547D01*
X195922998Y-91824111D01*
X195983193Y-91770557D01*
X196048573Y-91722220D01*
X196115218Y-91673444D01*
X196170171Y-91619698D01*
X196206267Y-91563216D01*
X196226094Y-91499815D01*
X196232239Y-91425311D01*
X196230524Y-91388262D01*
X196222771Y-91329669D01*
X196210858Y-91279544D01*
X196210376Y-91278076D01*
X196196985Y-91242715D01*
X196177602Y-91197767D01*
X196154491Y-91147774D01*
X196129915Y-91097279D01*
X196106135Y-91050824D01*
X196085415Y-91012951D01*
X196070017Y-90988203D01*
X196062204Y-90981121D01*
X196062259Y-90985554D01*
X196069677Y-91007775D01*
X196084875Y-91043833D01*
X196105781Y-91088619D01*
X196140404Y-91166140D01*
X196174256Y-91268170D01*
X196188839Y-91359432D01*
X196184415Y-91441957D01*
X196161248Y-91517779D01*
X196140030Y-91565603D01*
X196129134Y-91510940D01*
X196119268Y-91463754D01*
X196096372Y-91371117D01*
X196068693Y-91282489D01*
X196033521Y-91189674D01*
X195988147Y-91084476D01*
X195966552Y-91035828D01*
X195916466Y-90916316D01*
X195877146Y-90811649D01*
X195849282Y-90723754D01*
X195833568Y-90654556D01*
X195826682Y-90612766D01*
X195819907Y-90583568D01*
X195811905Y-90572005D01*
X195799994Y-90574652D01*
X195781490Y-90588086D01*
X195750963Y-90611179D01*
X195685298Y-90654033D01*
X195628396Y-90678741D01*
X195576070Y-90686167D01*
X195524132Y-90677175D01*
X195468396Y-90652626D01*
X195449630Y-90642570D01*
X195397192Y-90615293D01*
X195348151Y-90590695D01*
X195324932Y-90578642D01*
X195287499Y-90556360D01*
X195261802Y-90537460D01*
X195236190Y-90513857D01*
X195220218Y-90572059D01*
X195200047Y-90638064D01*
X195165777Y-90734360D01*
X195122978Y-90842534D01*
X195073662Y-90957540D01*
X195019842Y-91074332D01*
X194999887Y-91117078D01*
X194968542Y-91188035D01*
X194940814Y-91255286D01*
X194919141Y-91312832D01*
X194905958Y-91354678D01*
X194899290Y-91380500D01*
X194888754Y-91415758D01*
X194878925Y-91434818D01*
X194866641Y-91442626D01*
X194848737Y-91444130D01*
X194836675Y-91443710D01*
X194820767Y-91438034D01*
X194811582Y-91420707D01*
X194804400Y-91385483D01*
X194801637Y-91311301D01*
X194815409Y-91226675D01*
X194843807Y-91140363D01*
X194884583Y-91059151D01*
X194935488Y-90989824D01*
X194957136Y-90963815D01*
X194971443Y-90941404D01*
X194972507Y-90931647D01*
X194960366Y-90937140D01*
X194935058Y-90960480D01*
X194913417Y-90984216D01*
X194846768Y-91076816D01*
X194796621Y-91179407D01*
X194765273Y-91286474D01*
X194755022Y-91392504D01*
X194755063Y-91403651D01*
X194753715Y-91445868D01*
X194750342Y-91475479D01*
X194745532Y-91486646D01*
X194740263Y-91487387D01*
X194713821Y-91499043D01*
X194679024Y-91520910D01*
X194642891Y-91547872D01*
X194612438Y-91574812D01*
X194594685Y-91596615D01*
X194588047Y-91610751D01*
X194577948Y-91646321D01*
X194511109Y-91646321D01*
X194507928Y-91632413D01*
X194500517Y-91599032D01*
X194492256Y-91488871D01*
X194506698Y-91371042D01*
X194543709Y-91245928D01*
X194603156Y-91113911D01*
X194684904Y-90975371D01*
X194788820Y-90830692D01*
X194810371Y-90802899D01*
X194872154Y-90720833D01*
X194920124Y-90651164D01*
X194956000Y-90589402D01*
X194981498Y-90531055D01*
X194998339Y-90471634D01*
X195003109Y-90440326D01*
X195234869Y-90440326D01*
X195237263Y-90459204D01*
X195251657Y-90488068D01*
X195254946Y-90493753D01*
X195272437Y-90516004D01*
X195299218Y-90538183D01*
X195339649Y-90563477D01*
X195398088Y-90595069D01*
X195455216Y-90623661D01*
X195515350Y-90649662D01*
X195562786Y-90663821D01*
X195601636Y-90667282D01*
X195636012Y-90661185D01*
X195637448Y-90660719D01*
X195669621Y-90644844D01*
X195709667Y-90617898D01*
X195752912Y-90583984D01*
X195794682Y-90547204D01*
X195830305Y-90511660D01*
X195855105Y-90481456D01*
X195864411Y-90460694D01*
X195863427Y-90453788D01*
X195853596Y-90435331D01*
X195831262Y-90410178D01*
X195794029Y-90375818D01*
X195739502Y-90329739D01*
X195714218Y-90309735D01*
X195665210Y-90278454D01*
X195618982Y-90262923D01*
X195569874Y-90262704D01*
X195512223Y-90277354D01*
X195440370Y-90306432D01*
X195418253Y-90316296D01*
X195369553Y-90337857D01*
X195328857Y-90355665D01*
X195303241Y-90366615D01*
X195275407Y-90384384D01*
X195249263Y-90412514D01*
X195244126Y-90420496D01*
X195234869Y-90440326D01*
X195003109Y-90440326D01*
X195008241Y-90406648D01*
X195012922Y-90331606D01*
X195014100Y-90242018D01*
X195014867Y-90197730D01*
X195241525Y-90197730D01*
X195243480Y-90260660D01*
X195261712Y-90317783D01*
X195264901Y-90323870D01*
X195277984Y-90346967D01*
X195284689Y-90355655D01*
X195296221Y-90350947D01*
X195320819Y-90341163D01*
X195341256Y-90331358D01*
X195353560Y-90316658D01*
X195342077Y-90302284D01*
X195335627Y-90293220D01*
X195330529Y-90265318D01*
X195331327Y-90228703D01*
X195337579Y-90192365D01*
X195348839Y-90165293D01*
X195372037Y-90144307D01*
X195399525Y-90141387D01*
X195425165Y-90157078D01*
X195444934Y-90188776D01*
X195454805Y-90233875D01*
X195454927Y-90235595D01*
X195457109Y-90261279D01*
X195458700Y-90271892D01*
X195458960Y-90271841D01*
X195471994Y-90267589D01*
X195498179Y-90258580D01*
X195517926Y-90250245D01*
X195532984Y-90233736D01*
X195536212Y-90205469D01*
X195645759Y-90205469D01*
X195650486Y-90237441D01*
X195669255Y-90259341D01*
X195669592Y-90259521D01*
X195694119Y-90270264D01*
X195704408Y-90264187D01*
X195706496Y-90237796D01*
X195706696Y-90231090D01*
X195715839Y-90194422D01*
X195735430Y-90170195D01*
X195761088Y-90164306D01*
X195777594Y-90173431D01*
X195792009Y-90201140D01*
X195795364Y-90240590D01*
X195786339Y-90285442D01*
X195778132Y-90312466D01*
X195777156Y-90332708D01*
X195786474Y-90345647D01*
X195794941Y-90350168D01*
X195809253Y-90344079D01*
X195828133Y-90318555D01*
X195842998Y-90283643D01*
X195851585Y-90230155D01*
X195849722Y-90173351D01*
X195837843Y-90121839D01*
X195816377Y-90084224D01*
X195813947Y-90081707D01*
X195777063Y-90057668D01*
X195739077Y-90054794D01*
X195703473Y-90070611D01*
X195673731Y-90102646D01*
X195653333Y-90148423D01*
X195646017Y-90203527D01*
X195645759Y-90205469D01*
X195536212Y-90205469D01*
X195536434Y-90203527D01*
X195536216Y-90193898D01*
X195524780Y-90134831D01*
X195498677Y-90085206D01*
X195461670Y-90047922D01*
X195417526Y-90025877D01*
X195370009Y-90021971D01*
X195322884Y-90039102D01*
X195318403Y-90042057D01*
X195280478Y-90081633D01*
X195254355Y-90135789D01*
X195241525Y-90197730D01*
X195014867Y-90197730D01*
X195015370Y-90168677D01*
X195026292Y-90032360D01*
X195048830Y-89916684D01*
X195083510Y-89820907D01*
X195130857Y-89744285D01*
X195191395Y-89686075D01*
X195265650Y-89645535D01*
X195354145Y-89621921D01*
X195457407Y-89614489D01*
X195524733Y-89617305D01*
X195628166Y-89634752D01*
X195714649Y-89668748D01*
X195785337Y-89720001D01*
X195841386Y-89789225D01*
X195883950Y-89877129D01*
X195889185Y-89892491D01*
X195895597Y-89917942D01*
X195900344Y-89949096D01*
X195903698Y-89989672D01*
X195905935Y-90043387D01*
X195907328Y-90113959D01*
X195908153Y-90205106D01*
X195908428Y-90230155D01*
X195909175Y-90298070D01*
G37*
%TD*%
M02*
