%TF.GenerationSoftware,KiCad,Pcbnew,8.0.9-8.0.9-0~ubuntu24.04.1*%
%TF.CreationDate,2025-08-06T19:27:29-03:00*%
%TF.ProjectId,eeg,6565672e-6b69-4636-9164-5f7063625858,rev?*%
%TF.SameCoordinates,Original*%
%TF.FileFunction,Copper,L2,Inr*%
%TF.FilePolarity,Positive*%
%FSLAX46Y46*%
G04 Gerber Fmt 4.6, Leading zero omitted, Abs format (unit mm)*
G04 Created by KiCad (PCBNEW 8.0.9-8.0.9-0~ubuntu24.04.1) date 2025-08-06 19:27:29*
%MOMM*%
%LPD*%
G01*
G04 APERTURE LIST*
%TA.AperFunction,ComponentPad*%
%ADD10C,3.800000*%
%TD*%
%TA.AperFunction,ComponentPad*%
%ADD11R,1.700000X1.700000*%
%TD*%
%TA.AperFunction,ComponentPad*%
%ADD12O,1.700000X1.700000*%
%TD*%
%TA.AperFunction,ViaPad*%
%ADD13C,0.600000*%
%TD*%
%TA.AperFunction,ViaPad*%
%ADD14C,0.800000*%
%TD*%
%TA.AperFunction,Conductor*%
%ADD15C,0.300000*%
%TD*%
%TA.AperFunction,Conductor*%
%ADD16C,0.500000*%
%TD*%
%TA.AperFunction,Conductor*%
%ADD17C,0.600000*%
%TD*%
G04 APERTURE END LIST*
D10*
%TO.N,GND*%
%TO.C,H3*%
X207080000Y-55560000D03*
%TD*%
D11*
%TO.N,MCU_RX*%
%TO.C,J4*%
X191250000Y-55400000D03*
D12*
%TO.N,MCU_TX*%
X188710000Y-55400000D03*
%TO.N,GND*%
X186170000Y-55400000D03*
%TD*%
D10*
%TO.N,GNDA*%
%TO.C,H1*%
X145810000Y-55560000D03*
%TD*%
D11*
%TO.N,GND*%
%TO.C,J1*%
X207270000Y-64560000D03*
D12*
%TO.N,VIN_SWT*%
X207270000Y-62020000D03*
%TD*%
D11*
%TO.N,GND*%
%TO.C,J2*%
X207210000Y-68465000D03*
D12*
%TO.N,SWCLK*%
X207210000Y-71005000D03*
%TO.N,SWDIO*%
X207210000Y-73545000D03*
%TO.N,SWO*%
X207210000Y-76085000D03*
%TO.N,VDD33*%
X207210000Y-78625000D03*
%TD*%
D10*
%TO.N,GNDA*%
%TO.C,H2*%
X145796000Y-91186000D03*
%TD*%
%TO.N,GND*%
%TO.C,H4*%
X207080000Y-91186000D03*
%TD*%
D13*
%TO.N,GND*%
X209000000Y-89000000D03*
X209000000Y-87500000D03*
X209000000Y-86000000D03*
X209000000Y-84500000D03*
X209000000Y-83000000D03*
X209000000Y-81500000D03*
X209000000Y-80000000D03*
X209000000Y-78500000D03*
X209000000Y-77000000D03*
X209000000Y-75500000D03*
X209000000Y-74000000D03*
X209000000Y-72500000D03*
X209000000Y-71000000D03*
X209000000Y-69500000D03*
X209000000Y-68000000D03*
X209000000Y-66500000D03*
X209000000Y-65000000D03*
X209000000Y-63500000D03*
X209000000Y-62000000D03*
X209000000Y-60500000D03*
X209000000Y-59000000D03*
X209000000Y-57500000D03*
X207500000Y-87500000D03*
X207500000Y-86000000D03*
X207500000Y-80000000D03*
X207500000Y-66500000D03*
X207500000Y-59000000D03*
X206000000Y-87500000D03*
X206000000Y-86000000D03*
X206000000Y-80000000D03*
X206000000Y-72500000D03*
X206000000Y-66500000D03*
X204500000Y-92000000D03*
X204500000Y-90500000D03*
X204500000Y-89000000D03*
X204500000Y-87500000D03*
X204500000Y-86000000D03*
X204500000Y-80000000D03*
X204500000Y-74000000D03*
X204500000Y-72500000D03*
X204500000Y-69500000D03*
X204500000Y-68000000D03*
X204500000Y-66500000D03*
X204500000Y-65000000D03*
X204500000Y-63500000D03*
X204500000Y-62000000D03*
X204500000Y-60500000D03*
X204500000Y-57500000D03*
X204500000Y-56000000D03*
X204500000Y-54500000D03*
X203000000Y-92000000D03*
X203000000Y-90500000D03*
X203000000Y-89000000D03*
X203000000Y-87500000D03*
X203000000Y-86000000D03*
X203000000Y-80000000D03*
X203000000Y-72500000D03*
X203000000Y-71000000D03*
X203000000Y-68000000D03*
X203000000Y-66500000D03*
X203000000Y-65000000D03*
X203000000Y-62000000D03*
X203000000Y-60500000D03*
X203000000Y-57500000D03*
X201500000Y-92000000D03*
X201500000Y-90500000D03*
X201500000Y-89000000D03*
X201500000Y-87500000D03*
X201500000Y-68000000D03*
X201500000Y-66500000D03*
X201500000Y-65000000D03*
X201500000Y-62000000D03*
X201500000Y-60500000D03*
X200000000Y-92000000D03*
X200000000Y-68000000D03*
X200000000Y-66500000D03*
X200000000Y-65000000D03*
X200000000Y-62000000D03*
X200000000Y-60500000D03*
X200000000Y-57500000D03*
X198500000Y-92000000D03*
X198500000Y-69500000D03*
X198500000Y-65000000D03*
X198500000Y-62000000D03*
X198500000Y-60500000D03*
X198500000Y-54500000D03*
X197000000Y-92000000D03*
X197000000Y-90500000D03*
X197000000Y-89000000D03*
X197000000Y-86000000D03*
X197000000Y-84500000D03*
X197000000Y-83000000D03*
X197000000Y-81500000D03*
X197000000Y-80000000D03*
X197000000Y-78500000D03*
X197000000Y-69500000D03*
X197000000Y-62000000D03*
X197000000Y-60500000D03*
X195500000Y-86000000D03*
X195500000Y-84500000D03*
X195500000Y-81500000D03*
X195500000Y-80000000D03*
X195500000Y-78500000D03*
X195500000Y-77000000D03*
X195500000Y-68000000D03*
X195500000Y-66500000D03*
X194000000Y-86000000D03*
X194000000Y-84500000D03*
X194000000Y-81500000D03*
X194000000Y-80000000D03*
X194000000Y-78500000D03*
X194000000Y-77000000D03*
X194000000Y-75500000D03*
X194000000Y-62000000D03*
X194000000Y-60500000D03*
X194000000Y-55540000D03*
X194000000Y-54040000D03*
X192500000Y-86000000D03*
X192500000Y-84500000D03*
X192500000Y-80000000D03*
X192500000Y-78500000D03*
X192500000Y-77000000D03*
X192500000Y-75500000D03*
X192500000Y-62000000D03*
X192500000Y-60500000D03*
X192500000Y-57040000D03*
X191000000Y-86000000D03*
X191000000Y-81500000D03*
X191000000Y-80000000D03*
X191000000Y-78500000D03*
X191000000Y-60500000D03*
X189500000Y-92000000D03*
X189500000Y-90500000D03*
X189500000Y-89000000D03*
X189500000Y-83000000D03*
X189500000Y-81500000D03*
X189500000Y-80000000D03*
X189500000Y-74000000D03*
X189500000Y-57040000D03*
X188000000Y-92000000D03*
X188000000Y-75500000D03*
X188000000Y-74000000D03*
X186500000Y-92000000D03*
X186500000Y-90500000D03*
X186500000Y-89000000D03*
X186500000Y-65000000D03*
X186500000Y-63500000D03*
X186500000Y-57040000D03*
X185000000Y-92000000D03*
X185000000Y-90500000D03*
X185000000Y-89000000D03*
X185000000Y-63500000D03*
X185000000Y-57040000D03*
X183500000Y-92000000D03*
X183500000Y-90500000D03*
X183500000Y-89000000D03*
X183500000Y-63500000D03*
X183500000Y-62000000D03*
X183500000Y-60500000D03*
X183500000Y-57040000D03*
X183500000Y-55540000D03*
X183500000Y-54040000D03*
X182000000Y-92000000D03*
X182000000Y-75500000D03*
X182000000Y-74000000D03*
X182000000Y-72500000D03*
X182000000Y-71000000D03*
X182000000Y-69500000D03*
X182000000Y-68000000D03*
X182000000Y-63500000D03*
X182000000Y-57040000D03*
X182000000Y-55540000D03*
X182000000Y-54040000D03*
%TO.N,VDD33*%
X197490000Y-66950000D03*
X185380000Y-71930000D03*
%TO.N,SWO*%
X194680000Y-69760000D03*
X204300000Y-76640000D03*
%TO.N,VDD33*%
X199380000Y-85980000D03*
D14*
X193260000Y-73450000D03*
X193250000Y-68040000D03*
D13*
%TO.N,GND*%
X195060000Y-83270000D03*
D14*
X181230000Y-89310000D03*
D13*
%TO.N,RESET*%
X187400000Y-61005000D03*
X188881000Y-78581000D03*
%TO.N,BOOT*%
X190290000Y-67000000D03*
X187390000Y-67000000D03*
%TO.N,VREF*%
X154860000Y-70610000D03*
X158210000Y-54760000D03*
X151440000Y-66030000D03*
X165080000Y-58640000D03*
X153990000Y-77220000D03*
X156337000Y-59182000D03*
X150114000Y-55626000D03*
X164620000Y-90470000D03*
X154880000Y-82410000D03*
X147066000Y-67564000D03*
X186875331Y-84175331D03*
X164660000Y-66350000D03*
X164610000Y-78410000D03*
X164860000Y-82850000D03*
%TO.N,VDDA33*%
X159040000Y-62520000D03*
X160180000Y-60830000D03*
X160320000Y-72840000D03*
X158890000Y-75050000D03*
X182010000Y-83350000D03*
X170930000Y-90530000D03*
X152630000Y-69930000D03*
D14*
X170380000Y-55540000D03*
D13*
X152660000Y-82570000D03*
X170960000Y-66470000D03*
X160770000Y-85340000D03*
X153540000Y-58020000D03*
X170860000Y-78460000D03*
X158910000Y-86930000D03*
%TO.N,VDD33*%
X187360000Y-78630000D03*
X184150000Y-74320000D03*
X184060000Y-76610000D03*
D14*
%TO.N,VIN_BAT*%
X176830000Y-59000000D03*
X194560000Y-57600000D03*
D13*
X176403000Y-65024000D03*
%TO.N,GNDA*%
X150020000Y-81440000D03*
X168530000Y-63150000D03*
X165800000Y-81600000D03*
X175420000Y-53500000D03*
X158380000Y-76650000D03*
X170340000Y-53500000D03*
X152560000Y-53500000D03*
X160180000Y-53500000D03*
X167800000Y-53500000D03*
X168270000Y-75210000D03*
X175700000Y-82800000D03*
X153280000Y-73590000D03*
X150020000Y-89060000D03*
X172880000Y-58580000D03*
X150020000Y-53500000D03*
X172880000Y-53500000D03*
X175420000Y-76360000D03*
X165860000Y-61740000D03*
X181910000Y-82240000D03*
X165660000Y-79060000D03*
X167800000Y-61120000D03*
X152560000Y-91600000D03*
X162720000Y-53500000D03*
X175420000Y-71280000D03*
X165710000Y-67300000D03*
X169300000Y-79300000D03*
X150020000Y-68740000D03*
X164620000Y-74225000D03*
X155360000Y-89570000D03*
X175420000Y-73820000D03*
X173780000Y-90060000D03*
X175420000Y-78900000D03*
X160020000Y-56250000D03*
D14*
X176670000Y-89320000D03*
D13*
X175420000Y-91600000D03*
X150020000Y-78900000D03*
X165350000Y-89890000D03*
X175420000Y-68740000D03*
X162720000Y-86520000D03*
X177960000Y-81440000D03*
X172880000Y-91600000D03*
X150020000Y-91600000D03*
X168460000Y-87260000D03*
X165880000Y-69500000D03*
X158330000Y-64640000D03*
X165260000Y-53500000D03*
X177960000Y-86520000D03*
X158410000Y-88420000D03*
%TO.N,VCAP*%
X198500000Y-74770000D03*
X199972000Y-74660000D03*
%TO.N,GNDA*%
X174000000Y-88000000D03*
X172000000Y-70000000D03*
X172000000Y-68000000D03*
X170000000Y-92000000D03*
X170000000Y-82000000D03*
X170000000Y-70000000D03*
X170000000Y-68000000D03*
X170000000Y-58000000D03*
X166000000Y-86000000D03*
X166000000Y-66000000D03*
X164000000Y-86000000D03*
X162000000Y-74000000D03*
X158000000Y-80000000D03*
X158000000Y-68000000D03*
X156000000Y-80000000D03*
X156000000Y-78000000D03*
X156000000Y-68000000D03*
X156000000Y-66000000D03*
X152000000Y-90000000D03*
X152000000Y-68000000D03*
X150000000Y-70000000D03*
X148000000Y-88000000D03*
X148000000Y-82000000D03*
X148000000Y-80000000D03*
X148000000Y-78000000D03*
X148000000Y-76000000D03*
X148000000Y-70000000D03*
X148000000Y-66000000D03*
X148000000Y-64000000D03*
X148000000Y-58000000D03*
X148000000Y-54000000D03*
%TO.N,GND*%
X206000000Y-84000000D03*
X206000000Y-82000000D03*
X206000000Y-70000000D03*
X204000000Y-84000000D03*
X204000000Y-82000000D03*
X200000000Y-54000000D03*
X196000000Y-54000000D03*
X192000000Y-54000000D03*
X190000000Y-76000000D03*
X190000000Y-64000000D03*
X190000000Y-54000000D03*
X188000000Y-54000000D03*
X186000000Y-54000000D03*
X182140000Y-88510000D03*
%TD*%
D15*
%TO.N,VDD33*%
X187360000Y-77100000D02*
X191010000Y-73450000D01*
X191010000Y-73450000D02*
X193260000Y-73450000D01*
X184150000Y-74320000D02*
X186160000Y-74320000D01*
X186160000Y-74320000D02*
X186870000Y-75030000D01*
X186870000Y-75030000D02*
X186870000Y-76610000D01*
X184060000Y-76610000D02*
X186870000Y-76610000D01*
X186870000Y-76610000D02*
X187360000Y-77100000D01*
X187360000Y-77100000D02*
X187360000Y-78630000D01*
X202060000Y-77500000D02*
X203185000Y-78625000D01*
X203185000Y-78625000D02*
X207210000Y-78625000D01*
X197490000Y-66950000D02*
X202060000Y-71520000D01*
X202060000Y-71520000D02*
X202060000Y-77500000D01*
X193250000Y-68040000D02*
X192590000Y-68700000D01*
X185360000Y-70660000D02*
X185360000Y-71910000D01*
X192590000Y-68700000D02*
X187320000Y-68700000D01*
X187320000Y-68700000D02*
X185360000Y-70660000D01*
X185360000Y-71910000D02*
X185380000Y-71930000D01*
%TO.N,VCAP*%
X198500000Y-74770000D02*
X198640000Y-74630000D01*
X198640000Y-74630000D02*
X199942000Y-74630000D01*
X199942000Y-74630000D02*
X199972000Y-74660000D01*
D16*
%TO.N,VDD33*%
X193250000Y-68040000D02*
X193240000Y-68050000D01*
X193240000Y-68050000D02*
X193240000Y-73430000D01*
X193240000Y-73430000D02*
X193260000Y-73450000D01*
D15*
X199380000Y-85980000D02*
X199380000Y-79570000D01*
X199380000Y-79570000D02*
X193260000Y-73450000D01*
D17*
%TO.N,VDDA33*%
X160320000Y-72840000D02*
X160320000Y-64850000D01*
X160320000Y-64850000D02*
X169630000Y-55540000D01*
X160180000Y-60830000D02*
X155318000Y-60830000D01*
D15*
X152630000Y-82540000D02*
X152630000Y-69930000D01*
D16*
X165470000Y-55540000D02*
X160180000Y-60830000D01*
D17*
X160770000Y-85340000D02*
X160770000Y-73290000D01*
X160770000Y-85340000D02*
X160770000Y-85800000D01*
D16*
X170960000Y-56120000D02*
X170380000Y-55540000D01*
D17*
X160770000Y-85800000D02*
X159640000Y-86930000D01*
D15*
X152660000Y-82570000D02*
X152630000Y-82540000D01*
D17*
X159640000Y-86930000D02*
X158910000Y-86930000D01*
D16*
X173600000Y-84280000D02*
X170960000Y-81640000D01*
X170960000Y-66470000D02*
X170960000Y-56120000D01*
X170380000Y-55540000D02*
X165470000Y-55540000D01*
D17*
X153540000Y-69020000D02*
X153540000Y-58020000D01*
D16*
X160180000Y-60830000D02*
X160180000Y-61380000D01*
D17*
X160320000Y-73620000D02*
X158890000Y-75050000D01*
D16*
X170950000Y-66480000D02*
X170960000Y-66470000D01*
X170860000Y-78460000D02*
X170960000Y-78560000D01*
X170860000Y-78460000D02*
X170950000Y-78370000D01*
X170960000Y-81640000D02*
X170960000Y-90500000D01*
D17*
X160770000Y-73290000D02*
X160320000Y-72840000D01*
X160320000Y-72840000D02*
X160320000Y-73620000D01*
D16*
X181080000Y-84280000D02*
X173600000Y-84280000D01*
X182010000Y-83350000D02*
X181080000Y-84280000D01*
X170950000Y-78370000D02*
X170950000Y-66480000D01*
X170960000Y-90500000D02*
X170930000Y-90530000D01*
X160180000Y-61380000D02*
X159040000Y-62520000D01*
X170960000Y-78560000D02*
X170960000Y-81640000D01*
D17*
X153540000Y-59052000D02*
X153540000Y-58020000D01*
X155318000Y-60830000D02*
X153540000Y-59052000D01*
X152630000Y-69930000D02*
X153540000Y-69020000D01*
X169630000Y-55540000D02*
X170380000Y-55540000D01*
D16*
%TO.N,VIN_BAT*%
X193570000Y-58590000D02*
X177240000Y-58590000D01*
X176403000Y-59427000D02*
X176830000Y-59000000D01*
X177240000Y-58590000D02*
X176830000Y-59000000D01*
X176403000Y-65024000D02*
X176403000Y-59427000D01*
X194560000Y-57600000D02*
X193570000Y-58590000D01*
%TD*%
%TA.AperFunction,Conductor*%
%TO.N,GNDA*%
G36*
X177370000Y-86350000D02*
G01*
X179300524Y-86352105D01*
X177521292Y-87284083D01*
X177521291Y-87284084D01*
X177521291Y-87284085D01*
X177300000Y-87400000D01*
X177300000Y-86300000D01*
X177370667Y-86300000D01*
X177370000Y-86350000D01*
G37*
%TD.AperFunction*%
%TD*%
%TA.AperFunction,Conductor*%
%TO.N,GND*%
G36*
X207083471Y-52740695D02*
G01*
X207125848Y-52743074D01*
X207388738Y-52757837D01*
X207402541Y-52759393D01*
X207700530Y-52810024D01*
X207714087Y-52813118D01*
X208004533Y-52896794D01*
X208017657Y-52901387D01*
X208296899Y-53017052D01*
X208309421Y-53023081D01*
X208512943Y-53135564D01*
X208573968Y-53169292D01*
X208585742Y-53176690D01*
X208832248Y-53351595D01*
X208843120Y-53360265D01*
X209068495Y-53561671D01*
X209078328Y-53571504D01*
X209279734Y-53796879D01*
X209288404Y-53807751D01*
X209463309Y-54054257D01*
X209470707Y-54066031D01*
X209616914Y-54330571D01*
X209622947Y-54343100D01*
X209738612Y-54622342D01*
X209743205Y-54635466D01*
X209826881Y-54925912D01*
X209829975Y-54939469D01*
X209867280Y-55159029D01*
X209869031Y-55180177D01*
X209757085Y-91996626D01*
X209752240Y-92030576D01*
X209729206Y-92110530D01*
X209724613Y-92123656D01*
X209608947Y-92402900D01*
X209602914Y-92415428D01*
X209456707Y-92679968D01*
X209449309Y-92691742D01*
X209274404Y-92938248D01*
X209265734Y-92949120D01*
X209064328Y-93174495D01*
X209054495Y-93184328D01*
X208829120Y-93385734D01*
X208818248Y-93394404D01*
X208571742Y-93569309D01*
X208559968Y-93576707D01*
X208295428Y-93722914D01*
X208282899Y-93728947D01*
X208003657Y-93844612D01*
X207990533Y-93849205D01*
X207700087Y-93932881D01*
X207686530Y-93935975D01*
X207388549Y-93986605D01*
X207374730Y-93988162D01*
X207069472Y-94005304D01*
X207062500Y-94005499D01*
X180545355Y-94001171D01*
X180478319Y-93981475D01*
X180432572Y-93928664D01*
X180421377Y-93876799D01*
X180439621Y-87911849D01*
X180459510Y-87844871D01*
X180512454Y-87799278D01*
X180563820Y-87788229D01*
X186520000Y-87798026D01*
X187435019Y-86372864D01*
X187613400Y-86095032D01*
X187666184Y-86049254D01*
X187717745Y-86038026D01*
X188600000Y-86038026D01*
X188600000Y-80767026D01*
X188599999Y-80767025D01*
X180544712Y-80776873D01*
X180477648Y-80757270D01*
X180431829Y-80704522D01*
X180420561Y-80652315D01*
X180424684Y-79736307D01*
X180438755Y-76610000D01*
X183628104Y-76610000D01*
X183645598Y-76731678D01*
X183645599Y-76731682D01*
X183696665Y-76843499D01*
X183696666Y-76843501D01*
X183777168Y-76936405D01*
X183880584Y-77002866D01*
X183998535Y-77037500D01*
X184121465Y-77037500D01*
X184239416Y-77002866D01*
X184342832Y-76936405D01*
X184348126Y-76930296D01*
X184406904Y-76892523D01*
X184441838Y-76887500D01*
X186703693Y-76887500D01*
X186770732Y-76907185D01*
X186791374Y-76923819D01*
X187046181Y-77178625D01*
X187079666Y-77239948D01*
X187082500Y-77266306D01*
X187082500Y-78251192D01*
X187062815Y-78318231D01*
X187052213Y-78332395D01*
X186996667Y-78396497D01*
X186996665Y-78396500D01*
X186945599Y-78508317D01*
X186945598Y-78508321D01*
X186928104Y-78630000D01*
X186945598Y-78751678D01*
X186945599Y-78751682D01*
X186989156Y-78847056D01*
X186996666Y-78863501D01*
X187077168Y-78956405D01*
X187180584Y-79022866D01*
X187298535Y-79057500D01*
X187421465Y-79057500D01*
X187539416Y-79022866D01*
X187642832Y-78956405D01*
X187723334Y-78863501D01*
X187774401Y-78751679D01*
X187791896Y-78630000D01*
X187784851Y-78581000D01*
X188449104Y-78581000D01*
X188466598Y-78702678D01*
X188466599Y-78702682D01*
X188508938Y-78795389D01*
X188517666Y-78814501D01*
X188598168Y-78907405D01*
X188701584Y-78973866D01*
X188819535Y-79008500D01*
X188942465Y-79008500D01*
X189060416Y-78973866D01*
X189163832Y-78907405D01*
X189244334Y-78814501D01*
X189295401Y-78702679D01*
X189312896Y-78581000D01*
X189295401Y-78459321D01*
X189295400Y-78459317D01*
X189244334Y-78347500D01*
X189244334Y-78347499D01*
X189163832Y-78254595D01*
X189060416Y-78188134D01*
X188942465Y-78153500D01*
X188819535Y-78153500D01*
X188701584Y-78188134D01*
X188701582Y-78188134D01*
X188701582Y-78188135D01*
X188598169Y-78254594D01*
X188517667Y-78347497D01*
X188517665Y-78347500D01*
X188466599Y-78459317D01*
X188466598Y-78459321D01*
X188449104Y-78581000D01*
X187784851Y-78581000D01*
X187774401Y-78508321D01*
X187774400Y-78508317D01*
X187723334Y-78396500D01*
X187723334Y-78396499D01*
X187667786Y-78332393D01*
X187638762Y-78268839D01*
X187637500Y-78251192D01*
X187637500Y-77266306D01*
X187657185Y-77199267D01*
X187673819Y-77178625D01*
X191088625Y-73763819D01*
X191149948Y-73730334D01*
X191176306Y-73727500D01*
X192746883Y-73727500D01*
X192813922Y-73747185D01*
X192845258Y-73776013D01*
X192883782Y-73826218D01*
X192993974Y-73910771D01*
X192993975Y-73910771D01*
X192993976Y-73910772D01*
X193018389Y-73920884D01*
X193122295Y-73963923D01*
X193191147Y-73972987D01*
X193259999Y-73982052D01*
X193260000Y-73982052D01*
X193260001Y-73982052D01*
X193322738Y-73973792D01*
X193391773Y-73984557D01*
X193426605Y-74009050D01*
X199066181Y-79648626D01*
X199099666Y-79709949D01*
X199102500Y-79736307D01*
X199102500Y-85601192D01*
X199082815Y-85668231D01*
X199072213Y-85682395D01*
X199016667Y-85746497D01*
X199016665Y-85746500D01*
X198965599Y-85858317D01*
X198965598Y-85858321D01*
X198948104Y-85980000D01*
X198965598Y-86101678D01*
X198965599Y-86101682D01*
X199016665Y-86213499D01*
X199016666Y-86213501D01*
X199097168Y-86306405D01*
X199200584Y-86372866D01*
X199318535Y-86407500D01*
X199441465Y-86407500D01*
X199559416Y-86372866D01*
X199662832Y-86306405D01*
X199743334Y-86213501D01*
X199794401Y-86101679D01*
X199811896Y-85980000D01*
X199794401Y-85858321D01*
X199794400Y-85858317D01*
X199743334Y-85746500D01*
X199743334Y-85746499D01*
X199687786Y-85682393D01*
X199658762Y-85618839D01*
X199657500Y-85601192D01*
X199657500Y-79616536D01*
X199657501Y-79616523D01*
X199657501Y-79533467D01*
X199657500Y-79533463D01*
X199638591Y-79462895D01*
X199638589Y-79462892D01*
X199638589Y-79462889D01*
X199602056Y-79399611D01*
X194972445Y-74770000D01*
X198068104Y-74770000D01*
X198085598Y-74891678D01*
X198085599Y-74891682D01*
X198136665Y-75003499D01*
X198136666Y-75003501D01*
X198217168Y-75096405D01*
X198320584Y-75162866D01*
X198438535Y-75197500D01*
X198561465Y-75197500D01*
X198679416Y-75162866D01*
X198782832Y-75096405D01*
X198863334Y-75003501D01*
X198874072Y-74979987D01*
X198919826Y-74927185D01*
X198986866Y-74907500D01*
X199564167Y-74907500D01*
X199631206Y-74927185D01*
X199657879Y-74950296D01*
X199689168Y-74986405D01*
X199792584Y-75052866D01*
X199910535Y-75087500D01*
X200033465Y-75087500D01*
X200151416Y-75052866D01*
X200254832Y-74986405D01*
X200335334Y-74893501D01*
X200386401Y-74781679D01*
X200403896Y-74660000D01*
X200386401Y-74538321D01*
X200386400Y-74538317D01*
X200335334Y-74426500D01*
X200335334Y-74426499D01*
X200254832Y-74333595D01*
X200151416Y-74267134D01*
X200033465Y-74232500D01*
X199910535Y-74232500D01*
X199792584Y-74267134D01*
X199792582Y-74267134D01*
X199792582Y-74267135D01*
X199690380Y-74332816D01*
X199623341Y-74352500D01*
X198684146Y-74352500D01*
X198684130Y-74352499D01*
X198676534Y-74352499D01*
X198613347Y-74352499D01*
X198578412Y-74347476D01*
X198561466Y-74342500D01*
X198561465Y-74342500D01*
X198438535Y-74342500D01*
X198320584Y-74377134D01*
X198320582Y-74377134D01*
X198320582Y-74377135D01*
X198217169Y-74443594D01*
X198136667Y-74536497D01*
X198136665Y-74536500D01*
X198085599Y-74648317D01*
X198085598Y-74648321D01*
X198068104Y-74770000D01*
X194972445Y-74770000D01*
X193819050Y-73616605D01*
X193785565Y-73555282D01*
X193783792Y-73512738D01*
X193792052Y-73450000D01*
X193792052Y-73449998D01*
X193773923Y-73312296D01*
X193773921Y-73312291D01*
X193760385Y-73279613D01*
X193720771Y-73183974D01*
X193643124Y-73082782D01*
X193617930Y-73017613D01*
X193617500Y-73007296D01*
X193617500Y-69760000D01*
X194248104Y-69760000D01*
X194265598Y-69881678D01*
X194265599Y-69881682D01*
X194316665Y-69993499D01*
X194316666Y-69993501D01*
X194397168Y-70086405D01*
X194500584Y-70152866D01*
X194618535Y-70187500D01*
X194741465Y-70187500D01*
X194859416Y-70152866D01*
X194962832Y-70086405D01*
X195043334Y-69993501D01*
X195094401Y-69881679D01*
X195111896Y-69760000D01*
X195094401Y-69638321D01*
X195094400Y-69638317D01*
X195043334Y-69526500D01*
X195043334Y-69526499D01*
X194962832Y-69433595D01*
X194859416Y-69367134D01*
X194741465Y-69332500D01*
X194618535Y-69332500D01*
X194500584Y-69367134D01*
X194500582Y-69367134D01*
X194500582Y-69367135D01*
X194397169Y-69433594D01*
X194316667Y-69526497D01*
X194316665Y-69526500D01*
X194265599Y-69638317D01*
X194265598Y-69638321D01*
X194248104Y-69760000D01*
X193617500Y-69760000D01*
X193617500Y-68469672D01*
X193637185Y-68402633D01*
X193643124Y-68394186D01*
X193662628Y-68368766D01*
X193710771Y-68306026D01*
X193763923Y-68177705D01*
X193782052Y-68040000D01*
X193763923Y-67902295D01*
X193710771Y-67773974D01*
X193626218Y-67663782D01*
X193516026Y-67579229D01*
X193516025Y-67579228D01*
X193516023Y-67579227D01*
X193387708Y-67526078D01*
X193387703Y-67526076D01*
X193250001Y-67507948D01*
X193249999Y-67507948D01*
X193112296Y-67526076D01*
X193112291Y-67526078D01*
X192983976Y-67579227D01*
X192873782Y-67663782D01*
X192789227Y-67773976D01*
X192736078Y-67902291D01*
X192736076Y-67902296D01*
X192717948Y-68039998D01*
X192717948Y-68040002D01*
X192726207Y-68102739D01*
X192715441Y-68171774D01*
X192690949Y-68206604D01*
X192511372Y-68386182D01*
X192450052Y-68419666D01*
X192423693Y-68422500D01*
X187364146Y-68422500D01*
X187364130Y-68422499D01*
X187356534Y-68422499D01*
X187283466Y-68422499D01*
X187283463Y-68422499D01*
X187212895Y-68441408D01*
X187212888Y-68441411D01*
X187149611Y-68477943D01*
X185137943Y-70489611D01*
X185101411Y-70552888D01*
X185101408Y-70552895D01*
X185082499Y-70623463D01*
X185082499Y-70706523D01*
X185082500Y-70706536D01*
X185082500Y-71574272D01*
X185062815Y-71641311D01*
X185052214Y-71655474D01*
X185016667Y-71696497D01*
X185016665Y-71696500D01*
X184965599Y-71808317D01*
X184965598Y-71808321D01*
X184948104Y-71930000D01*
X184965598Y-72051678D01*
X184965599Y-72051682D01*
X185016665Y-72163499D01*
X185016666Y-72163501D01*
X185097168Y-72256405D01*
X185200584Y-72322866D01*
X185318535Y-72357500D01*
X185441465Y-72357500D01*
X185559416Y-72322866D01*
X185662832Y-72256405D01*
X185743334Y-72163501D01*
X185794401Y-72051679D01*
X185811896Y-71930000D01*
X185794401Y-71808321D01*
X185794400Y-71808317D01*
X185743334Y-71696500D01*
X185743334Y-71696499D01*
X185667786Y-71609312D01*
X185638762Y-71545758D01*
X185637500Y-71528111D01*
X185637500Y-70826306D01*
X185657185Y-70759267D01*
X185673819Y-70738625D01*
X187398625Y-69013819D01*
X187459948Y-68980334D01*
X187486306Y-68977500D01*
X192545854Y-68977500D01*
X192545870Y-68977501D01*
X192553466Y-68977501D01*
X192626533Y-68977501D01*
X192626534Y-68977501D01*
X192673186Y-68965000D01*
X192704961Y-68956486D01*
X192705775Y-68959527D01*
X192760453Y-68953620D01*
X192822949Y-68984862D01*
X192858632Y-69044933D01*
X192862500Y-69075661D01*
X192862500Y-73048500D01*
X192842815Y-73115539D01*
X192790011Y-73161294D01*
X192738500Y-73172500D01*
X191054146Y-73172500D01*
X191054130Y-73172499D01*
X191046534Y-73172499D01*
X190973466Y-73172499D01*
X190973463Y-73172499D01*
X190902895Y-73191408D01*
X190902888Y-73191411D01*
X190839611Y-73227943D01*
X190839609Y-73227945D01*
X190787942Y-73279613D01*
X187447680Y-76619873D01*
X187386357Y-76653358D01*
X187316665Y-76648374D01*
X187272318Y-76619873D01*
X187183819Y-76531374D01*
X187150334Y-76470051D01*
X187147500Y-76443693D01*
X187147500Y-75076536D01*
X187147501Y-75076523D01*
X187147501Y-74993467D01*
X187147500Y-74993463D01*
X187128590Y-74922892D01*
X187128589Y-74922889D01*
X187119704Y-74907500D01*
X187108786Y-74888589D01*
X187092056Y-74859611D01*
X187040389Y-74807944D01*
X187040388Y-74807943D01*
X187036058Y-74803613D01*
X187036047Y-74803603D01*
X186684906Y-74452462D01*
X186330389Y-74097944D01*
X186330388Y-74097943D01*
X186267111Y-74061411D01*
X186267104Y-74061408D01*
X186196536Y-74042499D01*
X186196534Y-74042499D01*
X186123466Y-74042499D01*
X186115870Y-74042499D01*
X186115854Y-74042500D01*
X184531838Y-74042500D01*
X184464799Y-74022815D01*
X184438126Y-73999704D01*
X184432834Y-73993597D01*
X184432831Y-73993594D01*
X184381124Y-73960364D01*
X184329416Y-73927134D01*
X184211465Y-73892500D01*
X184088535Y-73892500D01*
X183970584Y-73927134D01*
X183970582Y-73927134D01*
X183970582Y-73927135D01*
X183867169Y-73993594D01*
X183786667Y-74086497D01*
X183786665Y-74086500D01*
X183735599Y-74198317D01*
X183735598Y-74198321D01*
X183718104Y-74320000D01*
X183735598Y-74441678D01*
X183735599Y-74441682D01*
X183786665Y-74553499D01*
X183786666Y-74553501D01*
X183867168Y-74646405D01*
X183970584Y-74712866D01*
X184088535Y-74747500D01*
X184211465Y-74747500D01*
X184329416Y-74712866D01*
X184432832Y-74646405D01*
X184438126Y-74640296D01*
X184496904Y-74602523D01*
X184531838Y-74597500D01*
X185993693Y-74597500D01*
X186060732Y-74617185D01*
X186081374Y-74633819D01*
X186556181Y-75108625D01*
X186589666Y-75169948D01*
X186592500Y-75196306D01*
X186592500Y-76208500D01*
X186572815Y-76275539D01*
X186520011Y-76321294D01*
X186468500Y-76332500D01*
X184441838Y-76332500D01*
X184374799Y-76312815D01*
X184348126Y-76289704D01*
X184342834Y-76283597D01*
X184342831Y-76283594D01*
X184286097Y-76247134D01*
X184239416Y-76217134D01*
X184121465Y-76182500D01*
X183998535Y-76182500D01*
X183880584Y-76217134D01*
X183880582Y-76217134D01*
X183880582Y-76217135D01*
X183777169Y-76283594D01*
X183696667Y-76376497D01*
X183696665Y-76376500D01*
X183645599Y-76488317D01*
X183645598Y-76488321D01*
X183628104Y-76610000D01*
X180438755Y-76610000D01*
X180482008Y-67000000D01*
X186958104Y-67000000D01*
X186975598Y-67121678D01*
X186975599Y-67121682D01*
X187003832Y-67183502D01*
X187026666Y-67233501D01*
X187107168Y-67326405D01*
X187210584Y-67392866D01*
X187328535Y-67427500D01*
X187451465Y-67427500D01*
X187569416Y-67392866D01*
X187672832Y-67326405D01*
X187753334Y-67233501D01*
X187804401Y-67121679D01*
X187821896Y-67000000D01*
X189858104Y-67000000D01*
X189875598Y-67121678D01*
X189875599Y-67121682D01*
X189903832Y-67183502D01*
X189926666Y-67233501D01*
X190007168Y-67326405D01*
X190110584Y-67392866D01*
X190228535Y-67427500D01*
X190351465Y-67427500D01*
X190469416Y-67392866D01*
X190572832Y-67326405D01*
X190653334Y-67233501D01*
X190704401Y-67121679D01*
X190721896Y-67000000D01*
X190714707Y-66950000D01*
X197058104Y-66950000D01*
X197075598Y-67071678D01*
X197075599Y-67071682D01*
X197098434Y-67121682D01*
X197126666Y-67183501D01*
X197207168Y-67276405D01*
X197310584Y-67342866D01*
X197428535Y-67377500D01*
X197473693Y-67377500D01*
X197540732Y-67397185D01*
X197561374Y-67413819D01*
X201746181Y-71598626D01*
X201779666Y-71659949D01*
X201782500Y-71686307D01*
X201782500Y-77455853D01*
X201782499Y-77455871D01*
X201782499Y-77536536D01*
X201801408Y-77607104D01*
X201801411Y-77607111D01*
X201837943Y-77670388D01*
X201837945Y-77670390D01*
X202958603Y-78791047D01*
X202958613Y-78791058D01*
X202962943Y-78795388D01*
X202962944Y-78795389D01*
X203014611Y-78847056D01*
X203077889Y-78883589D01*
X203148466Y-78902500D01*
X206180729Y-78902500D01*
X206247768Y-78922185D01*
X206293523Y-78974989D01*
X206299389Y-78990502D01*
X206302539Y-79000886D01*
X206393302Y-79170692D01*
X206393306Y-79170699D01*
X206515458Y-79319541D01*
X206664300Y-79441693D01*
X206664307Y-79441697D01*
X206703953Y-79462888D01*
X206834117Y-79532462D01*
X207018376Y-79588357D01*
X207210000Y-79607230D01*
X207401624Y-79588357D01*
X207585883Y-79532462D01*
X207755698Y-79441694D01*
X207904541Y-79319541D01*
X208026694Y-79170698D01*
X208117462Y-79000883D01*
X208173357Y-78816624D01*
X208192230Y-78625000D01*
X208173357Y-78433376D01*
X208117462Y-78249117D01*
X208117460Y-78249113D01*
X208026697Y-78079307D01*
X208026693Y-78079300D01*
X207904541Y-77930458D01*
X207755699Y-77808306D01*
X207755692Y-77808302D01*
X207585884Y-77717538D01*
X207401626Y-77661643D01*
X207210000Y-77642770D01*
X207018373Y-77661643D01*
X206834115Y-77717538D01*
X206664307Y-77808302D01*
X206664300Y-77808306D01*
X206515458Y-77930458D01*
X206393306Y-78079300D01*
X206393302Y-78079307D01*
X206302539Y-78249113D01*
X206299389Y-78259498D01*
X206261090Y-78317936D01*
X206197277Y-78346391D01*
X206180729Y-78347500D01*
X203351306Y-78347500D01*
X203284267Y-78327815D01*
X203263625Y-78311181D01*
X202373819Y-77421374D01*
X202340334Y-77360051D01*
X202337500Y-77333693D01*
X202337500Y-76640000D01*
X203868104Y-76640000D01*
X203885598Y-76761678D01*
X203885599Y-76761682D01*
X203922966Y-76843502D01*
X203936666Y-76873501D01*
X204017168Y-76966405D01*
X204120584Y-77032866D01*
X204238535Y-77067500D01*
X204361465Y-77067500D01*
X204479416Y-77032866D01*
X204582832Y-76966405D01*
X204663334Y-76873501D01*
X204714401Y-76761679D01*
X204731896Y-76640000D01*
X204714401Y-76518321D01*
X204714400Y-76518317D01*
X204663334Y-76406500D01*
X204663334Y-76406499D01*
X204582832Y-76313595D01*
X204479416Y-76247134D01*
X204361465Y-76212500D01*
X204238535Y-76212500D01*
X204120584Y-76247134D01*
X204120582Y-76247134D01*
X204120582Y-76247135D01*
X204017169Y-76313594D01*
X203936667Y-76406497D01*
X203936665Y-76406500D01*
X203885599Y-76518317D01*
X203885598Y-76518321D01*
X203868104Y-76640000D01*
X202337500Y-76640000D01*
X202337500Y-76085000D01*
X206227770Y-76085000D01*
X206246643Y-76276626D01*
X206302538Y-76460884D01*
X206393302Y-76630692D01*
X206393306Y-76630699D01*
X206515458Y-76779541D01*
X206664300Y-76901693D01*
X206664307Y-76901697D01*
X206785368Y-76966405D01*
X206834117Y-76992462D01*
X207018376Y-77048357D01*
X207210000Y-77067230D01*
X207401624Y-77048357D01*
X207585883Y-76992462D01*
X207755698Y-76901694D01*
X207904541Y-76779541D01*
X208026694Y-76630698D01*
X208117462Y-76460883D01*
X208173357Y-76276624D01*
X208192230Y-76085000D01*
X208173357Y-75893376D01*
X208117462Y-75709117D01*
X208026694Y-75539302D01*
X208026693Y-75539300D01*
X207904541Y-75390458D01*
X207755699Y-75268306D01*
X207755692Y-75268302D01*
X207585884Y-75177538D01*
X207401626Y-75121643D01*
X207210000Y-75102770D01*
X207018373Y-75121643D01*
X206834115Y-75177538D01*
X206664307Y-75268302D01*
X206664300Y-75268306D01*
X206515458Y-75390458D01*
X206393306Y-75539300D01*
X206393302Y-75539307D01*
X206302538Y-75709115D01*
X206246643Y-75893373D01*
X206227770Y-76085000D01*
X202337500Y-76085000D01*
X202337500Y-73545000D01*
X206227770Y-73545000D01*
X206246643Y-73736626D01*
X206302538Y-73920884D01*
X206393302Y-74090692D01*
X206393306Y-74090699D01*
X206515458Y-74239541D01*
X206664300Y-74361693D01*
X206664307Y-74361697D01*
X206813943Y-74441679D01*
X206834117Y-74452462D01*
X207018376Y-74508357D01*
X207210000Y-74527230D01*
X207401624Y-74508357D01*
X207585883Y-74452462D01*
X207755698Y-74361694D01*
X207904541Y-74239541D01*
X208026694Y-74090698D01*
X208117462Y-73920883D01*
X208173357Y-73736624D01*
X208192230Y-73545000D01*
X208173357Y-73353376D01*
X208117462Y-73169117D01*
X208071315Y-73082782D01*
X208026697Y-72999307D01*
X208026693Y-72999300D01*
X207904541Y-72850458D01*
X207755699Y-72728306D01*
X207755692Y-72728302D01*
X207585884Y-72637538D01*
X207401626Y-72581643D01*
X207210000Y-72562770D01*
X207018373Y-72581643D01*
X206834115Y-72637538D01*
X206664307Y-72728302D01*
X206664300Y-72728306D01*
X206515458Y-72850458D01*
X206393306Y-72999300D01*
X206393302Y-72999307D01*
X206302538Y-73169115D01*
X206246643Y-73353373D01*
X206227770Y-73545000D01*
X202337500Y-73545000D01*
X202337500Y-71566536D01*
X202337501Y-71566523D01*
X202337501Y-71483467D01*
X202337500Y-71483463D01*
X202318591Y-71412895D01*
X202318589Y-71412892D01*
X202318589Y-71412889D01*
X202282056Y-71349611D01*
X201937445Y-71005000D01*
X206227770Y-71005000D01*
X206246643Y-71196626D01*
X206302538Y-71380884D01*
X206393302Y-71550692D01*
X206393306Y-71550699D01*
X206515458Y-71699541D01*
X206664300Y-71821693D01*
X206664307Y-71821697D01*
X206834115Y-71912461D01*
X206834117Y-71912462D01*
X207018376Y-71968357D01*
X207210000Y-71987230D01*
X207401624Y-71968357D01*
X207585883Y-71912462D01*
X207755698Y-71821694D01*
X207904541Y-71699541D01*
X208026694Y-71550698D01*
X208117462Y-71380883D01*
X208173357Y-71196624D01*
X208192230Y-71005000D01*
X208173357Y-70813376D01*
X208117462Y-70629117D01*
X208117461Y-70629115D01*
X208026697Y-70459307D01*
X208026693Y-70459300D01*
X207904541Y-70310458D01*
X207755699Y-70188306D01*
X207755692Y-70188302D01*
X207585884Y-70097538D01*
X207401626Y-70041643D01*
X207210000Y-70022770D01*
X207018373Y-70041643D01*
X206834115Y-70097538D01*
X206664307Y-70188302D01*
X206664300Y-70188306D01*
X206515458Y-70310458D01*
X206393306Y-70459300D01*
X206393302Y-70459307D01*
X206302538Y-70629115D01*
X206246643Y-70813373D01*
X206227770Y-71005000D01*
X201937445Y-71005000D01*
X198527742Y-67595297D01*
X206160000Y-67595297D01*
X206160000Y-68215000D01*
X206776988Y-68215000D01*
X206744075Y-68272007D01*
X206710000Y-68399174D01*
X206710000Y-68530826D01*
X206744075Y-68657993D01*
X206776988Y-68715000D01*
X206160000Y-68715000D01*
X206160000Y-69334702D01*
X206171602Y-69393033D01*
X206171603Y-69393034D01*
X206215808Y-69459191D01*
X206281965Y-69503396D01*
X206281966Y-69503397D01*
X206340297Y-69514999D01*
X206340301Y-69515000D01*
X206960000Y-69515000D01*
X206960000Y-68898012D01*
X207017007Y-68930925D01*
X207144174Y-68965000D01*
X207275826Y-68965000D01*
X207402993Y-68930925D01*
X207460000Y-68898012D01*
X207460000Y-69515000D01*
X208079699Y-69515000D01*
X208079702Y-69514999D01*
X208138033Y-69503397D01*
X208138034Y-69503396D01*
X208204191Y-69459191D01*
X208248396Y-69393034D01*
X208248397Y-69393033D01*
X208259999Y-69334702D01*
X208260000Y-69334699D01*
X208260000Y-68715000D01*
X207643012Y-68715000D01*
X207675925Y-68657993D01*
X207710000Y-68530826D01*
X207710000Y-68399174D01*
X207675925Y-68272007D01*
X207643012Y-68215000D01*
X208260000Y-68215000D01*
X208260000Y-67595301D01*
X208259999Y-67595297D01*
X208248397Y-67536966D01*
X208248396Y-67536965D01*
X208204191Y-67470808D01*
X208138034Y-67426603D01*
X208138033Y-67426602D01*
X208079702Y-67415000D01*
X207460000Y-67415000D01*
X207460000Y-68031988D01*
X207402993Y-67999075D01*
X207275826Y-67965000D01*
X207144174Y-67965000D01*
X207017007Y-67999075D01*
X206960000Y-68031988D01*
X206960000Y-67415000D01*
X206340297Y-67415000D01*
X206281966Y-67426602D01*
X206281965Y-67426603D01*
X206215808Y-67470808D01*
X206171603Y-67536965D01*
X206171602Y-67536966D01*
X206160000Y-67595297D01*
X198527742Y-67595297D01*
X197957704Y-67025259D01*
X197924219Y-66963936D01*
X197922647Y-66955225D01*
X197904401Y-66828321D01*
X197904400Y-66828317D01*
X197853334Y-66716500D01*
X197853334Y-66716499D01*
X197772832Y-66623595D01*
X197669416Y-66557134D01*
X197551465Y-66522500D01*
X197428535Y-66522500D01*
X197310584Y-66557134D01*
X197310582Y-66557134D01*
X197310582Y-66557135D01*
X197207169Y-66623594D01*
X197126667Y-66716497D01*
X197126665Y-66716500D01*
X197075599Y-66828317D01*
X197075598Y-66828321D01*
X197058104Y-66950000D01*
X190714707Y-66950000D01*
X190704401Y-66878321D01*
X190704400Y-66878317D01*
X190653334Y-66766500D01*
X190653334Y-66766499D01*
X190572832Y-66673595D01*
X190469416Y-66607134D01*
X190351465Y-66572500D01*
X190228535Y-66572500D01*
X190110584Y-66607134D01*
X190110582Y-66607134D01*
X190110582Y-66607135D01*
X190007169Y-66673594D01*
X189926667Y-66766497D01*
X189926665Y-66766500D01*
X189875599Y-66878317D01*
X189875598Y-66878321D01*
X189858104Y-67000000D01*
X187821896Y-67000000D01*
X187804401Y-66878321D01*
X187804400Y-66878317D01*
X187753334Y-66766500D01*
X187753334Y-66766499D01*
X187672832Y-66673595D01*
X187569416Y-66607134D01*
X187451465Y-66572500D01*
X187328535Y-66572500D01*
X187210584Y-66607134D01*
X187210582Y-66607134D01*
X187210582Y-66607135D01*
X187107169Y-66673594D01*
X187026667Y-66766497D01*
X187026665Y-66766500D01*
X186975599Y-66878317D01*
X186975598Y-66878321D01*
X186958104Y-67000000D01*
X180482008Y-67000000D01*
X180496904Y-63690297D01*
X206220000Y-63690297D01*
X206220000Y-64310000D01*
X206836988Y-64310000D01*
X206804075Y-64367007D01*
X206770000Y-64494174D01*
X206770000Y-64625826D01*
X206804075Y-64752993D01*
X206836988Y-64810000D01*
X206220000Y-64810000D01*
X206220000Y-65429702D01*
X206231602Y-65488033D01*
X206231603Y-65488034D01*
X206275808Y-65554191D01*
X206341965Y-65598396D01*
X206341966Y-65598397D01*
X206400297Y-65609999D01*
X206400301Y-65610000D01*
X207020000Y-65610000D01*
X207020000Y-64993012D01*
X207077007Y-65025925D01*
X207204174Y-65060000D01*
X207335826Y-65060000D01*
X207462993Y-65025925D01*
X207520000Y-64993012D01*
X207520000Y-65610000D01*
X208139699Y-65610000D01*
X208139702Y-65609999D01*
X208198033Y-65598397D01*
X208198034Y-65598396D01*
X208264191Y-65554191D01*
X208308396Y-65488034D01*
X208308397Y-65488033D01*
X208319999Y-65429702D01*
X208320000Y-65429699D01*
X208320000Y-64810000D01*
X207703012Y-64810000D01*
X207735925Y-64752993D01*
X207770000Y-64625826D01*
X207770000Y-64494174D01*
X207735925Y-64367007D01*
X207703012Y-64310000D01*
X208320000Y-64310000D01*
X208320000Y-63690301D01*
X208319999Y-63690297D01*
X208308397Y-63631966D01*
X208308396Y-63631965D01*
X208264191Y-63565808D01*
X208198034Y-63521603D01*
X208198033Y-63521602D01*
X208139702Y-63510000D01*
X207520000Y-63510000D01*
X207520000Y-64126988D01*
X207462993Y-64094075D01*
X207335826Y-64060000D01*
X207204174Y-64060000D01*
X207077007Y-64094075D01*
X207020000Y-64126988D01*
X207020000Y-63510000D01*
X206400297Y-63510000D01*
X206341966Y-63521602D01*
X206341965Y-63521603D01*
X206275808Y-63565808D01*
X206231603Y-63631965D01*
X206231602Y-63631966D01*
X206220000Y-63690297D01*
X180496904Y-63690297D01*
X180504422Y-62020000D01*
X206287770Y-62020000D01*
X206306643Y-62211626D01*
X206362538Y-62395884D01*
X206453302Y-62565692D01*
X206453306Y-62565699D01*
X206575458Y-62714541D01*
X206724300Y-62836693D01*
X206724307Y-62836697D01*
X206894115Y-62927461D01*
X206894117Y-62927462D01*
X207078376Y-62983357D01*
X207270000Y-63002230D01*
X207461624Y-62983357D01*
X207645883Y-62927462D01*
X207815698Y-62836694D01*
X207964541Y-62714541D01*
X208086694Y-62565698D01*
X208177462Y-62395883D01*
X208233357Y-62211624D01*
X208252230Y-62020000D01*
X208233357Y-61828376D01*
X208177462Y-61644117D01*
X208086694Y-61474302D01*
X208086693Y-61474300D01*
X207964541Y-61325458D01*
X207815699Y-61203306D01*
X207815692Y-61203302D01*
X207645884Y-61112538D01*
X207461626Y-61056643D01*
X207270000Y-61037770D01*
X207078373Y-61056643D01*
X206894115Y-61112538D01*
X206724307Y-61203302D01*
X206724300Y-61203306D01*
X206575458Y-61325458D01*
X206453306Y-61474300D01*
X206453302Y-61474307D01*
X206362538Y-61644115D01*
X206306643Y-61828373D01*
X206287770Y-62020000D01*
X180504422Y-62020000D01*
X180508990Y-61005000D01*
X186968104Y-61005000D01*
X186985598Y-61126678D01*
X186985599Y-61126682D01*
X187020591Y-61203302D01*
X187036666Y-61238501D01*
X187117168Y-61331405D01*
X187220584Y-61397866D01*
X187338535Y-61432500D01*
X187461465Y-61432500D01*
X187579416Y-61397866D01*
X187682832Y-61331405D01*
X187763334Y-61238501D01*
X187814401Y-61126679D01*
X187831896Y-61005000D01*
X187814401Y-60883321D01*
X187814400Y-60883317D01*
X187763334Y-60771500D01*
X187763334Y-60771499D01*
X187682832Y-60678595D01*
X187579416Y-60612134D01*
X187461465Y-60577500D01*
X187338535Y-60577500D01*
X187220584Y-60612134D01*
X187220582Y-60612134D01*
X187220582Y-60612135D01*
X187117169Y-60678594D01*
X187036667Y-60771497D01*
X187036665Y-60771500D01*
X186985599Y-60883317D01*
X186985598Y-60883321D01*
X186968104Y-61005000D01*
X180508990Y-61005000D01*
X180514934Y-59684399D01*
X180534919Y-59617454D01*
X180587929Y-59571937D01*
X180639469Y-59560964D01*
X194070000Y-59620000D01*
X195110000Y-58270000D01*
X195109999Y-58269999D01*
X195110000Y-58269998D01*
X194976455Y-58056040D01*
X194957657Y-57988747D01*
X194978225Y-57921973D01*
X194983271Y-57914897D01*
X195020771Y-57866026D01*
X195073923Y-57737705D01*
X195092052Y-57600000D01*
X195073923Y-57462295D01*
X195020771Y-57333974D01*
X194936218Y-57223782D01*
X194826026Y-57139229D01*
X194826025Y-57139228D01*
X194826023Y-57139227D01*
X194697708Y-57086078D01*
X194697703Y-57086076D01*
X194560001Y-57067948D01*
X194559999Y-57067948D01*
X194500782Y-57075744D01*
X194454053Y-57081895D01*
X194385019Y-57071130D01*
X194332764Y-57024751D01*
X194180000Y-56780000D01*
X193073678Y-57643707D01*
X193008721Y-57669445D01*
X192997273Y-57669966D01*
X180648506Y-57660227D01*
X180581482Y-57640490D01*
X180535769Y-57587649D01*
X180524605Y-57535669D01*
X180524936Y-57462296D01*
X180535343Y-55150000D01*
X185148590Y-55150000D01*
X185736988Y-55150000D01*
X185704075Y-55207007D01*
X185670000Y-55334174D01*
X185670000Y-55465826D01*
X185704075Y-55592993D01*
X185736988Y-55650000D01*
X185148590Y-55650000D01*
X185195233Y-55803766D01*
X185292728Y-55986166D01*
X185292732Y-55986173D01*
X185423944Y-56146055D01*
X185583826Y-56277267D01*
X185583833Y-56277271D01*
X185766233Y-56374766D01*
X185920000Y-56421410D01*
X185920000Y-55833012D01*
X185977007Y-55865925D01*
X186104174Y-55900000D01*
X186235826Y-55900000D01*
X186362993Y-55865925D01*
X186420000Y-55833012D01*
X186420000Y-56421410D01*
X186573766Y-56374766D01*
X186756166Y-56277271D01*
X186756173Y-56277267D01*
X186916055Y-56146055D01*
X187047267Y-55986173D01*
X187047271Y-55986166D01*
X187144766Y-55803766D01*
X187191410Y-55650000D01*
X186603012Y-55650000D01*
X186635925Y-55592993D01*
X186670000Y-55465826D01*
X186670000Y-55400000D01*
X187727770Y-55400000D01*
X187746643Y-55591626D01*
X187802538Y-55775884D01*
X187893302Y-55945692D01*
X187893306Y-55945699D01*
X188015458Y-56094541D01*
X188164300Y-56216693D01*
X188164307Y-56216697D01*
X188319685Y-56299748D01*
X188334117Y-56307462D01*
X188518376Y-56363357D01*
X188710000Y-56382230D01*
X188901624Y-56363357D01*
X189085883Y-56307462D01*
X189255698Y-56216694D01*
X189404541Y-56094541D01*
X189526694Y-55945698D01*
X189617462Y-55775883D01*
X189673357Y-55591624D01*
X189692230Y-55400000D01*
X189673357Y-55208376D01*
X189617462Y-55024117D01*
X189568546Y-54932602D01*
X189526697Y-54854307D01*
X189526693Y-54854300D01*
X189404541Y-54705458D01*
X189255699Y-54583306D01*
X189255692Y-54583302D01*
X189169892Y-54537441D01*
X190272500Y-54537441D01*
X190272500Y-56262558D01*
X190279898Y-56299749D01*
X190308077Y-56341922D01*
X190350250Y-56370101D01*
X190350252Y-56370102D01*
X190378205Y-56375662D01*
X190387441Y-56377500D01*
X190387442Y-56377500D01*
X192112559Y-56377500D01*
X192119957Y-56376028D01*
X192149748Y-56370102D01*
X192191922Y-56341922D01*
X192220102Y-56299748D01*
X192227500Y-56262558D01*
X192227500Y-55068971D01*
X196602500Y-55068971D01*
X196602500Y-55221029D01*
X196641856Y-55367907D01*
X196641857Y-55367910D01*
X196695296Y-55460468D01*
X196717885Y-55499593D01*
X196825407Y-55607115D01*
X196899686Y-55650000D01*
X196957089Y-55683142D01*
X196957090Y-55683142D01*
X196957093Y-55683144D01*
X197103971Y-55722500D01*
X197103974Y-55722500D01*
X197256026Y-55722500D01*
X197256029Y-55722500D01*
X197402907Y-55683144D01*
X197534593Y-55607115D01*
X197642115Y-55499593D01*
X197718144Y-55367907D01*
X197757500Y-55221029D01*
X197757500Y-55068971D01*
X199602500Y-55068971D01*
X199602500Y-55221029D01*
X199641856Y-55367907D01*
X199641857Y-55367910D01*
X199695296Y-55460468D01*
X199717885Y-55499593D01*
X199825407Y-55607115D01*
X199899686Y-55650000D01*
X199957089Y-55683142D01*
X199957090Y-55683142D01*
X199957093Y-55683144D01*
X200103971Y-55722500D01*
X200103974Y-55722500D01*
X200256026Y-55722500D01*
X200256029Y-55722500D01*
X200402907Y-55683144D01*
X200534593Y-55607115D01*
X200642115Y-55499593D01*
X200718144Y-55367907D01*
X200757500Y-55221029D01*
X200757500Y-55068971D01*
X200718144Y-54922093D01*
X200642115Y-54790407D01*
X200534593Y-54682885D01*
X200484466Y-54653944D01*
X200402910Y-54606857D01*
X200402911Y-54606857D01*
X200390866Y-54603629D01*
X200256029Y-54567500D01*
X200103971Y-54567500D01*
X199969133Y-54603629D01*
X199957089Y-54606857D01*
X199825410Y-54682883D01*
X199825404Y-54682887D01*
X199717887Y-54790404D01*
X199717883Y-54790410D01*
X199641857Y-54922089D01*
X199641856Y-54922093D01*
X199602500Y-55068971D01*
X197757500Y-55068971D01*
X197718144Y-54922093D01*
X197642115Y-54790407D01*
X197534593Y-54682885D01*
X197484466Y-54653944D01*
X197402910Y-54606857D01*
X197402911Y-54606857D01*
X197390866Y-54603629D01*
X197256029Y-54567500D01*
X197103971Y-54567500D01*
X196969133Y-54603629D01*
X196957089Y-54606857D01*
X196825410Y-54682883D01*
X196825404Y-54682887D01*
X196717887Y-54790404D01*
X196717883Y-54790410D01*
X196641857Y-54922089D01*
X196641856Y-54922093D01*
X196602500Y-55068971D01*
X192227500Y-55068971D01*
X192227500Y-54537442D01*
X192220102Y-54500252D01*
X192214948Y-54492538D01*
X192191922Y-54458077D01*
X192149749Y-54429898D01*
X192112559Y-54422500D01*
X192112558Y-54422500D01*
X190387442Y-54422500D01*
X190387441Y-54422500D01*
X190350250Y-54429898D01*
X190308077Y-54458077D01*
X190279898Y-54500250D01*
X190272500Y-54537441D01*
X189169892Y-54537441D01*
X189085884Y-54492538D01*
X188901626Y-54436643D01*
X188710000Y-54417770D01*
X188518373Y-54436643D01*
X188334115Y-54492538D01*
X188164307Y-54583302D01*
X188164300Y-54583306D01*
X188015458Y-54705458D01*
X187893306Y-54854300D01*
X187893302Y-54854307D01*
X187802538Y-55024115D01*
X187746643Y-55208373D01*
X187727770Y-55400000D01*
X186670000Y-55400000D01*
X186670000Y-55334174D01*
X186635925Y-55207007D01*
X186603012Y-55150000D01*
X187191410Y-55150000D01*
X187144766Y-54996233D01*
X187047271Y-54813833D01*
X187047267Y-54813826D01*
X186916055Y-54653944D01*
X186756173Y-54522732D01*
X186756166Y-54522728D01*
X186573763Y-54425232D01*
X186420000Y-54378587D01*
X186420000Y-54966988D01*
X186362993Y-54934075D01*
X186235826Y-54900000D01*
X186104174Y-54900000D01*
X185977007Y-54934075D01*
X185920000Y-54966988D01*
X185920000Y-54378587D01*
X185766236Y-54425232D01*
X185583833Y-54522728D01*
X185583826Y-54522732D01*
X185423944Y-54653944D01*
X185292732Y-54813826D01*
X185292728Y-54813833D01*
X185195233Y-54996233D01*
X185148590Y-55150000D01*
X180535343Y-55150000D01*
X180545632Y-52863941D01*
X180565618Y-52796992D01*
X180618628Y-52751475D01*
X180669631Y-52740500D01*
X207040118Y-52740500D01*
X207076519Y-52740500D01*
X207083471Y-52740695D01*
G37*
%TD.AperFunction*%
%TD*%
%TA.AperFunction,Conductor*%
%TO.N,GNDA*%
G36*
X187626123Y-81859879D02*
G01*
X187693141Y-81879629D01*
X187738844Y-81932477D01*
X187750000Y-81983879D01*
X187750000Y-84187371D01*
X187733940Y-84248403D01*
X186575648Y-86296953D01*
X186525517Y-86345621D01*
X186467573Y-86359921D01*
X179300526Y-86352105D01*
X179300525Y-86352105D01*
X177370000Y-86350000D01*
X177391593Y-84730500D01*
X181139308Y-84730500D01*
X181139309Y-84730500D01*
X181229673Y-84706286D01*
X181253887Y-84699799D01*
X181356614Y-84640489D01*
X181821771Y-84175331D01*
X186369684Y-84175331D01*
X186390165Y-84317787D01*
X186399994Y-84339309D01*
X186449954Y-84448704D01*
X186544203Y-84557474D01*
X186665278Y-84635284D01*
X186665281Y-84635285D01*
X186665280Y-84635285D01*
X186803367Y-84675830D01*
X186803369Y-84675831D01*
X186803370Y-84675831D01*
X186947293Y-84675831D01*
X186947293Y-84675830D01*
X187067657Y-84640489D01*
X187085381Y-84635285D01*
X187085381Y-84635284D01*
X187085384Y-84635284D01*
X187206459Y-84557474D01*
X187300708Y-84448704D01*
X187360496Y-84317788D01*
X187380978Y-84175331D01*
X187360496Y-84032874D01*
X187300708Y-83901958D01*
X187206459Y-83793188D01*
X187085384Y-83715378D01*
X187085382Y-83715377D01*
X187085380Y-83715376D01*
X187085381Y-83715376D01*
X186947294Y-83674831D01*
X186947292Y-83674831D01*
X186803370Y-83674831D01*
X186803367Y-83674831D01*
X186665280Y-83715376D01*
X186544204Y-83793187D01*
X186449954Y-83901957D01*
X186449953Y-83901959D01*
X186390165Y-84032874D01*
X186369684Y-84175331D01*
X181821771Y-84175331D01*
X182151095Y-83846007D01*
X182203844Y-83814712D01*
X182220053Y-83809953D01*
X182246142Y-83793187D01*
X182341123Y-83732146D01*
X182341122Y-83732146D01*
X182341128Y-83732143D01*
X182435377Y-83623373D01*
X182495165Y-83492457D01*
X182515647Y-83350000D01*
X182495165Y-83207543D01*
X182435377Y-83076627D01*
X182341128Y-82967857D01*
X182220053Y-82890047D01*
X182220051Y-82890046D01*
X182220049Y-82890045D01*
X182220050Y-82890045D01*
X182081963Y-82849500D01*
X182081961Y-82849500D01*
X181938039Y-82849500D01*
X181938036Y-82849500D01*
X181799949Y-82890045D01*
X181678873Y-82967856D01*
X181584623Y-83076626D01*
X181542098Y-83169742D01*
X181516985Y-83205910D01*
X180929716Y-83793181D01*
X180868393Y-83826666D01*
X180842035Y-83829500D01*
X177403607Y-83829500D01*
X177429333Y-81900000D01*
X179300000Y-81900000D01*
X179246084Y-81851759D01*
X187626123Y-81859879D01*
G37*
%TD.AperFunction*%
%TD*%
%TA.AperFunction,Conductor*%
%TO.N,GNDA*%
G36*
X179300000Y-81900000D02*
G01*
X177400000Y-81900000D01*
X177400000Y-80200000D01*
X179300000Y-81900000D01*
G37*
%TD.AperFunction*%
%TD*%
%TA.AperFunction,Conductor*%
%TO.N,GNDA*%
G36*
X177464550Y-52760185D02*
G01*
X177510305Y-52812989D01*
X177521511Y-52864501D01*
X177521478Y-58088501D01*
X177501793Y-58155540D01*
X177448989Y-58201295D01*
X177397478Y-58212500D01*
X177190301Y-58212500D01*
X177094290Y-58238226D01*
X177094283Y-58238229D01*
X177008216Y-58287919D01*
X177008212Y-58287922D01*
X176857674Y-58438459D01*
X176796350Y-58471943D01*
X176786180Y-58473716D01*
X176692293Y-58486077D01*
X176563976Y-58539227D01*
X176453782Y-58623782D01*
X176369227Y-58733976D01*
X176316078Y-58862291D01*
X176316077Y-58862295D01*
X176303716Y-58956181D01*
X176275449Y-59020077D01*
X176268459Y-59027675D01*
X176100925Y-59195210D01*
X176051225Y-59281291D01*
X176051225Y-59281294D01*
X176025500Y-59377301D01*
X176025500Y-64794542D01*
X176014295Y-64846052D01*
X175988600Y-64902317D01*
X175988598Y-64902321D01*
X175971104Y-65024000D01*
X175988598Y-65145678D01*
X175988599Y-65145682D01*
X176039665Y-65257499D01*
X176039666Y-65257501D01*
X176120168Y-65350405D01*
X176223584Y-65416866D01*
X176341535Y-65451500D01*
X176464465Y-65451500D01*
X176582416Y-65416866D01*
X176685832Y-65350405D01*
X176766334Y-65257501D01*
X176817401Y-65145679D01*
X176834896Y-65024000D01*
X176817401Y-64902321D01*
X176813037Y-64892765D01*
X176791705Y-64846052D01*
X176780500Y-64794542D01*
X176780500Y-59647313D01*
X176800185Y-59580274D01*
X176852989Y-59534519D01*
X176888312Y-59524374D01*
X176967705Y-59513923D01*
X177096026Y-59460771D01*
X177206218Y-59376218D01*
X177290771Y-59266026D01*
X177290771Y-59266024D01*
X177295719Y-59259577D01*
X177297038Y-59260589D01*
X177340632Y-59219011D01*
X177409237Y-59205778D01*
X177474106Y-59231736D01*
X177514643Y-59288644D01*
X177521469Y-59329219D01*
X177521345Y-78837500D01*
X177521336Y-80308563D01*
X177400000Y-80200000D01*
X177400000Y-81900000D01*
X177429333Y-81900000D01*
X177402633Y-83902500D01*
X173807727Y-83902500D01*
X173740688Y-83882815D01*
X173720046Y-83866181D01*
X171373819Y-81519954D01*
X171340334Y-81458631D01*
X171337500Y-81432273D01*
X171337500Y-78510302D01*
X171337499Y-78510298D01*
X171328961Y-78478431D01*
X171328966Y-78428092D01*
X171326439Y-78427760D01*
X171327500Y-78419701D01*
X171327500Y-66721351D01*
X171338705Y-66669842D01*
X171374401Y-66591679D01*
X171391896Y-66470000D01*
X171374401Y-66348321D01*
X171370037Y-66338765D01*
X171348705Y-66292052D01*
X171337500Y-66240542D01*
X171337500Y-56070303D01*
X171337500Y-56070301D01*
X171311774Y-55974290D01*
X171262075Y-55888210D01*
X170941540Y-55567675D01*
X170908055Y-55506352D01*
X170906284Y-55496194D01*
X170893923Y-55402295D01*
X170840771Y-55273974D01*
X170756218Y-55163782D01*
X170646026Y-55079229D01*
X170646025Y-55079228D01*
X170646023Y-55079227D01*
X170517708Y-55026078D01*
X170517703Y-55026076D01*
X170380001Y-55007948D01*
X170379999Y-55007948D01*
X170242296Y-55026076D01*
X170242291Y-55026078D01*
X170113976Y-55079227D01*
X170109836Y-55082403D01*
X170104007Y-55086876D01*
X170038840Y-55112070D01*
X170028522Y-55112500D01*
X169686281Y-55112500D01*
X169573718Y-55112500D01*
X169464991Y-55141633D01*
X169457621Y-55145887D01*
X169395623Y-55162500D01*
X165420301Y-55162500D01*
X165324289Y-55188226D01*
X165238210Y-55237925D01*
X165238207Y-55237927D01*
X160109954Y-60366181D01*
X160048631Y-60399666D01*
X160022273Y-60402500D01*
X155546438Y-60402500D01*
X155479399Y-60382815D01*
X155458757Y-60366181D01*
X154274576Y-59182000D01*
X155905104Y-59182000D01*
X155922598Y-59303678D01*
X155922599Y-59303682D01*
X155973665Y-59415499D01*
X155973666Y-59415501D01*
X156054168Y-59508405D01*
X156157584Y-59574866D01*
X156275535Y-59609500D01*
X156398465Y-59609500D01*
X156516416Y-59574866D01*
X156619832Y-59508405D01*
X156700334Y-59415501D01*
X156751401Y-59303679D01*
X156768896Y-59182000D01*
X156751401Y-59060321D01*
X156751400Y-59060317D01*
X156700334Y-58948500D01*
X156700334Y-58948499D01*
X156619832Y-58855595D01*
X156516416Y-58789134D01*
X156398465Y-58754500D01*
X156275535Y-58754500D01*
X156157584Y-58789134D01*
X156157582Y-58789134D01*
X156157582Y-58789135D01*
X156054169Y-58855594D01*
X155973667Y-58948497D01*
X155973665Y-58948500D01*
X155922599Y-59060317D01*
X155922598Y-59060321D01*
X155905104Y-59182000D01*
X154274576Y-59182000D01*
X154003819Y-58911243D01*
X153970334Y-58849920D01*
X153967500Y-58823562D01*
X153967500Y-58059444D01*
X153968762Y-58041797D01*
X153971896Y-58019999D01*
X153968762Y-57998201D01*
X153967500Y-57980555D01*
X153967500Y-57963720D01*
X153967500Y-57963719D01*
X153961432Y-57941076D01*
X153958471Y-57926634D01*
X153954401Y-57898321D01*
X153947994Y-57884291D01*
X153941017Y-57864881D01*
X153938368Y-57854995D01*
X153938368Y-57854994D01*
X153938367Y-57854991D01*
X153923360Y-57828999D01*
X153917958Y-57818523D01*
X153903334Y-57786499D01*
X153897566Y-57779843D01*
X153883895Y-57760644D01*
X153883884Y-57760626D01*
X153882085Y-57757509D01*
X153856222Y-57731646D01*
X153850191Y-57725168D01*
X153822834Y-57693597D01*
X153822829Y-57693592D01*
X153820998Y-57692416D01*
X153809014Y-57682758D01*
X153808936Y-57682861D01*
X153802490Y-57677914D01*
X153788655Y-57669926D01*
X153765089Y-57656321D01*
X153760082Y-57653269D01*
X153719416Y-57627134D01*
X153719415Y-57627133D01*
X153719414Y-57627133D01*
X153717987Y-57626481D01*
X153709406Y-57623454D01*
X153705011Y-57621633D01*
X153656960Y-57608758D01*
X153654119Y-57607960D01*
X153601467Y-57592500D01*
X153601465Y-57592500D01*
X153478535Y-57592500D01*
X153440979Y-57603527D01*
X153425889Y-57607958D01*
X153423050Y-57608754D01*
X153374990Y-57621632D01*
X153370574Y-57623461D01*
X153362004Y-57626484D01*
X153360586Y-57627132D01*
X153319926Y-57653262D01*
X153314892Y-57656330D01*
X153277511Y-57677913D01*
X153271060Y-57682863D01*
X153270982Y-57682761D01*
X153259007Y-57692412D01*
X153257170Y-57693592D01*
X153257168Y-57693593D01*
X153229812Y-57725163D01*
X153223787Y-57731634D01*
X153197917Y-57757505D01*
X153197911Y-57757514D01*
X153196098Y-57760654D01*
X153182436Y-57779839D01*
X153176666Y-57786498D01*
X153162044Y-57818515D01*
X153156641Y-57828995D01*
X153156640Y-57828999D01*
X153156638Y-57829002D01*
X153141632Y-57854991D01*
X153141631Y-57854994D01*
X153138982Y-57864882D01*
X153132005Y-57884291D01*
X153125599Y-57898319D01*
X153121526Y-57926646D01*
X153118564Y-57941087D01*
X153112500Y-57963719D01*
X153112500Y-57980555D01*
X153111238Y-57998201D01*
X153108104Y-58019999D01*
X153111238Y-58041797D01*
X153112500Y-58059444D01*
X153112500Y-68791561D01*
X153092815Y-68858600D01*
X153076181Y-68879242D01*
X152369638Y-69585784D01*
X152349008Y-69602411D01*
X152347171Y-69603591D01*
X152347168Y-69603593D01*
X152319812Y-69635163D01*
X152313787Y-69641634D01*
X152287917Y-69667505D01*
X152287911Y-69667514D01*
X152286098Y-69670654D01*
X152272436Y-69689839D01*
X152266666Y-69696498D01*
X152252044Y-69728515D01*
X152246638Y-69739002D01*
X152231632Y-69764991D01*
X152231631Y-69764994D01*
X152228982Y-69774882D01*
X152222005Y-69794291D01*
X152215599Y-69808319D01*
X152211526Y-69836646D01*
X152208564Y-69851087D01*
X152202500Y-69873719D01*
X152202500Y-69890555D01*
X152201238Y-69908201D01*
X152198104Y-69929999D01*
X152201238Y-69951797D01*
X152202500Y-69969444D01*
X152202500Y-69986282D01*
X152208564Y-70008913D01*
X152211527Y-70023358D01*
X152215598Y-70051678D01*
X152215599Y-70051679D01*
X152222004Y-70065704D01*
X152228982Y-70085118D01*
X152231633Y-70095009D01*
X152246640Y-70121001D01*
X152252044Y-70131484D01*
X152266666Y-70163501D01*
X152266667Y-70163502D01*
X152272432Y-70170155D01*
X152286103Y-70189353D01*
X152287915Y-70192491D01*
X152313789Y-70218365D01*
X152319799Y-70224819D01*
X152322208Y-70227600D01*
X152351237Y-70291153D01*
X152352500Y-70308808D01*
X152352500Y-82225813D01*
X152332815Y-82292852D01*
X152322213Y-82307015D01*
X152296670Y-82336493D01*
X152296665Y-82336500D01*
X152245599Y-82448317D01*
X152245598Y-82448321D01*
X152228104Y-82570000D01*
X152245598Y-82691678D01*
X152245599Y-82691682D01*
X152296375Y-82802864D01*
X152296666Y-82803501D01*
X152377168Y-82896405D01*
X152480584Y-82962866D01*
X152598535Y-82997500D01*
X152721465Y-82997500D01*
X152839416Y-82962866D01*
X152942832Y-82896405D01*
X153023334Y-82803501D01*
X153074401Y-82691679D01*
X153091896Y-82570000D01*
X153074401Y-82448321D01*
X153074400Y-82448317D01*
X153056901Y-82410000D01*
X154448104Y-82410000D01*
X154465598Y-82531678D01*
X154465599Y-82531682D01*
X154504335Y-82616500D01*
X154516666Y-82643501D01*
X154597168Y-82736405D01*
X154700584Y-82802866D01*
X154818535Y-82837500D01*
X154941465Y-82837500D01*
X155059416Y-82802866D01*
X155162832Y-82736405D01*
X155243334Y-82643501D01*
X155294401Y-82531679D01*
X155311896Y-82410000D01*
X155294401Y-82288321D01*
X155294400Y-82288317D01*
X155243334Y-82176500D01*
X155243334Y-82176499D01*
X155162832Y-82083595D01*
X155059416Y-82017134D01*
X154941465Y-81982500D01*
X154818535Y-81982500D01*
X154700584Y-82017134D01*
X154700582Y-82017134D01*
X154700582Y-82017135D01*
X154597169Y-82083594D01*
X154516667Y-82176497D01*
X154516665Y-82176500D01*
X154465599Y-82288317D01*
X154465598Y-82288321D01*
X154448104Y-82410000D01*
X153056901Y-82410000D01*
X153023334Y-82336500D01*
X153023334Y-82336499D01*
X152942832Y-82243595D01*
X152942831Y-82243594D01*
X152937787Y-82237773D01*
X152908762Y-82174217D01*
X152907500Y-82156570D01*
X152907500Y-77220000D01*
X153558104Y-77220000D01*
X153575598Y-77341678D01*
X153575599Y-77341682D01*
X153626665Y-77453499D01*
X153626666Y-77453501D01*
X153707168Y-77546405D01*
X153810584Y-77612866D01*
X153928535Y-77647500D01*
X154051465Y-77647500D01*
X154169416Y-77612866D01*
X154272832Y-77546405D01*
X154353334Y-77453501D01*
X154404401Y-77341679D01*
X154421896Y-77220000D01*
X154404401Y-77098321D01*
X154404400Y-77098317D01*
X154353334Y-76986500D01*
X154353334Y-76986499D01*
X154272832Y-76893595D01*
X154169416Y-76827134D01*
X154051465Y-76792500D01*
X153928535Y-76792500D01*
X153810584Y-76827134D01*
X153810582Y-76827134D01*
X153810582Y-76827135D01*
X153707169Y-76893594D01*
X153626667Y-76986497D01*
X153626665Y-76986500D01*
X153575599Y-77098317D01*
X153575598Y-77098321D01*
X153558104Y-77220000D01*
X152907500Y-77220000D01*
X152907500Y-70610000D01*
X154428104Y-70610000D01*
X154445598Y-70731678D01*
X154445599Y-70731682D01*
X154496665Y-70843499D01*
X154496666Y-70843501D01*
X154577168Y-70936405D01*
X154680584Y-71002866D01*
X154798535Y-71037500D01*
X154921465Y-71037500D01*
X155039416Y-71002866D01*
X155142832Y-70936405D01*
X155223334Y-70843501D01*
X155274401Y-70731679D01*
X155291896Y-70610000D01*
X155274401Y-70488321D01*
X155274400Y-70488317D01*
X155223334Y-70376500D01*
X155223334Y-70376499D01*
X155142832Y-70283595D01*
X155039416Y-70217134D01*
X154921465Y-70182500D01*
X154798535Y-70182500D01*
X154680584Y-70217134D01*
X154680582Y-70217134D01*
X154680582Y-70217135D01*
X154577169Y-70283594D01*
X154496667Y-70376497D01*
X154496665Y-70376500D01*
X154445599Y-70488317D01*
X154445598Y-70488321D01*
X154428104Y-70610000D01*
X152907500Y-70610000D01*
X152907500Y-70308806D01*
X152927185Y-70241767D01*
X152937792Y-70227599D01*
X152940201Y-70224818D01*
X152946218Y-70218357D01*
X153155662Y-70008913D01*
X153882085Y-69282492D01*
X153938367Y-69185009D01*
X153967500Y-69076282D01*
X153967500Y-68963719D01*
X153967500Y-60383438D01*
X153987185Y-60316399D01*
X154039989Y-60270644D01*
X154109147Y-60260700D01*
X154172703Y-60289725D01*
X154179181Y-60295757D01*
X155055509Y-61172085D01*
X155152991Y-61228367D01*
X155261719Y-61257500D01*
X155374282Y-61257500D01*
X159469272Y-61257500D01*
X159536311Y-61277185D01*
X159582066Y-61329989D01*
X159592010Y-61399147D01*
X159562985Y-61462703D01*
X159556953Y-61469181D01*
X158937349Y-62088784D01*
X158884608Y-62120079D01*
X158860585Y-62127133D01*
X158860582Y-62127135D01*
X158757169Y-62193594D01*
X158676667Y-62286497D01*
X158676665Y-62286500D01*
X158625599Y-62398317D01*
X158625598Y-62398321D01*
X158608104Y-62520000D01*
X158625598Y-62641678D01*
X158625599Y-62641682D01*
X158676665Y-62753499D01*
X158676666Y-62753501D01*
X158757168Y-62846405D01*
X158860584Y-62912866D01*
X158978535Y-62947500D01*
X159101465Y-62947500D01*
X159219416Y-62912866D01*
X159322832Y-62846405D01*
X159403334Y-62753501D01*
X159446972Y-62657944D01*
X159472080Y-62621783D01*
X160482075Y-61611791D01*
X160531773Y-61525710D01*
X160531774Y-61525709D01*
X160557500Y-61429699D01*
X160557500Y-61064376D01*
X160574116Y-61002371D01*
X160578367Y-60995009D01*
X160580568Y-60986791D01*
X160612661Y-60931202D01*
X165590046Y-55953819D01*
X165651369Y-55920334D01*
X165677727Y-55917500D01*
X168348561Y-55917500D01*
X168415600Y-55937185D01*
X168461355Y-55989989D01*
X168471299Y-56059147D01*
X168442274Y-56122703D01*
X168436242Y-56129181D01*
X165705895Y-58859527D01*
X165644572Y-58893012D01*
X165574880Y-58888028D01*
X165518947Y-58846156D01*
X165494530Y-58780692D01*
X165495475Y-58754203D01*
X165511896Y-58640000D01*
X165494401Y-58518321D01*
X165494400Y-58518317D01*
X165460593Y-58444291D01*
X165443334Y-58406499D01*
X165362832Y-58313595D01*
X165259416Y-58247134D01*
X165141465Y-58212500D01*
X165018535Y-58212500D01*
X164900584Y-58247134D01*
X164900582Y-58247134D01*
X164900582Y-58247135D01*
X164797169Y-58313594D01*
X164716667Y-58406497D01*
X164716665Y-58406500D01*
X164665599Y-58518317D01*
X164665598Y-58518321D01*
X164648104Y-58640000D01*
X164665598Y-58761678D01*
X164665599Y-58761682D01*
X164711548Y-58862295D01*
X164716666Y-58873501D01*
X164797168Y-58966405D01*
X164900584Y-59032866D01*
X165018535Y-59067500D01*
X165141465Y-59067500D01*
X165179948Y-59056199D01*
X165249815Y-59056198D01*
X165308594Y-59093970D01*
X165337621Y-59157525D01*
X165327680Y-59226684D01*
X165302565Y-59262857D01*
X160057509Y-64507915D01*
X159977917Y-64587506D01*
X159977915Y-64587509D01*
X159921633Y-64684989D01*
X159892500Y-64793719D01*
X159892500Y-72800555D01*
X159891238Y-72818201D01*
X159888104Y-72839999D01*
X159891238Y-72861797D01*
X159892500Y-72879444D01*
X159892500Y-73391561D01*
X159872815Y-73458600D01*
X159856181Y-73479242D01*
X158629638Y-74705784D01*
X158609008Y-74722411D01*
X158607171Y-74723591D01*
X158607168Y-74723593D01*
X158579812Y-74755163D01*
X158573787Y-74761634D01*
X158547917Y-74787505D01*
X158547911Y-74787514D01*
X158546098Y-74790654D01*
X158532436Y-74809839D01*
X158526666Y-74816498D01*
X158512044Y-74848515D01*
X158506638Y-74859002D01*
X158491632Y-74884991D01*
X158491631Y-74884994D01*
X158488982Y-74894882D01*
X158482005Y-74914291D01*
X158475599Y-74928319D01*
X158471526Y-74956646D01*
X158468564Y-74971087D01*
X158462500Y-74993719D01*
X158462500Y-75010555D01*
X158461238Y-75028201D01*
X158458104Y-75049999D01*
X158461238Y-75071797D01*
X158462500Y-75089444D01*
X158462500Y-75106282D01*
X158468564Y-75128913D01*
X158471527Y-75143358D01*
X158475598Y-75171678D01*
X158475599Y-75171679D01*
X158482004Y-75185704D01*
X158488982Y-75205118D01*
X158491633Y-75215009D01*
X158506640Y-75241001D01*
X158512044Y-75251484D01*
X158526666Y-75283501D01*
X158526667Y-75283502D01*
X158532432Y-75290155D01*
X158546103Y-75309353D01*
X158547915Y-75312491D01*
X158573788Y-75338364D01*
X158579808Y-75344830D01*
X158607168Y-75376405D01*
X158608992Y-75377577D01*
X158620985Y-75387241D01*
X158621064Y-75387139D01*
X158627512Y-75392087D01*
X158664891Y-75413667D01*
X158669934Y-75416741D01*
X158710584Y-75442866D01*
X158712013Y-75443519D01*
X158720597Y-75446547D01*
X158724988Y-75448366D01*
X158724990Y-75448366D01*
X158724991Y-75448367D01*
X158773067Y-75461248D01*
X158775836Y-75462025D01*
X158828535Y-75477500D01*
X158828537Y-75477500D01*
X158951463Y-75477500D01*
X158951465Y-75477500D01*
X159004193Y-75462016D01*
X159006863Y-75461266D01*
X159055009Y-75448367D01*
X159055017Y-75448361D01*
X159059390Y-75446551D01*
X159067989Y-75443517D01*
X159069410Y-75442867D01*
X159069416Y-75442866D01*
X159110101Y-75416717D01*
X159115059Y-75413694D01*
X159152491Y-75392085D01*
X159152495Y-75392081D01*
X159158946Y-75387132D01*
X159159025Y-75387235D01*
X159171007Y-75377577D01*
X159172832Y-75376405D01*
X159200198Y-75344821D01*
X159206204Y-75338370D01*
X160130820Y-74413755D01*
X160192142Y-74380271D01*
X160261834Y-74385255D01*
X160317767Y-74427127D01*
X160342184Y-74492591D01*
X160342500Y-74501437D01*
X160342500Y-85300555D01*
X160341238Y-85318201D01*
X160338104Y-85339999D01*
X160341238Y-85361797D01*
X160342500Y-85379444D01*
X160342500Y-85571561D01*
X160322815Y-85638600D01*
X160306181Y-85659242D01*
X159499243Y-86466181D01*
X159437920Y-86499666D01*
X159411562Y-86502500D01*
X158971465Y-86502500D01*
X158848535Y-86502500D01*
X158810979Y-86513527D01*
X158795889Y-86517958D01*
X158793050Y-86518754D01*
X158744990Y-86531632D01*
X158740574Y-86533461D01*
X158732004Y-86536484D01*
X158730586Y-86537132D01*
X158689926Y-86563262D01*
X158684892Y-86566330D01*
X158647511Y-86587913D01*
X158641060Y-86592863D01*
X158640982Y-86592761D01*
X158629007Y-86602412D01*
X158627170Y-86603592D01*
X158627168Y-86603593D01*
X158599812Y-86635163D01*
X158593787Y-86641634D01*
X158567917Y-86667505D01*
X158567911Y-86667514D01*
X158566098Y-86670654D01*
X158552436Y-86689839D01*
X158546666Y-86696498D01*
X158532044Y-86728515D01*
X158526638Y-86739002D01*
X158511632Y-86764991D01*
X158511631Y-86764994D01*
X158508982Y-86774882D01*
X158502005Y-86794291D01*
X158495599Y-86808319D01*
X158491526Y-86836646D01*
X158488564Y-86851087D01*
X158482500Y-86873719D01*
X158482500Y-86890555D01*
X158481238Y-86908201D01*
X158478104Y-86929999D01*
X158481238Y-86951797D01*
X158482500Y-86969444D01*
X158482500Y-86986282D01*
X158488564Y-87008913D01*
X158491527Y-87023358D01*
X158495598Y-87051678D01*
X158495599Y-87051679D01*
X158502004Y-87065704D01*
X158508982Y-87085118D01*
X158511633Y-87095009D01*
X158526640Y-87121001D01*
X158532044Y-87131484D01*
X158546666Y-87163501D01*
X158546667Y-87163502D01*
X158552432Y-87170155D01*
X158566103Y-87189353D01*
X158567915Y-87192491D01*
X158593788Y-87218364D01*
X158599808Y-87224830D01*
X158627168Y-87256405D01*
X158628992Y-87257577D01*
X158640985Y-87267241D01*
X158641064Y-87267139D01*
X158647512Y-87272087D01*
X158684891Y-87293667D01*
X158689934Y-87296741D01*
X158730584Y-87322866D01*
X158732013Y-87323519D01*
X158740597Y-87326547D01*
X158744988Y-87328366D01*
X158744990Y-87328366D01*
X158744991Y-87328367D01*
X158793072Y-87341249D01*
X158795836Y-87342025D01*
X158848535Y-87357500D01*
X158848537Y-87357500D01*
X159696279Y-87357500D01*
X159696281Y-87357500D01*
X159805009Y-87328367D01*
X159902491Y-87272085D01*
X161112085Y-86062492D01*
X161168367Y-85965009D01*
X161197500Y-85856282D01*
X161197500Y-85743719D01*
X161197500Y-85379444D01*
X161198762Y-85361797D01*
X161201896Y-85339999D01*
X161198762Y-85318201D01*
X161197500Y-85300555D01*
X161197500Y-82850000D01*
X164428104Y-82850000D01*
X164445598Y-82971678D01*
X164445599Y-82971682D01*
X164496665Y-83083499D01*
X164496666Y-83083501D01*
X164577168Y-83176405D01*
X164680584Y-83242866D01*
X164798535Y-83277500D01*
X164921465Y-83277500D01*
X165039416Y-83242866D01*
X165142832Y-83176405D01*
X165223334Y-83083501D01*
X165274401Y-82971679D01*
X165291896Y-82850000D01*
X165274401Y-82728321D01*
X165274400Y-82728317D01*
X165223334Y-82616500D01*
X165223334Y-82616499D01*
X165142832Y-82523595D01*
X165039416Y-82457134D01*
X164921465Y-82422500D01*
X164798535Y-82422500D01*
X164680584Y-82457134D01*
X164680582Y-82457134D01*
X164680582Y-82457135D01*
X164577169Y-82523594D01*
X164496667Y-82616497D01*
X164496665Y-82616500D01*
X164445599Y-82728317D01*
X164445598Y-82728321D01*
X164428104Y-82850000D01*
X161197500Y-82850000D01*
X161197500Y-78410000D01*
X164178104Y-78410000D01*
X164195598Y-78531678D01*
X164195599Y-78531682D01*
X164218434Y-78581682D01*
X164246666Y-78643501D01*
X164327168Y-78736405D01*
X164430584Y-78802866D01*
X164548535Y-78837500D01*
X164671465Y-78837500D01*
X164789416Y-78802866D01*
X164892832Y-78736405D01*
X164973334Y-78643501D01*
X165024401Y-78531679D01*
X165041896Y-78410000D01*
X165024401Y-78288321D01*
X165024400Y-78288317D01*
X164973334Y-78176500D01*
X164973334Y-78176499D01*
X164892832Y-78083595D01*
X164789416Y-78017134D01*
X164671465Y-77982500D01*
X164548535Y-77982500D01*
X164430584Y-78017134D01*
X164430582Y-78017134D01*
X164430582Y-78017135D01*
X164327169Y-78083594D01*
X164246667Y-78176497D01*
X164246665Y-78176500D01*
X164195599Y-78288317D01*
X164195598Y-78288321D01*
X164178104Y-78410000D01*
X161197500Y-78410000D01*
X161197500Y-73233721D01*
X161197500Y-73233719D01*
X161197271Y-73232866D01*
X161168367Y-73124991D01*
X161112085Y-73027508D01*
X160783819Y-72699242D01*
X160750334Y-72637919D01*
X160747500Y-72611561D01*
X160747500Y-66350000D01*
X164228104Y-66350000D01*
X164245598Y-66471678D01*
X164245599Y-66471682D01*
X164296665Y-66583499D01*
X164296666Y-66583501D01*
X164377168Y-66676405D01*
X164480584Y-66742866D01*
X164598535Y-66777500D01*
X164721465Y-66777500D01*
X164839416Y-66742866D01*
X164942832Y-66676405D01*
X165023334Y-66583501D01*
X165074401Y-66471679D01*
X165091896Y-66350000D01*
X165074401Y-66228321D01*
X165074400Y-66228317D01*
X165023334Y-66116500D01*
X165023334Y-66116499D01*
X164942832Y-66023595D01*
X164839416Y-65957134D01*
X164721465Y-65922500D01*
X164598535Y-65922500D01*
X164480584Y-65957134D01*
X164480582Y-65957134D01*
X164480582Y-65957135D01*
X164377169Y-66023594D01*
X164296667Y-66116497D01*
X164296665Y-66116500D01*
X164245599Y-66228317D01*
X164245598Y-66228321D01*
X164228104Y-66350000D01*
X160747500Y-66350000D01*
X160747500Y-65078438D01*
X160767185Y-65011399D01*
X160783819Y-64990757D01*
X169770758Y-56003819D01*
X169832081Y-55970334D01*
X169858439Y-55967500D01*
X170028522Y-55967500D01*
X170095561Y-55987185D01*
X170103998Y-55993116D01*
X170113974Y-56000771D01*
X170113975Y-56000771D01*
X170113976Y-56000772D01*
X170156747Y-56018488D01*
X170242295Y-56053923D01*
X170336180Y-56066283D01*
X170400075Y-56094548D01*
X170407675Y-56101540D01*
X170546181Y-56240046D01*
X170579666Y-56301369D01*
X170582500Y-56327727D01*
X170582500Y-66240542D01*
X170571295Y-66292052D01*
X170545600Y-66348317D01*
X170545598Y-66348321D01*
X170528104Y-66470000D01*
X170545598Y-66591677D01*
X170545599Y-66591679D01*
X170561294Y-66626047D01*
X170572500Y-66677558D01*
X170572500Y-78092732D01*
X170552815Y-78159771D01*
X170542213Y-78173935D01*
X170496667Y-78226497D01*
X170496665Y-78226500D01*
X170445599Y-78338317D01*
X170445598Y-78338321D01*
X170428104Y-78460000D01*
X170445598Y-78581678D01*
X170445599Y-78581682D01*
X170473832Y-78643502D01*
X170496666Y-78693501D01*
X170552213Y-78757605D01*
X170581238Y-78821159D01*
X170582500Y-78838807D01*
X170582500Y-90235450D01*
X170567350Y-90287062D01*
X170570350Y-90288432D01*
X170515599Y-90408320D01*
X170515598Y-90408321D01*
X170498104Y-90530000D01*
X170515598Y-90651678D01*
X170515599Y-90651682D01*
X170566665Y-90763499D01*
X170566666Y-90763501D01*
X170647168Y-90856405D01*
X170750584Y-90922866D01*
X170868535Y-90957500D01*
X170991465Y-90957500D01*
X171109416Y-90922866D01*
X171212832Y-90856405D01*
X171293334Y-90763501D01*
X171344401Y-90651679D01*
X171361896Y-90530000D01*
X171344401Y-90408321D01*
X171344400Y-90408319D01*
X171342523Y-90401926D01*
X171337500Y-90366990D01*
X171337500Y-82850727D01*
X171357185Y-82783688D01*
X171409989Y-82737933D01*
X171479147Y-82727989D01*
X171542703Y-82757014D01*
X171549181Y-82763046D01*
X173368210Y-84582075D01*
X173454290Y-84631774D01*
X173550301Y-84657500D01*
X173550303Y-84657500D01*
X177392567Y-84657500D01*
X177370667Y-86300000D01*
X177300000Y-86300000D01*
X177300000Y-87400000D01*
X177521290Y-87284085D01*
X177521250Y-93876657D01*
X177501565Y-93943696D01*
X177448761Y-93989451D01*
X177397230Y-94000656D01*
X145848496Y-93995508D01*
X145848417Y-93995500D01*
X145835882Y-93995500D01*
X145799490Y-93995500D01*
X145792537Y-93995305D01*
X145488387Y-93978224D01*
X145474569Y-93976667D01*
X145177694Y-93926226D01*
X145164137Y-93923132D01*
X144874769Y-93839766D01*
X144861644Y-93835173D01*
X144583438Y-93719937D01*
X144570910Y-93713904D01*
X144307351Y-93568240D01*
X144295577Y-93560842D01*
X144049985Y-93386586D01*
X144039113Y-93377916D01*
X143814575Y-93177257D01*
X143804742Y-93167424D01*
X143604083Y-92942886D01*
X143595413Y-92932014D01*
X143421157Y-92686422D01*
X143413759Y-92674648D01*
X143268095Y-92411089D01*
X143262065Y-92398568D01*
X143146826Y-92120355D01*
X143142233Y-92107230D01*
X143058867Y-91817862D01*
X143055773Y-91804305D01*
X143036169Y-91688922D01*
X143005330Y-91507420D01*
X143003776Y-91493622D01*
X142986694Y-91189465D01*
X142986500Y-91182512D01*
X142986504Y-91146106D01*
X142986580Y-90470000D01*
X164188104Y-90470000D01*
X164205598Y-90591678D01*
X164205599Y-90591682D01*
X164233001Y-90651682D01*
X164256666Y-90703501D01*
X164337168Y-90796405D01*
X164440584Y-90862866D01*
X164558535Y-90897500D01*
X164681465Y-90897500D01*
X164799416Y-90862866D01*
X164902832Y-90796405D01*
X164983334Y-90703501D01*
X165034401Y-90591679D01*
X165051896Y-90470000D01*
X165034401Y-90348321D01*
X165034400Y-90348317D01*
X164983334Y-90236500D01*
X164983334Y-90236499D01*
X164902832Y-90143595D01*
X164799416Y-90077134D01*
X164681465Y-90042500D01*
X164558535Y-90042500D01*
X164440584Y-90077134D01*
X164440582Y-90077134D01*
X164440582Y-90077135D01*
X164337169Y-90143594D01*
X164256667Y-90236497D01*
X164256665Y-90236500D01*
X164205599Y-90348317D01*
X164205598Y-90348321D01*
X164188104Y-90470000D01*
X142986580Y-90470000D01*
X142989151Y-67564000D01*
X146634104Y-67564000D01*
X146651598Y-67685678D01*
X146651599Y-67685682D01*
X146702665Y-67797499D01*
X146702666Y-67797501D01*
X146783168Y-67890405D01*
X146886584Y-67956866D01*
X147004535Y-67991500D01*
X147127465Y-67991500D01*
X147245416Y-67956866D01*
X147348832Y-67890405D01*
X147429334Y-67797501D01*
X147480401Y-67685679D01*
X147497896Y-67564000D01*
X147480401Y-67442321D01*
X147480400Y-67442317D01*
X147429334Y-67330500D01*
X147429334Y-67330499D01*
X147348832Y-67237595D01*
X147245416Y-67171134D01*
X147127465Y-67136500D01*
X147004535Y-67136500D01*
X146886584Y-67171134D01*
X146886582Y-67171134D01*
X146886582Y-67171135D01*
X146783169Y-67237594D01*
X146702667Y-67330497D01*
X146702665Y-67330500D01*
X146651599Y-67442317D01*
X146651598Y-67442321D01*
X146634104Y-67564000D01*
X142989151Y-67564000D01*
X142989323Y-66030000D01*
X151008104Y-66030000D01*
X151025598Y-66151678D01*
X151025599Y-66151682D01*
X151066181Y-66240542D01*
X151076666Y-66263501D01*
X151157168Y-66356405D01*
X151260584Y-66422866D01*
X151378535Y-66457500D01*
X151501465Y-66457500D01*
X151619416Y-66422866D01*
X151722832Y-66356405D01*
X151803334Y-66263501D01*
X151854401Y-66151679D01*
X151871896Y-66030000D01*
X151854401Y-65908321D01*
X151854400Y-65908317D01*
X151803334Y-65796500D01*
X151803334Y-65796499D01*
X151722832Y-65703595D01*
X151619416Y-65637134D01*
X151501465Y-65602500D01*
X151378535Y-65602500D01*
X151260584Y-65637134D01*
X151260582Y-65637134D01*
X151260582Y-65637135D01*
X151157169Y-65703594D01*
X151076667Y-65796497D01*
X151076665Y-65796500D01*
X151025599Y-65908317D01*
X151025598Y-65908321D01*
X151008104Y-66030000D01*
X142989323Y-66030000D01*
X142990492Y-55626000D01*
X149682104Y-55626000D01*
X149699598Y-55747678D01*
X149699599Y-55747682D01*
X149750665Y-55859499D01*
X149750666Y-55859501D01*
X149831168Y-55952405D01*
X149934584Y-56018866D01*
X150052535Y-56053500D01*
X150175465Y-56053500D01*
X150293416Y-56018866D01*
X150396832Y-55952405D01*
X150477334Y-55859501D01*
X150528401Y-55747679D01*
X150545896Y-55626000D01*
X150528401Y-55504321D01*
X150528400Y-55504317D01*
X150495505Y-55432288D01*
X150477334Y-55392499D01*
X150396832Y-55299595D01*
X150293416Y-55233134D01*
X150175465Y-55198500D01*
X150052535Y-55198500D01*
X149934584Y-55233134D01*
X149934582Y-55233134D01*
X149934582Y-55233135D01*
X149831169Y-55299594D01*
X149750667Y-55392497D01*
X149750665Y-55392500D01*
X149699599Y-55504317D01*
X149699598Y-55504321D01*
X149682104Y-55626000D01*
X142990492Y-55626000D01*
X142990493Y-55613168D01*
X142990500Y-55613114D01*
X142990500Y-55563480D01*
X142990695Y-55556528D01*
X142999356Y-55402295D01*
X143007838Y-55251259D01*
X143009392Y-55237460D01*
X143060024Y-54939464D01*
X143063118Y-54925912D01*
X143075861Y-54881682D01*
X143110917Y-54760000D01*
X157778104Y-54760000D01*
X157795598Y-54881678D01*
X157795599Y-54881682D01*
X157846665Y-54993499D01*
X157846666Y-54993501D01*
X157927168Y-55086405D01*
X158030584Y-55152866D01*
X158148535Y-55187500D01*
X158271465Y-55187500D01*
X158389416Y-55152866D01*
X158492832Y-55086405D01*
X158573334Y-54993501D01*
X158624401Y-54881679D01*
X158641896Y-54760000D01*
X158624401Y-54638321D01*
X158624400Y-54638317D01*
X158573334Y-54526500D01*
X158573334Y-54526499D01*
X158492832Y-54433595D01*
X158389416Y-54367134D01*
X158271465Y-54332500D01*
X158148535Y-54332500D01*
X158030584Y-54367134D01*
X158030582Y-54367134D01*
X158030582Y-54367135D01*
X157927169Y-54433594D01*
X157846667Y-54526497D01*
X157846665Y-54526500D01*
X157795599Y-54638317D01*
X157795598Y-54638321D01*
X157778104Y-54760000D01*
X143110917Y-54760000D01*
X143146795Y-54635462D01*
X143151387Y-54622342D01*
X143229568Y-54433595D01*
X143267055Y-54343091D01*
X143273077Y-54330585D01*
X143419295Y-54066025D01*
X143426690Y-54054257D01*
X143601602Y-53807741D01*
X143610258Y-53796887D01*
X143811682Y-53571492D01*
X143821492Y-53561682D01*
X144046887Y-53360258D01*
X144057741Y-53351602D01*
X144304262Y-53176686D01*
X144316025Y-53169295D01*
X144580585Y-53023077D01*
X144593091Y-53017055D01*
X144872342Y-52901387D01*
X144885462Y-52896795D01*
X145175917Y-52813116D01*
X145189464Y-52810024D01*
X145487460Y-52759392D01*
X145501259Y-52757838D01*
X145768020Y-52742857D01*
X145806529Y-52740695D01*
X145813481Y-52740500D01*
X177397511Y-52740500D01*
X177464550Y-52760185D01*
G37*
%TD.AperFunction*%
%TD*%
M02*
