%TF.GenerationSoftware,KiCad,Pcbnew,8.0.9-8.0.9-0~ubuntu24.04.1*%
%TF.CreationDate,2025-08-06T19:27:29-03:00*%
%TF.ProjectId,eeg,6565672e-6b69-4636-9164-5f7063625858,rev?*%
%TF.SameCoordinates,Original*%
%TF.FileFunction,Copper,L3,Inr*%
%TF.FilePolarity,Positive*%
%FSLAX46Y46*%
G04 Gerber Fmt 4.6, Leading zero omitted, Abs format (unit mm)*
G04 Created by KiCad (PCBNEW 8.0.9-8.0.9-0~ubuntu24.04.1) date 2025-08-06 19:27:30*
%MOMM*%
%LPD*%
G01*
G04 APERTURE LIST*
%TA.AperFunction,ComponentPad*%
%ADD10C,3.800000*%
%TD*%
%TA.AperFunction,ComponentPad*%
%ADD11R,1.700000X1.700000*%
%TD*%
%TA.AperFunction,ComponentPad*%
%ADD12O,1.700000X1.700000*%
%TD*%
%TA.AperFunction,ViaPad*%
%ADD13C,0.600000*%
%TD*%
%TA.AperFunction,ViaPad*%
%ADD14C,0.800000*%
%TD*%
%TA.AperFunction,Conductor*%
%ADD15C,0.300000*%
%TD*%
G04 APERTURE END LIST*
D10*
%TO.N,GND*%
%TO.C,H3*%
X207080000Y-55560000D03*
%TD*%
D11*
%TO.N,MCU_RX*%
%TO.C,J4*%
X191250000Y-55400000D03*
D12*
%TO.N,MCU_TX*%
X188710000Y-55400000D03*
%TO.N,GND*%
X186170000Y-55400000D03*
%TD*%
D10*
%TO.N,GNDA*%
%TO.C,H1*%
X145810000Y-55560000D03*
%TD*%
D11*
%TO.N,GND*%
%TO.C,J1*%
X207270000Y-64560000D03*
D12*
%TO.N,VIN_SWT*%
X207270000Y-62020000D03*
%TD*%
D11*
%TO.N,GND*%
%TO.C,J2*%
X207210000Y-68465000D03*
D12*
%TO.N,SWCLK*%
X207210000Y-71005000D03*
%TO.N,SWDIO*%
X207210000Y-73545000D03*
%TO.N,SWO*%
X207210000Y-76085000D03*
%TO.N,VDD33*%
X207210000Y-78625000D03*
%TD*%
D10*
%TO.N,GNDA*%
%TO.C,H2*%
X145796000Y-91186000D03*
%TD*%
%TO.N,GND*%
%TO.C,H4*%
X207080000Y-91186000D03*
%TD*%
D13*
%TO.N,GND*%
X209000000Y-89000000D03*
X209000000Y-87500000D03*
X209000000Y-86000000D03*
X209000000Y-84500000D03*
X209000000Y-83000000D03*
X209000000Y-81500000D03*
X209000000Y-80000000D03*
X209000000Y-78500000D03*
X209000000Y-77000000D03*
X209000000Y-75500000D03*
X209000000Y-74000000D03*
X209000000Y-72500000D03*
X209000000Y-71000000D03*
X209000000Y-69500000D03*
X209000000Y-68000000D03*
X209000000Y-66500000D03*
X209000000Y-65000000D03*
X209000000Y-63500000D03*
X209000000Y-62000000D03*
X209000000Y-60500000D03*
X209000000Y-59000000D03*
X209000000Y-57500000D03*
X207500000Y-87500000D03*
X207500000Y-86000000D03*
X207500000Y-80000000D03*
X207500000Y-66500000D03*
X207500000Y-59000000D03*
X206000000Y-87500000D03*
X206000000Y-86000000D03*
X206000000Y-80000000D03*
X206000000Y-72500000D03*
X206000000Y-66500000D03*
X204500000Y-92000000D03*
X204500000Y-90500000D03*
X204500000Y-89000000D03*
X204500000Y-87500000D03*
X204500000Y-86000000D03*
X204500000Y-80000000D03*
X204500000Y-74000000D03*
X204500000Y-72500000D03*
X204500000Y-69500000D03*
X204500000Y-68000000D03*
X204500000Y-66500000D03*
X204500000Y-65000000D03*
X204500000Y-63500000D03*
X204500000Y-62000000D03*
X204500000Y-60500000D03*
X204500000Y-57500000D03*
X204500000Y-56000000D03*
X204500000Y-54500000D03*
X203000000Y-92000000D03*
X203000000Y-90500000D03*
X203000000Y-89000000D03*
X203000000Y-87500000D03*
X203000000Y-86000000D03*
X203000000Y-80000000D03*
X203000000Y-72500000D03*
X203000000Y-71000000D03*
X203000000Y-68000000D03*
X203000000Y-66500000D03*
X203000000Y-65000000D03*
X203000000Y-62000000D03*
X203000000Y-60500000D03*
X203000000Y-57500000D03*
X201500000Y-92000000D03*
X201500000Y-90500000D03*
X201500000Y-89000000D03*
X201500000Y-87500000D03*
X201500000Y-68000000D03*
X201500000Y-66500000D03*
X201500000Y-65000000D03*
X201500000Y-62000000D03*
X201500000Y-60500000D03*
X200000000Y-92000000D03*
X200000000Y-68000000D03*
X200000000Y-66500000D03*
X200000000Y-65000000D03*
X200000000Y-62000000D03*
X200000000Y-60500000D03*
X200000000Y-57500000D03*
X198500000Y-92000000D03*
X198500000Y-69500000D03*
X198500000Y-65000000D03*
X198500000Y-62000000D03*
X198500000Y-60500000D03*
X198500000Y-54500000D03*
X197000000Y-92000000D03*
X197000000Y-90500000D03*
X197000000Y-89000000D03*
X197000000Y-86000000D03*
X197000000Y-84500000D03*
X197000000Y-83000000D03*
X197000000Y-81500000D03*
X197000000Y-80000000D03*
X197000000Y-78500000D03*
X197000000Y-69500000D03*
X197000000Y-62000000D03*
X197000000Y-60500000D03*
X195500000Y-86000000D03*
X195500000Y-84500000D03*
X195500000Y-81500000D03*
X195500000Y-80000000D03*
X195500000Y-78500000D03*
X195500000Y-77000000D03*
X195500000Y-68000000D03*
X195500000Y-66500000D03*
X194000000Y-86000000D03*
X194000000Y-84500000D03*
X194000000Y-81500000D03*
X194000000Y-80000000D03*
X194000000Y-78500000D03*
X194000000Y-77000000D03*
X194000000Y-75500000D03*
X194000000Y-62000000D03*
X194000000Y-60500000D03*
X194000000Y-55540000D03*
X194000000Y-54040000D03*
X192500000Y-86000000D03*
X192500000Y-84500000D03*
X192500000Y-80000000D03*
X192500000Y-78500000D03*
X192500000Y-77000000D03*
X192500000Y-75500000D03*
X192500000Y-62000000D03*
X192500000Y-60500000D03*
X192500000Y-57040000D03*
X191000000Y-86000000D03*
X191000000Y-81500000D03*
X191000000Y-80000000D03*
X191000000Y-78500000D03*
X191000000Y-60500000D03*
X189500000Y-92000000D03*
X189500000Y-90500000D03*
X189500000Y-89000000D03*
X189500000Y-83000000D03*
X189500000Y-81500000D03*
X189500000Y-80000000D03*
X189500000Y-74000000D03*
X189500000Y-57040000D03*
X188000000Y-92000000D03*
X188000000Y-75500000D03*
X188000000Y-74000000D03*
X186500000Y-92000000D03*
X186500000Y-90500000D03*
X186500000Y-89000000D03*
X186500000Y-65000000D03*
X186500000Y-63500000D03*
X186500000Y-57040000D03*
X185000000Y-92000000D03*
X185000000Y-90500000D03*
X185000000Y-89000000D03*
X185000000Y-63500000D03*
X185000000Y-57040000D03*
X183500000Y-92000000D03*
X183500000Y-90500000D03*
X183500000Y-89000000D03*
X183500000Y-63500000D03*
X183500000Y-62000000D03*
X183500000Y-60500000D03*
X183500000Y-57040000D03*
X183500000Y-55540000D03*
X183500000Y-54040000D03*
X182000000Y-92000000D03*
X182000000Y-75500000D03*
X182000000Y-74000000D03*
X182000000Y-72500000D03*
X182000000Y-71000000D03*
X182000000Y-69500000D03*
X182000000Y-68000000D03*
X182000000Y-63500000D03*
X182000000Y-57040000D03*
X182000000Y-55540000D03*
X182000000Y-54040000D03*
%TO.N,VDD33*%
X197490000Y-66950000D03*
X185380000Y-71930000D03*
%TO.N,SWO*%
X194680000Y-69760000D03*
X204300000Y-76640000D03*
%TO.N,VDD33*%
X199380000Y-85980000D03*
D14*
X193260000Y-73450000D03*
X193250000Y-68040000D03*
D13*
%TO.N,GND*%
X195060000Y-83270000D03*
D14*
X181230000Y-89310000D03*
D13*
%TO.N,RESET*%
X187400000Y-61005000D03*
X188881000Y-78581000D03*
%TO.N,BOOT*%
X190290000Y-67000000D03*
X187390000Y-67000000D03*
%TO.N,VREF*%
X154860000Y-70610000D03*
X158210000Y-54760000D03*
X151440000Y-66030000D03*
X165080000Y-58640000D03*
X153990000Y-77220000D03*
X156337000Y-59182000D03*
X150114000Y-55626000D03*
X164620000Y-90470000D03*
X154880000Y-82410000D03*
X147066000Y-67564000D03*
X186875331Y-84175331D03*
X164660000Y-66350000D03*
X164610000Y-78410000D03*
X164860000Y-82850000D03*
%TO.N,VDDA33*%
X159040000Y-62520000D03*
X160180000Y-60830000D03*
X160320000Y-72840000D03*
X158890000Y-75050000D03*
X182010000Y-83350000D03*
X170930000Y-90530000D03*
X152630000Y-69930000D03*
D14*
X170380000Y-55540000D03*
D13*
X152660000Y-82570000D03*
X170960000Y-66470000D03*
X160770000Y-85340000D03*
X153540000Y-58020000D03*
X170860000Y-78460000D03*
X158910000Y-86930000D03*
%TO.N,VDD33*%
X187360000Y-78630000D03*
X184150000Y-74320000D03*
X184060000Y-76610000D03*
D14*
%TO.N,VIN_BAT*%
X176830000Y-59000000D03*
X194560000Y-57600000D03*
D13*
X176403000Y-65024000D03*
%TO.N,GNDA*%
X150020000Y-81440000D03*
X168530000Y-63150000D03*
X165800000Y-81600000D03*
X175420000Y-53500000D03*
X158380000Y-76650000D03*
X170340000Y-53500000D03*
X152560000Y-53500000D03*
X160180000Y-53500000D03*
X167800000Y-53500000D03*
X168270000Y-75210000D03*
X175700000Y-82800000D03*
X153280000Y-73590000D03*
X150020000Y-89060000D03*
X172880000Y-58580000D03*
X150020000Y-53500000D03*
X172880000Y-53500000D03*
X175420000Y-76360000D03*
X165860000Y-61740000D03*
X181910000Y-82240000D03*
X165660000Y-79060000D03*
X167800000Y-61120000D03*
X152560000Y-91600000D03*
X162720000Y-53500000D03*
X175420000Y-71280000D03*
X165710000Y-67300000D03*
X169300000Y-79300000D03*
X150020000Y-68740000D03*
X164620000Y-74225000D03*
X155360000Y-89570000D03*
X175420000Y-73820000D03*
X173780000Y-90060000D03*
X175420000Y-78900000D03*
X160020000Y-56250000D03*
D14*
X176670000Y-89320000D03*
D13*
X175420000Y-91600000D03*
X150020000Y-78900000D03*
X165350000Y-89890000D03*
X175420000Y-68740000D03*
X162720000Y-86520000D03*
X177960000Y-81440000D03*
X172880000Y-91600000D03*
X150020000Y-91600000D03*
X168460000Y-87260000D03*
X165880000Y-69500000D03*
X158330000Y-64640000D03*
X165260000Y-53500000D03*
X177960000Y-86520000D03*
X158410000Y-88420000D03*
%TO.N,VCAP*%
X198500000Y-74770000D03*
X199972000Y-74660000D03*
%TO.N,GNDA*%
X174000000Y-88000000D03*
X172000000Y-70000000D03*
X172000000Y-68000000D03*
X170000000Y-92000000D03*
X170000000Y-82000000D03*
X170000000Y-70000000D03*
X170000000Y-68000000D03*
X170000000Y-58000000D03*
X166000000Y-86000000D03*
X166000000Y-66000000D03*
X164000000Y-86000000D03*
X162000000Y-74000000D03*
X158000000Y-80000000D03*
X158000000Y-68000000D03*
X156000000Y-80000000D03*
X156000000Y-78000000D03*
X156000000Y-68000000D03*
X156000000Y-66000000D03*
X152000000Y-90000000D03*
X152000000Y-68000000D03*
X150000000Y-70000000D03*
X148000000Y-88000000D03*
X148000000Y-82000000D03*
X148000000Y-80000000D03*
X148000000Y-78000000D03*
X148000000Y-76000000D03*
X148000000Y-70000000D03*
X148000000Y-66000000D03*
X148000000Y-64000000D03*
X148000000Y-58000000D03*
X148000000Y-54000000D03*
%TO.N,GND*%
X206000000Y-84000000D03*
X206000000Y-82000000D03*
X206000000Y-70000000D03*
X204000000Y-84000000D03*
X204000000Y-82000000D03*
X200000000Y-54000000D03*
X196000000Y-54000000D03*
X192000000Y-54000000D03*
X190000000Y-76000000D03*
X190000000Y-64000000D03*
X190000000Y-54000000D03*
X188000000Y-54000000D03*
X186000000Y-54000000D03*
X182140000Y-88510000D03*
%TD*%
D15*
%TO.N,SWO*%
X194680000Y-69760000D02*
X195260000Y-69760000D01*
X195260000Y-69760000D02*
X196440000Y-70940000D01*
X196440000Y-70940000D02*
X196440000Y-74840000D01*
X196440000Y-74840000D02*
X198240000Y-76640000D01*
X198240000Y-76640000D02*
X204300000Y-76640000D01*
%TO.N,RESET*%
X189035000Y-61005000D02*
X187400000Y-61005000D01*
X191410000Y-63380000D02*
X189035000Y-61005000D01*
X191410000Y-76052000D02*
X191410000Y-63380000D01*
X188881000Y-78581000D02*
X191410000Y-76052000D01*
%TO.N,BOOT*%
X190290000Y-67000000D02*
X187390000Y-67000000D01*
%TD*%
%TA.AperFunction,Conductor*%
%TO.N,GNDA*%
G36*
X177370000Y-86350000D02*
G01*
X179300524Y-86352105D01*
X177521249Y-87284106D01*
X177521249Y-87284107D01*
X177300000Y-87400000D01*
X177300000Y-86300000D01*
X177370667Y-86300000D01*
X177370000Y-86350000D01*
G37*
%TD.AperFunction*%
%TD*%
%TA.AperFunction,Conductor*%
%TO.N,GND*%
G36*
X207083471Y-52740695D02*
G01*
X207125848Y-52743074D01*
X207388738Y-52757837D01*
X207402541Y-52759393D01*
X207700530Y-52810024D01*
X207714087Y-52813118D01*
X208004533Y-52896794D01*
X208017657Y-52901387D01*
X208296899Y-53017052D01*
X208309421Y-53023081D01*
X208512943Y-53135564D01*
X208573968Y-53169292D01*
X208585742Y-53176690D01*
X208832248Y-53351595D01*
X208843120Y-53360265D01*
X209068495Y-53561671D01*
X209078328Y-53571504D01*
X209279734Y-53796879D01*
X209288404Y-53807751D01*
X209463309Y-54054257D01*
X209470707Y-54066031D01*
X209616914Y-54330571D01*
X209622947Y-54343100D01*
X209738612Y-54622342D01*
X209743205Y-54635466D01*
X209826881Y-54925912D01*
X209829975Y-54939469D01*
X209867280Y-55159029D01*
X209869031Y-55180177D01*
X209757085Y-91996626D01*
X209752240Y-92030576D01*
X209729206Y-92110530D01*
X209724613Y-92123656D01*
X209608947Y-92402900D01*
X209602914Y-92415428D01*
X209456707Y-92679968D01*
X209449309Y-92691742D01*
X209274404Y-92938248D01*
X209265734Y-92949120D01*
X209064328Y-93174495D01*
X209054495Y-93184328D01*
X208829120Y-93385734D01*
X208818248Y-93394404D01*
X208571742Y-93569309D01*
X208559968Y-93576707D01*
X208295428Y-93722914D01*
X208282899Y-93728947D01*
X208003657Y-93844612D01*
X207990533Y-93849205D01*
X207700087Y-93932881D01*
X207686530Y-93935975D01*
X207388549Y-93986605D01*
X207374730Y-93988162D01*
X207069472Y-94005304D01*
X207062500Y-94005499D01*
X180545355Y-94001171D01*
X180478319Y-93981475D01*
X180432572Y-93928664D01*
X180421377Y-93876799D01*
X180439621Y-87911849D01*
X180459510Y-87844871D01*
X180512454Y-87799278D01*
X180563820Y-87788229D01*
X186520000Y-87798026D01*
X187435019Y-86372864D01*
X187613400Y-86095032D01*
X187666184Y-86049254D01*
X187717745Y-86038026D01*
X188600000Y-86038026D01*
X188600000Y-85980000D01*
X198948104Y-85980000D01*
X198965598Y-86101678D01*
X198965599Y-86101682D01*
X199016665Y-86213499D01*
X199016666Y-86213501D01*
X199097168Y-86306405D01*
X199200584Y-86372866D01*
X199318535Y-86407500D01*
X199441465Y-86407500D01*
X199559416Y-86372866D01*
X199662832Y-86306405D01*
X199743334Y-86213501D01*
X199794401Y-86101679D01*
X199811896Y-85980000D01*
X199794401Y-85858321D01*
X199794400Y-85858317D01*
X199743334Y-85746500D01*
X199743334Y-85746499D01*
X199662832Y-85653595D01*
X199559416Y-85587134D01*
X199441465Y-85552500D01*
X199318535Y-85552500D01*
X199200584Y-85587134D01*
X199200582Y-85587134D01*
X199200582Y-85587135D01*
X199097169Y-85653594D01*
X199016667Y-85746497D01*
X199016665Y-85746500D01*
X198965599Y-85858317D01*
X198965598Y-85858321D01*
X198948104Y-85980000D01*
X188600000Y-85980000D01*
X188600000Y-80767026D01*
X188599999Y-80767025D01*
X180544712Y-80776873D01*
X180477648Y-80757270D01*
X180431829Y-80704522D01*
X180420561Y-80652315D01*
X180425350Y-79588356D01*
X180429663Y-78630000D01*
X186928104Y-78630000D01*
X186945598Y-78751678D01*
X186945599Y-78751682D01*
X186996665Y-78863499D01*
X186996666Y-78863501D01*
X187077168Y-78956405D01*
X187180584Y-79022866D01*
X187298535Y-79057500D01*
X187421465Y-79057500D01*
X187539416Y-79022866D01*
X187642832Y-78956405D01*
X187723334Y-78863501D01*
X187774401Y-78751679D01*
X187791896Y-78630000D01*
X187774401Y-78508321D01*
X187774400Y-78508317D01*
X187723334Y-78396500D01*
X187723334Y-78396499D01*
X187642832Y-78303595D01*
X187539416Y-78237134D01*
X187421465Y-78202500D01*
X187298535Y-78202500D01*
X187180584Y-78237134D01*
X187180582Y-78237134D01*
X187180582Y-78237135D01*
X187077169Y-78303594D01*
X186996667Y-78396497D01*
X186996665Y-78396500D01*
X186945599Y-78508317D01*
X186945598Y-78508321D01*
X186928104Y-78630000D01*
X180429663Y-78630000D01*
X180438755Y-76610000D01*
X183628104Y-76610000D01*
X183645598Y-76731678D01*
X183645599Y-76731682D01*
X183679561Y-76806047D01*
X183696666Y-76843501D01*
X183777168Y-76936405D01*
X183880584Y-77002866D01*
X183998535Y-77037500D01*
X184121465Y-77037500D01*
X184239416Y-77002866D01*
X184342832Y-76936405D01*
X184423334Y-76843501D01*
X184474401Y-76731679D01*
X184491896Y-76610000D01*
X184474401Y-76488321D01*
X184474400Y-76488317D01*
X184437034Y-76406499D01*
X184423334Y-76376499D01*
X184342832Y-76283595D01*
X184239416Y-76217134D01*
X184121465Y-76182500D01*
X183998535Y-76182500D01*
X183880584Y-76217134D01*
X183880582Y-76217134D01*
X183880582Y-76217135D01*
X183777169Y-76283594D01*
X183696667Y-76376497D01*
X183696665Y-76376500D01*
X183645599Y-76488317D01*
X183645598Y-76488321D01*
X183628104Y-76610000D01*
X180438755Y-76610000D01*
X180449062Y-74320000D01*
X183718104Y-74320000D01*
X183735598Y-74441678D01*
X183735599Y-74441682D01*
X183786665Y-74553499D01*
X183786666Y-74553501D01*
X183867168Y-74646405D01*
X183970584Y-74712866D01*
X184088535Y-74747500D01*
X184211465Y-74747500D01*
X184329416Y-74712866D01*
X184432832Y-74646405D01*
X184513334Y-74553501D01*
X184563526Y-74443595D01*
X184564400Y-74441682D01*
X184564401Y-74441678D01*
X184566583Y-74426500D01*
X184581896Y-74320000D01*
X184564401Y-74198321D01*
X184564400Y-74198317D01*
X184515252Y-74090699D01*
X184513334Y-74086499D01*
X184432832Y-73993595D01*
X184329416Y-73927134D01*
X184211465Y-73892500D01*
X184088535Y-73892500D01*
X183970584Y-73927134D01*
X183970582Y-73927134D01*
X183970582Y-73927135D01*
X183867169Y-73993594D01*
X183786667Y-74086497D01*
X183786665Y-74086500D01*
X183735599Y-74198317D01*
X183735598Y-74198321D01*
X183718104Y-74320000D01*
X180449062Y-74320000D01*
X180459819Y-71930000D01*
X184948104Y-71930000D01*
X184965598Y-72051678D01*
X184965599Y-72051682D01*
X185016665Y-72163499D01*
X185016666Y-72163501D01*
X185097168Y-72256405D01*
X185200584Y-72322866D01*
X185318535Y-72357500D01*
X185441465Y-72357500D01*
X185559416Y-72322866D01*
X185662832Y-72256405D01*
X185743334Y-72163501D01*
X185794401Y-72051679D01*
X185811896Y-71930000D01*
X185794401Y-71808321D01*
X185794400Y-71808317D01*
X185743334Y-71696500D01*
X185743334Y-71696499D01*
X185662832Y-71603595D01*
X185559416Y-71537134D01*
X185441465Y-71502500D01*
X185318535Y-71502500D01*
X185200584Y-71537134D01*
X185200582Y-71537134D01*
X185200582Y-71537135D01*
X185097169Y-71603594D01*
X185016667Y-71696497D01*
X185016665Y-71696500D01*
X184965599Y-71808317D01*
X184965598Y-71808321D01*
X184948104Y-71930000D01*
X180459819Y-71930000D01*
X180482008Y-67000000D01*
X186958104Y-67000000D01*
X186975598Y-67121678D01*
X186975599Y-67121682D01*
X187003832Y-67183502D01*
X187026666Y-67233501D01*
X187107168Y-67326405D01*
X187210584Y-67392866D01*
X187328535Y-67427500D01*
X187451465Y-67427500D01*
X187569416Y-67392866D01*
X187672832Y-67326405D01*
X187678126Y-67320296D01*
X187736904Y-67282523D01*
X187771838Y-67277500D01*
X189908162Y-67277500D01*
X189975201Y-67297185D01*
X190001874Y-67320296D01*
X190007168Y-67326405D01*
X190110584Y-67392866D01*
X190228535Y-67427500D01*
X190351465Y-67427500D01*
X190469416Y-67392866D01*
X190572832Y-67326405D01*
X190653334Y-67233501D01*
X190704401Y-67121679D01*
X190721896Y-67000000D01*
X190704401Y-66878321D01*
X190704400Y-66878317D01*
X190653334Y-66766500D01*
X190653334Y-66766499D01*
X190572832Y-66673595D01*
X190469416Y-66607134D01*
X190351465Y-66572500D01*
X190228535Y-66572500D01*
X190110584Y-66607134D01*
X190110582Y-66607134D01*
X190110582Y-66607135D01*
X190007168Y-66673594D01*
X190007165Y-66673597D01*
X190001874Y-66679704D01*
X189943096Y-66717477D01*
X189908162Y-66722500D01*
X187771838Y-66722500D01*
X187704799Y-66702815D01*
X187678126Y-66679704D01*
X187672834Y-66673597D01*
X187672831Y-66673594D01*
X187595028Y-66623594D01*
X187569416Y-66607134D01*
X187451465Y-66572500D01*
X187328535Y-66572500D01*
X187210584Y-66607134D01*
X187210582Y-66607134D01*
X187210582Y-66607135D01*
X187107169Y-66673594D01*
X187026667Y-66766497D01*
X187026665Y-66766500D01*
X186975599Y-66878317D01*
X186975598Y-66878321D01*
X186958104Y-67000000D01*
X180482008Y-67000000D01*
X180508990Y-61005000D01*
X186968104Y-61005000D01*
X186985598Y-61126678D01*
X186985599Y-61126682D01*
X187020591Y-61203302D01*
X187036666Y-61238501D01*
X187117168Y-61331405D01*
X187220584Y-61397866D01*
X187338535Y-61432500D01*
X187461465Y-61432500D01*
X187579416Y-61397866D01*
X187682832Y-61331405D01*
X187685858Y-61327911D01*
X187688126Y-61325296D01*
X187746904Y-61287523D01*
X187781838Y-61282500D01*
X188868693Y-61282500D01*
X188935732Y-61302185D01*
X188956374Y-61318819D01*
X191096181Y-63458625D01*
X191129666Y-63519948D01*
X191132500Y-63546306D01*
X191132500Y-75885693D01*
X191112815Y-75952732D01*
X191096181Y-75973374D01*
X188952374Y-78117181D01*
X188891051Y-78150666D01*
X188864693Y-78153500D01*
X188819535Y-78153500D01*
X188701584Y-78188134D01*
X188701582Y-78188134D01*
X188701582Y-78188135D01*
X188598169Y-78254594D01*
X188517667Y-78347497D01*
X188517665Y-78347500D01*
X188466599Y-78459317D01*
X188466598Y-78459321D01*
X188449104Y-78581000D01*
X188466598Y-78702678D01*
X188466599Y-78702682D01*
X188517665Y-78814499D01*
X188517666Y-78814501D01*
X188598168Y-78907405D01*
X188701584Y-78973866D01*
X188819535Y-79008500D01*
X188942465Y-79008500D01*
X189060416Y-78973866D01*
X189163832Y-78907405D01*
X189244334Y-78814501D01*
X189295401Y-78702679D01*
X189306570Y-78625000D01*
X206227770Y-78625000D01*
X206246643Y-78816626D01*
X206302538Y-79000884D01*
X206393302Y-79170692D01*
X206393306Y-79170699D01*
X206515458Y-79319541D01*
X206664300Y-79441693D01*
X206664307Y-79441697D01*
X206834115Y-79532461D01*
X206834117Y-79532462D01*
X207018376Y-79588357D01*
X207210000Y-79607230D01*
X207401624Y-79588357D01*
X207585883Y-79532462D01*
X207755698Y-79441694D01*
X207904541Y-79319541D01*
X208026694Y-79170698D01*
X208117462Y-79000883D01*
X208173357Y-78816624D01*
X208192230Y-78625000D01*
X208173357Y-78433376D01*
X208117462Y-78249117D01*
X208117461Y-78249115D01*
X208026697Y-78079307D01*
X208026693Y-78079300D01*
X207904541Y-77930458D01*
X207755699Y-77808306D01*
X207755692Y-77808302D01*
X207585884Y-77717538D01*
X207401626Y-77661643D01*
X207210000Y-77642770D01*
X207018373Y-77661643D01*
X206834115Y-77717538D01*
X206664307Y-77808302D01*
X206664300Y-77808306D01*
X206515458Y-77930458D01*
X206393306Y-78079300D01*
X206393302Y-78079307D01*
X206302538Y-78249115D01*
X206246643Y-78433373D01*
X206227770Y-78625000D01*
X189306570Y-78625000D01*
X189312896Y-78581000D01*
X189312895Y-78580998D01*
X189313647Y-78575773D01*
X189342672Y-78512218D01*
X189348690Y-78505753D01*
X191632056Y-76222389D01*
X191668589Y-76159111D01*
X191687500Y-76088534D01*
X191687500Y-76015466D01*
X191687500Y-73449998D01*
X192727948Y-73449998D01*
X192727948Y-73450001D01*
X192746076Y-73587703D01*
X192746078Y-73587708D01*
X192799227Y-73716023D01*
X192799228Y-73716025D01*
X192799229Y-73716026D01*
X192883782Y-73826218D01*
X192993974Y-73910771D01*
X192993975Y-73910771D01*
X192993976Y-73910772D01*
X193018389Y-73920884D01*
X193122295Y-73963923D01*
X193191147Y-73972987D01*
X193259999Y-73982052D01*
X193260000Y-73982052D01*
X193260001Y-73982052D01*
X193305901Y-73976009D01*
X193397705Y-73963923D01*
X193526026Y-73910771D01*
X193636218Y-73826218D01*
X193720771Y-73716026D01*
X193773923Y-73587705D01*
X193792052Y-73450000D01*
X193773923Y-73312295D01*
X193720771Y-73183974D01*
X193636218Y-73073782D01*
X193526026Y-72989229D01*
X193526025Y-72989228D01*
X193526023Y-72989227D01*
X193397708Y-72936078D01*
X193397703Y-72936076D01*
X193260001Y-72917948D01*
X193259999Y-72917948D01*
X193122296Y-72936076D01*
X193122291Y-72936078D01*
X192993976Y-72989227D01*
X192883782Y-73073782D01*
X192799227Y-73183976D01*
X192746078Y-73312291D01*
X192746076Y-73312296D01*
X192727948Y-73449998D01*
X191687500Y-73449998D01*
X191687500Y-69760000D01*
X194248104Y-69760000D01*
X194265598Y-69881678D01*
X194265599Y-69881682D01*
X194316665Y-69993499D01*
X194316666Y-69993501D01*
X194397168Y-70086405D01*
X194500584Y-70152866D01*
X194618535Y-70187500D01*
X194741465Y-70187500D01*
X194859416Y-70152866D01*
X194962832Y-70086405D01*
X194968126Y-70080296D01*
X195026904Y-70042523D01*
X195061838Y-70037500D01*
X195093693Y-70037500D01*
X195160732Y-70057185D01*
X195181374Y-70073819D01*
X196126181Y-71018626D01*
X196159666Y-71079949D01*
X196162500Y-71106307D01*
X196162500Y-74795853D01*
X196162499Y-74795871D01*
X196162499Y-74876536D01*
X196181408Y-74947104D01*
X196181411Y-74947111D01*
X196217943Y-75010388D01*
X196217945Y-75010390D01*
X198013603Y-76806047D01*
X198013613Y-76806058D01*
X198017943Y-76810388D01*
X198017944Y-76810389D01*
X198069611Y-76862056D01*
X198132889Y-76898589D01*
X198203466Y-76917500D01*
X203918162Y-76917500D01*
X203985201Y-76937185D01*
X204011874Y-76960296D01*
X204017168Y-76966405D01*
X204120584Y-77032866D01*
X204238535Y-77067500D01*
X204361465Y-77067500D01*
X204479416Y-77032866D01*
X204582832Y-76966405D01*
X204663334Y-76873501D01*
X204714401Y-76761679D01*
X204731896Y-76640000D01*
X204714401Y-76518321D01*
X204714400Y-76518317D01*
X204663334Y-76406500D01*
X204663334Y-76406499D01*
X204582832Y-76313595D01*
X204479416Y-76247134D01*
X204361465Y-76212500D01*
X204238535Y-76212500D01*
X204120584Y-76247134D01*
X204120582Y-76247134D01*
X204120582Y-76247135D01*
X204017168Y-76313594D01*
X204017165Y-76313597D01*
X204011874Y-76319704D01*
X203953096Y-76357477D01*
X203918162Y-76362500D01*
X198406306Y-76362500D01*
X198339267Y-76342815D01*
X198318625Y-76326181D01*
X198077444Y-76085000D01*
X206227770Y-76085000D01*
X206246643Y-76276626D01*
X206302538Y-76460884D01*
X206393302Y-76630692D01*
X206393306Y-76630699D01*
X206515458Y-76779541D01*
X206664300Y-76901693D01*
X206664307Y-76901697D01*
X206785362Y-76966402D01*
X206834117Y-76992462D01*
X207018376Y-77048357D01*
X207210000Y-77067230D01*
X207401624Y-77048357D01*
X207585883Y-76992462D01*
X207755698Y-76901694D01*
X207904541Y-76779541D01*
X208026694Y-76630698D01*
X208117462Y-76460883D01*
X208173357Y-76276624D01*
X208192230Y-76085000D01*
X208173357Y-75893376D01*
X208117462Y-75709117D01*
X208026694Y-75539302D01*
X208026693Y-75539300D01*
X207904541Y-75390458D01*
X207755699Y-75268306D01*
X207755692Y-75268302D01*
X207585884Y-75177538D01*
X207401626Y-75121643D01*
X207210000Y-75102770D01*
X207018373Y-75121643D01*
X206834115Y-75177538D01*
X206664307Y-75268302D01*
X206664300Y-75268306D01*
X206515458Y-75390458D01*
X206393306Y-75539300D01*
X206393302Y-75539307D01*
X206302538Y-75709115D01*
X206246643Y-75893373D01*
X206227770Y-76085000D01*
X198077444Y-76085000D01*
X196762445Y-74770000D01*
X198068104Y-74770000D01*
X198085598Y-74891678D01*
X198085599Y-74891682D01*
X198136665Y-75003499D01*
X198136666Y-75003501D01*
X198217168Y-75096405D01*
X198320584Y-75162866D01*
X198438535Y-75197500D01*
X198561465Y-75197500D01*
X198679416Y-75162866D01*
X198782832Y-75096405D01*
X198863334Y-75003501D01*
X198899676Y-74923922D01*
X198914400Y-74891682D01*
X198914401Y-74891678D01*
X198916578Y-74876536D01*
X198931896Y-74770000D01*
X198916080Y-74660000D01*
X199540104Y-74660000D01*
X199557598Y-74781678D01*
X199557599Y-74781682D01*
X199600917Y-74876534D01*
X199608666Y-74893501D01*
X199689168Y-74986405D01*
X199792584Y-75052866D01*
X199910535Y-75087500D01*
X200033465Y-75087500D01*
X200151416Y-75052866D01*
X200254832Y-74986405D01*
X200335334Y-74893501D01*
X200386401Y-74781679D01*
X200403896Y-74660000D01*
X200386401Y-74538321D01*
X200386400Y-74538317D01*
X200335334Y-74426500D01*
X200335334Y-74426499D01*
X200254832Y-74333595D01*
X200151416Y-74267134D01*
X200033465Y-74232500D01*
X199910535Y-74232500D01*
X199792584Y-74267134D01*
X199792582Y-74267134D01*
X199792582Y-74267135D01*
X199689169Y-74333594D01*
X199608667Y-74426497D01*
X199608665Y-74426500D01*
X199557599Y-74538317D01*
X199557598Y-74538321D01*
X199540104Y-74660000D01*
X198916080Y-74660000D01*
X198914401Y-74648321D01*
X198914400Y-74648317D01*
X198871098Y-74553501D01*
X198863334Y-74536499D01*
X198782832Y-74443595D01*
X198679416Y-74377134D01*
X198561465Y-74342500D01*
X198438535Y-74342500D01*
X198320584Y-74377134D01*
X198320582Y-74377134D01*
X198320582Y-74377135D01*
X198217169Y-74443594D01*
X198136667Y-74536497D01*
X198136665Y-74536500D01*
X198085599Y-74648317D01*
X198085598Y-74648321D01*
X198068104Y-74770000D01*
X196762445Y-74770000D01*
X196753819Y-74761374D01*
X196720334Y-74700051D01*
X196717500Y-74673693D01*
X196717500Y-73545000D01*
X206227770Y-73545000D01*
X206246643Y-73736626D01*
X206302538Y-73920884D01*
X206393302Y-74090692D01*
X206393306Y-74090699D01*
X206515458Y-74239541D01*
X206664300Y-74361693D01*
X206664307Y-74361697D01*
X206813943Y-74441679D01*
X206834117Y-74452462D01*
X207018376Y-74508357D01*
X207210000Y-74527230D01*
X207401624Y-74508357D01*
X207585883Y-74452462D01*
X207755698Y-74361694D01*
X207904541Y-74239541D01*
X208026694Y-74090698D01*
X208117462Y-73920883D01*
X208173357Y-73736624D01*
X208192230Y-73545000D01*
X208173357Y-73353376D01*
X208117462Y-73169117D01*
X208117461Y-73169115D01*
X208026697Y-72999307D01*
X208026693Y-72999300D01*
X207904541Y-72850458D01*
X207755699Y-72728306D01*
X207755692Y-72728302D01*
X207585884Y-72637538D01*
X207401626Y-72581643D01*
X207210000Y-72562770D01*
X207018373Y-72581643D01*
X206834115Y-72637538D01*
X206664307Y-72728302D01*
X206664300Y-72728306D01*
X206515458Y-72850458D01*
X206393306Y-72999300D01*
X206393302Y-72999307D01*
X206302538Y-73169115D01*
X206246643Y-73353373D01*
X206227770Y-73545000D01*
X196717500Y-73545000D01*
X196717500Y-71005000D01*
X206227770Y-71005000D01*
X206246643Y-71196626D01*
X206302538Y-71380884D01*
X206393302Y-71550692D01*
X206393306Y-71550699D01*
X206515458Y-71699541D01*
X206664300Y-71821693D01*
X206664307Y-71821697D01*
X206834115Y-71912461D01*
X206834117Y-71912462D01*
X207018376Y-71968357D01*
X207210000Y-71987230D01*
X207401624Y-71968357D01*
X207585883Y-71912462D01*
X207755698Y-71821694D01*
X207904541Y-71699541D01*
X208026694Y-71550698D01*
X208117462Y-71380883D01*
X208173357Y-71196624D01*
X208192230Y-71005000D01*
X208173357Y-70813376D01*
X208117462Y-70629117D01*
X208026694Y-70459302D01*
X208026693Y-70459300D01*
X207904541Y-70310458D01*
X207755699Y-70188306D01*
X207755692Y-70188302D01*
X207585884Y-70097538D01*
X207401626Y-70041643D01*
X207210000Y-70022770D01*
X207018373Y-70041643D01*
X206834115Y-70097538D01*
X206664307Y-70188302D01*
X206664300Y-70188306D01*
X206515458Y-70310458D01*
X206393306Y-70459300D01*
X206393302Y-70459307D01*
X206302538Y-70629115D01*
X206246643Y-70813373D01*
X206227770Y-71005000D01*
X196717500Y-71005000D01*
X196717500Y-70986536D01*
X196717501Y-70986523D01*
X196717501Y-70903467D01*
X196717500Y-70903463D01*
X196698591Y-70832895D01*
X196698589Y-70832892D01*
X196698589Y-70832889D01*
X196662056Y-70769611D01*
X195430389Y-69537944D01*
X195430388Y-69537943D01*
X195367111Y-69501411D01*
X195367104Y-69501408D01*
X195296536Y-69482499D01*
X195296534Y-69482499D01*
X195223466Y-69482499D01*
X195215870Y-69482499D01*
X195215854Y-69482500D01*
X195061838Y-69482500D01*
X194994799Y-69462815D01*
X194968126Y-69439704D01*
X194962834Y-69433597D01*
X194962831Y-69433594D01*
X194899716Y-69393033D01*
X194859416Y-69367134D01*
X194741465Y-69332500D01*
X194618535Y-69332500D01*
X194500584Y-69367134D01*
X194500582Y-69367134D01*
X194500582Y-69367135D01*
X194397169Y-69433594D01*
X194316667Y-69526497D01*
X194316665Y-69526500D01*
X194265599Y-69638317D01*
X194265598Y-69638321D01*
X194248104Y-69760000D01*
X191687500Y-69760000D01*
X191687500Y-68039998D01*
X192717948Y-68039998D01*
X192717948Y-68040001D01*
X192736076Y-68177703D01*
X192736078Y-68177708D01*
X192789227Y-68306023D01*
X192789228Y-68306025D01*
X192789229Y-68306026D01*
X192873782Y-68416218D01*
X192983974Y-68500771D01*
X193112295Y-68553923D01*
X193181147Y-68562987D01*
X193249999Y-68572052D01*
X193250000Y-68572052D01*
X193250001Y-68572052D01*
X193295901Y-68566009D01*
X193387705Y-68553923D01*
X193516026Y-68500771D01*
X193626218Y-68416218D01*
X193710771Y-68306026D01*
X193763923Y-68177705D01*
X193782052Y-68040000D01*
X193763923Y-67902295D01*
X193710771Y-67773974D01*
X193626218Y-67663782D01*
X193536966Y-67595297D01*
X206160000Y-67595297D01*
X206160000Y-68215000D01*
X206776988Y-68215000D01*
X206744075Y-68272007D01*
X206710000Y-68399174D01*
X206710000Y-68530826D01*
X206744075Y-68657993D01*
X206776988Y-68715000D01*
X206160000Y-68715000D01*
X206160000Y-69334702D01*
X206171602Y-69393033D01*
X206171603Y-69393034D01*
X206215808Y-69459191D01*
X206281965Y-69503396D01*
X206281966Y-69503397D01*
X206340297Y-69514999D01*
X206340301Y-69515000D01*
X206960000Y-69515000D01*
X206960000Y-68898012D01*
X207017007Y-68930925D01*
X207144174Y-68965000D01*
X207275826Y-68965000D01*
X207402993Y-68930925D01*
X207460000Y-68898012D01*
X207460000Y-69515000D01*
X208079699Y-69515000D01*
X208079702Y-69514999D01*
X208138033Y-69503397D01*
X208138034Y-69503396D01*
X208204191Y-69459191D01*
X208248396Y-69393034D01*
X208248397Y-69393033D01*
X208259999Y-69334702D01*
X208260000Y-69334699D01*
X208260000Y-68715000D01*
X207643012Y-68715000D01*
X207675925Y-68657993D01*
X207710000Y-68530826D01*
X207710000Y-68399174D01*
X207675925Y-68272007D01*
X207643012Y-68215000D01*
X208260000Y-68215000D01*
X208260000Y-67595301D01*
X208259999Y-67595297D01*
X208248397Y-67536966D01*
X208248396Y-67536965D01*
X208204191Y-67470808D01*
X208138034Y-67426603D01*
X208138033Y-67426602D01*
X208079702Y-67415000D01*
X207460000Y-67415000D01*
X207460000Y-68031988D01*
X207402993Y-67999075D01*
X207275826Y-67965000D01*
X207144174Y-67965000D01*
X207017007Y-67999075D01*
X206960000Y-68031988D01*
X206960000Y-67415000D01*
X206340297Y-67415000D01*
X206281966Y-67426602D01*
X206281965Y-67426603D01*
X206215808Y-67470808D01*
X206171603Y-67536965D01*
X206171602Y-67536966D01*
X206160000Y-67595297D01*
X193536966Y-67595297D01*
X193516026Y-67579229D01*
X193516025Y-67579228D01*
X193516023Y-67579227D01*
X193387708Y-67526078D01*
X193387703Y-67526076D01*
X193250001Y-67507948D01*
X193249999Y-67507948D01*
X193112296Y-67526076D01*
X193112291Y-67526078D01*
X192983976Y-67579227D01*
X192873782Y-67663782D01*
X192789227Y-67773976D01*
X192736078Y-67902291D01*
X192736076Y-67902296D01*
X192717948Y-68039998D01*
X191687500Y-68039998D01*
X191687500Y-66950000D01*
X197058104Y-66950000D01*
X197075598Y-67071678D01*
X197075599Y-67071682D01*
X197098434Y-67121682D01*
X197126666Y-67183501D01*
X197207168Y-67276405D01*
X197310584Y-67342866D01*
X197428535Y-67377500D01*
X197551465Y-67377500D01*
X197669416Y-67342866D01*
X197772832Y-67276405D01*
X197853334Y-67183501D01*
X197904401Y-67071679D01*
X197921896Y-66950000D01*
X197904401Y-66828321D01*
X197904400Y-66828317D01*
X197871505Y-66756288D01*
X197853334Y-66716499D01*
X197772832Y-66623595D01*
X197669416Y-66557134D01*
X197551465Y-66522500D01*
X197428535Y-66522500D01*
X197310584Y-66557134D01*
X197310582Y-66557134D01*
X197310582Y-66557135D01*
X197207169Y-66623594D01*
X197126667Y-66716497D01*
X197126665Y-66716500D01*
X197075599Y-66828317D01*
X197075598Y-66828321D01*
X197058104Y-66950000D01*
X191687500Y-66950000D01*
X191687500Y-63690297D01*
X206220000Y-63690297D01*
X206220000Y-64310000D01*
X206836988Y-64310000D01*
X206804075Y-64367007D01*
X206770000Y-64494174D01*
X206770000Y-64625826D01*
X206804075Y-64752993D01*
X206836988Y-64810000D01*
X206220000Y-64810000D01*
X206220000Y-65429702D01*
X206231602Y-65488033D01*
X206231603Y-65488034D01*
X206275808Y-65554191D01*
X206341965Y-65598396D01*
X206341966Y-65598397D01*
X206400297Y-65609999D01*
X206400301Y-65610000D01*
X207020000Y-65610000D01*
X207020000Y-64993012D01*
X207077007Y-65025925D01*
X207204174Y-65060000D01*
X207335826Y-65060000D01*
X207462993Y-65025925D01*
X207520000Y-64993012D01*
X207520000Y-65610000D01*
X208139699Y-65610000D01*
X208139702Y-65609999D01*
X208198033Y-65598397D01*
X208198034Y-65598396D01*
X208264191Y-65554191D01*
X208308396Y-65488034D01*
X208308397Y-65488033D01*
X208319999Y-65429702D01*
X208320000Y-65429699D01*
X208320000Y-64810000D01*
X207703012Y-64810000D01*
X207735925Y-64752993D01*
X207770000Y-64625826D01*
X207770000Y-64494174D01*
X207735925Y-64367007D01*
X207703012Y-64310000D01*
X208320000Y-64310000D01*
X208320000Y-63690301D01*
X208319999Y-63690297D01*
X208308397Y-63631966D01*
X208308396Y-63631965D01*
X208264191Y-63565808D01*
X208198034Y-63521603D01*
X208198033Y-63521602D01*
X208139702Y-63510000D01*
X207520000Y-63510000D01*
X207520000Y-64126988D01*
X207462993Y-64094075D01*
X207335826Y-64060000D01*
X207204174Y-64060000D01*
X207077007Y-64094075D01*
X207020000Y-64126988D01*
X207020000Y-63510000D01*
X206400297Y-63510000D01*
X206341966Y-63521602D01*
X206341965Y-63521603D01*
X206275808Y-63565808D01*
X206231603Y-63631965D01*
X206231602Y-63631966D01*
X206220000Y-63690297D01*
X191687500Y-63690297D01*
X191687500Y-63343466D01*
X191668589Y-63272889D01*
X191632056Y-63209611D01*
X191580389Y-63157944D01*
X191580388Y-63157943D01*
X191576058Y-63153613D01*
X191576047Y-63153603D01*
X190442444Y-62020000D01*
X206287770Y-62020000D01*
X206306643Y-62211626D01*
X206362538Y-62395884D01*
X206453302Y-62565692D01*
X206453306Y-62565699D01*
X206575458Y-62714541D01*
X206724300Y-62836693D01*
X206724307Y-62836697D01*
X206894115Y-62927461D01*
X206894117Y-62927462D01*
X207078376Y-62983357D01*
X207270000Y-63002230D01*
X207461624Y-62983357D01*
X207645883Y-62927462D01*
X207815698Y-62836694D01*
X207964541Y-62714541D01*
X208086694Y-62565698D01*
X208177462Y-62395883D01*
X208233357Y-62211624D01*
X208252230Y-62020000D01*
X208233357Y-61828376D01*
X208177462Y-61644117D01*
X208086694Y-61474302D01*
X208086693Y-61474300D01*
X207964541Y-61325458D01*
X207815699Y-61203306D01*
X207815692Y-61203302D01*
X207645884Y-61112538D01*
X207461626Y-61056643D01*
X207270000Y-61037770D01*
X207078373Y-61056643D01*
X206894115Y-61112538D01*
X206724307Y-61203302D01*
X206724300Y-61203306D01*
X206575458Y-61325458D01*
X206453306Y-61474300D01*
X206453302Y-61474307D01*
X206362538Y-61644115D01*
X206306643Y-61828373D01*
X206287770Y-62020000D01*
X190442444Y-62020000D01*
X189205390Y-60782945D01*
X189205388Y-60782943D01*
X189142111Y-60746411D01*
X189142104Y-60746408D01*
X189071536Y-60727499D01*
X189071534Y-60727499D01*
X188998466Y-60727499D01*
X188990870Y-60727499D01*
X188990854Y-60727500D01*
X187781838Y-60727500D01*
X187714799Y-60707815D01*
X187688126Y-60684704D01*
X187682834Y-60678597D01*
X187682831Y-60678594D01*
X187631124Y-60645364D01*
X187579416Y-60612134D01*
X187461465Y-60577500D01*
X187338535Y-60577500D01*
X187220584Y-60612134D01*
X187220582Y-60612134D01*
X187220582Y-60612135D01*
X187117169Y-60678594D01*
X187036667Y-60771497D01*
X187036665Y-60771500D01*
X186985599Y-60883317D01*
X186985598Y-60883321D01*
X186968104Y-61005000D01*
X180508990Y-61005000D01*
X180514934Y-59684399D01*
X180534919Y-59617454D01*
X180587929Y-59571937D01*
X180639469Y-59560964D01*
X194070000Y-59620000D01*
X195110000Y-58270000D01*
X195109999Y-58269999D01*
X195110000Y-58269998D01*
X194976455Y-58056040D01*
X194957657Y-57988747D01*
X194978225Y-57921973D01*
X194983271Y-57914897D01*
X195020771Y-57866026D01*
X195073923Y-57737705D01*
X195092052Y-57600000D01*
X195073923Y-57462295D01*
X195020771Y-57333974D01*
X194936218Y-57223782D01*
X194826026Y-57139229D01*
X194826025Y-57139228D01*
X194826023Y-57139227D01*
X194697708Y-57086078D01*
X194697703Y-57086076D01*
X194560001Y-57067948D01*
X194559999Y-57067948D01*
X194500782Y-57075744D01*
X194454053Y-57081895D01*
X194385019Y-57071130D01*
X194332764Y-57024751D01*
X194180000Y-56780000D01*
X193073678Y-57643707D01*
X193008721Y-57669445D01*
X192997273Y-57669966D01*
X180648506Y-57660227D01*
X180581482Y-57640490D01*
X180535769Y-57587649D01*
X180524605Y-57535669D01*
X180524936Y-57462296D01*
X180535343Y-55150000D01*
X185148590Y-55150000D01*
X185736988Y-55150000D01*
X185704075Y-55207007D01*
X185670000Y-55334174D01*
X185670000Y-55465826D01*
X185704075Y-55592993D01*
X185736988Y-55650000D01*
X185148590Y-55650000D01*
X185195233Y-55803766D01*
X185292728Y-55986166D01*
X185292732Y-55986173D01*
X185423944Y-56146055D01*
X185583826Y-56277267D01*
X185583833Y-56277271D01*
X185766233Y-56374766D01*
X185920000Y-56421410D01*
X185920000Y-55833012D01*
X185977007Y-55865925D01*
X186104174Y-55900000D01*
X186235826Y-55900000D01*
X186362993Y-55865925D01*
X186420000Y-55833012D01*
X186420000Y-56421410D01*
X186573766Y-56374766D01*
X186756166Y-56277271D01*
X186756173Y-56277267D01*
X186916055Y-56146055D01*
X187047267Y-55986173D01*
X187047271Y-55986166D01*
X187144766Y-55803766D01*
X187191410Y-55650000D01*
X186603012Y-55650000D01*
X186635925Y-55592993D01*
X186670000Y-55465826D01*
X186670000Y-55400000D01*
X187727770Y-55400000D01*
X187746643Y-55591626D01*
X187802538Y-55775884D01*
X187893302Y-55945692D01*
X187893306Y-55945699D01*
X188015458Y-56094541D01*
X188164300Y-56216693D01*
X188164307Y-56216697D01*
X188319685Y-56299748D01*
X188334117Y-56307462D01*
X188518376Y-56363357D01*
X188710000Y-56382230D01*
X188901624Y-56363357D01*
X189085883Y-56307462D01*
X189255698Y-56216694D01*
X189404541Y-56094541D01*
X189526694Y-55945698D01*
X189617462Y-55775883D01*
X189673357Y-55591624D01*
X189692230Y-55400000D01*
X189673357Y-55208376D01*
X189617462Y-55024117D01*
X189568546Y-54932602D01*
X189526697Y-54854307D01*
X189526693Y-54854300D01*
X189404541Y-54705458D01*
X189255699Y-54583306D01*
X189255692Y-54583302D01*
X189169892Y-54537441D01*
X190272500Y-54537441D01*
X190272500Y-56262558D01*
X190279898Y-56299749D01*
X190308077Y-56341922D01*
X190350250Y-56370101D01*
X190350252Y-56370102D01*
X190378205Y-56375662D01*
X190387441Y-56377500D01*
X190387442Y-56377500D01*
X192112559Y-56377500D01*
X192119957Y-56376028D01*
X192149748Y-56370102D01*
X192191922Y-56341922D01*
X192220102Y-56299748D01*
X192227500Y-56262558D01*
X192227500Y-55068971D01*
X196602500Y-55068971D01*
X196602500Y-55221029D01*
X196641856Y-55367907D01*
X196641857Y-55367910D01*
X196695296Y-55460468D01*
X196717885Y-55499593D01*
X196825407Y-55607115D01*
X196899686Y-55650000D01*
X196957089Y-55683142D01*
X196957090Y-55683142D01*
X196957093Y-55683144D01*
X197103971Y-55722500D01*
X197103974Y-55722500D01*
X197256026Y-55722500D01*
X197256029Y-55722500D01*
X197402907Y-55683144D01*
X197534593Y-55607115D01*
X197642115Y-55499593D01*
X197718144Y-55367907D01*
X197757500Y-55221029D01*
X197757500Y-55068971D01*
X199602500Y-55068971D01*
X199602500Y-55221029D01*
X199641856Y-55367907D01*
X199641857Y-55367910D01*
X199695296Y-55460468D01*
X199717885Y-55499593D01*
X199825407Y-55607115D01*
X199899686Y-55650000D01*
X199957089Y-55683142D01*
X199957090Y-55683142D01*
X199957093Y-55683144D01*
X200103971Y-55722500D01*
X200103974Y-55722500D01*
X200256026Y-55722500D01*
X200256029Y-55722500D01*
X200402907Y-55683144D01*
X200534593Y-55607115D01*
X200642115Y-55499593D01*
X200718144Y-55367907D01*
X200757500Y-55221029D01*
X200757500Y-55068971D01*
X200718144Y-54922093D01*
X200642115Y-54790407D01*
X200534593Y-54682885D01*
X200484466Y-54653944D01*
X200402910Y-54606857D01*
X200402911Y-54606857D01*
X200390866Y-54603629D01*
X200256029Y-54567500D01*
X200103971Y-54567500D01*
X199969133Y-54603629D01*
X199957089Y-54606857D01*
X199825410Y-54682883D01*
X199825404Y-54682887D01*
X199717887Y-54790404D01*
X199717883Y-54790410D01*
X199641857Y-54922089D01*
X199641856Y-54922093D01*
X199602500Y-55068971D01*
X197757500Y-55068971D01*
X197718144Y-54922093D01*
X197642115Y-54790407D01*
X197534593Y-54682885D01*
X197484466Y-54653944D01*
X197402910Y-54606857D01*
X197402911Y-54606857D01*
X197390866Y-54603629D01*
X197256029Y-54567500D01*
X197103971Y-54567500D01*
X196969133Y-54603629D01*
X196957089Y-54606857D01*
X196825410Y-54682883D01*
X196825404Y-54682887D01*
X196717887Y-54790404D01*
X196717883Y-54790410D01*
X196641857Y-54922089D01*
X196641856Y-54922093D01*
X196602500Y-55068971D01*
X192227500Y-55068971D01*
X192227500Y-54537442D01*
X192220102Y-54500252D01*
X192214948Y-54492538D01*
X192191922Y-54458077D01*
X192149749Y-54429898D01*
X192112559Y-54422500D01*
X192112558Y-54422500D01*
X190387442Y-54422500D01*
X190387441Y-54422500D01*
X190350250Y-54429898D01*
X190308077Y-54458077D01*
X190279898Y-54500250D01*
X190272500Y-54537441D01*
X189169892Y-54537441D01*
X189085884Y-54492538D01*
X188901626Y-54436643D01*
X188710000Y-54417770D01*
X188518373Y-54436643D01*
X188334115Y-54492538D01*
X188164307Y-54583302D01*
X188164300Y-54583306D01*
X188015458Y-54705458D01*
X187893306Y-54854300D01*
X187893302Y-54854307D01*
X187802538Y-55024115D01*
X187746643Y-55208373D01*
X187727770Y-55400000D01*
X186670000Y-55400000D01*
X186670000Y-55334174D01*
X186635925Y-55207007D01*
X186603012Y-55150000D01*
X187191410Y-55150000D01*
X187144766Y-54996233D01*
X187047271Y-54813833D01*
X187047267Y-54813826D01*
X186916055Y-54653944D01*
X186756173Y-54522732D01*
X186756166Y-54522728D01*
X186573763Y-54425232D01*
X186420000Y-54378587D01*
X186420000Y-54966988D01*
X186362993Y-54934075D01*
X186235826Y-54900000D01*
X186104174Y-54900000D01*
X185977007Y-54934075D01*
X185920000Y-54966988D01*
X185920000Y-54378587D01*
X185766236Y-54425232D01*
X185583833Y-54522728D01*
X185583826Y-54522732D01*
X185423944Y-54653944D01*
X185292732Y-54813826D01*
X185292728Y-54813833D01*
X185195233Y-54996233D01*
X185148590Y-55150000D01*
X180535343Y-55150000D01*
X180545632Y-52863941D01*
X180565618Y-52796992D01*
X180618628Y-52751475D01*
X180669631Y-52740500D01*
X207040118Y-52740500D01*
X207076519Y-52740500D01*
X207083471Y-52740695D01*
G37*
%TD.AperFunction*%
%TD*%
%TA.AperFunction,Conductor*%
%TO.N,GNDA*%
G36*
X187626123Y-81859879D02*
G01*
X187693141Y-81879629D01*
X187738844Y-81932477D01*
X187750000Y-81983879D01*
X187750000Y-84187371D01*
X187733940Y-84248403D01*
X186575648Y-86296953D01*
X186525517Y-86345621D01*
X186467573Y-86359921D01*
X179300526Y-86352105D01*
X179300525Y-86352105D01*
X177370000Y-86350000D01*
X177398996Y-84175331D01*
X186369684Y-84175331D01*
X186390165Y-84317787D01*
X186449953Y-84448702D01*
X186449954Y-84448704D01*
X186544203Y-84557474D01*
X186665278Y-84635284D01*
X186665281Y-84635285D01*
X186665280Y-84635285D01*
X186803367Y-84675830D01*
X186803369Y-84675831D01*
X186803370Y-84675831D01*
X186947293Y-84675831D01*
X186947293Y-84675830D01*
X187085384Y-84635284D01*
X187206459Y-84557474D01*
X187300708Y-84448704D01*
X187360496Y-84317788D01*
X187380978Y-84175331D01*
X187360496Y-84032874D01*
X187300708Y-83901958D01*
X187206459Y-83793188D01*
X187085384Y-83715378D01*
X187085382Y-83715377D01*
X187085380Y-83715376D01*
X187085381Y-83715376D01*
X186947294Y-83674831D01*
X186947292Y-83674831D01*
X186803370Y-83674831D01*
X186803367Y-83674831D01*
X186665280Y-83715376D01*
X186544204Y-83793187D01*
X186449954Y-83901957D01*
X186449953Y-83901959D01*
X186390165Y-84032874D01*
X186369684Y-84175331D01*
X177398996Y-84175331D01*
X177410000Y-83350000D01*
X181504353Y-83350000D01*
X181524834Y-83492456D01*
X181584622Y-83623371D01*
X181584623Y-83623373D01*
X181678872Y-83732143D01*
X181799947Y-83809953D01*
X181799950Y-83809954D01*
X181799949Y-83809954D01*
X181938036Y-83850499D01*
X181938038Y-83850500D01*
X181938039Y-83850500D01*
X182081962Y-83850500D01*
X182081962Y-83850499D01*
X182220053Y-83809953D01*
X182341128Y-83732143D01*
X182435377Y-83623373D01*
X182495165Y-83492457D01*
X182515647Y-83350000D01*
X182495165Y-83207543D01*
X182435377Y-83076627D01*
X182341128Y-82967857D01*
X182220053Y-82890047D01*
X182220051Y-82890046D01*
X182220049Y-82890045D01*
X182220050Y-82890045D01*
X182081963Y-82849500D01*
X182081961Y-82849500D01*
X181938039Y-82849500D01*
X181938036Y-82849500D01*
X181799949Y-82890045D01*
X181678873Y-82967856D01*
X181584623Y-83076626D01*
X181584622Y-83076628D01*
X181524834Y-83207543D01*
X181504353Y-83350000D01*
X177410000Y-83350000D01*
X177429333Y-81900000D01*
X179300000Y-81900000D01*
X179246084Y-81851759D01*
X187626123Y-81859879D01*
G37*
%TD.AperFunction*%
%TD*%
%TA.AperFunction,Conductor*%
%TO.N,GNDA*%
G36*
X179300000Y-81900000D02*
G01*
X177400000Y-81900000D01*
X177400000Y-80200000D01*
X179300000Y-81900000D01*
G37*
%TD.AperFunction*%
%TD*%
%TA.AperFunction,Conductor*%
%TO.N,GNDA*%
G36*
X177464288Y-52760185D02*
G01*
X177510043Y-52812989D01*
X177521249Y-52864500D01*
X177521249Y-58670399D01*
X177501564Y-58737438D01*
X177448760Y-58783193D01*
X177379602Y-58793137D01*
X177316046Y-58764112D01*
X177296189Y-58740062D01*
X177295719Y-58740423D01*
X177290771Y-58733975D01*
X177290771Y-58733974D01*
X177206218Y-58623782D01*
X177096026Y-58539229D01*
X177096025Y-58539228D01*
X177096023Y-58539227D01*
X176967708Y-58486078D01*
X176967703Y-58486076D01*
X176830001Y-58467948D01*
X176829999Y-58467948D01*
X176692296Y-58486076D01*
X176692291Y-58486078D01*
X176563976Y-58539227D01*
X176453782Y-58623782D01*
X176369227Y-58733976D01*
X176316078Y-58862291D01*
X176316076Y-58862296D01*
X176297948Y-58999998D01*
X176297948Y-59000001D01*
X176316076Y-59137703D01*
X176316078Y-59137708D01*
X176369227Y-59266023D01*
X176369228Y-59266025D01*
X176369229Y-59266026D01*
X176453782Y-59376218D01*
X176563974Y-59460771D01*
X176692295Y-59513923D01*
X176761147Y-59522987D01*
X176829999Y-59532052D01*
X176830000Y-59532052D01*
X176830001Y-59532052D01*
X176875901Y-59526009D01*
X176967705Y-59513923D01*
X177096026Y-59460771D01*
X177206218Y-59376218D01*
X177290771Y-59266026D01*
X177290771Y-59266024D01*
X177295719Y-59259577D01*
X177297137Y-59260665D01*
X177340419Y-59219389D01*
X177409025Y-59206160D01*
X177473892Y-59232123D01*
X177514426Y-59289033D01*
X177521249Y-59329600D01*
X177521249Y-80308485D01*
X177400000Y-80200000D01*
X177400000Y-81900000D01*
X177429333Y-81900000D01*
X177370667Y-86300000D01*
X177300000Y-86300000D01*
X177300000Y-87400000D01*
X177521249Y-87284107D01*
X177521249Y-93876656D01*
X177501564Y-93943695D01*
X177448760Y-93989450D01*
X177397229Y-94000656D01*
X145848496Y-93995508D01*
X145848417Y-93995500D01*
X145835882Y-93995500D01*
X145799490Y-93995500D01*
X145792537Y-93995305D01*
X145488387Y-93978224D01*
X145474569Y-93976667D01*
X145177694Y-93926226D01*
X145164137Y-93923132D01*
X144874769Y-93839766D01*
X144861644Y-93835173D01*
X144583438Y-93719937D01*
X144570910Y-93713904D01*
X144307351Y-93568240D01*
X144295577Y-93560842D01*
X144049985Y-93386586D01*
X144039113Y-93377916D01*
X143814575Y-93177257D01*
X143804742Y-93167424D01*
X143604083Y-92942886D01*
X143595413Y-92932014D01*
X143421157Y-92686422D01*
X143413759Y-92674648D01*
X143268095Y-92411089D01*
X143262065Y-92398568D01*
X143146826Y-92120355D01*
X143142233Y-92107230D01*
X143058867Y-91817862D01*
X143055773Y-91804305D01*
X143036169Y-91688922D01*
X143005330Y-91507420D01*
X143003776Y-91493622D01*
X142986694Y-91189465D01*
X142986500Y-91182512D01*
X142986504Y-91146106D01*
X142986580Y-90470000D01*
X164188104Y-90470000D01*
X164205598Y-90591678D01*
X164205599Y-90591682D01*
X164233001Y-90651682D01*
X164256666Y-90703501D01*
X164337168Y-90796405D01*
X164440584Y-90862866D01*
X164558535Y-90897500D01*
X164681465Y-90897500D01*
X164799416Y-90862866D01*
X164902832Y-90796405D01*
X164983334Y-90703501D01*
X165034401Y-90591679D01*
X165043269Y-90530000D01*
X170498104Y-90530000D01*
X170515598Y-90651678D01*
X170515599Y-90651682D01*
X170566665Y-90763499D01*
X170566666Y-90763501D01*
X170647168Y-90856405D01*
X170750584Y-90922866D01*
X170868535Y-90957500D01*
X170991465Y-90957500D01*
X171109416Y-90922866D01*
X171212832Y-90856405D01*
X171293334Y-90763501D01*
X171344401Y-90651679D01*
X171361896Y-90530000D01*
X171344401Y-90408321D01*
X171344400Y-90408317D01*
X171293334Y-90296500D01*
X171293334Y-90296499D01*
X171212832Y-90203595D01*
X171109416Y-90137134D01*
X170991465Y-90102500D01*
X170868535Y-90102500D01*
X170750584Y-90137134D01*
X170750582Y-90137134D01*
X170750582Y-90137135D01*
X170647169Y-90203594D01*
X170566667Y-90296497D01*
X170566665Y-90296500D01*
X170515599Y-90408317D01*
X170515598Y-90408321D01*
X170498104Y-90530000D01*
X165043269Y-90530000D01*
X165051896Y-90470000D01*
X165034401Y-90348321D01*
X165034400Y-90348317D01*
X164983334Y-90236500D01*
X164983334Y-90236499D01*
X164902832Y-90143595D01*
X164799416Y-90077134D01*
X164681465Y-90042500D01*
X164558535Y-90042500D01*
X164440584Y-90077134D01*
X164440582Y-90077134D01*
X164440582Y-90077135D01*
X164337169Y-90143594D01*
X164256667Y-90236497D01*
X164256665Y-90236500D01*
X164205599Y-90348317D01*
X164205598Y-90348321D01*
X164188104Y-90470000D01*
X142986580Y-90470000D01*
X142986977Y-86930000D01*
X158478104Y-86930000D01*
X158495598Y-87051678D01*
X158495599Y-87051682D01*
X158546665Y-87163499D01*
X158546666Y-87163501D01*
X158627168Y-87256405D01*
X158730584Y-87322866D01*
X158848535Y-87357500D01*
X158971465Y-87357500D01*
X159089416Y-87322866D01*
X159192832Y-87256405D01*
X159273334Y-87163501D01*
X159324401Y-87051679D01*
X159341896Y-86930000D01*
X159324401Y-86808321D01*
X159324400Y-86808317D01*
X159273334Y-86696500D01*
X159273334Y-86696499D01*
X159192832Y-86603595D01*
X159089416Y-86537134D01*
X158971465Y-86502500D01*
X158848535Y-86502500D01*
X158730584Y-86537134D01*
X158730582Y-86537134D01*
X158730582Y-86537135D01*
X158627169Y-86603594D01*
X158546667Y-86696497D01*
X158546665Y-86696500D01*
X158495599Y-86808317D01*
X158495598Y-86808321D01*
X158478104Y-86930000D01*
X142986977Y-86930000D01*
X142987155Y-85340000D01*
X160338104Y-85340000D01*
X160355598Y-85461678D01*
X160355599Y-85461682D01*
X160406665Y-85573499D01*
X160406666Y-85573501D01*
X160487168Y-85666405D01*
X160590584Y-85732866D01*
X160708535Y-85767500D01*
X160831465Y-85767500D01*
X160949416Y-85732866D01*
X161052832Y-85666405D01*
X161133334Y-85573501D01*
X161184401Y-85461679D01*
X161201896Y-85340000D01*
X161184401Y-85218321D01*
X161184400Y-85218317D01*
X161133334Y-85106500D01*
X161133334Y-85106499D01*
X161052832Y-85013595D01*
X160949416Y-84947134D01*
X160831465Y-84912500D01*
X160708535Y-84912500D01*
X160590584Y-84947134D01*
X160590582Y-84947134D01*
X160590582Y-84947135D01*
X160487169Y-85013594D01*
X160406667Y-85106497D01*
X160406665Y-85106500D01*
X160355599Y-85218317D01*
X160355598Y-85218321D01*
X160338104Y-85340000D01*
X142987155Y-85340000D01*
X142987466Y-82570000D01*
X152228104Y-82570000D01*
X152245598Y-82691678D01*
X152245599Y-82691682D01*
X152296375Y-82802864D01*
X152296666Y-82803501D01*
X152377168Y-82896405D01*
X152480584Y-82962866D01*
X152598535Y-82997500D01*
X152721465Y-82997500D01*
X152839416Y-82962866D01*
X152942832Y-82896405D01*
X152983042Y-82850000D01*
X164428104Y-82850000D01*
X164445598Y-82971678D01*
X164445599Y-82971682D01*
X164496665Y-83083499D01*
X164496666Y-83083501D01*
X164577168Y-83176405D01*
X164680584Y-83242866D01*
X164798535Y-83277500D01*
X164921465Y-83277500D01*
X165039416Y-83242866D01*
X165142832Y-83176405D01*
X165223334Y-83083501D01*
X165274401Y-82971679D01*
X165291896Y-82850000D01*
X165274401Y-82728321D01*
X165274400Y-82728317D01*
X165223334Y-82616500D01*
X165223334Y-82616499D01*
X165142832Y-82523595D01*
X165039416Y-82457134D01*
X164921465Y-82422500D01*
X164798535Y-82422500D01*
X164680584Y-82457134D01*
X164680582Y-82457134D01*
X164680582Y-82457135D01*
X164577169Y-82523594D01*
X164496667Y-82616497D01*
X164496665Y-82616500D01*
X164445599Y-82728317D01*
X164445598Y-82728321D01*
X164428104Y-82850000D01*
X152983042Y-82850000D01*
X153023334Y-82803501D01*
X153074401Y-82691679D01*
X153091896Y-82570000D01*
X153074401Y-82448321D01*
X153074400Y-82448317D01*
X153056901Y-82410000D01*
X154448104Y-82410000D01*
X154465598Y-82531678D01*
X154465599Y-82531682D01*
X154504335Y-82616500D01*
X154516666Y-82643501D01*
X154597168Y-82736405D01*
X154700584Y-82802866D01*
X154818535Y-82837500D01*
X154941465Y-82837500D01*
X155059416Y-82802866D01*
X155162832Y-82736405D01*
X155243334Y-82643501D01*
X155294401Y-82531679D01*
X155311896Y-82410000D01*
X155294401Y-82288321D01*
X155294400Y-82288317D01*
X155243334Y-82176500D01*
X155243334Y-82176499D01*
X155162832Y-82083595D01*
X155059416Y-82017134D01*
X154941465Y-81982500D01*
X154818535Y-81982500D01*
X154700584Y-82017134D01*
X154700582Y-82017134D01*
X154700582Y-82017135D01*
X154597169Y-82083594D01*
X154516667Y-82176497D01*
X154516665Y-82176500D01*
X154465599Y-82288317D01*
X154465598Y-82288321D01*
X154448104Y-82410000D01*
X153056901Y-82410000D01*
X153023334Y-82336500D01*
X153023334Y-82336499D01*
X152942832Y-82243595D01*
X152839416Y-82177134D01*
X152721465Y-82142500D01*
X152598535Y-82142500D01*
X152480584Y-82177134D01*
X152480582Y-82177134D01*
X152480582Y-82177135D01*
X152377169Y-82243594D01*
X152296667Y-82336497D01*
X152296665Y-82336500D01*
X152245599Y-82448317D01*
X152245598Y-82448321D01*
X152228104Y-82570000D01*
X142987466Y-82570000D01*
X142987933Y-78410000D01*
X164178104Y-78410000D01*
X164195598Y-78531678D01*
X164195599Y-78531682D01*
X164218434Y-78581682D01*
X164246666Y-78643501D01*
X164327168Y-78736405D01*
X164430584Y-78802866D01*
X164548535Y-78837500D01*
X164671465Y-78837500D01*
X164789416Y-78802866D01*
X164892832Y-78736405D01*
X164973334Y-78643501D01*
X165024401Y-78531679D01*
X165034707Y-78460000D01*
X170428104Y-78460000D01*
X170445598Y-78581678D01*
X170445599Y-78581682D01*
X170473832Y-78643502D01*
X170496666Y-78693501D01*
X170577168Y-78786405D01*
X170680584Y-78852866D01*
X170798535Y-78887500D01*
X170921465Y-78887500D01*
X171039416Y-78852866D01*
X171142832Y-78786405D01*
X171223334Y-78693501D01*
X171274401Y-78581679D01*
X171291896Y-78460000D01*
X171274401Y-78338321D01*
X171274400Y-78338317D01*
X171223334Y-78226500D01*
X171223334Y-78226499D01*
X171142832Y-78133595D01*
X171039416Y-78067134D01*
X170921465Y-78032500D01*
X170798535Y-78032500D01*
X170680584Y-78067134D01*
X170680582Y-78067134D01*
X170680582Y-78067135D01*
X170577169Y-78133594D01*
X170496667Y-78226497D01*
X170496665Y-78226500D01*
X170445599Y-78338317D01*
X170445598Y-78338321D01*
X170428104Y-78460000D01*
X165034707Y-78460000D01*
X165041896Y-78410000D01*
X165024401Y-78288321D01*
X165024400Y-78288317D01*
X164973334Y-78176500D01*
X164973334Y-78176499D01*
X164892832Y-78083595D01*
X164789416Y-78017134D01*
X164671465Y-77982500D01*
X164548535Y-77982500D01*
X164430584Y-78017134D01*
X164430582Y-78017134D01*
X164430582Y-78017135D01*
X164327169Y-78083594D01*
X164246667Y-78176497D01*
X164246665Y-78176500D01*
X164195599Y-78288317D01*
X164195598Y-78288321D01*
X164178104Y-78410000D01*
X142987933Y-78410000D01*
X142988067Y-77220000D01*
X153558104Y-77220000D01*
X153575598Y-77341678D01*
X153575599Y-77341682D01*
X153626665Y-77453499D01*
X153626666Y-77453501D01*
X153707168Y-77546405D01*
X153810584Y-77612866D01*
X153928535Y-77647500D01*
X154051465Y-77647500D01*
X154169416Y-77612866D01*
X154272832Y-77546405D01*
X154353334Y-77453501D01*
X154404401Y-77341679D01*
X154421896Y-77220000D01*
X154404401Y-77098321D01*
X154404400Y-77098317D01*
X154353334Y-76986500D01*
X154353334Y-76986499D01*
X154272832Y-76893595D01*
X154169416Y-76827134D01*
X154051465Y-76792500D01*
X153928535Y-76792500D01*
X153810584Y-76827134D01*
X153810582Y-76827134D01*
X153810582Y-76827135D01*
X153707169Y-76893594D01*
X153626667Y-76986497D01*
X153626665Y-76986500D01*
X153575599Y-77098317D01*
X153575598Y-77098321D01*
X153558104Y-77220000D01*
X142988067Y-77220000D01*
X142988311Y-75050000D01*
X158458104Y-75050000D01*
X158475598Y-75171678D01*
X158475599Y-75171682D01*
X158526665Y-75283499D01*
X158526666Y-75283501D01*
X158607168Y-75376405D01*
X158710584Y-75442866D01*
X158828535Y-75477500D01*
X158951465Y-75477500D01*
X159069416Y-75442866D01*
X159172832Y-75376405D01*
X159253334Y-75283501D01*
X159304401Y-75171679D01*
X159321896Y-75050000D01*
X159304401Y-74928321D01*
X159304400Y-74928317D01*
X159253334Y-74816500D01*
X159253334Y-74816499D01*
X159172832Y-74723595D01*
X159069416Y-74657134D01*
X158951465Y-74622500D01*
X158828535Y-74622500D01*
X158710584Y-74657134D01*
X158710582Y-74657134D01*
X158710582Y-74657135D01*
X158607169Y-74723594D01*
X158526667Y-74816497D01*
X158526665Y-74816500D01*
X158475599Y-74928317D01*
X158475598Y-74928321D01*
X158458104Y-75050000D01*
X142988311Y-75050000D01*
X142988559Y-72840000D01*
X159888104Y-72840000D01*
X159905598Y-72961678D01*
X159905599Y-72961682D01*
X159956665Y-73073499D01*
X159956666Y-73073501D01*
X160037168Y-73166405D01*
X160140584Y-73232866D01*
X160258535Y-73267500D01*
X160381465Y-73267500D01*
X160499416Y-73232866D01*
X160602832Y-73166405D01*
X160683334Y-73073501D01*
X160734401Y-72961679D01*
X160751896Y-72840000D01*
X160734401Y-72718321D01*
X160734400Y-72718317D01*
X160683334Y-72606500D01*
X160683334Y-72606499D01*
X160602832Y-72513595D01*
X160499416Y-72447134D01*
X160381465Y-72412500D01*
X160258535Y-72412500D01*
X160140584Y-72447134D01*
X160140582Y-72447134D01*
X160140582Y-72447135D01*
X160037169Y-72513594D01*
X159956667Y-72606497D01*
X159956665Y-72606500D01*
X159905599Y-72718317D01*
X159905598Y-72718321D01*
X159888104Y-72840000D01*
X142988559Y-72840000D01*
X142988809Y-70610000D01*
X154428104Y-70610000D01*
X154445598Y-70731678D01*
X154445599Y-70731682D01*
X154496665Y-70843499D01*
X154496666Y-70843501D01*
X154577168Y-70936405D01*
X154680584Y-71002866D01*
X154798535Y-71037500D01*
X154921465Y-71037500D01*
X155039416Y-71002866D01*
X155142832Y-70936405D01*
X155223334Y-70843501D01*
X155274401Y-70731679D01*
X155291896Y-70610000D01*
X155274401Y-70488321D01*
X155274400Y-70488317D01*
X155223334Y-70376500D01*
X155223334Y-70376499D01*
X155142832Y-70283595D01*
X155039416Y-70217134D01*
X154921465Y-70182500D01*
X154798535Y-70182500D01*
X154680584Y-70217134D01*
X154680582Y-70217134D01*
X154680582Y-70217135D01*
X154577169Y-70283594D01*
X154496667Y-70376497D01*
X154496665Y-70376500D01*
X154445599Y-70488317D01*
X154445598Y-70488321D01*
X154428104Y-70610000D01*
X142988809Y-70610000D01*
X142988885Y-69930000D01*
X152198104Y-69930000D01*
X152215598Y-70051678D01*
X152215599Y-70051682D01*
X152266665Y-70163499D01*
X152266666Y-70163501D01*
X152347168Y-70256405D01*
X152450584Y-70322866D01*
X152568535Y-70357500D01*
X152691465Y-70357500D01*
X152809416Y-70322866D01*
X152912832Y-70256405D01*
X152993334Y-70163501D01*
X153044401Y-70051679D01*
X153061896Y-69930000D01*
X153044401Y-69808321D01*
X153044400Y-69808317D01*
X152993334Y-69696500D01*
X152993334Y-69696499D01*
X152912832Y-69603595D01*
X152809416Y-69537134D01*
X152691465Y-69502500D01*
X152568535Y-69502500D01*
X152450584Y-69537134D01*
X152450582Y-69537134D01*
X152450582Y-69537135D01*
X152347169Y-69603594D01*
X152266667Y-69696497D01*
X152266665Y-69696500D01*
X152215599Y-69808317D01*
X152215598Y-69808321D01*
X152198104Y-69930000D01*
X142988885Y-69930000D01*
X142989151Y-67564000D01*
X146634104Y-67564000D01*
X146651598Y-67685678D01*
X146651599Y-67685682D01*
X146702665Y-67797499D01*
X146702666Y-67797501D01*
X146783168Y-67890405D01*
X146886584Y-67956866D01*
X147004535Y-67991500D01*
X147127465Y-67991500D01*
X147245416Y-67956866D01*
X147348832Y-67890405D01*
X147429334Y-67797501D01*
X147480401Y-67685679D01*
X147497896Y-67564000D01*
X147480401Y-67442321D01*
X147480400Y-67442317D01*
X147429334Y-67330500D01*
X147429334Y-67330499D01*
X147348832Y-67237595D01*
X147245416Y-67171134D01*
X147127465Y-67136500D01*
X147004535Y-67136500D01*
X146886584Y-67171134D01*
X146886582Y-67171134D01*
X146886582Y-67171135D01*
X146783169Y-67237594D01*
X146702667Y-67330497D01*
X146702665Y-67330500D01*
X146651599Y-67442317D01*
X146651598Y-67442321D01*
X146634104Y-67564000D01*
X142989151Y-67564000D01*
X142989323Y-66030000D01*
X151008104Y-66030000D01*
X151025598Y-66151678D01*
X151025599Y-66151682D01*
X151064335Y-66236500D01*
X151076666Y-66263501D01*
X151157168Y-66356405D01*
X151260584Y-66422866D01*
X151378535Y-66457500D01*
X151501465Y-66457500D01*
X151619416Y-66422866D01*
X151722832Y-66356405D01*
X151728382Y-66350000D01*
X164228104Y-66350000D01*
X164245598Y-66471678D01*
X164245599Y-66471682D01*
X164296665Y-66583499D01*
X164296666Y-66583501D01*
X164377168Y-66676405D01*
X164480584Y-66742866D01*
X164598535Y-66777500D01*
X164721465Y-66777500D01*
X164839416Y-66742866D01*
X164942832Y-66676405D01*
X165023334Y-66583501D01*
X165074401Y-66471679D01*
X165074642Y-66470000D01*
X170528104Y-66470000D01*
X170545598Y-66591678D01*
X170545599Y-66591682D01*
X170596665Y-66703499D01*
X170596666Y-66703501D01*
X170677168Y-66796405D01*
X170780584Y-66862866D01*
X170898535Y-66897500D01*
X171021465Y-66897500D01*
X171139416Y-66862866D01*
X171242832Y-66796405D01*
X171323334Y-66703501D01*
X171374401Y-66591679D01*
X171391896Y-66470000D01*
X171374401Y-66348321D01*
X171374400Y-66348317D01*
X171323334Y-66236500D01*
X171323334Y-66236499D01*
X171242832Y-66143595D01*
X171139416Y-66077134D01*
X171021465Y-66042500D01*
X170898535Y-66042500D01*
X170780584Y-66077134D01*
X170780582Y-66077134D01*
X170780582Y-66077135D01*
X170677169Y-66143594D01*
X170596667Y-66236497D01*
X170596665Y-66236500D01*
X170545599Y-66348317D01*
X170545598Y-66348321D01*
X170528104Y-66470000D01*
X165074642Y-66470000D01*
X165091896Y-66350000D01*
X165074401Y-66228321D01*
X165074400Y-66228317D01*
X165023334Y-66116500D01*
X165023334Y-66116499D01*
X164942832Y-66023595D01*
X164839416Y-65957134D01*
X164721465Y-65922500D01*
X164598535Y-65922500D01*
X164480584Y-65957134D01*
X164480582Y-65957134D01*
X164480582Y-65957135D01*
X164377169Y-66023594D01*
X164296667Y-66116497D01*
X164296665Y-66116500D01*
X164245599Y-66228317D01*
X164245598Y-66228321D01*
X164228104Y-66350000D01*
X151728382Y-66350000D01*
X151803334Y-66263501D01*
X151854401Y-66151679D01*
X151871896Y-66030000D01*
X151854401Y-65908321D01*
X151854400Y-65908317D01*
X151803334Y-65796500D01*
X151803334Y-65796499D01*
X151722832Y-65703595D01*
X151619416Y-65637134D01*
X151501465Y-65602500D01*
X151378535Y-65602500D01*
X151260584Y-65637134D01*
X151260582Y-65637134D01*
X151260582Y-65637135D01*
X151157169Y-65703594D01*
X151076667Y-65796497D01*
X151076665Y-65796500D01*
X151025599Y-65908317D01*
X151025598Y-65908321D01*
X151008104Y-66030000D01*
X142989323Y-66030000D01*
X142989436Y-65024000D01*
X175971104Y-65024000D01*
X175988598Y-65145678D01*
X175988599Y-65145682D01*
X176039665Y-65257499D01*
X176039666Y-65257501D01*
X176120168Y-65350405D01*
X176223584Y-65416866D01*
X176341535Y-65451500D01*
X176464465Y-65451500D01*
X176582416Y-65416866D01*
X176685832Y-65350405D01*
X176766334Y-65257501D01*
X176817401Y-65145679D01*
X176834896Y-65024000D01*
X176817401Y-64902321D01*
X176817400Y-64902317D01*
X176766334Y-64790500D01*
X176766334Y-64790499D01*
X176685832Y-64697595D01*
X176582416Y-64631134D01*
X176464465Y-64596500D01*
X176341535Y-64596500D01*
X176223584Y-64631134D01*
X176223582Y-64631134D01*
X176223582Y-64631135D01*
X176120169Y-64697594D01*
X176039667Y-64790497D01*
X176039665Y-64790500D01*
X175988599Y-64902317D01*
X175988598Y-64902321D01*
X175971104Y-65024000D01*
X142989436Y-65024000D01*
X142989717Y-62520000D01*
X158608104Y-62520000D01*
X158625598Y-62641678D01*
X158625599Y-62641682D01*
X158676665Y-62753499D01*
X158676666Y-62753501D01*
X158757168Y-62846405D01*
X158860584Y-62912866D01*
X158978535Y-62947500D01*
X159101465Y-62947500D01*
X159219416Y-62912866D01*
X159322832Y-62846405D01*
X159403334Y-62753501D01*
X159454401Y-62641679D01*
X159471896Y-62520000D01*
X159454401Y-62398321D01*
X159454400Y-62398317D01*
X159403334Y-62286500D01*
X159403334Y-62286499D01*
X159322832Y-62193595D01*
X159219416Y-62127134D01*
X159101465Y-62092500D01*
X158978535Y-62092500D01*
X158860584Y-62127134D01*
X158860582Y-62127134D01*
X158860582Y-62127135D01*
X158757169Y-62193594D01*
X158676667Y-62286497D01*
X158676665Y-62286500D01*
X158625599Y-62398317D01*
X158625598Y-62398321D01*
X158608104Y-62520000D01*
X142989717Y-62520000D01*
X142989907Y-60830000D01*
X159748104Y-60830000D01*
X159765598Y-60951678D01*
X159765599Y-60951682D01*
X159816665Y-61063499D01*
X159816666Y-61063501D01*
X159897168Y-61156405D01*
X160000584Y-61222866D01*
X160118535Y-61257500D01*
X160241465Y-61257500D01*
X160359416Y-61222866D01*
X160462832Y-61156405D01*
X160543334Y-61063501D01*
X160594401Y-60951679D01*
X160611896Y-60830000D01*
X160594401Y-60708321D01*
X160594400Y-60708317D01*
X160543334Y-60596500D01*
X160543334Y-60596499D01*
X160462832Y-60503595D01*
X160359416Y-60437134D01*
X160241465Y-60402500D01*
X160118535Y-60402500D01*
X160000584Y-60437134D01*
X160000582Y-60437134D01*
X160000582Y-60437135D01*
X159897169Y-60503594D01*
X159816667Y-60596497D01*
X159816665Y-60596500D01*
X159765599Y-60708317D01*
X159765598Y-60708321D01*
X159748104Y-60830000D01*
X142989907Y-60830000D01*
X142990092Y-59182000D01*
X155905104Y-59182000D01*
X155922598Y-59303678D01*
X155922599Y-59303682D01*
X155955726Y-59376218D01*
X155973666Y-59415501D01*
X156054168Y-59508405D01*
X156157584Y-59574866D01*
X156275535Y-59609500D01*
X156398465Y-59609500D01*
X156516416Y-59574866D01*
X156619832Y-59508405D01*
X156700334Y-59415501D01*
X156751401Y-59303679D01*
X156768896Y-59182000D01*
X156751401Y-59060321D01*
X156751400Y-59060317D01*
X156700334Y-58948500D01*
X156700334Y-58948499D01*
X156619832Y-58855595D01*
X156516416Y-58789134D01*
X156398465Y-58754500D01*
X156275535Y-58754500D01*
X156157584Y-58789134D01*
X156157582Y-58789134D01*
X156157582Y-58789135D01*
X156054169Y-58855594D01*
X155973667Y-58948497D01*
X155973665Y-58948500D01*
X155922599Y-59060317D01*
X155922598Y-59060321D01*
X155905104Y-59182000D01*
X142990092Y-59182000D01*
X142990153Y-58640000D01*
X164648104Y-58640000D01*
X164665598Y-58761678D01*
X164665599Y-58761682D01*
X164711548Y-58862295D01*
X164716666Y-58873501D01*
X164797168Y-58966405D01*
X164900584Y-59032866D01*
X165018535Y-59067500D01*
X165141465Y-59067500D01*
X165259416Y-59032866D01*
X165362832Y-58966405D01*
X165443334Y-58873501D01*
X165494401Y-58761679D01*
X165511896Y-58640000D01*
X165494401Y-58518321D01*
X165494400Y-58518317D01*
X165461505Y-58446288D01*
X165443334Y-58406499D01*
X165362832Y-58313595D01*
X165259416Y-58247134D01*
X165141465Y-58212500D01*
X165018535Y-58212500D01*
X164900584Y-58247134D01*
X164900582Y-58247134D01*
X164900582Y-58247135D01*
X164797169Y-58313594D01*
X164716667Y-58406497D01*
X164716665Y-58406500D01*
X164665599Y-58518317D01*
X164665598Y-58518321D01*
X164648104Y-58640000D01*
X142990153Y-58640000D01*
X142990223Y-58020000D01*
X153108104Y-58020000D01*
X153125598Y-58141678D01*
X153125599Y-58141682D01*
X153173758Y-58247134D01*
X153176666Y-58253501D01*
X153257168Y-58346405D01*
X153360584Y-58412866D01*
X153478535Y-58447500D01*
X153601465Y-58447500D01*
X153719416Y-58412866D01*
X153822832Y-58346405D01*
X153903334Y-58253501D01*
X153954401Y-58141679D01*
X153971896Y-58020000D01*
X153954401Y-57898321D01*
X153954400Y-57898317D01*
X153903334Y-57786500D01*
X153903334Y-57786499D01*
X153822832Y-57693595D01*
X153719416Y-57627134D01*
X153601465Y-57592500D01*
X153478535Y-57592500D01*
X153360584Y-57627134D01*
X153360582Y-57627134D01*
X153360582Y-57627135D01*
X153257169Y-57693594D01*
X153176667Y-57786497D01*
X153176665Y-57786500D01*
X153125599Y-57898317D01*
X153125598Y-57898321D01*
X153108104Y-58020000D01*
X142990223Y-58020000D01*
X142990492Y-55626000D01*
X149682104Y-55626000D01*
X149699598Y-55747678D01*
X149699599Y-55747682D01*
X149750665Y-55859499D01*
X149750666Y-55859501D01*
X149831168Y-55952405D01*
X149934584Y-56018866D01*
X150052535Y-56053500D01*
X150175465Y-56053500D01*
X150293416Y-56018866D01*
X150396832Y-55952405D01*
X150477334Y-55859501D01*
X150528401Y-55747679D01*
X150545896Y-55626000D01*
X150533531Y-55539998D01*
X169847948Y-55539998D01*
X169847948Y-55540001D01*
X169866076Y-55677703D01*
X169866078Y-55677708D01*
X169919227Y-55806023D01*
X169919228Y-55806025D01*
X169919229Y-55806026D01*
X170003782Y-55916218D01*
X170113974Y-56000771D01*
X170242295Y-56053923D01*
X170311147Y-56062987D01*
X170379999Y-56072052D01*
X170380000Y-56072052D01*
X170380001Y-56072052D01*
X170425901Y-56066009D01*
X170517705Y-56053923D01*
X170646026Y-56000771D01*
X170756218Y-55916218D01*
X170840771Y-55806026D01*
X170893923Y-55677705D01*
X170912052Y-55540000D01*
X170893923Y-55402295D01*
X170840771Y-55273974D01*
X170756218Y-55163782D01*
X170646026Y-55079229D01*
X170646025Y-55079228D01*
X170646023Y-55079227D01*
X170517708Y-55026078D01*
X170517703Y-55026076D01*
X170380001Y-55007948D01*
X170379999Y-55007948D01*
X170242296Y-55026076D01*
X170242291Y-55026078D01*
X170113976Y-55079227D01*
X170003782Y-55163782D01*
X169919227Y-55273976D01*
X169866078Y-55402291D01*
X169866076Y-55402296D01*
X169847948Y-55539998D01*
X150533531Y-55539998D01*
X150528401Y-55504321D01*
X150528400Y-55504317D01*
X150481808Y-55402296D01*
X150477334Y-55392499D01*
X150396832Y-55299595D01*
X150293416Y-55233134D01*
X150175465Y-55198500D01*
X150052535Y-55198500D01*
X149934584Y-55233134D01*
X149934582Y-55233134D01*
X149934582Y-55233135D01*
X149831169Y-55299594D01*
X149750667Y-55392497D01*
X149750665Y-55392500D01*
X149699599Y-55504317D01*
X149699598Y-55504321D01*
X149682104Y-55626000D01*
X142990492Y-55626000D01*
X142990493Y-55613168D01*
X142990500Y-55613114D01*
X142990500Y-55563480D01*
X142990695Y-55556528D01*
X142999356Y-55402295D01*
X143007838Y-55251259D01*
X143009392Y-55237460D01*
X143060024Y-54939464D01*
X143063118Y-54925912D01*
X143075861Y-54881682D01*
X143110917Y-54760000D01*
X157778104Y-54760000D01*
X157795598Y-54881678D01*
X157795599Y-54881682D01*
X157846665Y-54993499D01*
X157846666Y-54993501D01*
X157927168Y-55086405D01*
X158030584Y-55152866D01*
X158148535Y-55187500D01*
X158271465Y-55187500D01*
X158389416Y-55152866D01*
X158492832Y-55086405D01*
X158573334Y-54993501D01*
X158624401Y-54881679D01*
X158641896Y-54760000D01*
X158624401Y-54638321D01*
X158624400Y-54638317D01*
X158573334Y-54526500D01*
X158573334Y-54526499D01*
X158492832Y-54433595D01*
X158389416Y-54367134D01*
X158271465Y-54332500D01*
X158148535Y-54332500D01*
X158030584Y-54367134D01*
X158030582Y-54367134D01*
X158030582Y-54367135D01*
X157927169Y-54433594D01*
X157846667Y-54526497D01*
X157846665Y-54526500D01*
X157795599Y-54638317D01*
X157795598Y-54638321D01*
X157778104Y-54760000D01*
X143110917Y-54760000D01*
X143146795Y-54635462D01*
X143151387Y-54622342D01*
X143229568Y-54433595D01*
X143267055Y-54343091D01*
X143273077Y-54330585D01*
X143419295Y-54066025D01*
X143426690Y-54054257D01*
X143601602Y-53807741D01*
X143610258Y-53796887D01*
X143811682Y-53571492D01*
X143821492Y-53561682D01*
X144046887Y-53360258D01*
X144057741Y-53351602D01*
X144304262Y-53176686D01*
X144316025Y-53169295D01*
X144580585Y-53023077D01*
X144593091Y-53017055D01*
X144872342Y-52901387D01*
X144885462Y-52896795D01*
X145175917Y-52813116D01*
X145189464Y-52810024D01*
X145487460Y-52759392D01*
X145501259Y-52757838D01*
X145768020Y-52742857D01*
X145806529Y-52740695D01*
X145813481Y-52740500D01*
X177397249Y-52740500D01*
X177464288Y-52760185D01*
G37*
%TD.AperFunction*%
%TD*%
M02*
