%TF.GenerationSoftware,KiCad,Pcbnew,8.0.9-8.0.9-0~ubuntu24.04.1*%
%TF.CreationDate,2025-08-06T19:27:30-03:00*%
%TF.ProjectId,eeg,6565672e-6b69-4636-9164-5f7063625858,rev?*%
%TF.SameCoordinates,Original*%
%TF.FileFunction,Legend,Top*%
%TF.FilePolarity,Positive*%
%FSLAX46Y46*%
G04 Gerber Fmt 4.6, Leading zero omitted, Abs format (unit mm)*
G04 Created by KiCad (PCBNEW 8.0.9-8.0.9-0~ubuntu24.04.1) date 2025-08-06 19:27:30*
%MOMM*%
%LPD*%
G01*
G04 APERTURE LIST*
%ADD10C,0.000000*%
%ADD11C,0.120000*%
%ADD12C,0.200000*%
%ADD13C,0.100000*%
%ADD14C,0.250000*%
G04 APERTURE END LIST*
D10*
%TO.C,G\u002A\u002A\u002A*%
G36*
X191490000Y-91956618D02*
G01*
X191489999Y-91956618D01*
X191489999Y-91956477D01*
X191490000Y-91956477D01*
X191490000Y-91956618D01*
G37*
G36*
X191489999Y-92036547D02*
G01*
X191490000Y-92116618D01*
X191332500Y-92116618D01*
X191175000Y-92116618D01*
X191175000Y-92036618D01*
X191175000Y-91956618D01*
X191332500Y-91956618D01*
X191489999Y-91956618D01*
X191489999Y-92036547D01*
G37*
G36*
X191965000Y-89344118D02*
G01*
X191965000Y-89581618D01*
X191727500Y-89581618D01*
X191490000Y-89581618D01*
X191490000Y-89344118D01*
X191490000Y-89106618D01*
X191727500Y-89106618D01*
X191965000Y-89106618D01*
X191965000Y-89344118D01*
G37*
G36*
X191965000Y-92829118D02*
G01*
X191965000Y-93066618D01*
X191727500Y-93066618D01*
X191490000Y-93066618D01*
X191490000Y-92829118D01*
X191490000Y-92591618D01*
X191727500Y-92591618D01*
X191965000Y-92591618D01*
X191965000Y-92829118D01*
G37*
G36*
X192600000Y-92829118D02*
G01*
X192600000Y-92906618D01*
X192520000Y-92906618D01*
X192440000Y-92906618D01*
X192440000Y-92829118D01*
X192440000Y-92751618D01*
X192520000Y-92751618D01*
X192600000Y-92751618D01*
X192600000Y-92829118D01*
G37*
G36*
X193075000Y-90136618D02*
G01*
X193075000Y-90216618D01*
X192995126Y-90216618D01*
X192915000Y-90216618D01*
X192915000Y-90136618D01*
X192915000Y-90056618D01*
X192995000Y-90056618D01*
X193075000Y-90056618D01*
X193075000Y-90136618D01*
G37*
G36*
X194025000Y-92909118D02*
G01*
X194025000Y-93066618D01*
X193945000Y-93066618D01*
X193865000Y-93066618D01*
X193865000Y-92909118D01*
X193865000Y-92751618D01*
X193945000Y-92751618D01*
X194025000Y-92751618D01*
X194025000Y-92909118D01*
G37*
G36*
X194500000Y-89819118D02*
G01*
X194500000Y-89896618D01*
X194420000Y-89896618D01*
X194340000Y-89896618D01*
X194340000Y-89819118D01*
X194340000Y-89741618D01*
X194420000Y-89741618D01*
X194500000Y-89741618D01*
X194500000Y-89819118D01*
G37*
G36*
X194815000Y-92354118D02*
G01*
X194815000Y-92431618D01*
X194737500Y-92431618D01*
X194660000Y-92431618D01*
X194660000Y-92354118D01*
X194660000Y-92276618D01*
X194737500Y-92276618D01*
X194815000Y-92276618D01*
X194815000Y-92354118D01*
G37*
G36*
X195450000Y-89344118D02*
G01*
X195450000Y-89581618D01*
X195212500Y-89581618D01*
X194975000Y-89581618D01*
X194975000Y-89344118D01*
X194975000Y-89106618D01*
X195212500Y-89106618D01*
X195450000Y-89106618D01*
X195450000Y-89344118D01*
G37*
G36*
X195450000Y-91561618D02*
G01*
X195450000Y-91641618D01*
X195132500Y-91641618D01*
X194815000Y-91641618D01*
X194815000Y-91561618D01*
X194815000Y-91481618D01*
X195132500Y-91481618D01*
X195450000Y-91481618D01*
X195450000Y-91561618D01*
G37*
G36*
X195765000Y-93304118D02*
G01*
X195765000Y-93381618D01*
X195687500Y-93381618D01*
X195610000Y-93381618D01*
X195610000Y-93304118D01*
X195610000Y-93226618D01*
X195687500Y-93226618D01*
X195765000Y-93226618D01*
X195765000Y-93304118D01*
G37*
G36*
X192756123Y-93145368D02*
G01*
X192757500Y-93224118D01*
X192836250Y-93225494D01*
X192915000Y-93226871D01*
X192915000Y-93304244D01*
X192915000Y-93381618D01*
X192757500Y-93381618D01*
X192600000Y-93381618D01*
X192600000Y-93224118D01*
X192600000Y-93066618D01*
X192677373Y-93066618D01*
X192754746Y-93066618D01*
X192756123Y-93145368D01*
G37*
G36*
X195765000Y-92669118D02*
G01*
X195765000Y-92906618D01*
X195687500Y-92906618D01*
X195610000Y-92906618D01*
X195609868Y-92829118D01*
X195609819Y-92794415D01*
X195609778Y-92754253D01*
X195609750Y-92713174D01*
X195609737Y-92675717D01*
X195609736Y-92669118D01*
X195609746Y-92632918D01*
X195609772Y-92592195D01*
X195609810Y-92551491D01*
X195609858Y-92515346D01*
X195609868Y-92509118D01*
X195610000Y-92431618D01*
X195687500Y-92431618D01*
X195765000Y-92431618D01*
X195765000Y-92669118D01*
G37*
G36*
X194340000Y-93143991D02*
G01*
X194340000Y-93221364D01*
X194261250Y-93222741D01*
X194182500Y-93224118D01*
X194181123Y-93302868D01*
X194179746Y-93381618D01*
X194022373Y-93381618D01*
X193865000Y-93381618D01*
X193865000Y-93304118D01*
X193865000Y-93226618D01*
X193943750Y-93226444D01*
X193979576Y-93226297D01*
X194020593Y-93226023D01*
X194061993Y-93225658D01*
X194098967Y-93225240D01*
X194102500Y-93225194D01*
X194182500Y-93224118D01*
X194183876Y-93145368D01*
X194185253Y-93066618D01*
X194262626Y-93066618D01*
X194340000Y-93066618D01*
X194340000Y-93143991D01*
G37*
G36*
X193231123Y-93145368D02*
G01*
X193232500Y-93224118D01*
X193390000Y-93225233D01*
X193433474Y-93225527D01*
X193477939Y-93225801D01*
X193521260Y-93226044D01*
X193561301Y-93226246D01*
X193595928Y-93226394D01*
X193623007Y-93226477D01*
X193626250Y-93226483D01*
X193705000Y-93226618D01*
X193705000Y-93304118D01*
X193705000Y-93381618D01*
X193470126Y-93381618D01*
X193235253Y-93381618D01*
X193233876Y-93302868D01*
X193232500Y-93224118D01*
X193153750Y-93222741D01*
X193075000Y-93221364D01*
X193075000Y-93143991D01*
X193075000Y-93066618D01*
X193152373Y-93066618D01*
X193229746Y-93066618D01*
X193231123Y-93145368D01*
G37*
G36*
X193360729Y-92751431D02*
G01*
X193415885Y-92751436D01*
X193468329Y-92751445D01*
X193516646Y-92751457D01*
X193559426Y-92751473D01*
X193595257Y-92751493D01*
X193622725Y-92751517D01*
X193626250Y-92751521D01*
X193705000Y-92751618D01*
X193705000Y-92829118D01*
X193705000Y-92906618D01*
X193627500Y-92906618D01*
X193550000Y-92906618D01*
X193550000Y-92986618D01*
X193550000Y-93066618D01*
X193470000Y-93066618D01*
X193390000Y-93066618D01*
X193390000Y-92986618D01*
X193390000Y-92906618D01*
X193152500Y-92906618D01*
X192915000Y-92906618D01*
X192915000Y-92829118D01*
X192915000Y-92751618D01*
X192991250Y-92751524D01*
X193017276Y-92751499D01*
X193051887Y-92751478D01*
X193093669Y-92751461D01*
X193141211Y-92751448D01*
X193193100Y-92751438D01*
X193247924Y-92751432D01*
X193304271Y-92751430D01*
X193360729Y-92751431D01*
G37*
G36*
X195606123Y-90135368D02*
G01*
X195607500Y-90214118D01*
X195686250Y-90215494D01*
X195765000Y-90216871D01*
X195765000Y-90294118D01*
X195765000Y-90371364D01*
X195686250Y-90372741D01*
X195607500Y-90374118D01*
X195606123Y-90452868D01*
X195604746Y-90531618D01*
X195527500Y-90531618D01*
X195450253Y-90531618D01*
X195448876Y-90452868D01*
X195447500Y-90374118D01*
X195370000Y-90374118D01*
X195292500Y-90374118D01*
X195291123Y-90452868D01*
X195289746Y-90531618D01*
X195212611Y-90531618D01*
X195135477Y-90531618D01*
X195133988Y-90450368D01*
X195133532Y-90414438D01*
X195133345Y-90374032D01*
X195133429Y-90333718D01*
X195133789Y-90298065D01*
X195133876Y-90292868D01*
X195135253Y-90216618D01*
X195212626Y-90216618D01*
X195290000Y-90216618D01*
X195290000Y-90136618D01*
X195290000Y-90056618D01*
X195447373Y-90056618D01*
X195604746Y-90056618D01*
X195606123Y-90135368D01*
G37*
G36*
X195605226Y-91720368D02*
G01*
X195605279Y-91756499D01*
X195605258Y-91797713D01*
X195605170Y-91839091D01*
X195605022Y-91875714D01*
X195605011Y-91877868D01*
X195604569Y-91956618D01*
X195684784Y-91956618D01*
X195765000Y-91956618D01*
X195765000Y-92036618D01*
X195765000Y-92116618D01*
X195685000Y-92116618D01*
X195605000Y-92116618D01*
X195605000Y-92193879D01*
X195605000Y-92271140D01*
X195523750Y-92272629D01*
X195487820Y-92273085D01*
X195447414Y-92273272D01*
X195407100Y-92273188D01*
X195371447Y-92272828D01*
X195366250Y-92272741D01*
X195290000Y-92271364D01*
X195290000Y-92193991D01*
X195290000Y-92116758D01*
X195448750Y-92115438D01*
X195607500Y-92114118D01*
X195607500Y-92036618D01*
X195607500Y-91959118D01*
X195528750Y-91957741D01*
X195450000Y-91956364D01*
X195450000Y-91798991D01*
X195450000Y-91641618D01*
X195527500Y-91641618D01*
X195605000Y-91641618D01*
X195605226Y-91720368D01*
G37*
G36*
X192756123Y-88870368D02*
G01*
X192757500Y-88949118D01*
X192836250Y-88950494D01*
X192915000Y-88951871D01*
X192915000Y-88871744D01*
X192915000Y-88791618D01*
X193072500Y-88791618D01*
X193230000Y-88791618D01*
X193230000Y-88869118D01*
X193230000Y-88946618D01*
X193151250Y-88946796D01*
X193115301Y-88946945D01*
X193074448Y-88947224D01*
X193033534Y-88947592D01*
X192997407Y-88948013D01*
X192995000Y-88948046D01*
X192917500Y-88949118D01*
X192916179Y-89107868D01*
X192914859Y-89266618D01*
X192837429Y-89266618D01*
X192760000Y-89266618D01*
X192759826Y-89187868D01*
X192759679Y-89152041D01*
X192759405Y-89111024D01*
X192759040Y-89069624D01*
X192758622Y-89032650D01*
X192758576Y-89029118D01*
X192757500Y-88949118D01*
X192678750Y-88947741D01*
X192600000Y-88946364D01*
X192600000Y-89106491D01*
X192600000Y-89266618D01*
X192520000Y-89266618D01*
X192440000Y-89266618D01*
X192440000Y-89109244D01*
X192440000Y-88951871D01*
X192518750Y-88950494D01*
X192597500Y-88949118D01*
X192598876Y-88870368D01*
X192600253Y-88791618D01*
X192677500Y-88791618D01*
X192754746Y-88791618D01*
X192756123Y-88870368D01*
G37*
G36*
X195765000Y-89344118D02*
G01*
X195765000Y-89896618D01*
X195688750Y-89896703D01*
X195671497Y-89896732D01*
X195645200Y-89896788D01*
X195610813Y-89896869D01*
X195569292Y-89896973D01*
X195521591Y-89897097D01*
X195468667Y-89897238D01*
X195411474Y-89897394D01*
X195350967Y-89897563D01*
X195288102Y-89897741D01*
X195223834Y-89897927D01*
X195215000Y-89897953D01*
X195150535Y-89898121D01*
X195087285Y-89898247D01*
X195026212Y-89898330D01*
X194968278Y-89898372D01*
X194914446Y-89898372D01*
X194865678Y-89898332D01*
X194822936Y-89898251D01*
X194787182Y-89898130D01*
X194759379Y-89897969D01*
X194740490Y-89897769D01*
X194738750Y-89897741D01*
X194660000Y-89896364D01*
X194659912Y-89817741D01*
X194659895Y-89797495D01*
X194659881Y-89768288D01*
X194659872Y-89741678D01*
X194814939Y-89741678D01*
X195211219Y-89740398D01*
X195607500Y-89739118D01*
X195607500Y-89344118D01*
X195607500Y-88949118D01*
X195212500Y-88949118D01*
X194817500Y-88949118D01*
X194816219Y-89345398D01*
X194814939Y-89741678D01*
X194659872Y-89741678D01*
X194659868Y-89731133D01*
X194659857Y-89687042D01*
X194659848Y-89637027D01*
X194659840Y-89582099D01*
X194659834Y-89523272D01*
X194659830Y-89461557D01*
X194659828Y-89397967D01*
X194659827Y-89333514D01*
X194659829Y-89269209D01*
X194659831Y-89206066D01*
X194659836Y-89145095D01*
X194659843Y-89087310D01*
X194659851Y-89033723D01*
X194659861Y-88985345D01*
X194659872Y-88943190D01*
X194659886Y-88908268D01*
X194659901Y-88881592D01*
X194659913Y-88867868D01*
X194660000Y-88791618D01*
X195212500Y-88791618D01*
X195765000Y-88791618D01*
X195765000Y-89344118D01*
G37*
G36*
X191649117Y-92276323D02*
G01*
X191725509Y-92276361D01*
X191799541Y-92276421D01*
X191870582Y-92276502D01*
X191938004Y-92276603D01*
X192001178Y-92276724D01*
X192059476Y-92276863D01*
X192112268Y-92277018D01*
X192158926Y-92277190D01*
X192198821Y-92277376D01*
X192231323Y-92277577D01*
X192255805Y-92277790D01*
X192271637Y-92278014D01*
X192278190Y-92278249D01*
X192278333Y-92278284D01*
X192278569Y-92283420D01*
X192278795Y-92297928D01*
X192279010Y-92321178D01*
X192279212Y-92352541D01*
X192279401Y-92391388D01*
X192279574Y-92437092D01*
X192279733Y-92489022D01*
X192279874Y-92546550D01*
X192279997Y-92609047D01*
X192280102Y-92675884D01*
X192280186Y-92746433D01*
X192280249Y-92820063D01*
X192280290Y-92896148D01*
X192280307Y-92974057D01*
X192280300Y-93053162D01*
X192280267Y-93132835D01*
X192280208Y-93212445D01*
X192280121Y-93291364D01*
X192280106Y-93302868D01*
X192280000Y-93381618D01*
X191727500Y-93381618D01*
X191175000Y-93381618D01*
X191175000Y-92999772D01*
X191330970Y-92999772D01*
X191330990Y-93050568D01*
X191331068Y-93096197D01*
X191331201Y-93135884D01*
X191331387Y-93168856D01*
X191331625Y-93194339D01*
X191331911Y-93211558D01*
X191332245Y-93219740D01*
X191332333Y-93220276D01*
X191334784Y-93221446D01*
X191341565Y-93222454D01*
X191353214Y-93223308D01*
X191370270Y-93224014D01*
X191393268Y-93224579D01*
X191422747Y-93225010D01*
X191459243Y-93225314D01*
X191503296Y-93225497D01*
X191555441Y-93225567D01*
X191616216Y-93225530D01*
X191686159Y-93225392D01*
X191728558Y-93225276D01*
X192122500Y-93224118D01*
X192123780Y-92827837D01*
X192125060Y-92431557D01*
X191728780Y-92432837D01*
X191332500Y-92434118D01*
X191331275Y-92824118D01*
X191331111Y-92885772D01*
X191331010Y-92944582D01*
X191330970Y-92999772D01*
X191175000Y-92999772D01*
X191175000Y-92829118D01*
X191175000Y-92276618D01*
X191253750Y-92276511D01*
X191332514Y-92276420D01*
X191412063Y-92276357D01*
X191491765Y-92276320D01*
X191570993Y-92276310D01*
X191649117Y-92276323D01*
G37*
G36*
X192280106Y-88870368D02*
G01*
X192280197Y-88949082D01*
X192280260Y-89028586D01*
X192280297Y-89108253D01*
X192280307Y-89187451D01*
X192280294Y-89265553D01*
X192280256Y-89341929D01*
X192280197Y-89415950D01*
X192280116Y-89486986D01*
X192280014Y-89554409D01*
X192279894Y-89617590D01*
X192279755Y-89675898D01*
X192279600Y-89728706D01*
X192279428Y-89775384D01*
X192279242Y-89815302D01*
X192279042Y-89847832D01*
X192278830Y-89872344D01*
X192278606Y-89888210D01*
X192278371Y-89894799D01*
X192278335Y-89894949D01*
X192273182Y-89895236D01*
X192258835Y-89895525D01*
X192236098Y-89895812D01*
X192205777Y-89896094D01*
X192168676Y-89896371D01*
X192125601Y-89896640D01*
X192077357Y-89896898D01*
X192024749Y-89897144D01*
X191968583Y-89897375D01*
X191909664Y-89897589D01*
X191848796Y-89897784D01*
X191786785Y-89897957D01*
X191724436Y-89898107D01*
X191662555Y-89898231D01*
X191601946Y-89898327D01*
X191543415Y-89898394D01*
X191487766Y-89898427D01*
X191435806Y-89898426D01*
X191388338Y-89898389D01*
X191346169Y-89898312D01*
X191310104Y-89898195D01*
X191280947Y-89898034D01*
X191259505Y-89897828D01*
X191253750Y-89897741D01*
X191175000Y-89896364D01*
X191175000Y-89514785D01*
X191330976Y-89514785D01*
X191330998Y-89565590D01*
X191331079Y-89611228D01*
X191331216Y-89650926D01*
X191331407Y-89683909D01*
X191331649Y-89709403D01*
X191331941Y-89726634D01*
X191332280Y-89734828D01*
X191332370Y-89735368D01*
X191334738Y-89736555D01*
X191341269Y-89737593D01*
X191352509Y-89738489D01*
X191369005Y-89739253D01*
X191391302Y-89739892D01*
X191419949Y-89740416D01*
X191455489Y-89740833D01*
X191498471Y-89741152D01*
X191549441Y-89741381D01*
X191608944Y-89741528D01*
X191677527Y-89741603D01*
X191729873Y-89741618D01*
X192125060Y-89741618D01*
X192123780Y-89345368D01*
X192122500Y-88949118D01*
X191727500Y-88949118D01*
X191332500Y-88949118D01*
X191331277Y-89339118D01*
X191331112Y-89400775D01*
X191331013Y-89459589D01*
X191330976Y-89514785D01*
X191175000Y-89514785D01*
X191175000Y-89343991D01*
X191175000Y-88791618D01*
X191727500Y-88791618D01*
X192280000Y-88791618D01*
X192280106Y-88870368D01*
G37*
G36*
X193865000Y-88949118D02*
G01*
X193865000Y-89106618D01*
X193945000Y-89106618D01*
X194025000Y-89106618D01*
X194025000Y-88949118D01*
X194025000Y-88791618D01*
X194102500Y-88791618D01*
X194180000Y-88791618D01*
X194180226Y-88870368D01*
X194180279Y-88906499D01*
X194180258Y-88947713D01*
X194180170Y-88989091D01*
X194180022Y-89025714D01*
X194180011Y-89027868D01*
X194179569Y-89106618D01*
X194259784Y-89106618D01*
X194340000Y-89106618D01*
X194340000Y-88949118D01*
X194340000Y-88791618D01*
X194420000Y-88791618D01*
X194500000Y-88791618D01*
X194500000Y-89029118D01*
X194500000Y-89266618D01*
X194419873Y-89266617D01*
X194339746Y-89266617D01*
X194341123Y-89345367D01*
X194342500Y-89424118D01*
X194421250Y-89425494D01*
X194500000Y-89426871D01*
X194500000Y-89504244D01*
X194500000Y-89581618D01*
X194420000Y-89581618D01*
X194340000Y-89581618D01*
X194340000Y-89661618D01*
X194340000Y-89741618D01*
X194259951Y-89741618D01*
X194179902Y-89741618D01*
X194180113Y-89900368D01*
X194180162Y-89943969D01*
X194180196Y-89988530D01*
X194180214Y-90031933D01*
X194180216Y-90072061D01*
X194180201Y-90106797D01*
X194180169Y-90134021D01*
X194180162Y-90137868D01*
X194180000Y-90216618D01*
X194102500Y-90216618D01*
X194025000Y-90216618D01*
X194025000Y-90454244D01*
X194025000Y-90691618D01*
X193787500Y-90691618D01*
X193550000Y-90691618D01*
X193550000Y-90771833D01*
X193550000Y-90852048D01*
X193628750Y-90851606D01*
X193664881Y-90851455D01*
X193706095Y-90851363D01*
X193747473Y-90851337D01*
X193784096Y-90851385D01*
X193786250Y-90851391D01*
X193865000Y-90851618D01*
X193865000Y-90929118D01*
X193865000Y-91006618D01*
X194025126Y-91006618D01*
X194185253Y-91006618D01*
X194500000Y-91006618D01*
X194580126Y-91006618D01*
X194660253Y-91006618D01*
X194658876Y-90927868D01*
X194657500Y-90849118D01*
X194578750Y-90847741D01*
X194500000Y-90846364D01*
X194500000Y-90926491D01*
X194500000Y-91006618D01*
X194185253Y-91006618D01*
X194183876Y-90927868D01*
X194183852Y-90926491D01*
X194182500Y-90849118D01*
X194103750Y-90847741D01*
X194025000Y-90846364D01*
X194025000Y-90768991D01*
X194025000Y-90691871D01*
X194103750Y-90690494D01*
X194182500Y-90689118D01*
X194183571Y-90611618D01*
X194183994Y-90576051D01*
X194184368Y-90535331D01*
X194184655Y-90494303D01*
X194184816Y-90457813D01*
X194184821Y-90455368D01*
X194185000Y-90376618D01*
X194262500Y-90376618D01*
X194340000Y-90376618D01*
X194340000Y-90454118D01*
X194340000Y-90531618D01*
X194420000Y-90531618D01*
X194500000Y-90531618D01*
X194500000Y-90374118D01*
X194500000Y-90216618D01*
X194420000Y-90216618D01*
X194340000Y-90216618D01*
X194340000Y-90136618D01*
X194340000Y-90056618D01*
X194497500Y-90056618D01*
X194655000Y-90056618D01*
X194655131Y-90134118D01*
X194655180Y-90168820D01*
X194655221Y-90208982D01*
X194655249Y-90250061D01*
X194655262Y-90287518D01*
X194655263Y-90294118D01*
X194655253Y-90330317D01*
X194655227Y-90371040D01*
X194655189Y-90411744D01*
X194655141Y-90447889D01*
X194655131Y-90454118D01*
X194655000Y-90531618D01*
X194577500Y-90531618D01*
X194500000Y-90531618D01*
X194500000Y-90611618D01*
X194500000Y-90691618D01*
X194657500Y-90691618D01*
X194815000Y-90691618D01*
X194815000Y-90611618D01*
X194815000Y-90531618D01*
X194895000Y-90531618D01*
X194975000Y-90531618D01*
X194975000Y-90691744D01*
X194975000Y-90851871D01*
X195053750Y-90850494D01*
X195132500Y-90849118D01*
X195133876Y-90770367D01*
X195135253Y-90691617D01*
X195370000Y-90691617D01*
X195604746Y-90691617D01*
X195606123Y-90770367D01*
X195607500Y-90849118D01*
X195686250Y-90850494D01*
X195765000Y-90851871D01*
X195765000Y-91086744D01*
X195765000Y-91321618D01*
X195687500Y-91321618D01*
X195610000Y-91321618D01*
X195610000Y-91244118D01*
X195610000Y-91166618D01*
X195530000Y-91166618D01*
X195450000Y-91166618D01*
X195450000Y-91244118D01*
X195450000Y-91321618D01*
X195370000Y-91321618D01*
X195290000Y-91321618D01*
X195290000Y-91244118D01*
X195290000Y-91166618D01*
X195210000Y-91166618D01*
X195130000Y-91166618D01*
X195130000Y-91244118D01*
X195130000Y-91321618D01*
X195052500Y-91321618D01*
X194975000Y-91321618D01*
X194975000Y-91244244D01*
X194975000Y-91166871D01*
X195053750Y-91165494D01*
X195132500Y-91164118D01*
X195132500Y-91086618D01*
X195132500Y-91009118D01*
X194973750Y-91007797D01*
X194831957Y-91006618D01*
X195289746Y-91006618D01*
X195450000Y-91006618D01*
X195610253Y-91006618D01*
X195608876Y-90927868D01*
X195607500Y-90849118D01*
X195450000Y-90849118D01*
X195292500Y-90849118D01*
X195291123Y-90927868D01*
X195289746Y-91006618D01*
X194831957Y-91006618D01*
X194815000Y-91006477D01*
X194815000Y-91163920D01*
X194815000Y-91321364D01*
X194736250Y-91322741D01*
X194657500Y-91324118D01*
X194656423Y-91404118D01*
X194656003Y-91440324D01*
X194655630Y-91481477D01*
X194655344Y-91522767D01*
X194655182Y-91559388D01*
X194655173Y-91562868D01*
X194655000Y-91641618D01*
X194577500Y-91641618D01*
X194500000Y-91641618D01*
X194500000Y-91721618D01*
X194500000Y-91801618D01*
X194577500Y-91801618D01*
X194655000Y-91801618D01*
X194655000Y-91879118D01*
X194655000Y-91956618D01*
X194735000Y-91956618D01*
X194815000Y-91956618D01*
X194815000Y-91879118D01*
X194815000Y-91801618D01*
X194892500Y-91801486D01*
X194927202Y-91801437D01*
X194967364Y-91801396D01*
X195008443Y-91801368D01*
X195045900Y-91801355D01*
X195052500Y-91801354D01*
X195088699Y-91801364D01*
X195129422Y-91801390D01*
X195170126Y-91801428D01*
X195206271Y-91801476D01*
X195212500Y-91801486D01*
X195290000Y-91801618D01*
X195290000Y-91959188D01*
X195290000Y-92116618D01*
X195210075Y-92116618D01*
X195130151Y-92116618D01*
X195130151Y-92274118D01*
X195130151Y-92431618D01*
X195210075Y-92431618D01*
X195290000Y-92431618D01*
X195290000Y-92511618D01*
X195290000Y-92591618D01*
X195370000Y-92591618D01*
X195450000Y-92591618D01*
X195450000Y-92668991D01*
X195450000Y-92746364D01*
X195371250Y-92747741D01*
X195292500Y-92749118D01*
X195291123Y-92827868D01*
X195289746Y-92906618D01*
X195369873Y-92906618D01*
X195450000Y-92906618D01*
X195450000Y-93144118D01*
X195450000Y-93381618D01*
X195370000Y-93381618D01*
X195290000Y-93381618D01*
X195290000Y-93301491D01*
X195290000Y-93221364D01*
X195211250Y-93222741D01*
X195132500Y-93224118D01*
X195131123Y-93302868D01*
X195129746Y-93381618D01*
X194814873Y-93381618D01*
X194500000Y-93381618D01*
X194500000Y-93304244D01*
X194500000Y-93226871D01*
X194578750Y-93225494D01*
X194657500Y-93224118D01*
X194657500Y-93066618D01*
X194657500Y-93063284D01*
X194815000Y-93063284D01*
X194815106Y-93101917D01*
X194815408Y-93137306D01*
X194815878Y-93168222D01*
X194816491Y-93193433D01*
X194817218Y-93211707D01*
X194818035Y-93221814D01*
X194818458Y-93223409D01*
X194824423Y-93224529D01*
X194838552Y-93225313D01*
X194859015Y-93225713D01*
X194883980Y-93225680D01*
X194897208Y-93225493D01*
X194972500Y-93224118D01*
X194973876Y-93145494D01*
X194975252Y-93066870D01*
X195053876Y-93065494D01*
X195132500Y-93064118D01*
X195132500Y-92906618D01*
X195132500Y-92749118D01*
X195053750Y-92747741D01*
X194975000Y-92746364D01*
X194975000Y-92826491D01*
X194975000Y-92906618D01*
X194895000Y-92906618D01*
X194815000Y-92906618D01*
X194815000Y-93063284D01*
X194657500Y-93063284D01*
X194657500Y-92909118D01*
X194421250Y-92907819D01*
X194202823Y-92906618D01*
X194185000Y-92906520D01*
X194184877Y-92827819D01*
X194184857Y-92808551D01*
X194184840Y-92780428D01*
X194184826Y-92744595D01*
X194184817Y-92702196D01*
X194184811Y-92654377D01*
X194184810Y-92602281D01*
X194184810Y-92591618D01*
X194500000Y-92591618D01*
X194737500Y-92591618D01*
X194975000Y-92591618D01*
X194975000Y-92354118D01*
X194975000Y-92116618D01*
X194737500Y-92116618D01*
X194500000Y-92116618D01*
X194500000Y-92354118D01*
X194500000Y-92591618D01*
X194184810Y-92591618D01*
X194184812Y-92547054D01*
X194184820Y-92489841D01*
X194184831Y-92432868D01*
X194184850Y-92354118D01*
X194184907Y-92116618D01*
X194104953Y-92116618D01*
X194025000Y-92116618D01*
X194025000Y-92193991D01*
X194025000Y-92271364D01*
X193946250Y-92272741D01*
X193867500Y-92274118D01*
X193866123Y-92352868D01*
X193864746Y-92431618D01*
X193944873Y-92431618D01*
X194025000Y-92431618D01*
X194025000Y-92511618D01*
X194025000Y-92591618D01*
X193867500Y-92591618D01*
X193710000Y-92591618D01*
X193709826Y-92512868D01*
X193709679Y-92477041D01*
X193709405Y-92436024D01*
X193709040Y-92394624D01*
X193708622Y-92357650D01*
X193708576Y-92354118D01*
X193707500Y-92274118D01*
X193628750Y-92272741D01*
X193550000Y-92271364D01*
X193550000Y-92351491D01*
X193550000Y-92431618D01*
X193312500Y-92431618D01*
X193075000Y-92431618D01*
X193075000Y-92511618D01*
X193075000Y-92591618D01*
X192757500Y-92591618D01*
X192440000Y-92591618D01*
X192440000Y-92434244D01*
X192440000Y-92431618D01*
X192754746Y-92431618D01*
X192834873Y-92431618D01*
X192915000Y-92431618D01*
X192915000Y-92351491D01*
X192915000Y-92271364D01*
X192836250Y-92272741D01*
X192757500Y-92274118D01*
X192756123Y-92352868D01*
X192754746Y-92431618D01*
X192440000Y-92431618D01*
X192439999Y-92276871D01*
X192518750Y-92275494D01*
X192597500Y-92274118D01*
X192598876Y-92195368D01*
X192600253Y-92116618D01*
X192520126Y-92116618D01*
X192440000Y-92116618D01*
X192440000Y-92036618D01*
X192757500Y-92036618D01*
X192757500Y-92114118D01*
X192836250Y-92115494D01*
X192915000Y-92116871D01*
X192915000Y-92193411D01*
X192915215Y-92220135D01*
X192915808Y-92243255D01*
X192916700Y-92260957D01*
X192917814Y-92271424D01*
X192918458Y-92273409D01*
X192924423Y-92274529D01*
X192938552Y-92275313D01*
X192959015Y-92275713D01*
X192983980Y-92275680D01*
X192997208Y-92275493D01*
X193072500Y-92274118D01*
X193073876Y-92195494D01*
X193075252Y-92116870D01*
X193153876Y-92115494D01*
X193232500Y-92114118D01*
X193232500Y-92036618D01*
X193232500Y-91959118D01*
X193153876Y-91957741D01*
X193075252Y-91956365D01*
X193073876Y-91877741D01*
X193072500Y-91799118D01*
X192995000Y-91799118D01*
X192917500Y-91799118D01*
X192916123Y-91877741D01*
X192914747Y-91956365D01*
X192836123Y-91957741D01*
X192757500Y-91959118D01*
X192757500Y-92036618D01*
X192440000Y-92036618D01*
X192440000Y-92036491D01*
X192440000Y-91959118D01*
X192440000Y-91956364D01*
X192361250Y-91957741D01*
X192282500Y-91959118D01*
X192281123Y-92037868D01*
X192279746Y-92116618D01*
X192202373Y-92116618D01*
X192125000Y-92116618D01*
X192125000Y-92036618D01*
X192125000Y-91956618D01*
X192205126Y-91956618D01*
X192285253Y-91956618D01*
X192283876Y-91877868D01*
X192282500Y-91799118D01*
X192203749Y-91797741D01*
X192124999Y-91796364D01*
X192124999Y-91718991D01*
X192125000Y-91641618D01*
X192202373Y-91641618D01*
X192279746Y-91641618D01*
X192281123Y-91720368D01*
X192282500Y-91799118D01*
X192361250Y-91800494D01*
X192440000Y-91801871D01*
X192440000Y-91721744D01*
X192440000Y-91641618D01*
X192520000Y-91641618D01*
X192600000Y-91641618D01*
X192600000Y-91561618D01*
X192600000Y-91481618D01*
X192757500Y-91481618D01*
X192915000Y-91481618D01*
X192915000Y-91561618D01*
X192915000Y-91641618D01*
X192834873Y-91641618D01*
X192754746Y-91641618D01*
X192756123Y-91720368D01*
X192757500Y-91799118D01*
X192836250Y-91800494D01*
X192915000Y-91801871D01*
X192915000Y-91721744D01*
X192915000Y-91641618D01*
X192995000Y-91641618D01*
X193075000Y-91641618D01*
X193075000Y-91721666D01*
X193075000Y-91801715D01*
X193233750Y-91801504D01*
X193277351Y-91801455D01*
X193321912Y-91801421D01*
X193365315Y-91801403D01*
X193405443Y-91801401D01*
X193440179Y-91801416D01*
X193467403Y-91801448D01*
X193471250Y-91801455D01*
X193550000Y-91801618D01*
X193550000Y-91879118D01*
X193550000Y-91956618D01*
X193470000Y-91956618D01*
X193390000Y-91956618D01*
X193390000Y-92036618D01*
X193390000Y-92116618D01*
X193310000Y-92116618D01*
X193230000Y-92116618D01*
X193230000Y-92193284D01*
X193230206Y-92220019D01*
X193230777Y-92243138D01*
X193231636Y-92260834D01*
X193232707Y-92271295D01*
X193233333Y-92273284D01*
X193239246Y-92274438D01*
X193253348Y-92275418D01*
X193273830Y-92276150D01*
X193298883Y-92276558D01*
X193313333Y-92276618D01*
X193390000Y-92276618D01*
X193390000Y-92196688D01*
X193390000Y-92193284D01*
X193390000Y-92116758D01*
X193406837Y-92116618D01*
X193705000Y-92116618D01*
X193705000Y-92193284D01*
X193705206Y-92220019D01*
X193705777Y-92243138D01*
X193706636Y-92260834D01*
X193707707Y-92271295D01*
X193708333Y-92273284D01*
X193714246Y-92274438D01*
X193728348Y-92275418D01*
X193748830Y-92276150D01*
X193773883Y-92276558D01*
X193788333Y-92276618D01*
X193865000Y-92276618D01*
X193865000Y-92196618D01*
X193865000Y-92116618D01*
X193785000Y-92116618D01*
X193705000Y-92116618D01*
X193406837Y-92116618D01*
X193548750Y-92115438D01*
X193707500Y-92114118D01*
X193707500Y-92057645D01*
X194180773Y-92057645D01*
X194180807Y-92080574D01*
X194181181Y-92098198D01*
X194181868Y-92108542D01*
X194182199Y-92110138D01*
X194185738Y-92112754D01*
X194194802Y-92114616D01*
X194210541Y-92115819D01*
X194234106Y-92116454D01*
X194262343Y-92116618D01*
X194340000Y-92116618D01*
X194340000Y-92036491D01*
X194340000Y-91956364D01*
X194261250Y-91957741D01*
X194182500Y-91959118D01*
X194181106Y-92031388D01*
X194180773Y-92057645D01*
X193707500Y-92057645D01*
X193707500Y-91956618D01*
X193865000Y-91956618D01*
X193945000Y-91956618D01*
X194025000Y-91956618D01*
X194025000Y-91879244D01*
X194025000Y-91801871D01*
X194103750Y-91800494D01*
X194182500Y-91799118D01*
X194183876Y-91720368D01*
X194185253Y-91641618D01*
X194105126Y-91641618D01*
X194025000Y-91641618D01*
X194025000Y-91582645D01*
X194180773Y-91582645D01*
X194180807Y-91605574D01*
X194181181Y-91623198D01*
X194181868Y-91633542D01*
X194182199Y-91635138D01*
X194184890Y-91637016D01*
X194191955Y-91638517D01*
X194204275Y-91639677D01*
X194222732Y-91640529D01*
X194248207Y-91641111D01*
X194281581Y-91641459D01*
X194323736Y-91641606D01*
X194342343Y-91641618D01*
X194500000Y-91641618D01*
X194500000Y-91404118D01*
X194500000Y-91166618D01*
X194420000Y-91166618D01*
X194340000Y-91166618D01*
X194340000Y-91323991D01*
X194340000Y-91481364D01*
X194261250Y-91482741D01*
X194182500Y-91484118D01*
X194181106Y-91556388D01*
X194180773Y-91582645D01*
X194025000Y-91582645D01*
X194025000Y-91561618D01*
X194025000Y-91481618D01*
X193945000Y-91481618D01*
X193865000Y-91481618D01*
X193865000Y-91719118D01*
X193865000Y-91956618D01*
X193707500Y-91956618D01*
X193707500Y-91719118D01*
X193707500Y-91324118D01*
X193628750Y-91322741D01*
X193550000Y-91321364D01*
X193550000Y-91401491D01*
X193550000Y-91481618D01*
X193312500Y-91481618D01*
X193075000Y-91481618D01*
X193075000Y-91404118D01*
X193075000Y-91326618D01*
X193153750Y-91326391D01*
X193189881Y-91326338D01*
X193231095Y-91326359D01*
X193272473Y-91326447D01*
X193309096Y-91326595D01*
X193311250Y-91326606D01*
X193390000Y-91327048D01*
X193390000Y-91246833D01*
X193390000Y-91243284D01*
X193390000Y-91166618D01*
X193705000Y-91166618D01*
X193705000Y-91243284D01*
X193705203Y-91270013D01*
X193705764Y-91293122D01*
X193706609Y-91310804D01*
X193707663Y-91321248D01*
X193708278Y-91323230D01*
X193713792Y-91323867D01*
X193728312Y-91324413D01*
X193750844Y-91324861D01*
X193780396Y-91325200D01*
X193815972Y-91325422D01*
X193856580Y-91325520D01*
X193901227Y-91325483D01*
X193947028Y-91325313D01*
X194182500Y-91324118D01*
X194183876Y-91245368D01*
X194185253Y-91166618D01*
X193945126Y-91166618D01*
X193705000Y-91166618D01*
X193390000Y-91166618D01*
X193152500Y-91166618D01*
X192915000Y-91166618D01*
X192915000Y-91244118D01*
X192915000Y-91321618D01*
X192836250Y-91321844D01*
X192800118Y-91321897D01*
X192758904Y-91321876D01*
X192717526Y-91321788D01*
X192680903Y-91321640D01*
X192678750Y-91321629D01*
X192600000Y-91321187D01*
X192600000Y-91401402D01*
X192600000Y-91481618D01*
X192362500Y-91481618D01*
X192125000Y-91481618D01*
X192125000Y-91561618D01*
X192125000Y-91641618D01*
X192045000Y-91641618D01*
X191965000Y-91641618D01*
X191964999Y-91718991D01*
X191964999Y-91796364D01*
X191886249Y-91797741D01*
X191807500Y-91799118D01*
X191806123Y-91877868D01*
X191804746Y-91956618D01*
X191884873Y-91956618D01*
X191965000Y-91956618D01*
X191965000Y-92036618D01*
X191965000Y-92116618D01*
X191887626Y-92116618D01*
X191810253Y-92116618D01*
X191808876Y-92037868D01*
X191807500Y-91959118D01*
X191648749Y-91957797D01*
X191490000Y-91956477D01*
X191490000Y-91876618D01*
X191490000Y-91796618D01*
X191412738Y-91796618D01*
X191335477Y-91796618D01*
X191333988Y-91715368D01*
X191333532Y-91679438D01*
X191333345Y-91639032D01*
X191333429Y-91598718D01*
X191333789Y-91563065D01*
X191333876Y-91557868D01*
X191335253Y-91481618D01*
X191730126Y-91481618D01*
X192125000Y-91481618D01*
X192125000Y-91404118D01*
X192125000Y-91326618D01*
X192203750Y-91326486D01*
X192229528Y-91326414D01*
X192263171Y-91326275D01*
X192302544Y-91326081D01*
X192345513Y-91325843D01*
X192389943Y-91325572D01*
X192433700Y-91325280D01*
X192440000Y-91325236D01*
X192597500Y-91324118D01*
X192598876Y-91245368D01*
X192600253Y-91166618D01*
X192520126Y-91166618D01*
X192440000Y-91166618D01*
X192440000Y-91086491D01*
X192439999Y-91006364D01*
X192361250Y-91007741D01*
X192282500Y-91009118D01*
X192281123Y-91087868D01*
X192279746Y-91166618D01*
X192042373Y-91166618D01*
X191805000Y-91166618D01*
X191805000Y-91244118D01*
X191805000Y-91321618D01*
X191727500Y-91321618D01*
X191650000Y-91321618D01*
X191650000Y-91244118D01*
X191650000Y-91166618D01*
X191570000Y-91166618D01*
X191490000Y-91166618D01*
X191489999Y-91243879D01*
X191489999Y-91321140D01*
X191408749Y-91322629D01*
X191372820Y-91323085D01*
X191332414Y-91323272D01*
X191292100Y-91323188D01*
X191256447Y-91322828D01*
X191251250Y-91322741D01*
X191175000Y-91321364D01*
X191175000Y-91244118D01*
X191175000Y-91166871D01*
X191253750Y-91165494D01*
X191332500Y-91164118D01*
X191332500Y-91086618D01*
X191332500Y-91009118D01*
X191253750Y-91007741D01*
X191175000Y-91006364D01*
X191175000Y-90849117D01*
X191175000Y-90691871D01*
X191189469Y-90691618D01*
X191330151Y-90691618D01*
X191330151Y-90849118D01*
X191330151Y-91006618D01*
X191570291Y-91006618D01*
X191810430Y-91006618D01*
X191964746Y-91006618D01*
X192125000Y-91006618D01*
X192285253Y-91006618D01*
X192283876Y-90927868D01*
X192282500Y-90849118D01*
X192125000Y-90849118D01*
X191967500Y-90849118D01*
X191966123Y-90927868D01*
X191964746Y-91006618D01*
X191810430Y-91006618D01*
X191809988Y-90927868D01*
X191809837Y-90891743D01*
X191809745Y-90850543D01*
X191809719Y-90809184D01*
X191809767Y-90772580D01*
X191809773Y-90770416D01*
X191810000Y-90691715D01*
X192046250Y-90690416D01*
X192282500Y-90689118D01*
X192282500Y-90611618D01*
X192282500Y-90534118D01*
X192203876Y-90532741D01*
X192125252Y-90531365D01*
X192123876Y-90452741D01*
X192122500Y-90374118D01*
X191965000Y-90374118D01*
X191807500Y-90374118D01*
X191806123Y-90452868D01*
X191804746Y-90531618D01*
X191727373Y-90531618D01*
X191650000Y-90531618D01*
X191650000Y-90689118D01*
X191650000Y-90846618D01*
X191570000Y-90846618D01*
X191490000Y-90846618D01*
X191490000Y-90769118D01*
X191490000Y-90691618D01*
X191410075Y-90691618D01*
X191330151Y-90691618D01*
X191189469Y-90691618D01*
X191253750Y-90690494D01*
X191332500Y-90689118D01*
X191332500Y-90611618D01*
X191332500Y-90534118D01*
X191253750Y-90532741D01*
X191189526Y-90531618D01*
X191329746Y-90531618D01*
X191409873Y-90531618D01*
X191490000Y-90531618D01*
X191490000Y-90451491D01*
X191490000Y-90371364D01*
X191411250Y-90372741D01*
X191332500Y-90374118D01*
X191331123Y-90452868D01*
X191329746Y-90531618D01*
X191189526Y-90531618D01*
X191175000Y-90531364D01*
X191175000Y-90454118D01*
X191175000Y-90376871D01*
X191253750Y-90375494D01*
X191332500Y-90374118D01*
X191333876Y-90295368D01*
X191335253Y-90216618D01*
X191492626Y-90216618D01*
X191650000Y-90216618D01*
X191650000Y-90136618D01*
X191650000Y-90056618D01*
X191727373Y-90056618D01*
X191804746Y-90056618D01*
X191806123Y-90135368D01*
X191807500Y-90214118D01*
X191886250Y-90215494D01*
X191965000Y-90216871D01*
X191965000Y-90136744D01*
X191965000Y-90056618D01*
X192202500Y-90056618D01*
X192440000Y-90056618D01*
X192440000Y-90136618D01*
X192440000Y-90216618D01*
X192282500Y-90216618D01*
X192125000Y-90216618D01*
X192125000Y-90296518D01*
X192125000Y-90376418D01*
X192598750Y-90375268D01*
X193072500Y-90374118D01*
X193073876Y-90295368D01*
X193075253Y-90216618D01*
X193232500Y-90216618D01*
X193390000Y-90216618D01*
X193390000Y-90294118D01*
X193390000Y-90371618D01*
X193311250Y-90371844D01*
X193275118Y-90371897D01*
X193233904Y-90371876D01*
X193192526Y-90371788D01*
X193155903Y-90371640D01*
X193153750Y-90371629D01*
X193075000Y-90371187D01*
X193075000Y-90531402D01*
X193075000Y-90691618D01*
X192917626Y-90691618D01*
X192760253Y-90691618D01*
X192758876Y-90612868D01*
X192757500Y-90534118D01*
X192598750Y-90532797D01*
X192440000Y-90531477D01*
X192440000Y-90611547D01*
X192440000Y-90691618D01*
X192359873Y-90691618D01*
X192279746Y-90691618D01*
X192281123Y-90770368D01*
X192282500Y-90849118D01*
X192362500Y-90850194D01*
X192398706Y-90850614D01*
X192439859Y-90850987D01*
X192481149Y-90851273D01*
X192517770Y-90851435D01*
X192521250Y-90851444D01*
X192600000Y-90851618D01*
X192600000Y-90929118D01*
X192600000Y-91006618D01*
X192917500Y-91006618D01*
X193235000Y-91006618D01*
X193235000Y-90929118D01*
X193235000Y-90851618D01*
X193312500Y-90851618D01*
X193390000Y-90851618D01*
X193390000Y-90771618D01*
X193390000Y-90691618D01*
X193312500Y-90691618D01*
X193235000Y-90691618D01*
X193235000Y-90611618D01*
X193235000Y-90531618D01*
X193472626Y-90531618D01*
X193710253Y-90531618D01*
X193708876Y-90452868D01*
X193707500Y-90374118D01*
X193628798Y-90372741D01*
X193550097Y-90371364D01*
X193548798Y-90135241D01*
X193548742Y-90125038D01*
X193705916Y-90125038D01*
X193705998Y-90155808D01*
X193706228Y-90180911D01*
X193706598Y-90199069D01*
X193707098Y-90209002D01*
X193707326Y-90210368D01*
X193711190Y-90212927D01*
X193721238Y-90214750D01*
X193738497Y-90215915D01*
X193763997Y-90216505D01*
X193787343Y-90216618D01*
X193865000Y-90216618D01*
X193865000Y-90136618D01*
X193865000Y-90056618D01*
X193945000Y-90056618D01*
X194025000Y-90056618D01*
X194025000Y-89819118D01*
X194025000Y-89581618D01*
X194105126Y-89581618D01*
X194185253Y-89581618D01*
X194183876Y-89502868D01*
X194182500Y-89424118D01*
X194025000Y-89424118D01*
X193867500Y-89424118D01*
X193866123Y-89502741D01*
X193864747Y-89581365D01*
X193786123Y-89582741D01*
X193707500Y-89584118D01*
X193707500Y-89661618D01*
X193707500Y-89739118D01*
X193786250Y-89740494D01*
X193865000Y-89741871D01*
X193865000Y-89819118D01*
X193865000Y-89896364D01*
X193786250Y-89897741D01*
X193707500Y-89899118D01*
X193706233Y-90051618D01*
X193705991Y-90089882D01*
X193705916Y-90125038D01*
X193548742Y-90125038D01*
X193547500Y-89899118D01*
X193470000Y-89899118D01*
X193392500Y-89899118D01*
X193391123Y-89977868D01*
X193389746Y-90056618D01*
X193232373Y-90056618D01*
X193075000Y-90056618D01*
X193075000Y-89899118D01*
X193075000Y-89741618D01*
X193152373Y-89741618D01*
X193229746Y-89741617D01*
X193231123Y-89820368D01*
X193232500Y-89899118D01*
X193311250Y-89900494D01*
X193390000Y-89901871D01*
X193390000Y-89821744D01*
X193390000Y-89741618D01*
X193470000Y-89741618D01*
X193550000Y-89741618D01*
X193550000Y-89821744D01*
X193550000Y-89901871D01*
X193628750Y-89900494D01*
X193707500Y-89899118D01*
X193708876Y-89820368D01*
X193710253Y-89741617D01*
X193630126Y-89741618D01*
X193550000Y-89741618D01*
X193550000Y-89661618D01*
X193550000Y-89581618D01*
X193630126Y-89581617D01*
X193710253Y-89581617D01*
X193708876Y-89502867D01*
X193707500Y-89424118D01*
X193628750Y-89422741D01*
X193550000Y-89421364D01*
X193550000Y-89501491D01*
X193550000Y-89581618D01*
X193312500Y-89581618D01*
X193075000Y-89581618D01*
X193075000Y-89661618D01*
X193075000Y-89741618D01*
X192995000Y-89741618D01*
X192915000Y-89741618D01*
X192915000Y-89899118D01*
X192915000Y-90056618D01*
X192837500Y-90056618D01*
X192760000Y-90056618D01*
X192759773Y-89977868D01*
X192759720Y-89941736D01*
X192759741Y-89900522D01*
X192759829Y-89859144D01*
X192759977Y-89822521D01*
X192759988Y-89820368D01*
X192760430Y-89741618D01*
X192680215Y-89741618D01*
X192600000Y-89741618D01*
X192600000Y-89819118D01*
X192600000Y-89896618D01*
X192520000Y-89896618D01*
X192440000Y-89896618D01*
X192440000Y-89819118D01*
X192440000Y-89741618D01*
X192520000Y-89741618D01*
X192600000Y-89741618D01*
X192600000Y-89584118D01*
X192600000Y-89426618D01*
X192677500Y-89426618D01*
X192755000Y-89426618D01*
X192755178Y-89505368D01*
X192755327Y-89541316D01*
X192755606Y-89582169D01*
X192755974Y-89623083D01*
X192756395Y-89659210D01*
X192756428Y-89661618D01*
X192757500Y-89739118D01*
X192836250Y-89740494D01*
X192914999Y-89741871D01*
X192915000Y-89661744D01*
X192915000Y-89581618D01*
X192995000Y-89581618D01*
X193075000Y-89581618D01*
X193075000Y-89344118D01*
X193075000Y-89106618D01*
X193232500Y-89106618D01*
X193390000Y-89106618D01*
X193390000Y-89186618D01*
X193390000Y-89266618D01*
X193309873Y-89266617D01*
X193229746Y-89266617D01*
X193231123Y-89345367D01*
X193232500Y-89424118D01*
X193390000Y-89424118D01*
X193547500Y-89424118D01*
X193548876Y-89345367D01*
X193550253Y-89266617D01*
X193707626Y-89266617D01*
X193865000Y-89266618D01*
X193865000Y-89186618D01*
X193865000Y-89106618D01*
X193787738Y-89106617D01*
X193710477Y-89106617D01*
X193708988Y-89025367D01*
X193708532Y-88989438D01*
X193708345Y-88949032D01*
X193708429Y-88908718D01*
X193708789Y-88873065D01*
X193708876Y-88867868D01*
X193710253Y-88791618D01*
X193787626Y-88791618D01*
X193865000Y-88791618D01*
X193865000Y-88949118D01*
G37*
D11*
%TO.C,C44*%
X192740000Y-63995580D02*
X192740000Y-63714420D01*
X193760000Y-63995580D02*
X193760000Y-63714420D01*
D12*
%TO.C,IC4*%
X155220000Y-56076000D02*
X154020000Y-56076000D01*
D11*
%TO.C,R36*%
X167796359Y-56360000D02*
X168103641Y-56360000D01*
X167796359Y-57120000D02*
X168103641Y-57120000D01*
D12*
%TO.C,FB1*%
X178990000Y-89460000D02*
X178990000Y-89160000D01*
D11*
%TO.C,C19*%
X163097164Y-66140000D02*
X163312836Y-66140000D01*
X163097164Y-66860000D02*
X163312836Y-66860000D01*
%TO.C,R15*%
X148468641Y-70565000D02*
X148161359Y-70565000D01*
X148468641Y-71325000D02*
X148161359Y-71325000D01*
%TO.C,R11*%
X162011359Y-80390000D02*
X162318641Y-80390000D01*
X162011359Y-81150000D02*
X162318641Y-81150000D01*
%TO.C,R14*%
X172090000Y-86808641D02*
X172090000Y-86501359D01*
X172850000Y-86808641D02*
X172850000Y-86501359D01*
%TO.C,R32*%
X155100000Y-62006359D02*
X155100000Y-62313641D01*
X155860000Y-62006359D02*
X155860000Y-62313641D01*
%TO.C,R24*%
X167686359Y-68395000D02*
X167993641Y-68395000D01*
X167686359Y-69155000D02*
X167993641Y-69155000D01*
%TO.C,C12*%
X164212164Y-69490000D02*
X164427836Y-69490000D01*
X164212164Y-70210000D02*
X164427836Y-70210000D01*
%TO.C,C34*%
X203102164Y-74950000D02*
X203317836Y-74950000D01*
X203102164Y-74230000D02*
X203317836Y-74230000D01*
%TO.C,CH2-*%
X143326000Y-70500000D02*
X145726000Y-70500000D01*
X143326000Y-72900000D02*
X143326000Y-70500000D01*
X145726000Y-70500000D02*
X145726000Y-72900000D01*
X145726000Y-72900000D02*
X143326000Y-72900000D01*
%TO.C,C39*%
X186297000Y-61377164D02*
X186297000Y-61592836D01*
X187017000Y-61377164D02*
X187017000Y-61592836D01*
%TO.C,C31*%
X183755000Y-83237836D02*
X183755000Y-83022164D01*
X184475000Y-83237836D02*
X184475000Y-83022164D01*
%TO.C,R2*%
X155830000Y-55091359D02*
X155830000Y-55398641D01*
X156590000Y-55091359D02*
X156590000Y-55398641D01*
%TO.C,C24*%
X165190000Y-64427836D02*
X165190000Y-64212164D01*
X165910000Y-64427836D02*
X165910000Y-64212164D01*
%TO.C,R12*%
X167751359Y-80390000D02*
X168058641Y-80390000D01*
X167751359Y-81150000D02*
X168058641Y-81150000D01*
%TO.C,C5*%
X162027164Y-81510000D02*
X162242836Y-81510000D01*
X162027164Y-82230000D02*
X162242836Y-82230000D01*
%TO.C,C6*%
X168012836Y-81510000D02*
X167797164Y-81510000D01*
X168012836Y-82230000D02*
X167797164Y-82230000D01*
%TO.C,C18*%
X150970001Y-62052164D02*
X150970001Y-62267836D01*
X151690001Y-62052164D02*
X151690001Y-62267836D01*
%TO.C,TP2*%
X157500000Y-88600000D02*
G75*
G02*
X156100000Y-88600000I-700000J0D01*
G01*
X156100000Y-88600000D02*
G75*
G02*
X157500000Y-88600000I700000J0D01*
G01*
D12*
%TO.C,U12*%
X166615000Y-60570000D02*
X171515000Y-60570000D01*
X166615000Y-63770000D02*
X166615000Y-60570000D01*
X171515000Y-60570000D02*
X171515000Y-63770000D01*
X171515000Y-63770000D02*
X166615000Y-63770000D01*
X171645000Y-58720000D02*
X171645000Y-60220000D01*
%TO.C,S1*%
X195880000Y-53845000D02*
X201480000Y-53845000D01*
X197380000Y-52345000D02*
X198680000Y-52345000D01*
X197380000Y-53845000D02*
X197380000Y-52345000D01*
X198680000Y-52345000D02*
X198680000Y-53845000D01*
X198880000Y-56445000D02*
X200080000Y-56445000D01*
D13*
X200930000Y-58095000D02*
X200930000Y-58095000D01*
X200930000Y-58195000D02*
X200930000Y-58195000D01*
X200930000Y-58095000D02*
G75*
G02*
X200930000Y-58195000I0J-50000D01*
G01*
X200930000Y-58195000D02*
G75*
G02*
X200930000Y-58095000I0J50000D01*
G01*
D11*
%TO.C,J4*%
X184840000Y-54070000D02*
X184840000Y-56730000D01*
X189980000Y-54070000D02*
X184840000Y-54070000D01*
X189980000Y-54070000D02*
X189980000Y-56730000D01*
X189980000Y-56730000D02*
X184840000Y-56730000D01*
X191250000Y-54070000D02*
X192580000Y-54070000D01*
X192580000Y-54070000D02*
X192580000Y-55400000D01*
%TO.C,C27*%
X199035000Y-89282164D02*
X199035000Y-89497836D01*
X199755000Y-89282164D02*
X199755000Y-89497836D01*
D12*
%TO.C,SW3*%
X184064000Y-60235000D02*
X182464000Y-60235000D01*
X184064000Y-63135000D02*
X182464000Y-63135000D01*
D13*
X185964000Y-62410000D02*
X185964000Y-62410000D01*
X186064000Y-62410000D02*
X186064000Y-62410000D01*
X185964000Y-62410000D02*
G75*
G02*
X186064000Y-62410000I50000J0D01*
G01*
X186064000Y-62410000D02*
G75*
G02*
X185964000Y-62410000I-50000J0D01*
G01*
D11*
%TO.C,R9*%
X160956359Y-90215000D02*
X161263641Y-90215000D01*
X160956359Y-90975000D02*
X161263641Y-90975000D01*
D12*
%TO.C,U11*%
X159455000Y-65620000D02*
X159455000Y-64120000D01*
X159585000Y-60570000D02*
X164485000Y-60570000D01*
X159585000Y-63770000D02*
X159585000Y-60570000D01*
X164485000Y-60570000D02*
X164485000Y-63770000D01*
X164485000Y-63770000D02*
X159585000Y-63770000D01*
D11*
%TO.C,TP3*%
X174700000Y-86700000D02*
G75*
G02*
X173300000Y-86700000I-700000J0D01*
G01*
X173300000Y-86700000D02*
G75*
G02*
X174700000Y-86700000I700000J0D01*
G01*
%TO.C,C22*%
X168057836Y-57420000D02*
X167842164Y-57420000D01*
X168057836Y-58140000D02*
X167842164Y-58140000D01*
%TO.C,R28*%
X151663641Y-63640000D02*
X151356359Y-63640000D01*
X151663641Y-64400000D02*
X151356359Y-64400000D01*
D12*
%TO.C,U6*%
X152175000Y-75145000D02*
X152175000Y-73945000D01*
D13*
%TO.C,D3*%
X208555000Y-83110000D02*
G75*
G02*
X208455000Y-83110000I-50000J0D01*
G01*
X208455000Y-83110000D02*
G75*
G02*
X208555000Y-83110000I50000J0D01*
G01*
D11*
%TO.C,C30*%
X186740580Y-68390000D02*
X186459420Y-68390000D01*
X186740580Y-69410000D02*
X186459420Y-69410000D01*
%TO.C,R44*%
X200377359Y-63628000D02*
X200684641Y-63628000D01*
X200377359Y-64388000D02*
X200684641Y-64388000D01*
%TO.C,R17*%
X153518641Y-75690000D02*
X153211359Y-75690000D01*
X153518641Y-76450000D02*
X153211359Y-76450000D01*
D14*
%TO.C,IC3*%
X185295000Y-72840000D02*
G75*
G02*
X185045000Y-72840000I-125000J0D01*
G01*
X185045000Y-72840000D02*
G75*
G02*
X185295000Y-72840000I125000J0D01*
G01*
D12*
X200045000Y-86240000D02*
X186745000Y-86240000D01*
X200045000Y-72940000D02*
X200045000Y-86240000D01*
X186745000Y-86240000D02*
X186745000Y-72940000D01*
X186745000Y-72940000D02*
X200045000Y-72940000D01*
D11*
%TO.C,C41*%
X174970000Y-57067836D02*
X174970000Y-56852164D01*
X175690000Y-57067836D02*
X175690000Y-56852164D01*
%TO.C,CH2+*%
X143326000Y-73730000D02*
X145726000Y-73730000D01*
X143326000Y-76130000D02*
X143326000Y-73730000D01*
X145726000Y-73730000D02*
X145726000Y-76130000D01*
X145726000Y-76130000D02*
X143326000Y-76130000D01*
%TO.C,R39*%
X204946359Y-80730000D02*
X205253641Y-80730000D01*
X204946359Y-81490000D02*
X205253641Y-81490000D01*
%TO.C,R30*%
X155100000Y-60238641D02*
X155100000Y-59931359D01*
X155860000Y-60238641D02*
X155860000Y-59931359D01*
%TO.C,C21*%
X162072164Y-57420000D02*
X162287836Y-57420000D01*
X162072164Y-58140000D02*
X162287836Y-58140000D01*
D12*
%TO.C,U8*%
X166505000Y-72625000D02*
X171405000Y-72625000D01*
X166505000Y-75825000D02*
X166505000Y-72625000D01*
X171405000Y-72625000D02*
X171405000Y-75825000D01*
X171405000Y-75825000D02*
X166505000Y-75825000D01*
X171535000Y-70775000D02*
X171535000Y-72275000D01*
D11*
%TO.C,R46*%
X197110000Y-63406359D02*
X197110000Y-63713641D01*
X197870000Y-63406359D02*
X197870000Y-63713641D01*
%TO.C,C26*%
X187510000Y-89262164D02*
X187510000Y-89477836D01*
X188230000Y-89262164D02*
X188230000Y-89477836D01*
D14*
%TO.C,U5*%
X146540002Y-71995000D02*
G75*
G02*
X146290002Y-71995000I-125000J0D01*
G01*
X146290002Y-71995000D02*
G75*
G02*
X146540002Y-71995000I125000J0D01*
G01*
D11*
%TO.C,C28*%
X203092164Y-73220000D02*
X203307836Y-73220000D01*
X203092164Y-73940000D02*
X203307836Y-73940000D01*
%TO.C,C20*%
X164327164Y-57420000D02*
X164542836Y-57420000D01*
X164327164Y-58140000D02*
X164542836Y-58140000D01*
%TO.C,R25*%
X167698641Y-78220000D02*
X167391359Y-78220000D01*
X167698641Y-78980000D02*
X167391359Y-78980000D01*
%TO.C,C8*%
X165155000Y-88552836D02*
X165155000Y-88337164D01*
X165875000Y-88552836D02*
X165875000Y-88337164D01*
%TO.C,C25*%
X183667836Y-75700000D02*
X183452164Y-75700000D01*
X183667836Y-76420000D02*
X183452164Y-76420000D01*
%TO.C,C40*%
X175190000Y-65959420D02*
X175190000Y-66240580D01*
X176210000Y-65959420D02*
X176210000Y-66240580D01*
%TO.C,CH1+*%
X143326000Y-85795000D02*
X145726000Y-85795000D01*
X143326000Y-88195000D02*
X143326000Y-85795000D01*
X145726000Y-85795000D02*
X145726000Y-88195000D01*
X145726000Y-88195000D02*
X143326000Y-88195000D01*
%TO.C,R1*%
X153315641Y-56516000D02*
X153008359Y-56516000D01*
X153315641Y-57276000D02*
X153008359Y-57276000D01*
%TO.C,R45*%
X176050000Y-57113641D02*
X176050000Y-56806359D01*
X176810000Y-57113641D02*
X176810000Y-56806359D01*
%TO.C,CH3+*%
X143326000Y-61919000D02*
X145726000Y-61919000D01*
X143326000Y-64319000D02*
X143326000Y-61919000D01*
X145726000Y-61919000D02*
X145726000Y-64319000D01*
X145726000Y-64319000D02*
X143326000Y-64319000D01*
D13*
%TO.C,Y1*%
X184148400Y-78525000D02*
G75*
G02*
X184048400Y-78525000I-50000J0D01*
G01*
X184048400Y-78525000D02*
G75*
G02*
X184148400Y-78525000I50000J0D01*
G01*
X184148400Y-78525000D02*
X184148400Y-78525000D01*
X184048400Y-78525000D02*
X184048400Y-78525000D01*
D11*
%TO.C,C14*%
X167952836Y-69490000D02*
X167737164Y-69490000D01*
X167952836Y-70210000D02*
X167737164Y-70210000D01*
%TO.C,C32*%
X182695000Y-83237836D02*
X182695000Y-83022164D01*
X183415000Y-83237836D02*
X183415000Y-83022164D01*
%TO.C,R5*%
X153598641Y-87695000D02*
X153291359Y-87695000D01*
X153598641Y-88455000D02*
X153291359Y-88455000D01*
%TO.C,C15*%
X172045000Y-72107836D02*
X172045000Y-71892164D01*
X172765000Y-72107836D02*
X172765000Y-71892164D01*
%TO.C,R42*%
X182860000Y-69056359D02*
X182860000Y-69363641D01*
X183620000Y-69056359D02*
X183620000Y-69363641D01*
%TO.C,C10*%
X150765000Y-73987164D02*
X150765000Y-74202836D01*
X151485000Y-73987164D02*
X151485000Y-74202836D01*
D12*
%TO.C,U19*%
X158590000Y-60050000D02*
X158590000Y-61250000D01*
D11*
%TO.C,R16*%
X151528641Y-75690000D02*
X151221359Y-75690000D01*
X151528641Y-76450000D02*
X151221359Y-76450000D01*
%TO.C,R13*%
X167763641Y-90215000D02*
X167456359Y-90215000D01*
X167763641Y-90975000D02*
X167456359Y-90975000D01*
%TO.C,R38*%
X172135000Y-62763641D02*
X172135000Y-62456359D01*
X172895000Y-62763641D02*
X172895000Y-62456359D01*
%TO.C,C1*%
X150915001Y-84012164D02*
X150915001Y-84227836D01*
X151635001Y-84012164D02*
X151635001Y-84227836D01*
D12*
%TO.C,U4*%
X166570000Y-84695000D02*
X171470000Y-84695000D01*
X166570000Y-87895000D02*
X166570000Y-84695000D01*
X171470000Y-84695000D02*
X171470000Y-87895000D01*
X171470000Y-87895000D02*
X166570000Y-87895000D01*
X171600000Y-82845000D02*
X171600000Y-84345000D01*
D11*
%TO.C,C23*%
X172155000Y-60067836D02*
X172155000Y-59852164D01*
X172875000Y-60067836D02*
X172875000Y-59852164D01*
%TO.C,R40*%
X204946359Y-82720000D02*
X205253641Y-82720000D01*
X204946359Y-83480000D02*
X205253641Y-83480000D01*
%TO.C,C4*%
X164282164Y-81510000D02*
X164497836Y-81510000D01*
X164282164Y-82230000D02*
X164497836Y-82230000D01*
%TO.C,TP7*%
X158500000Y-56600000D02*
G75*
G02*
X157100000Y-56600000I-700000J0D01*
G01*
X157100000Y-56600000D02*
G75*
G02*
X158500000Y-56600000I700000J0D01*
G01*
D14*
%TO.C,U1*%
X146620002Y-83981000D02*
G75*
G02*
X146370002Y-83981000I-125000J0D01*
G01*
X146370002Y-83981000D02*
G75*
G02*
X146620002Y-83981000I125000J0D01*
G01*
%TO.C,IC1*%
X197025000Y-60610000D02*
G75*
G02*
X196775000Y-60610000I-125000J0D01*
G01*
X196775000Y-60610000D02*
G75*
G02*
X197025000Y-60610000I125000J0D01*
G01*
D11*
%TO.C,C3*%
X163052164Y-90235000D02*
X163267836Y-90235000D01*
X163052164Y-90955000D02*
X163267836Y-90955000D01*
D12*
%TO.C,U3*%
X159430000Y-89745000D02*
X159430000Y-88245000D01*
X159560000Y-84695000D02*
X164460000Y-84695000D01*
X159560000Y-87895000D02*
X159560000Y-84695000D01*
X164460000Y-84695000D02*
X164460000Y-87895000D01*
X164460000Y-87895000D02*
X159560000Y-87895000D01*
D11*
%TO.C,TP6*%
X173000000Y-79000000D02*
G75*
G02*
X171600000Y-79000000I-700000J0D01*
G01*
X171600000Y-79000000D02*
G75*
G02*
X173000000Y-79000000I700000J0D01*
G01*
%TO.C,R4*%
X151608641Y-87695000D02*
X151301359Y-87695000D01*
X151608641Y-88455000D02*
X151301359Y-88455000D01*
%TO.C,C16*%
X165077500Y-76507836D02*
X165077500Y-76292164D01*
X165797500Y-76507836D02*
X165797500Y-76292164D01*
%TO.C,R18*%
X154982500Y-72068641D02*
X154982500Y-71761359D01*
X155742500Y-72068641D02*
X155742500Y-71761359D01*
%TO.C,TP9*%
X173400000Y-66600000D02*
G75*
G02*
X172000000Y-66600000I-700000J0D01*
G01*
X172000000Y-66600000D02*
G75*
G02*
X173400000Y-66600000I700000J0D01*
G01*
D13*
%TO.C,D1*%
X204086000Y-64032000D02*
G75*
G02*
X203986000Y-64032000I-50000J0D01*
G01*
X203986000Y-64032000D02*
G75*
G02*
X204086000Y-64032000I50000J0D01*
G01*
D11*
%TO.C,R29*%
X153653641Y-63640000D02*
X153346359Y-63640000D01*
X153653641Y-64400000D02*
X153346359Y-64400000D01*
%TO.C,R27*%
X148468641Y-58630000D02*
X148161359Y-58630000D01*
X148468641Y-59390000D02*
X148161359Y-59390000D01*
D12*
%TO.C,U2*%
X152255000Y-87025000D02*
X152255000Y-85825000D01*
D11*
%TO.C,R22*%
X159773641Y-69470000D02*
X159466359Y-69470000D01*
X159773641Y-70230000D02*
X159466359Y-70230000D01*
%TO.C,R33*%
X161001359Y-66120000D02*
X161308641Y-66120000D01*
X161001359Y-66880000D02*
X161308641Y-66880000D01*
D12*
%TO.C,U17*%
X158560000Y-83925000D02*
X158560000Y-85125000D01*
D11*
%TO.C,REF*%
X143326000Y-66364000D02*
X145726000Y-66364000D01*
X143326000Y-68764000D02*
X143326000Y-66364000D01*
X145726000Y-66364000D02*
X145726000Y-68764000D01*
X145726000Y-68764000D02*
X143326000Y-68764000D01*
%TO.C,R21*%
X160891359Y-78195000D02*
X161198641Y-78195000D01*
X160891359Y-78955000D02*
X161198641Y-78955000D01*
%TO.C,C43*%
X195879420Y-58875000D02*
X196160580Y-58875000D01*
X195879420Y-59895000D02*
X196160580Y-59895000D01*
%TO.C,C11*%
X162987164Y-78215000D02*
X163202836Y-78215000D01*
X162987164Y-78935000D02*
X163202836Y-78935000D01*
%TO.C,R43*%
X186140000Y-66266359D02*
X186140000Y-66573641D01*
X186900000Y-66266359D02*
X186900000Y-66573641D01*
%TO.C,R26*%
X172025000Y-74738641D02*
X172025000Y-74431359D01*
X172785000Y-74738641D02*
X172785000Y-74431359D01*
%TO.C,C33*%
X198035000Y-89282164D02*
X198035000Y-89497836D01*
X198755000Y-89282164D02*
X198755000Y-89497836D01*
%TO.C,CH1-*%
X143326000Y-82620000D02*
X145726000Y-82620000D01*
X143326000Y-85020000D02*
X143326000Y-82620000D01*
X145726000Y-82620000D02*
X145726000Y-85020000D01*
X145726000Y-85020000D02*
X143326000Y-85020000D01*
D14*
%TO.C,U9*%
X146675002Y-60050000D02*
G75*
G02*
X146425002Y-60050000I-125000J0D01*
G01*
X146425002Y-60050000D02*
G75*
G02*
X146675002Y-60050000I125000J0D01*
G01*
D11*
%TO.C,R23*%
X161936359Y-68395000D02*
X162243641Y-68395000D01*
X161936359Y-69155000D02*
X162243641Y-69155000D01*
%TO.C,C35*%
X183637836Y-74580000D02*
X183422164Y-74580000D01*
X183637836Y-75300000D02*
X183422164Y-75300000D01*
%TO.C,R34*%
X159888641Y-57400000D02*
X159581359Y-57400000D01*
X159888641Y-58160000D02*
X159581359Y-58160000D01*
D12*
%TO.C,U7*%
X159340000Y-77675000D02*
X159340000Y-76175000D01*
X159470000Y-72625000D02*
X164370000Y-72625000D01*
X159470000Y-75825000D02*
X159470000Y-72625000D01*
X164370000Y-72625000D02*
X164370000Y-75825000D01*
X164370000Y-75825000D02*
X159470000Y-75825000D01*
D11*
%TO.C,R31*%
X156483641Y-58012500D02*
X156176359Y-58012500D01*
X156483641Y-58772500D02*
X156176359Y-58772500D01*
%TO.C,R41*%
X204946359Y-84710000D02*
X205253641Y-84710000D01*
X204946359Y-85470000D02*
X205253641Y-85470000D01*
%TO.C,C37*%
X180869000Y-77362164D02*
X180869000Y-77577836D01*
X181589000Y-77362164D02*
X181589000Y-77577836D01*
%TO.C,R3*%
X148558641Y-82570000D02*
X148251359Y-82570000D01*
X148558641Y-83330000D02*
X148251359Y-83330000D01*
%TO.C,TP4*%
X155300000Y-68000000D02*
G75*
G02*
X153900000Y-68000000I-700000J0D01*
G01*
X153900000Y-68000000D02*
G75*
G02*
X155300000Y-68000000I700000J0D01*
G01*
%TO.C,TP1*%
X155300000Y-80400000D02*
G75*
G02*
X153900000Y-80400000I-700000J0D01*
G01*
X153900000Y-80400000D02*
G75*
G02*
X155300000Y-80400000I700000J0D01*
G01*
%TO.C,J1*%
X205940000Y-63290000D02*
X205940000Y-60690000D01*
X208600000Y-60690000D02*
X205940000Y-60690000D01*
X208600000Y-63290000D02*
X205940000Y-63290000D01*
X208600000Y-63290000D02*
X208600000Y-60690000D01*
X208600000Y-64560000D02*
X208600000Y-65890000D01*
X208600000Y-65890000D02*
X207270000Y-65890000D01*
%TO.C,C13*%
X161957164Y-69490000D02*
X162172836Y-69490000D01*
X161957164Y-70210000D02*
X162172836Y-70210000D01*
%TO.C,C29*%
X187012836Y-69830000D02*
X186797164Y-69830000D01*
X187012836Y-70550000D02*
X186797164Y-70550000D01*
%TO.C,TP5*%
X157500000Y-76900000D02*
G75*
G02*
X156100000Y-76900000I-700000J0D01*
G01*
X156100000Y-76900000D02*
G75*
G02*
X157500000Y-76900000I700000J0D01*
G01*
%TO.C,C7*%
X172110000Y-84227836D02*
X172110000Y-84012164D01*
X172830000Y-84227836D02*
X172830000Y-84012164D01*
%TO.C,R7*%
X156403641Y-81970000D02*
X156096359Y-81970000D01*
X156403641Y-82730000D02*
X156096359Y-82730000D01*
%TO.C,R8*%
X155027500Y-86016359D02*
X155027500Y-86323641D01*
X155787500Y-86016359D02*
X155787500Y-86323641D01*
%TO.C,C17*%
X150970001Y-59892164D02*
X150970001Y-60107836D01*
X151690001Y-59892164D02*
X151690001Y-60107836D01*
%TO.C,R35*%
X162051359Y-56290000D02*
X162358641Y-56290000D01*
X162051359Y-57050000D02*
X162358641Y-57050000D01*
%TO.C,R20*%
X154982500Y-73941359D02*
X154982500Y-74248641D01*
X155742500Y-73941359D02*
X155742500Y-74248641D01*
%TO.C,CH3-*%
X143300000Y-58600000D02*
X145700000Y-58600000D01*
X143300000Y-61000000D02*
X143300000Y-58600000D01*
X145700000Y-58600000D02*
X145700000Y-61000000D01*
X145700000Y-61000000D02*
X143300000Y-61000000D01*
%TO.C,J2*%
X205880000Y-67135000D02*
X207210000Y-67135000D01*
X205880000Y-68465000D02*
X205880000Y-67135000D01*
X205880000Y-69735000D02*
X205880000Y-79955000D01*
X205880000Y-69735000D02*
X208540000Y-69735000D01*
X205880000Y-79955000D02*
X208540000Y-79955000D01*
X208540000Y-69735000D02*
X208540000Y-79955000D01*
D13*
%TO.C,SW2*%
X181085300Y-64478600D02*
X181085300Y-64478600D01*
X181185300Y-64478600D02*
X181185300Y-64478600D01*
D12*
X182443500Y-67655000D02*
X184043500Y-67655000D01*
D13*
X181085300Y-64478600D02*
G75*
G02*
X181185300Y-64478600I50000J0D01*
G01*
X181185300Y-64478600D02*
G75*
G02*
X181085300Y-64478600I-50000J0D01*
G01*
%TO.C,D2*%
X208555000Y-81120000D02*
G75*
G02*
X208455000Y-81120000I-50000J0D01*
G01*
X208455000Y-81120000D02*
G75*
G02*
X208555000Y-81120000I50000J0D01*
G01*
D11*
%TO.C,R19*%
X156413641Y-69845000D02*
X156106359Y-69845000D01*
X156413641Y-70605000D02*
X156106359Y-70605000D01*
%TO.C,C42*%
X173450000Y-56610580D02*
X173450000Y-56329420D01*
X174470000Y-56610580D02*
X174470000Y-56329420D01*
D12*
%TO.C,U18*%
X158520000Y-72045000D02*
X158520000Y-73245000D01*
D11*
%TO.C,R37*%
X167783641Y-66120000D02*
X167476359Y-66120000D01*
X167783641Y-66880000D02*
X167476359Y-66880000D01*
D12*
%TO.C,U10*%
X152310000Y-63150000D02*
X152310000Y-61950000D01*
D11*
%TO.C,R10*%
X159843641Y-81490000D02*
X159536359Y-81490000D01*
X159843641Y-82250000D02*
X159536359Y-82250000D01*
D13*
%TO.C,D4*%
X208555000Y-85100000D02*
G75*
G02*
X208455000Y-85100000I-50000J0D01*
G01*
X208455000Y-85100000D02*
G75*
G02*
X208555000Y-85100000I50000J0D01*
G01*
D11*
%TO.C,TP8*%
X157500000Y-64400000D02*
G75*
G02*
X156100000Y-64400000I-700000J0D01*
G01*
X156100000Y-64400000D02*
G75*
G02*
X157500000Y-64400000I700000J0D01*
G01*
%TO.C,C9*%
X150765000Y-71812164D02*
X150765000Y-72027836D01*
X151485000Y-71812164D02*
X151485000Y-72027836D01*
%TO.C,C2*%
X150915001Y-86062164D02*
X150915001Y-86277836D01*
X151635001Y-86062164D02*
X151635001Y-86277836D01*
D12*
%TO.C,IC2*%
X173540000Y-64205000D02*
X173540000Y-62780000D01*
D11*
%TO.C,C38*%
X180869000Y-79521836D02*
X180869000Y-79306164D01*
X181589000Y-79521836D02*
X181589000Y-79306164D01*
%TO.C,R6*%
X155040000Y-84068641D02*
X155040000Y-83761359D01*
X155800000Y-84068641D02*
X155800000Y-83761359D01*
%TD*%
M02*
