M48
; DRILL file {KiCad 8.0.9-8.0.9-0~ubuntu24.04.1} date 2025-08-03T01:57:20-0300
; FORMAT={-:-/ absolute / inch / decimal}
; #@! TF.CreationDate,2025-08-03T01:57:20-03:00
; #@! TF.GenerationSoftware,Kicad,Pcbnew,8.0.9-8.0.9-0~ubuntu24.04.1
; #@! TF.FileFunction,Plated,1,4,PTH
FMAT,2
INCH
; #@! TA.AperFunction,Plated,PTH,ViaDrill
T1C0.0118
; #@! TA.AperFunction,Plated,PTH,ViaDrill
T2C0.0157
; #@! TA.AperFunction,Plated,PTH,ComponentDrill
T3C0.0394
; #@! TA.AperFunction,Plated,PTH,ComponentDrill
T4C0.0866
%
G90
G05
T1
X5.79Y-2.66
X5.91Y-2.19
X5.9622Y-2.5996
X6.0091Y-2.7531
X6.0102Y-3.2508
X6.0346Y-2.8972
X6.0449Y-2.2843
X6.0626Y-3.0402
X6.0969Y-2.7799
X6.0976Y-3.2445
X6.1165Y-3.5264
X6.155Y-2.33
X6.2287Y-2.1559
X6.2335Y-2.5449
X6.2354Y-3.0177
X6.2366Y-3.4811
X6.2555Y-2.9547
X6.2563Y-3.4224
X6.2614Y-2.4614
X6.3Y-2.2146
X6.3063Y-2.3949
X6.3118Y-2.8677
X6.3295Y-3.3598
X6.4807Y-3.087
X6.4811Y-2.9222
X6.4811Y-3.5618
X6.4827Y-2.6122
X6.4906Y-3.2618
X6.4992Y-2.3087
X6.522Y-3.1126
X6.524Y-2.6496
X6.528Y-3.2122
X6.5299Y-2.4307
X6.5303Y-3.5654
X6.5307Y-2.7362
X6.6248Y-2.961
X6.6323Y-3.4354
X6.635Y-2.4862
X6.6969Y-3.1701
X6.7268Y-3.089
X6.7295Y-3.5642
X6.7307Y-2.6169
X6.9106Y-3.2394
X6.945Y-2.56
X7.1272Y-3.2614
X7.19Y-2.92
X7.3031Y-2.7638
X7.3552Y-3.0512
X7.3573Y-3.314
X7.3594Y-3.2701
X7.378Y-2.4018
X7.378Y-2.5787
X7.3858Y-2.6614
X7.3996Y-3.5291
X7.41Y-3.12
X7.4665Y-2.7335
X7.4921Y-2.5787
X7.4988Y-3.3657
X7.61Y-2.49
X7.6795Y-3.2783
X7.687Y-2.6346
X7.8461Y-2.8972
T2
X6.7079Y-2.1866
X6.9555Y-3.5165
X6.9618Y-2.3228
X7.135Y-3.5161
X7.6598Y-2.2677
T3
X7.3295Y-2.1811
X7.4295Y-2.1811
X7.5295Y-2.1811
X8.1583Y-2.7189
X8.1583Y-2.8189
X8.1583Y-2.9189
X8.1583Y-3.0189
X8.1602Y-2.4417
X8.1602Y-2.5417
T4
X5.74Y-3.59
X5.7406Y-2.1874
X8.1528Y-2.1874
X8.1528Y-3.59
M30
