%TF.GenerationSoftware,KiCad,Pcbnew,8.0.9-8.0.9-0~ubuntu24.04.1*%
%TF.CreationDate,2025-08-03T01:57:10-03:00*%
%TF.ProjectId,eeg,6565672e-6b69-4636-9164-5f7063625858,rev?*%
%TF.SameCoordinates,Original*%
%TF.FileFunction,Copper,L3,Inr*%
%TF.FilePolarity,Positive*%
%FSLAX46Y46*%
G04 Gerber Fmt 4.6, Leading zero omitted, Abs format (unit mm)*
G04 Created by KiCad (PCBNEW 8.0.9-8.0.9-0~ubuntu24.04.1) date 2025-08-03 01:57:10*
%MOMM*%
%LPD*%
G01*
G04 APERTURE LIST*
%TA.AperFunction,ComponentPad*%
%ADD10C,3.800000*%
%TD*%
%TA.AperFunction,ComponentPad*%
%ADD11R,1.700000X1.700000*%
%TD*%
%TA.AperFunction,ComponentPad*%
%ADD12O,1.700000X1.700000*%
%TD*%
%TA.AperFunction,ViaPad*%
%ADD13C,0.600000*%
%TD*%
%TA.AperFunction,ViaPad*%
%ADD14C,0.800000*%
%TD*%
%TA.AperFunction,Conductor*%
%ADD15C,0.300000*%
%TD*%
G04 APERTURE END LIST*
D10*
%TO.N,GND*%
%TO.C,H3*%
X207080000Y-55560000D03*
%TD*%
D11*
%TO.N,MCU_RX*%
%TO.C,J4*%
X191250000Y-55400000D03*
D12*
%TO.N,MCU_TX*%
X188710000Y-55400000D03*
%TO.N,GND*%
X186170000Y-55400000D03*
%TD*%
D10*
%TO.N,GNDA*%
%TO.C,H1*%
X145810000Y-55560000D03*
%TD*%
D11*
%TO.N,GND*%
%TO.C,J3*%
X207220000Y-76680000D03*
D12*
%TO.N,SWDIO*%
X207220000Y-74140000D03*
%TO.N,SWCLK*%
X207220000Y-71600000D03*
%TO.N,VIN_SWT*%
X207220000Y-69060000D03*
%TD*%
D11*
%TO.N,GND*%
%TO.C,J1*%
X207270000Y-64560000D03*
D12*
%TO.N,VIN_SWT*%
X207270000Y-62020000D03*
%TD*%
D10*
%TO.N,GNDA*%
%TO.C,H2*%
X145796000Y-91186000D03*
%TD*%
%TO.N,GND*%
%TO.C,H4*%
X207080000Y-91186000D03*
%TD*%
D13*
%TO.N,GND*%
X195060000Y-83270000D03*
X185500000Y-70200000D03*
X189650000Y-69430000D03*
D14*
X181230000Y-89310000D03*
D13*
X186821502Y-77500000D03*
X182626000Y-74168000D03*
%TO.N,RESET*%
X187400000Y-61005000D03*
X188214000Y-79248000D03*
%TO.N,BOOT*%
X190300000Y-65500000D03*
X187400000Y-65500000D03*
%TO.N,VBAT*%
X187950000Y-89640000D03*
X187600000Y-67600000D03*
X199290000Y-73590000D03*
X193294000Y-63246000D03*
X190470000Y-85490000D03*
X195250000Y-66920000D03*
%TO.N,VREF*%
X154860000Y-70610000D03*
X158210000Y-54760000D03*
X151440000Y-66030000D03*
X165080000Y-58640000D03*
X153990000Y-77220000D03*
X156337000Y-59182000D03*
X150114000Y-55626000D03*
X164620000Y-90470000D03*
X154880000Y-82410000D03*
X147066000Y-67564000D03*
X186875331Y-84175331D03*
X164660000Y-66350000D03*
X164610000Y-78410000D03*
X164860000Y-82850000D03*
%TO.N,VDDA33*%
X159040000Y-62520000D03*
X160180000Y-60830000D03*
X160320000Y-72840000D03*
X158890000Y-75050000D03*
X186930000Y-83060000D03*
X170930000Y-90530000D03*
X152630000Y-69930000D03*
D14*
X170380000Y-55540000D03*
D13*
X152660000Y-82570000D03*
X170960000Y-66470000D03*
X160770000Y-85340000D03*
X153540000Y-58020000D03*
X170860000Y-78460000D03*
X158910000Y-86930000D03*
D14*
%TO.N,VIN_BAT*%
X176830000Y-59000000D03*
X194560000Y-57600000D03*
D13*
X176403000Y-65024000D03*
%TO.N,GNDA*%
X168530000Y-63150000D03*
X165810000Y-81590000D03*
X158380000Y-76650000D03*
X168270000Y-75210000D03*
X175530000Y-82280000D03*
X153280000Y-73590000D03*
X165860000Y-61740000D03*
X181030000Y-82840000D03*
X165660000Y-79060000D03*
X165710000Y-67300000D03*
X170100000Y-80520000D03*
X164620000Y-74225000D03*
X155360000Y-89570000D03*
X160020000Y-56250000D03*
D14*
X176670000Y-89320000D03*
D13*
X165870000Y-90560000D03*
X168460000Y-87260000D03*
X165880000Y-69500000D03*
X158330000Y-64640000D03*
X158410000Y-88420000D03*
%TD*%
D15*
%TO.N,RESET*%
X191410000Y-63380000D02*
X189035000Y-61005000D01*
X189035000Y-61005000D02*
X187400000Y-61005000D01*
X188214000Y-79248000D02*
X191410000Y-76052000D01*
X191410000Y-76052000D02*
X191410000Y-63380000D01*
%TO.N,BOOT*%
X190300000Y-65500000D02*
X187400000Y-65500000D01*
%TO.N,VBAT*%
X190470000Y-85490000D02*
X190470000Y-88041000D01*
X190470000Y-88041000D02*
X188871000Y-89640000D01*
X188871000Y-89640000D02*
X187950000Y-89640000D01*
%TD*%
%TA.AperFunction,Conductor*%
%TO.N,GNDA*%
G36*
X177370000Y-86350000D02*
G01*
X179300524Y-86352105D01*
X177521249Y-87284106D01*
X177521249Y-87284107D01*
X177300000Y-87400000D01*
X177300000Y-86300000D01*
X177370667Y-86300000D01*
X177370000Y-86350000D01*
G37*
%TD.AperFunction*%
%TD*%
%TA.AperFunction,Conductor*%
%TO.N,GND*%
G36*
X207083471Y-52740695D02*
G01*
X207125848Y-52743074D01*
X207388738Y-52757837D01*
X207402541Y-52759393D01*
X207700530Y-52810024D01*
X207714087Y-52813118D01*
X208004533Y-52896794D01*
X208017657Y-52901387D01*
X208296899Y-53017052D01*
X208309421Y-53023081D01*
X208512943Y-53135564D01*
X208573968Y-53169292D01*
X208585742Y-53176690D01*
X208832248Y-53351595D01*
X208843120Y-53360265D01*
X209068495Y-53561671D01*
X209078328Y-53571504D01*
X209279734Y-53796879D01*
X209288404Y-53807751D01*
X209463309Y-54054257D01*
X209470707Y-54066031D01*
X209616914Y-54330571D01*
X209622947Y-54343100D01*
X209738612Y-54622342D01*
X209743205Y-54635466D01*
X209826881Y-54925912D01*
X209829975Y-54939469D01*
X209867280Y-55159029D01*
X209869031Y-55180177D01*
X209757085Y-91996626D01*
X209752240Y-92030576D01*
X209729206Y-92110530D01*
X209724613Y-92123656D01*
X209608947Y-92402900D01*
X209602914Y-92415428D01*
X209456707Y-92679968D01*
X209449309Y-92691742D01*
X209274404Y-92938248D01*
X209265734Y-92949120D01*
X209064328Y-93174495D01*
X209054495Y-93184328D01*
X208829120Y-93385734D01*
X208818248Y-93394404D01*
X208571742Y-93569309D01*
X208559968Y-93576707D01*
X208295428Y-93722914D01*
X208282899Y-93728947D01*
X208003657Y-93844612D01*
X207990533Y-93849205D01*
X207700087Y-93932881D01*
X207686530Y-93935975D01*
X207388549Y-93986605D01*
X207374730Y-93988162D01*
X207069472Y-94005304D01*
X207062500Y-94005499D01*
X180545355Y-94001171D01*
X180478319Y-93981475D01*
X180432572Y-93928664D01*
X180421377Y-93876799D01*
X180434335Y-89640000D01*
X187518104Y-89640000D01*
X187535598Y-89761678D01*
X187535599Y-89761682D01*
X187581438Y-89862054D01*
X187586666Y-89873501D01*
X187667168Y-89966405D01*
X187770584Y-90032866D01*
X187888535Y-90067500D01*
X188011465Y-90067500D01*
X188129416Y-90032866D01*
X188232832Y-89966405D01*
X188238126Y-89960296D01*
X188296904Y-89922523D01*
X188331838Y-89917500D01*
X188826854Y-89917500D01*
X188826870Y-89917501D01*
X188834466Y-89917501D01*
X188907533Y-89917501D01*
X188907534Y-89917501D01*
X188978111Y-89898589D01*
X189041389Y-89862056D01*
X190630179Y-88273263D01*
X190630184Y-88273260D01*
X190640387Y-88263056D01*
X190640389Y-88263056D01*
X190692056Y-88211389D01*
X190728589Y-88148111D01*
X190747500Y-88077534D01*
X190747500Y-85868807D01*
X190767185Y-85801768D01*
X190777780Y-85787612D01*
X190833334Y-85723501D01*
X190884401Y-85611679D01*
X190901896Y-85490000D01*
X190884401Y-85368321D01*
X190884400Y-85368317D01*
X190833334Y-85256500D01*
X190833334Y-85256499D01*
X190752832Y-85163595D01*
X190649416Y-85097134D01*
X190531465Y-85062500D01*
X190408535Y-85062500D01*
X190290584Y-85097134D01*
X190290582Y-85097134D01*
X190290582Y-85097135D01*
X190187169Y-85163594D01*
X190106667Y-85256497D01*
X190106665Y-85256500D01*
X190055599Y-85368317D01*
X190055598Y-85368321D01*
X190038104Y-85490000D01*
X190055598Y-85611678D01*
X190055599Y-85611682D01*
X190106665Y-85723499D01*
X190106666Y-85723501D01*
X190162213Y-85787605D01*
X190191238Y-85851159D01*
X190192500Y-85868807D01*
X190192500Y-87874693D01*
X190172815Y-87941732D01*
X190156181Y-87962374D01*
X188792374Y-89326181D01*
X188731051Y-89359666D01*
X188704693Y-89362500D01*
X188331838Y-89362500D01*
X188264799Y-89342815D01*
X188238126Y-89319704D01*
X188232834Y-89313597D01*
X188232831Y-89313594D01*
X188181124Y-89280364D01*
X188129416Y-89247134D01*
X188011465Y-89212500D01*
X187888535Y-89212500D01*
X187770584Y-89247134D01*
X187770582Y-89247134D01*
X187770582Y-89247135D01*
X187667169Y-89313594D01*
X187586667Y-89406497D01*
X187586665Y-89406500D01*
X187535599Y-89518317D01*
X187535598Y-89518321D01*
X187518104Y-89640000D01*
X180434335Y-89640000D01*
X180439621Y-87911849D01*
X180459510Y-87844871D01*
X180512454Y-87799278D01*
X180563820Y-87788229D01*
X186520000Y-87798026D01*
X187613400Y-86095032D01*
X187666184Y-86049254D01*
X187717745Y-86038026D01*
X188600000Y-86038026D01*
X188600000Y-80767026D01*
X188599999Y-80767025D01*
X180544712Y-80776873D01*
X180477648Y-80757270D01*
X180431829Y-80704522D01*
X180420561Y-80652315D01*
X180479307Y-67600000D01*
X187168104Y-67600000D01*
X187185598Y-67721678D01*
X187185599Y-67721682D01*
X187236665Y-67833499D01*
X187236666Y-67833501D01*
X187317168Y-67926405D01*
X187420584Y-67992866D01*
X187538535Y-68027500D01*
X187661465Y-68027500D01*
X187779416Y-67992866D01*
X187882832Y-67926405D01*
X187963334Y-67833501D01*
X188014401Y-67721679D01*
X188031896Y-67600000D01*
X188014401Y-67478321D01*
X188014400Y-67478317D01*
X187963334Y-67366500D01*
X187963334Y-67366499D01*
X187882832Y-67273595D01*
X187779416Y-67207134D01*
X187661465Y-67172500D01*
X187538535Y-67172500D01*
X187420584Y-67207134D01*
X187420582Y-67207134D01*
X187420582Y-67207135D01*
X187317169Y-67273594D01*
X187236667Y-67366497D01*
X187236665Y-67366500D01*
X187185599Y-67478317D01*
X187185598Y-67478321D01*
X187168104Y-67600000D01*
X180479307Y-67600000D01*
X180488759Y-65500000D01*
X186968104Y-65500000D01*
X186985598Y-65621678D01*
X186985599Y-65621682D01*
X187036665Y-65733499D01*
X187036666Y-65733501D01*
X187117168Y-65826405D01*
X187220584Y-65892866D01*
X187338535Y-65927500D01*
X187461465Y-65927500D01*
X187579416Y-65892866D01*
X187682832Y-65826405D01*
X187688126Y-65820296D01*
X187746904Y-65782523D01*
X187781838Y-65777500D01*
X189918162Y-65777500D01*
X189985201Y-65797185D01*
X190011874Y-65820296D01*
X190017168Y-65826405D01*
X190120584Y-65892866D01*
X190238535Y-65927500D01*
X190361465Y-65927500D01*
X190479416Y-65892866D01*
X190582832Y-65826405D01*
X190663334Y-65733501D01*
X190714401Y-65621679D01*
X190731896Y-65500000D01*
X190714401Y-65378321D01*
X190714400Y-65378317D01*
X190663334Y-65266500D01*
X190663334Y-65266499D01*
X190582832Y-65173595D01*
X190479416Y-65107134D01*
X190361465Y-65072500D01*
X190238535Y-65072500D01*
X190120584Y-65107134D01*
X190120582Y-65107134D01*
X190120582Y-65107135D01*
X190017168Y-65173594D01*
X190017165Y-65173597D01*
X190011874Y-65179704D01*
X189953096Y-65217477D01*
X189918162Y-65222500D01*
X187781838Y-65222500D01*
X187714799Y-65202815D01*
X187688126Y-65179704D01*
X187682834Y-65173597D01*
X187682831Y-65173594D01*
X187631124Y-65140364D01*
X187579416Y-65107134D01*
X187461465Y-65072500D01*
X187338535Y-65072500D01*
X187220584Y-65107134D01*
X187220582Y-65107134D01*
X187220582Y-65107135D01*
X187117169Y-65173594D01*
X187036667Y-65266497D01*
X187036665Y-65266500D01*
X186985599Y-65378317D01*
X186985598Y-65378321D01*
X186968104Y-65500000D01*
X180488759Y-65500000D01*
X180508990Y-61005000D01*
X186968104Y-61005000D01*
X186985598Y-61126678D01*
X186985599Y-61126682D01*
X187020591Y-61203302D01*
X187036666Y-61238501D01*
X187117168Y-61331405D01*
X187220584Y-61397866D01*
X187338535Y-61432500D01*
X187461465Y-61432500D01*
X187579416Y-61397866D01*
X187682832Y-61331405D01*
X187685858Y-61327911D01*
X187688126Y-61325296D01*
X187746904Y-61287523D01*
X187781838Y-61282500D01*
X188868693Y-61282500D01*
X188935732Y-61302185D01*
X188956374Y-61318819D01*
X191096181Y-63458625D01*
X191129666Y-63519948D01*
X191132500Y-63546306D01*
X191132500Y-75885693D01*
X191112815Y-75952732D01*
X191096181Y-75973374D01*
X188285374Y-78784181D01*
X188224051Y-78817666D01*
X188197693Y-78820500D01*
X188152535Y-78820500D01*
X188034584Y-78855134D01*
X188034582Y-78855134D01*
X188034582Y-78855135D01*
X187931169Y-78921594D01*
X187850667Y-79014497D01*
X187850665Y-79014500D01*
X187799599Y-79126317D01*
X187799598Y-79126321D01*
X187782104Y-79248000D01*
X187799598Y-79369678D01*
X187799599Y-79369682D01*
X187850665Y-79481499D01*
X187850666Y-79481501D01*
X187931168Y-79574405D01*
X188034584Y-79640866D01*
X188152535Y-79675500D01*
X188275465Y-79675500D01*
X188393416Y-79640866D01*
X188496832Y-79574405D01*
X188577334Y-79481501D01*
X188628401Y-79369679D01*
X188645896Y-79248000D01*
X188645895Y-79247998D01*
X188646647Y-79242773D01*
X188675672Y-79179218D01*
X188681690Y-79172753D01*
X191570179Y-76284263D01*
X191570184Y-76284260D01*
X191580387Y-76274056D01*
X191580389Y-76274056D01*
X191632056Y-76222389D01*
X191668589Y-76159111D01*
X191687501Y-76088534D01*
X191687501Y-76015466D01*
X191687501Y-76007871D01*
X191687500Y-76007853D01*
X191687500Y-75810297D01*
X206170000Y-75810297D01*
X206170000Y-76430000D01*
X206786988Y-76430000D01*
X206754075Y-76487007D01*
X206720000Y-76614174D01*
X206720000Y-76745826D01*
X206754075Y-76872993D01*
X206786988Y-76930000D01*
X206170000Y-76930000D01*
X206170000Y-77549702D01*
X206181602Y-77608033D01*
X206181603Y-77608034D01*
X206225808Y-77674191D01*
X206291965Y-77718396D01*
X206291966Y-77718397D01*
X206350297Y-77729999D01*
X206350301Y-77730000D01*
X206970000Y-77730000D01*
X206970000Y-77113012D01*
X207027007Y-77145925D01*
X207154174Y-77180000D01*
X207285826Y-77180000D01*
X207412993Y-77145925D01*
X207470000Y-77113012D01*
X207470000Y-77730000D01*
X208089699Y-77730000D01*
X208089702Y-77729999D01*
X208148033Y-77718397D01*
X208148034Y-77718396D01*
X208214191Y-77674191D01*
X208258396Y-77608034D01*
X208258397Y-77608033D01*
X208269999Y-77549702D01*
X208270000Y-77549699D01*
X208270000Y-76930000D01*
X207653012Y-76930000D01*
X207685925Y-76872993D01*
X207720000Y-76745826D01*
X207720000Y-76614174D01*
X207685925Y-76487007D01*
X207653012Y-76430000D01*
X208270000Y-76430000D01*
X208270000Y-75810301D01*
X208269999Y-75810297D01*
X208258397Y-75751966D01*
X208258396Y-75751965D01*
X208214191Y-75685808D01*
X208148034Y-75641603D01*
X208148033Y-75641602D01*
X208089702Y-75630000D01*
X207470000Y-75630000D01*
X207470000Y-76246988D01*
X207412993Y-76214075D01*
X207285826Y-76180000D01*
X207154174Y-76180000D01*
X207027007Y-76214075D01*
X206970000Y-76246988D01*
X206970000Y-75630000D01*
X206350297Y-75630000D01*
X206291966Y-75641602D01*
X206291965Y-75641603D01*
X206225808Y-75685808D01*
X206181603Y-75751965D01*
X206181602Y-75751966D01*
X206170000Y-75810297D01*
X191687500Y-75810297D01*
X191687500Y-74140000D01*
X206237770Y-74140000D01*
X206256643Y-74331626D01*
X206312538Y-74515884D01*
X206403302Y-74685692D01*
X206403306Y-74685699D01*
X206525458Y-74834541D01*
X206674300Y-74956693D01*
X206674307Y-74956697D01*
X206844115Y-75047461D01*
X206844117Y-75047462D01*
X207028376Y-75103357D01*
X207220000Y-75122230D01*
X207411624Y-75103357D01*
X207595883Y-75047462D01*
X207765698Y-74956694D01*
X207914541Y-74834541D01*
X208036694Y-74685698D01*
X208127462Y-74515883D01*
X208183357Y-74331624D01*
X208202230Y-74140000D01*
X208183357Y-73948376D01*
X208127462Y-73764117D01*
X208036694Y-73594302D01*
X208036693Y-73594300D01*
X207914541Y-73445458D01*
X207765699Y-73323306D01*
X207765692Y-73323302D01*
X207595884Y-73232538D01*
X207411626Y-73176643D01*
X207220000Y-73157770D01*
X207028373Y-73176643D01*
X206844115Y-73232538D01*
X206674307Y-73323302D01*
X206674300Y-73323306D01*
X206525458Y-73445458D01*
X206403306Y-73594300D01*
X206403302Y-73594307D01*
X206312538Y-73764115D01*
X206256643Y-73948373D01*
X206237770Y-74140000D01*
X191687500Y-74140000D01*
X191687500Y-73590000D01*
X198858104Y-73590000D01*
X198875598Y-73711678D01*
X198875599Y-73711682D01*
X198899546Y-73764117D01*
X198926666Y-73823501D01*
X199007168Y-73916405D01*
X199110584Y-73982866D01*
X199228535Y-74017500D01*
X199351465Y-74017500D01*
X199469416Y-73982866D01*
X199572832Y-73916405D01*
X199653334Y-73823501D01*
X199704401Y-73711679D01*
X199721896Y-73590000D01*
X199704401Y-73468321D01*
X199704400Y-73468317D01*
X199653334Y-73356500D01*
X199653334Y-73356499D01*
X199572832Y-73263595D01*
X199469416Y-73197134D01*
X199351465Y-73162500D01*
X199228535Y-73162500D01*
X199110584Y-73197134D01*
X199110582Y-73197134D01*
X199110582Y-73197135D01*
X199007169Y-73263594D01*
X198926667Y-73356497D01*
X198926665Y-73356500D01*
X198875599Y-73468317D01*
X198875598Y-73468321D01*
X198858104Y-73590000D01*
X191687500Y-73590000D01*
X191687500Y-71600000D01*
X206237770Y-71600000D01*
X206256643Y-71791626D01*
X206312538Y-71975884D01*
X206403302Y-72145692D01*
X206403306Y-72145699D01*
X206525458Y-72294541D01*
X206674300Y-72416693D01*
X206674307Y-72416697D01*
X206844115Y-72507461D01*
X206844117Y-72507462D01*
X207028376Y-72563357D01*
X207220000Y-72582230D01*
X207411624Y-72563357D01*
X207595883Y-72507462D01*
X207765698Y-72416694D01*
X207914541Y-72294541D01*
X208036694Y-72145698D01*
X208127462Y-71975883D01*
X208183357Y-71791624D01*
X208202230Y-71600000D01*
X208183357Y-71408376D01*
X208127462Y-71224117D01*
X208036694Y-71054302D01*
X208036693Y-71054300D01*
X207914541Y-70905458D01*
X207765699Y-70783306D01*
X207765692Y-70783302D01*
X207595884Y-70692538D01*
X207411626Y-70636643D01*
X207220000Y-70617770D01*
X207028373Y-70636643D01*
X206844115Y-70692538D01*
X206674307Y-70783302D01*
X206674300Y-70783306D01*
X206525458Y-70905458D01*
X206403306Y-71054300D01*
X206403302Y-71054307D01*
X206312538Y-71224115D01*
X206256643Y-71408373D01*
X206237770Y-71600000D01*
X191687500Y-71600000D01*
X191687500Y-69060000D01*
X206237770Y-69060000D01*
X206256643Y-69251626D01*
X206312538Y-69435884D01*
X206403302Y-69605692D01*
X206403306Y-69605699D01*
X206525458Y-69754541D01*
X206674300Y-69876693D01*
X206674307Y-69876697D01*
X206844115Y-69967461D01*
X206844117Y-69967462D01*
X207028376Y-70023357D01*
X207220000Y-70042230D01*
X207411624Y-70023357D01*
X207595883Y-69967462D01*
X207765698Y-69876694D01*
X207914541Y-69754541D01*
X208036694Y-69605698D01*
X208127462Y-69435883D01*
X208183357Y-69251624D01*
X208202230Y-69060000D01*
X208183357Y-68868376D01*
X208127462Y-68684117D01*
X208036694Y-68514302D01*
X208036693Y-68514300D01*
X207914541Y-68365458D01*
X207765699Y-68243306D01*
X207765692Y-68243302D01*
X207595884Y-68152538D01*
X207411626Y-68096643D01*
X207220000Y-68077770D01*
X207028373Y-68096643D01*
X206844115Y-68152538D01*
X206674307Y-68243302D01*
X206674300Y-68243306D01*
X206525458Y-68365458D01*
X206403306Y-68514300D01*
X206403302Y-68514307D01*
X206312538Y-68684115D01*
X206256643Y-68868373D01*
X206237770Y-69060000D01*
X191687500Y-69060000D01*
X191687500Y-66920000D01*
X194818104Y-66920000D01*
X194835598Y-67041678D01*
X194835599Y-67041682D01*
X194886665Y-67153499D01*
X194886666Y-67153501D01*
X194967168Y-67246405D01*
X195070584Y-67312866D01*
X195188535Y-67347500D01*
X195311465Y-67347500D01*
X195429416Y-67312866D01*
X195532832Y-67246405D01*
X195613334Y-67153501D01*
X195664401Y-67041679D01*
X195681896Y-66920000D01*
X195664401Y-66798321D01*
X195664400Y-66798317D01*
X195613334Y-66686500D01*
X195613334Y-66686499D01*
X195532832Y-66593595D01*
X195429416Y-66527134D01*
X195311465Y-66492500D01*
X195188535Y-66492500D01*
X195070584Y-66527134D01*
X195070582Y-66527134D01*
X195070582Y-66527135D01*
X194967169Y-66593594D01*
X194886667Y-66686497D01*
X194886665Y-66686500D01*
X194835599Y-66798317D01*
X194835598Y-66798321D01*
X194818104Y-66920000D01*
X191687500Y-66920000D01*
X191687500Y-63690297D01*
X206220000Y-63690297D01*
X206220000Y-64310000D01*
X206836988Y-64310000D01*
X206804075Y-64367007D01*
X206770000Y-64494174D01*
X206770000Y-64625826D01*
X206804075Y-64752993D01*
X206836988Y-64810000D01*
X206220000Y-64810000D01*
X206220000Y-65429702D01*
X206231602Y-65488033D01*
X206231603Y-65488034D01*
X206275808Y-65554191D01*
X206341965Y-65598396D01*
X206341966Y-65598397D01*
X206400297Y-65609999D01*
X206400301Y-65610000D01*
X207020000Y-65610000D01*
X207020000Y-64993012D01*
X207077007Y-65025925D01*
X207204174Y-65060000D01*
X207335826Y-65060000D01*
X207462993Y-65025925D01*
X207520000Y-64993012D01*
X207520000Y-65610000D01*
X208139699Y-65610000D01*
X208139702Y-65609999D01*
X208198033Y-65598397D01*
X208198034Y-65598396D01*
X208264191Y-65554191D01*
X208308396Y-65488034D01*
X208308397Y-65488033D01*
X208319999Y-65429702D01*
X208320000Y-65429699D01*
X208320000Y-64810000D01*
X207703012Y-64810000D01*
X207735925Y-64752993D01*
X207770000Y-64625826D01*
X207770000Y-64494174D01*
X207735925Y-64367007D01*
X207703012Y-64310000D01*
X208320000Y-64310000D01*
X208320000Y-63690301D01*
X208319999Y-63690297D01*
X208308397Y-63631966D01*
X208308396Y-63631965D01*
X208264191Y-63565808D01*
X208198034Y-63521603D01*
X208198033Y-63521602D01*
X208139702Y-63510000D01*
X207520000Y-63510000D01*
X207520000Y-64126988D01*
X207462993Y-64094075D01*
X207335826Y-64060000D01*
X207204174Y-64060000D01*
X207077007Y-64094075D01*
X207020000Y-64126988D01*
X207020000Y-63510000D01*
X206400297Y-63510000D01*
X206341966Y-63521602D01*
X206341965Y-63521603D01*
X206275808Y-63565808D01*
X206231603Y-63631965D01*
X206231602Y-63631966D01*
X206220000Y-63690297D01*
X191687500Y-63690297D01*
X191687500Y-63343468D01*
X191687500Y-63343466D01*
X191668589Y-63272889D01*
X191653065Y-63246000D01*
X192862104Y-63246000D01*
X192879598Y-63367678D01*
X192879599Y-63367682D01*
X192921132Y-63458625D01*
X192930666Y-63479501D01*
X193011168Y-63572405D01*
X193114584Y-63638866D01*
X193232535Y-63673500D01*
X193355465Y-63673500D01*
X193473416Y-63638866D01*
X193576832Y-63572405D01*
X193657334Y-63479501D01*
X193708401Y-63367679D01*
X193725896Y-63246000D01*
X193708401Y-63124321D01*
X193708400Y-63124317D01*
X193657334Y-63012500D01*
X193657334Y-63012499D01*
X193576832Y-62919595D01*
X193473416Y-62853134D01*
X193355465Y-62818500D01*
X193232535Y-62818500D01*
X193114584Y-62853134D01*
X193114582Y-62853134D01*
X193114582Y-62853135D01*
X193011169Y-62919594D01*
X192930667Y-63012497D01*
X192930665Y-63012500D01*
X192879599Y-63124317D01*
X192879598Y-63124321D01*
X192862104Y-63246000D01*
X191653065Y-63246000D01*
X191632056Y-63209611D01*
X191580389Y-63157944D01*
X191580388Y-63157943D01*
X191576058Y-63153613D01*
X191576047Y-63153603D01*
X190442444Y-62020000D01*
X206287770Y-62020000D01*
X206306643Y-62211626D01*
X206362538Y-62395884D01*
X206453302Y-62565692D01*
X206453306Y-62565699D01*
X206575458Y-62714541D01*
X206724300Y-62836693D01*
X206724307Y-62836697D01*
X206879397Y-62919594D01*
X206894117Y-62927462D01*
X207078376Y-62983357D01*
X207270000Y-63002230D01*
X207461624Y-62983357D01*
X207645883Y-62927462D01*
X207815698Y-62836694D01*
X207964541Y-62714541D01*
X208086694Y-62565698D01*
X208177462Y-62395883D01*
X208233357Y-62211624D01*
X208252230Y-62020000D01*
X208233357Y-61828376D01*
X208177462Y-61644117D01*
X208086694Y-61474302D01*
X208086693Y-61474300D01*
X207964541Y-61325458D01*
X207815699Y-61203306D01*
X207815692Y-61203302D01*
X207645884Y-61112538D01*
X207461626Y-61056643D01*
X207270000Y-61037770D01*
X207078373Y-61056643D01*
X206894115Y-61112538D01*
X206724307Y-61203302D01*
X206724300Y-61203306D01*
X206575458Y-61325458D01*
X206453306Y-61474300D01*
X206453302Y-61474307D01*
X206362538Y-61644115D01*
X206306643Y-61828373D01*
X206287770Y-62020000D01*
X190442444Y-62020000D01*
X189205390Y-60782945D01*
X189205388Y-60782943D01*
X189142111Y-60746411D01*
X189142104Y-60746408D01*
X189071536Y-60727499D01*
X189071534Y-60727499D01*
X188998466Y-60727499D01*
X188990870Y-60727499D01*
X188990854Y-60727500D01*
X187781838Y-60727500D01*
X187714799Y-60707815D01*
X187688126Y-60684704D01*
X187682834Y-60678597D01*
X187682831Y-60678594D01*
X187631124Y-60645364D01*
X187579416Y-60612134D01*
X187461465Y-60577500D01*
X187338535Y-60577500D01*
X187220584Y-60612134D01*
X187220582Y-60612134D01*
X187220582Y-60612135D01*
X187117169Y-60678594D01*
X187036667Y-60771497D01*
X187036665Y-60771500D01*
X186985599Y-60883317D01*
X186985598Y-60883321D01*
X186968104Y-61005000D01*
X180508990Y-61005000D01*
X180514934Y-59684399D01*
X180534919Y-59617454D01*
X180587929Y-59571937D01*
X180639469Y-59560964D01*
X194070000Y-59620000D01*
X195110000Y-58270000D01*
X195109999Y-58269999D01*
X195110000Y-58269998D01*
X194976455Y-58056040D01*
X194957657Y-57988747D01*
X194978225Y-57921973D01*
X194983271Y-57914897D01*
X195020771Y-57866026D01*
X195073923Y-57737705D01*
X195092052Y-57600000D01*
X195073923Y-57462295D01*
X195020771Y-57333974D01*
X194936218Y-57223782D01*
X194826026Y-57139229D01*
X194826025Y-57139228D01*
X194826023Y-57139227D01*
X194697708Y-57086078D01*
X194697703Y-57086076D01*
X194560001Y-57067948D01*
X194559999Y-57067948D01*
X194500782Y-57075744D01*
X194454053Y-57081895D01*
X194385019Y-57071130D01*
X194332764Y-57024751D01*
X194180000Y-56780000D01*
X193073678Y-57643707D01*
X193008721Y-57669445D01*
X192997273Y-57669966D01*
X180648506Y-57660227D01*
X180581482Y-57640490D01*
X180535769Y-57587649D01*
X180524605Y-57535669D01*
X180524936Y-57462296D01*
X180535343Y-55150000D01*
X185148590Y-55150000D01*
X185736988Y-55150000D01*
X185704075Y-55207007D01*
X185670000Y-55334174D01*
X185670000Y-55465826D01*
X185704075Y-55592993D01*
X185736988Y-55650000D01*
X185148590Y-55650000D01*
X185195233Y-55803766D01*
X185292728Y-55986166D01*
X185292732Y-55986173D01*
X185423944Y-56146055D01*
X185583826Y-56277267D01*
X185583833Y-56277271D01*
X185766233Y-56374766D01*
X185920000Y-56421410D01*
X185920000Y-55833012D01*
X185977007Y-55865925D01*
X186104174Y-55900000D01*
X186235826Y-55900000D01*
X186362993Y-55865925D01*
X186420000Y-55833012D01*
X186420000Y-56421410D01*
X186573766Y-56374766D01*
X186756166Y-56277271D01*
X186756173Y-56277267D01*
X186916055Y-56146055D01*
X187047267Y-55986173D01*
X187047271Y-55986166D01*
X187144766Y-55803766D01*
X187191410Y-55650000D01*
X186603012Y-55650000D01*
X186635925Y-55592993D01*
X186670000Y-55465826D01*
X186670000Y-55400000D01*
X187727770Y-55400000D01*
X187746643Y-55591626D01*
X187802538Y-55775884D01*
X187893302Y-55945692D01*
X187893306Y-55945699D01*
X188015458Y-56094541D01*
X188164300Y-56216693D01*
X188164307Y-56216697D01*
X188319685Y-56299748D01*
X188334117Y-56307462D01*
X188518376Y-56363357D01*
X188710000Y-56382230D01*
X188901624Y-56363357D01*
X189085883Y-56307462D01*
X189255698Y-56216694D01*
X189404541Y-56094541D01*
X189526694Y-55945698D01*
X189617462Y-55775883D01*
X189673357Y-55591624D01*
X189692230Y-55400000D01*
X189673357Y-55208376D01*
X189617462Y-55024117D01*
X189568546Y-54932602D01*
X189526697Y-54854307D01*
X189526693Y-54854300D01*
X189404541Y-54705458D01*
X189255699Y-54583306D01*
X189255692Y-54583302D01*
X189169892Y-54537441D01*
X190272500Y-54537441D01*
X190272500Y-56262558D01*
X190279898Y-56299749D01*
X190308077Y-56341922D01*
X190350250Y-56370101D01*
X190350252Y-56370102D01*
X190378205Y-56375662D01*
X190387441Y-56377500D01*
X190387442Y-56377500D01*
X192112559Y-56377500D01*
X192119957Y-56376028D01*
X192149748Y-56370102D01*
X192191922Y-56341922D01*
X192220102Y-56299748D01*
X192227500Y-56262558D01*
X192227500Y-55068971D01*
X196602500Y-55068971D01*
X196602500Y-55221029D01*
X196641856Y-55367907D01*
X196641857Y-55367910D01*
X196695296Y-55460468D01*
X196717885Y-55499593D01*
X196825407Y-55607115D01*
X196899686Y-55650000D01*
X196957089Y-55683142D01*
X196957090Y-55683142D01*
X196957093Y-55683144D01*
X197103971Y-55722500D01*
X197103974Y-55722500D01*
X197256026Y-55722500D01*
X197256029Y-55722500D01*
X197402907Y-55683144D01*
X197534593Y-55607115D01*
X197642115Y-55499593D01*
X197718144Y-55367907D01*
X197757500Y-55221029D01*
X197757500Y-55068971D01*
X199602500Y-55068971D01*
X199602500Y-55221029D01*
X199641856Y-55367907D01*
X199641857Y-55367910D01*
X199695296Y-55460468D01*
X199717885Y-55499593D01*
X199825407Y-55607115D01*
X199899686Y-55650000D01*
X199957089Y-55683142D01*
X199957090Y-55683142D01*
X199957093Y-55683144D01*
X200103971Y-55722500D01*
X200103974Y-55722500D01*
X200256026Y-55722500D01*
X200256029Y-55722500D01*
X200402907Y-55683144D01*
X200534593Y-55607115D01*
X200642115Y-55499593D01*
X200718144Y-55367907D01*
X200757500Y-55221029D01*
X200757500Y-55068971D01*
X200718144Y-54922093D01*
X200642115Y-54790407D01*
X200534593Y-54682885D01*
X200484466Y-54653944D01*
X200402910Y-54606857D01*
X200402911Y-54606857D01*
X200390866Y-54603629D01*
X200256029Y-54567500D01*
X200103971Y-54567500D01*
X199969133Y-54603629D01*
X199957089Y-54606857D01*
X199825410Y-54682883D01*
X199825404Y-54682887D01*
X199717887Y-54790404D01*
X199717883Y-54790410D01*
X199641857Y-54922089D01*
X199641856Y-54922093D01*
X199602500Y-55068971D01*
X197757500Y-55068971D01*
X197718144Y-54922093D01*
X197642115Y-54790407D01*
X197534593Y-54682885D01*
X197484466Y-54653944D01*
X197402910Y-54606857D01*
X197402911Y-54606857D01*
X197390866Y-54603629D01*
X197256029Y-54567500D01*
X197103971Y-54567500D01*
X196969133Y-54603629D01*
X196957089Y-54606857D01*
X196825410Y-54682883D01*
X196825404Y-54682887D01*
X196717887Y-54790404D01*
X196717883Y-54790410D01*
X196641857Y-54922089D01*
X196641856Y-54922093D01*
X196602500Y-55068971D01*
X192227500Y-55068971D01*
X192227500Y-54537442D01*
X192220102Y-54500252D01*
X192214948Y-54492538D01*
X192191922Y-54458077D01*
X192149749Y-54429898D01*
X192112559Y-54422500D01*
X192112558Y-54422500D01*
X190387442Y-54422500D01*
X190387441Y-54422500D01*
X190350250Y-54429898D01*
X190308077Y-54458077D01*
X190279898Y-54500250D01*
X190272500Y-54537441D01*
X189169892Y-54537441D01*
X189085884Y-54492538D01*
X188901626Y-54436643D01*
X188710000Y-54417770D01*
X188518373Y-54436643D01*
X188334115Y-54492538D01*
X188164307Y-54583302D01*
X188164300Y-54583306D01*
X188015458Y-54705458D01*
X187893306Y-54854300D01*
X187893302Y-54854307D01*
X187802538Y-55024115D01*
X187746643Y-55208373D01*
X187727770Y-55400000D01*
X186670000Y-55400000D01*
X186670000Y-55334174D01*
X186635925Y-55207007D01*
X186603012Y-55150000D01*
X187191410Y-55150000D01*
X187144766Y-54996233D01*
X187047271Y-54813833D01*
X187047267Y-54813826D01*
X186916055Y-54653944D01*
X186756173Y-54522732D01*
X186756166Y-54522728D01*
X186573763Y-54425232D01*
X186420000Y-54378587D01*
X186420000Y-54966988D01*
X186362993Y-54934075D01*
X186235826Y-54900000D01*
X186104174Y-54900000D01*
X185977007Y-54934075D01*
X185920000Y-54966988D01*
X185920000Y-54378587D01*
X185766236Y-54425232D01*
X185583833Y-54522728D01*
X185583826Y-54522732D01*
X185423944Y-54653944D01*
X185292732Y-54813826D01*
X185292728Y-54813833D01*
X185195233Y-54996233D01*
X185148590Y-55150000D01*
X180535343Y-55150000D01*
X180545632Y-52863941D01*
X180565618Y-52796992D01*
X180618628Y-52751475D01*
X180669631Y-52740500D01*
X207040118Y-52740500D01*
X207076519Y-52740500D01*
X207083471Y-52740695D01*
G37*
%TD.AperFunction*%
%TD*%
%TA.AperFunction,Conductor*%
%TO.N,GNDA*%
G36*
X187626123Y-81859879D02*
G01*
X187693141Y-81879629D01*
X187738844Y-81932477D01*
X187750000Y-81983879D01*
X187750000Y-84187371D01*
X187733940Y-84248403D01*
X186575648Y-86296953D01*
X186525517Y-86345621D01*
X186467573Y-86359921D01*
X179300526Y-86352105D01*
X179300525Y-86352105D01*
X177370000Y-86350000D01*
X177398995Y-84175331D01*
X186369684Y-84175331D01*
X186390165Y-84317787D01*
X186449953Y-84448702D01*
X186449954Y-84448704D01*
X186544203Y-84557474D01*
X186665278Y-84635284D01*
X186665281Y-84635285D01*
X186665280Y-84635285D01*
X186803367Y-84675830D01*
X186803369Y-84675831D01*
X186803370Y-84675831D01*
X186947293Y-84675831D01*
X186947293Y-84675830D01*
X187085384Y-84635284D01*
X187206459Y-84557474D01*
X187300708Y-84448704D01*
X187360496Y-84317788D01*
X187380978Y-84175331D01*
X187360496Y-84032874D01*
X187300708Y-83901958D01*
X187206459Y-83793188D01*
X187206456Y-83793186D01*
X187206457Y-83793186D01*
X187121368Y-83738503D01*
X187075614Y-83685699D01*
X187065670Y-83616541D01*
X187094695Y-83552985D01*
X187136903Y-83521390D01*
X187140036Y-83519957D01*
X187140053Y-83519953D01*
X187261128Y-83442143D01*
X187355377Y-83333373D01*
X187415165Y-83202457D01*
X187435647Y-83060000D01*
X187415165Y-82917543D01*
X187355377Y-82786627D01*
X187261128Y-82677857D01*
X187140053Y-82600047D01*
X187140051Y-82600046D01*
X187140049Y-82600045D01*
X187140050Y-82600045D01*
X187001963Y-82559500D01*
X187001961Y-82559500D01*
X186858039Y-82559500D01*
X186858036Y-82559500D01*
X186719949Y-82600045D01*
X186598873Y-82677856D01*
X186504623Y-82786626D01*
X186504622Y-82786628D01*
X186444834Y-82917543D01*
X186424353Y-83060000D01*
X186444834Y-83202456D01*
X186504622Y-83333371D01*
X186504623Y-83333373D01*
X186598872Y-83442143D01*
X186683961Y-83496826D01*
X186729716Y-83549630D01*
X186739660Y-83618789D01*
X186710635Y-83682345D01*
X186668439Y-83713934D01*
X186665280Y-83715376D01*
X186544204Y-83793187D01*
X186449954Y-83901957D01*
X186449953Y-83901959D01*
X186390165Y-84032874D01*
X186369684Y-84175331D01*
X177398995Y-84175331D01*
X177429333Y-81900000D01*
X179300000Y-81900000D01*
X179246084Y-81851759D01*
X187626123Y-81859879D01*
G37*
%TD.AperFunction*%
%TD*%
%TA.AperFunction,Conductor*%
%TO.N,GNDA*%
G36*
X179300000Y-81900000D02*
G01*
X177400000Y-81900000D01*
X177400000Y-80200000D01*
X179300000Y-81900000D01*
G37*
%TD.AperFunction*%
%TD*%
%TA.AperFunction,Conductor*%
%TO.N,GNDA*%
G36*
X177464288Y-52760185D02*
G01*
X177510043Y-52812989D01*
X177521249Y-52864500D01*
X177521249Y-58670399D01*
X177501564Y-58737438D01*
X177448760Y-58783193D01*
X177379602Y-58793137D01*
X177316046Y-58764112D01*
X177296189Y-58740062D01*
X177295719Y-58740423D01*
X177290771Y-58733975D01*
X177290771Y-58733974D01*
X177206218Y-58623782D01*
X177096026Y-58539229D01*
X177096025Y-58539228D01*
X177096023Y-58539227D01*
X176967708Y-58486078D01*
X176967703Y-58486076D01*
X176830001Y-58467948D01*
X176829999Y-58467948D01*
X176692296Y-58486076D01*
X176692291Y-58486078D01*
X176563976Y-58539227D01*
X176453782Y-58623782D01*
X176369227Y-58733976D01*
X176316078Y-58862291D01*
X176316076Y-58862296D01*
X176297948Y-58999998D01*
X176297948Y-59000001D01*
X176316076Y-59137703D01*
X176316078Y-59137708D01*
X176369227Y-59266023D01*
X176369228Y-59266025D01*
X176369229Y-59266026D01*
X176453782Y-59376218D01*
X176563974Y-59460771D01*
X176692295Y-59513923D01*
X176761147Y-59522987D01*
X176829999Y-59532052D01*
X176830000Y-59532052D01*
X176830001Y-59532052D01*
X176875901Y-59526009D01*
X176967705Y-59513923D01*
X177096026Y-59460771D01*
X177206218Y-59376218D01*
X177290771Y-59266026D01*
X177290771Y-59266024D01*
X177295719Y-59259577D01*
X177297137Y-59260665D01*
X177340419Y-59219389D01*
X177409025Y-59206160D01*
X177473892Y-59232123D01*
X177514426Y-59289033D01*
X177521249Y-59329600D01*
X177521249Y-80308485D01*
X177400000Y-80200000D01*
X177400000Y-81900000D01*
X177429333Y-81900000D01*
X177370667Y-86300000D01*
X177300000Y-86300000D01*
X177300000Y-87400000D01*
X177521249Y-87284107D01*
X177521249Y-93876656D01*
X177501564Y-93943695D01*
X177448760Y-93989450D01*
X177397229Y-94000656D01*
X145848496Y-93995508D01*
X145848417Y-93995500D01*
X145835882Y-93995500D01*
X145799490Y-93995500D01*
X145792537Y-93995305D01*
X145488387Y-93978224D01*
X145474569Y-93976667D01*
X145177694Y-93926226D01*
X145164137Y-93923132D01*
X144874769Y-93839766D01*
X144861644Y-93835173D01*
X144583438Y-93719937D01*
X144570910Y-93713904D01*
X144307351Y-93568240D01*
X144295577Y-93560842D01*
X144049985Y-93386586D01*
X144039113Y-93377916D01*
X143814575Y-93177257D01*
X143804742Y-93167424D01*
X143604083Y-92942886D01*
X143595413Y-92932014D01*
X143421157Y-92686422D01*
X143413759Y-92674648D01*
X143268095Y-92411089D01*
X143262065Y-92398568D01*
X143146826Y-92120355D01*
X143142233Y-92107230D01*
X143058867Y-91817862D01*
X143055773Y-91804305D01*
X143036169Y-91688922D01*
X143005330Y-91507420D01*
X143003776Y-91493622D01*
X142986694Y-91189465D01*
X142986500Y-91182512D01*
X142986504Y-91146106D01*
X142986580Y-90470000D01*
X164188104Y-90470000D01*
X164205598Y-90591678D01*
X164205599Y-90591682D01*
X164233001Y-90651682D01*
X164256666Y-90703501D01*
X164337168Y-90796405D01*
X164440584Y-90862866D01*
X164558535Y-90897500D01*
X164681465Y-90897500D01*
X164799416Y-90862866D01*
X164902832Y-90796405D01*
X164983334Y-90703501D01*
X165034401Y-90591679D01*
X165043269Y-90530000D01*
X170498104Y-90530000D01*
X170515598Y-90651678D01*
X170515599Y-90651682D01*
X170566665Y-90763499D01*
X170566666Y-90763501D01*
X170647168Y-90856405D01*
X170750584Y-90922866D01*
X170868535Y-90957500D01*
X170991465Y-90957500D01*
X171109416Y-90922866D01*
X171212832Y-90856405D01*
X171293334Y-90763501D01*
X171344401Y-90651679D01*
X171361896Y-90530000D01*
X171344401Y-90408321D01*
X171344400Y-90408317D01*
X171293334Y-90296500D01*
X171293334Y-90296499D01*
X171212832Y-90203595D01*
X171109416Y-90137134D01*
X170991465Y-90102500D01*
X170868535Y-90102500D01*
X170750584Y-90137134D01*
X170750582Y-90137134D01*
X170750582Y-90137135D01*
X170647169Y-90203594D01*
X170566667Y-90296497D01*
X170566665Y-90296500D01*
X170515599Y-90408317D01*
X170515598Y-90408321D01*
X170498104Y-90530000D01*
X165043269Y-90530000D01*
X165051896Y-90470000D01*
X165034401Y-90348321D01*
X165034400Y-90348317D01*
X164983334Y-90236500D01*
X164983334Y-90236499D01*
X164902832Y-90143595D01*
X164799416Y-90077134D01*
X164681465Y-90042500D01*
X164558535Y-90042500D01*
X164440584Y-90077134D01*
X164440582Y-90077134D01*
X164440582Y-90077135D01*
X164337169Y-90143594D01*
X164256667Y-90236497D01*
X164256665Y-90236500D01*
X164205599Y-90348317D01*
X164205598Y-90348321D01*
X164188104Y-90470000D01*
X142986580Y-90470000D01*
X142986977Y-86930000D01*
X158478104Y-86930000D01*
X158495598Y-87051678D01*
X158495599Y-87051682D01*
X158546665Y-87163499D01*
X158546666Y-87163501D01*
X158627168Y-87256405D01*
X158730584Y-87322866D01*
X158848535Y-87357500D01*
X158971465Y-87357500D01*
X159089416Y-87322866D01*
X159192832Y-87256405D01*
X159273334Y-87163501D01*
X159324401Y-87051679D01*
X159341896Y-86930000D01*
X159324401Y-86808321D01*
X159324400Y-86808317D01*
X159273334Y-86696500D01*
X159273334Y-86696499D01*
X159192832Y-86603595D01*
X159089416Y-86537134D01*
X158971465Y-86502500D01*
X158848535Y-86502500D01*
X158730584Y-86537134D01*
X158730582Y-86537134D01*
X158730582Y-86537135D01*
X158627169Y-86603594D01*
X158546667Y-86696497D01*
X158546665Y-86696500D01*
X158495599Y-86808317D01*
X158495598Y-86808321D01*
X158478104Y-86930000D01*
X142986977Y-86930000D01*
X142987155Y-85340000D01*
X160338104Y-85340000D01*
X160355598Y-85461678D01*
X160355599Y-85461682D01*
X160406665Y-85573499D01*
X160406666Y-85573501D01*
X160487168Y-85666405D01*
X160590584Y-85732866D01*
X160708535Y-85767500D01*
X160831465Y-85767500D01*
X160949416Y-85732866D01*
X161052832Y-85666405D01*
X161133334Y-85573501D01*
X161184401Y-85461679D01*
X161201896Y-85340000D01*
X161184401Y-85218321D01*
X161184400Y-85218317D01*
X161133334Y-85106500D01*
X161133334Y-85106499D01*
X161052832Y-85013595D01*
X160949416Y-84947134D01*
X160831465Y-84912500D01*
X160708535Y-84912500D01*
X160590584Y-84947134D01*
X160590582Y-84947134D01*
X160590582Y-84947135D01*
X160487169Y-85013594D01*
X160406667Y-85106497D01*
X160406665Y-85106500D01*
X160355599Y-85218317D01*
X160355598Y-85218321D01*
X160338104Y-85340000D01*
X142987155Y-85340000D01*
X142987466Y-82570000D01*
X152228104Y-82570000D01*
X152245598Y-82691678D01*
X152245599Y-82691682D01*
X152296375Y-82802864D01*
X152296666Y-82803501D01*
X152377168Y-82896405D01*
X152480584Y-82962866D01*
X152598535Y-82997500D01*
X152721465Y-82997500D01*
X152839416Y-82962866D01*
X152942832Y-82896405D01*
X152983042Y-82850000D01*
X164428104Y-82850000D01*
X164445598Y-82971678D01*
X164445599Y-82971682D01*
X164496665Y-83083499D01*
X164496666Y-83083501D01*
X164577168Y-83176405D01*
X164680584Y-83242866D01*
X164798535Y-83277500D01*
X164921465Y-83277500D01*
X165039416Y-83242866D01*
X165142832Y-83176405D01*
X165223334Y-83083501D01*
X165274401Y-82971679D01*
X165291896Y-82850000D01*
X165274401Y-82728321D01*
X165274400Y-82728317D01*
X165223334Y-82616500D01*
X165223334Y-82616499D01*
X165142832Y-82523595D01*
X165039416Y-82457134D01*
X164921465Y-82422500D01*
X164798535Y-82422500D01*
X164680584Y-82457134D01*
X164680582Y-82457134D01*
X164680582Y-82457135D01*
X164577169Y-82523594D01*
X164496667Y-82616497D01*
X164496665Y-82616500D01*
X164445599Y-82728317D01*
X164445598Y-82728321D01*
X164428104Y-82850000D01*
X152983042Y-82850000D01*
X153023334Y-82803501D01*
X153074401Y-82691679D01*
X153091896Y-82570000D01*
X153074401Y-82448321D01*
X153074400Y-82448317D01*
X153056901Y-82410000D01*
X154448104Y-82410000D01*
X154465598Y-82531678D01*
X154465599Y-82531682D01*
X154504335Y-82616500D01*
X154516666Y-82643501D01*
X154597168Y-82736405D01*
X154700584Y-82802866D01*
X154818535Y-82837500D01*
X154941465Y-82837500D01*
X155059416Y-82802866D01*
X155162832Y-82736405D01*
X155243334Y-82643501D01*
X155294401Y-82531679D01*
X155311896Y-82410000D01*
X155294401Y-82288321D01*
X155294400Y-82288317D01*
X155243334Y-82176500D01*
X155243334Y-82176499D01*
X155162832Y-82083595D01*
X155059416Y-82017134D01*
X154941465Y-81982500D01*
X154818535Y-81982500D01*
X154700584Y-82017134D01*
X154700582Y-82017134D01*
X154700582Y-82017135D01*
X154597169Y-82083594D01*
X154516667Y-82176497D01*
X154516665Y-82176500D01*
X154465599Y-82288317D01*
X154465598Y-82288321D01*
X154448104Y-82410000D01*
X153056901Y-82410000D01*
X153023334Y-82336500D01*
X153023334Y-82336499D01*
X152942832Y-82243595D01*
X152839416Y-82177134D01*
X152721465Y-82142500D01*
X152598535Y-82142500D01*
X152480584Y-82177134D01*
X152480582Y-82177134D01*
X152480582Y-82177135D01*
X152377169Y-82243594D01*
X152296667Y-82336497D01*
X152296665Y-82336500D01*
X152245599Y-82448317D01*
X152245598Y-82448321D01*
X152228104Y-82570000D01*
X142987466Y-82570000D01*
X142987933Y-78410000D01*
X164178104Y-78410000D01*
X164195598Y-78531678D01*
X164195599Y-78531682D01*
X164218434Y-78581682D01*
X164246666Y-78643501D01*
X164327168Y-78736405D01*
X164430584Y-78802866D01*
X164548535Y-78837500D01*
X164671465Y-78837500D01*
X164789416Y-78802866D01*
X164892832Y-78736405D01*
X164973334Y-78643501D01*
X165024401Y-78531679D01*
X165034707Y-78460000D01*
X170428104Y-78460000D01*
X170445598Y-78581678D01*
X170445599Y-78581682D01*
X170473832Y-78643502D01*
X170496666Y-78693501D01*
X170577168Y-78786405D01*
X170680584Y-78852866D01*
X170798535Y-78887500D01*
X170921465Y-78887500D01*
X171039416Y-78852866D01*
X171142832Y-78786405D01*
X171223334Y-78693501D01*
X171274401Y-78581679D01*
X171291896Y-78460000D01*
X171274401Y-78338321D01*
X171274400Y-78338317D01*
X171223334Y-78226500D01*
X171223334Y-78226499D01*
X171142832Y-78133595D01*
X171039416Y-78067134D01*
X170921465Y-78032500D01*
X170798535Y-78032500D01*
X170680584Y-78067134D01*
X170680582Y-78067134D01*
X170680582Y-78067135D01*
X170577169Y-78133594D01*
X170496667Y-78226497D01*
X170496665Y-78226500D01*
X170445599Y-78338317D01*
X170445598Y-78338321D01*
X170428104Y-78460000D01*
X165034707Y-78460000D01*
X165041896Y-78410000D01*
X165024401Y-78288321D01*
X165024400Y-78288317D01*
X164973334Y-78176500D01*
X164973334Y-78176499D01*
X164892832Y-78083595D01*
X164789416Y-78017134D01*
X164671465Y-77982500D01*
X164548535Y-77982500D01*
X164430584Y-78017134D01*
X164430582Y-78017134D01*
X164430582Y-78017135D01*
X164327169Y-78083594D01*
X164246667Y-78176497D01*
X164246665Y-78176500D01*
X164195599Y-78288317D01*
X164195598Y-78288321D01*
X164178104Y-78410000D01*
X142987933Y-78410000D01*
X142988067Y-77220000D01*
X153558104Y-77220000D01*
X153575598Y-77341678D01*
X153575599Y-77341682D01*
X153626665Y-77453499D01*
X153626666Y-77453501D01*
X153707168Y-77546405D01*
X153810584Y-77612866D01*
X153928535Y-77647500D01*
X154051465Y-77647500D01*
X154169416Y-77612866D01*
X154272832Y-77546405D01*
X154353334Y-77453501D01*
X154404401Y-77341679D01*
X154421896Y-77220000D01*
X154404401Y-77098321D01*
X154404400Y-77098317D01*
X154353334Y-76986500D01*
X154353334Y-76986499D01*
X154272832Y-76893595D01*
X154169416Y-76827134D01*
X154051465Y-76792500D01*
X153928535Y-76792500D01*
X153810584Y-76827134D01*
X153810582Y-76827134D01*
X153810582Y-76827135D01*
X153707169Y-76893594D01*
X153626667Y-76986497D01*
X153626665Y-76986500D01*
X153575599Y-77098317D01*
X153575598Y-77098321D01*
X153558104Y-77220000D01*
X142988067Y-77220000D01*
X142988311Y-75050000D01*
X158458104Y-75050000D01*
X158475598Y-75171678D01*
X158475599Y-75171682D01*
X158526665Y-75283499D01*
X158526666Y-75283501D01*
X158607168Y-75376405D01*
X158710584Y-75442866D01*
X158828535Y-75477500D01*
X158951465Y-75477500D01*
X159069416Y-75442866D01*
X159172832Y-75376405D01*
X159253334Y-75283501D01*
X159304401Y-75171679D01*
X159321896Y-75050000D01*
X159304401Y-74928321D01*
X159304400Y-74928317D01*
X159253334Y-74816500D01*
X159253334Y-74816499D01*
X159172832Y-74723595D01*
X159069416Y-74657134D01*
X158951465Y-74622500D01*
X158828535Y-74622500D01*
X158710584Y-74657134D01*
X158710582Y-74657134D01*
X158710582Y-74657135D01*
X158607169Y-74723594D01*
X158526667Y-74816497D01*
X158526665Y-74816500D01*
X158475599Y-74928317D01*
X158475598Y-74928321D01*
X158458104Y-75050000D01*
X142988311Y-75050000D01*
X142988559Y-72840000D01*
X159888104Y-72840000D01*
X159905598Y-72961678D01*
X159905599Y-72961682D01*
X159956665Y-73073499D01*
X159956666Y-73073501D01*
X160037168Y-73166405D01*
X160140584Y-73232866D01*
X160258535Y-73267500D01*
X160381465Y-73267500D01*
X160499416Y-73232866D01*
X160602832Y-73166405D01*
X160683334Y-73073501D01*
X160734401Y-72961679D01*
X160751896Y-72840000D01*
X160734401Y-72718321D01*
X160734400Y-72718317D01*
X160683334Y-72606500D01*
X160683334Y-72606499D01*
X160602832Y-72513595D01*
X160499416Y-72447134D01*
X160381465Y-72412500D01*
X160258535Y-72412500D01*
X160140584Y-72447134D01*
X160140582Y-72447134D01*
X160140582Y-72447135D01*
X160037169Y-72513594D01*
X159956667Y-72606497D01*
X159956665Y-72606500D01*
X159905599Y-72718317D01*
X159905598Y-72718321D01*
X159888104Y-72840000D01*
X142988559Y-72840000D01*
X142988809Y-70610000D01*
X154428104Y-70610000D01*
X154445598Y-70731678D01*
X154445599Y-70731682D01*
X154496665Y-70843499D01*
X154496666Y-70843501D01*
X154577168Y-70936405D01*
X154680584Y-71002866D01*
X154798535Y-71037500D01*
X154921465Y-71037500D01*
X155039416Y-71002866D01*
X155142832Y-70936405D01*
X155223334Y-70843501D01*
X155274401Y-70731679D01*
X155291896Y-70610000D01*
X155274401Y-70488321D01*
X155274400Y-70488317D01*
X155223334Y-70376500D01*
X155223334Y-70376499D01*
X155142832Y-70283595D01*
X155039416Y-70217134D01*
X154921465Y-70182500D01*
X154798535Y-70182500D01*
X154680584Y-70217134D01*
X154680582Y-70217134D01*
X154680582Y-70217135D01*
X154577169Y-70283594D01*
X154496667Y-70376497D01*
X154496665Y-70376500D01*
X154445599Y-70488317D01*
X154445598Y-70488321D01*
X154428104Y-70610000D01*
X142988809Y-70610000D01*
X142988885Y-69930000D01*
X152198104Y-69930000D01*
X152215598Y-70051678D01*
X152215599Y-70051682D01*
X152266665Y-70163499D01*
X152266666Y-70163501D01*
X152347168Y-70256405D01*
X152450584Y-70322866D01*
X152568535Y-70357500D01*
X152691465Y-70357500D01*
X152809416Y-70322866D01*
X152912832Y-70256405D01*
X152993334Y-70163501D01*
X153044401Y-70051679D01*
X153061896Y-69930000D01*
X153044401Y-69808321D01*
X153044400Y-69808317D01*
X152993334Y-69696500D01*
X152993334Y-69696499D01*
X152912832Y-69603595D01*
X152809416Y-69537134D01*
X152691465Y-69502500D01*
X152568535Y-69502500D01*
X152450584Y-69537134D01*
X152450582Y-69537134D01*
X152450582Y-69537135D01*
X152347169Y-69603594D01*
X152266667Y-69696497D01*
X152266665Y-69696500D01*
X152215599Y-69808317D01*
X152215598Y-69808321D01*
X152198104Y-69930000D01*
X142988885Y-69930000D01*
X142989151Y-67564000D01*
X146634104Y-67564000D01*
X146651598Y-67685678D01*
X146651599Y-67685682D01*
X146702665Y-67797499D01*
X146702666Y-67797501D01*
X146783168Y-67890405D01*
X146886584Y-67956866D01*
X147004535Y-67991500D01*
X147127465Y-67991500D01*
X147245416Y-67956866D01*
X147348832Y-67890405D01*
X147429334Y-67797501D01*
X147480401Y-67685679D01*
X147497896Y-67564000D01*
X147480401Y-67442321D01*
X147480400Y-67442317D01*
X147429334Y-67330500D01*
X147429334Y-67330499D01*
X147348832Y-67237595D01*
X147245416Y-67171134D01*
X147127465Y-67136500D01*
X147004535Y-67136500D01*
X146886584Y-67171134D01*
X146886582Y-67171134D01*
X146886582Y-67171135D01*
X146783169Y-67237594D01*
X146702667Y-67330497D01*
X146702665Y-67330500D01*
X146651599Y-67442317D01*
X146651598Y-67442321D01*
X146634104Y-67564000D01*
X142989151Y-67564000D01*
X142989323Y-66030000D01*
X151008104Y-66030000D01*
X151025598Y-66151678D01*
X151025599Y-66151682D01*
X151064335Y-66236500D01*
X151076666Y-66263501D01*
X151157168Y-66356405D01*
X151260584Y-66422866D01*
X151378535Y-66457500D01*
X151501465Y-66457500D01*
X151619416Y-66422866D01*
X151722832Y-66356405D01*
X151728382Y-66350000D01*
X164228104Y-66350000D01*
X164245598Y-66471678D01*
X164245599Y-66471682D01*
X164296665Y-66583499D01*
X164296666Y-66583501D01*
X164377168Y-66676405D01*
X164480584Y-66742866D01*
X164598535Y-66777500D01*
X164721465Y-66777500D01*
X164839416Y-66742866D01*
X164942832Y-66676405D01*
X165023334Y-66583501D01*
X165074401Y-66471679D01*
X165074642Y-66470000D01*
X170528104Y-66470000D01*
X170545598Y-66591678D01*
X170545599Y-66591682D01*
X170596665Y-66703499D01*
X170596666Y-66703501D01*
X170677168Y-66796405D01*
X170780584Y-66862866D01*
X170898535Y-66897500D01*
X171021465Y-66897500D01*
X171139416Y-66862866D01*
X171242832Y-66796405D01*
X171323334Y-66703501D01*
X171374401Y-66591679D01*
X171391896Y-66470000D01*
X171374401Y-66348321D01*
X171374400Y-66348317D01*
X171323334Y-66236500D01*
X171323334Y-66236499D01*
X171242832Y-66143595D01*
X171139416Y-66077134D01*
X171021465Y-66042500D01*
X170898535Y-66042500D01*
X170780584Y-66077134D01*
X170780582Y-66077134D01*
X170780582Y-66077135D01*
X170677169Y-66143594D01*
X170596667Y-66236497D01*
X170596665Y-66236500D01*
X170545599Y-66348317D01*
X170545598Y-66348321D01*
X170528104Y-66470000D01*
X165074642Y-66470000D01*
X165091896Y-66350000D01*
X165074401Y-66228321D01*
X165074400Y-66228317D01*
X165023334Y-66116500D01*
X165023334Y-66116499D01*
X164942832Y-66023595D01*
X164839416Y-65957134D01*
X164721465Y-65922500D01*
X164598535Y-65922500D01*
X164480584Y-65957134D01*
X164480582Y-65957134D01*
X164480582Y-65957135D01*
X164377169Y-66023594D01*
X164296667Y-66116497D01*
X164296665Y-66116500D01*
X164245599Y-66228317D01*
X164245598Y-66228321D01*
X164228104Y-66350000D01*
X151728382Y-66350000D01*
X151803334Y-66263501D01*
X151854401Y-66151679D01*
X151871896Y-66030000D01*
X151854401Y-65908321D01*
X151854400Y-65908317D01*
X151803334Y-65796500D01*
X151803334Y-65796499D01*
X151722832Y-65703595D01*
X151619416Y-65637134D01*
X151501465Y-65602500D01*
X151378535Y-65602500D01*
X151260584Y-65637134D01*
X151260582Y-65637134D01*
X151260582Y-65637135D01*
X151157169Y-65703594D01*
X151076667Y-65796497D01*
X151076665Y-65796500D01*
X151025599Y-65908317D01*
X151025598Y-65908321D01*
X151008104Y-66030000D01*
X142989323Y-66030000D01*
X142989436Y-65024000D01*
X175971104Y-65024000D01*
X175988598Y-65145678D01*
X175988599Y-65145682D01*
X176039665Y-65257499D01*
X176039666Y-65257501D01*
X176120168Y-65350405D01*
X176223584Y-65416866D01*
X176341535Y-65451500D01*
X176464465Y-65451500D01*
X176582416Y-65416866D01*
X176685832Y-65350405D01*
X176766334Y-65257501D01*
X176817401Y-65145679D01*
X176834896Y-65024000D01*
X176817401Y-64902321D01*
X176817400Y-64902317D01*
X176766334Y-64790500D01*
X176766334Y-64790499D01*
X176685832Y-64697595D01*
X176582416Y-64631134D01*
X176464465Y-64596500D01*
X176341535Y-64596500D01*
X176223584Y-64631134D01*
X176223582Y-64631134D01*
X176223582Y-64631135D01*
X176120169Y-64697594D01*
X176039667Y-64790497D01*
X176039665Y-64790500D01*
X175988599Y-64902317D01*
X175988598Y-64902321D01*
X175971104Y-65024000D01*
X142989436Y-65024000D01*
X142989717Y-62520000D01*
X158608104Y-62520000D01*
X158625598Y-62641678D01*
X158625599Y-62641682D01*
X158676665Y-62753499D01*
X158676666Y-62753501D01*
X158757168Y-62846405D01*
X158860584Y-62912866D01*
X158978535Y-62947500D01*
X159101465Y-62947500D01*
X159219416Y-62912866D01*
X159322832Y-62846405D01*
X159403334Y-62753501D01*
X159454401Y-62641679D01*
X159471896Y-62520000D01*
X159454401Y-62398321D01*
X159454400Y-62398317D01*
X159403334Y-62286500D01*
X159403334Y-62286499D01*
X159322832Y-62193595D01*
X159219416Y-62127134D01*
X159101465Y-62092500D01*
X158978535Y-62092500D01*
X158860584Y-62127134D01*
X158860582Y-62127134D01*
X158860582Y-62127135D01*
X158757169Y-62193594D01*
X158676667Y-62286497D01*
X158676665Y-62286500D01*
X158625599Y-62398317D01*
X158625598Y-62398321D01*
X158608104Y-62520000D01*
X142989717Y-62520000D01*
X142989907Y-60830000D01*
X159748104Y-60830000D01*
X159765598Y-60951678D01*
X159765599Y-60951682D01*
X159816665Y-61063499D01*
X159816666Y-61063501D01*
X159897168Y-61156405D01*
X160000584Y-61222866D01*
X160118535Y-61257500D01*
X160241465Y-61257500D01*
X160359416Y-61222866D01*
X160462832Y-61156405D01*
X160543334Y-61063501D01*
X160594401Y-60951679D01*
X160611896Y-60830000D01*
X160594401Y-60708321D01*
X160594400Y-60708317D01*
X160543334Y-60596500D01*
X160543334Y-60596499D01*
X160462832Y-60503595D01*
X160359416Y-60437134D01*
X160241465Y-60402500D01*
X160118535Y-60402500D01*
X160000584Y-60437134D01*
X160000582Y-60437134D01*
X160000582Y-60437135D01*
X159897169Y-60503594D01*
X159816667Y-60596497D01*
X159816665Y-60596500D01*
X159765599Y-60708317D01*
X159765598Y-60708321D01*
X159748104Y-60830000D01*
X142989907Y-60830000D01*
X142990092Y-59182000D01*
X155905104Y-59182000D01*
X155922598Y-59303678D01*
X155922599Y-59303682D01*
X155955726Y-59376218D01*
X155973666Y-59415501D01*
X156054168Y-59508405D01*
X156157584Y-59574866D01*
X156275535Y-59609500D01*
X156398465Y-59609500D01*
X156516416Y-59574866D01*
X156619832Y-59508405D01*
X156700334Y-59415501D01*
X156751401Y-59303679D01*
X156768896Y-59182000D01*
X156751401Y-59060321D01*
X156751400Y-59060317D01*
X156700334Y-58948500D01*
X156700334Y-58948499D01*
X156619832Y-58855595D01*
X156516416Y-58789134D01*
X156398465Y-58754500D01*
X156275535Y-58754500D01*
X156157584Y-58789134D01*
X156157582Y-58789134D01*
X156157582Y-58789135D01*
X156054169Y-58855594D01*
X155973667Y-58948497D01*
X155973665Y-58948500D01*
X155922599Y-59060317D01*
X155922598Y-59060321D01*
X155905104Y-59182000D01*
X142990092Y-59182000D01*
X142990153Y-58640000D01*
X164648104Y-58640000D01*
X164665598Y-58761678D01*
X164665599Y-58761682D01*
X164711548Y-58862295D01*
X164716666Y-58873501D01*
X164797168Y-58966405D01*
X164900584Y-59032866D01*
X165018535Y-59067500D01*
X165141465Y-59067500D01*
X165259416Y-59032866D01*
X165362832Y-58966405D01*
X165443334Y-58873501D01*
X165494401Y-58761679D01*
X165511896Y-58640000D01*
X165494401Y-58518321D01*
X165494400Y-58518317D01*
X165461505Y-58446288D01*
X165443334Y-58406499D01*
X165362832Y-58313595D01*
X165259416Y-58247134D01*
X165141465Y-58212500D01*
X165018535Y-58212500D01*
X164900584Y-58247134D01*
X164900582Y-58247134D01*
X164900582Y-58247135D01*
X164797169Y-58313594D01*
X164716667Y-58406497D01*
X164716665Y-58406500D01*
X164665599Y-58518317D01*
X164665598Y-58518321D01*
X164648104Y-58640000D01*
X142990153Y-58640000D01*
X142990223Y-58020000D01*
X153108104Y-58020000D01*
X153125598Y-58141678D01*
X153125599Y-58141682D01*
X153173758Y-58247134D01*
X153176666Y-58253501D01*
X153257168Y-58346405D01*
X153360584Y-58412866D01*
X153478535Y-58447500D01*
X153601465Y-58447500D01*
X153719416Y-58412866D01*
X153822832Y-58346405D01*
X153903334Y-58253501D01*
X153954401Y-58141679D01*
X153971896Y-58020000D01*
X153954401Y-57898321D01*
X153954400Y-57898317D01*
X153903334Y-57786500D01*
X153903334Y-57786499D01*
X153822832Y-57693595D01*
X153719416Y-57627134D01*
X153601465Y-57592500D01*
X153478535Y-57592500D01*
X153360584Y-57627134D01*
X153360582Y-57627134D01*
X153360582Y-57627135D01*
X153257169Y-57693594D01*
X153176667Y-57786497D01*
X153176665Y-57786500D01*
X153125599Y-57898317D01*
X153125598Y-57898321D01*
X153108104Y-58020000D01*
X142990223Y-58020000D01*
X142990492Y-55626000D01*
X149682104Y-55626000D01*
X149699598Y-55747678D01*
X149699599Y-55747682D01*
X149750665Y-55859499D01*
X149750666Y-55859501D01*
X149831168Y-55952405D01*
X149934584Y-56018866D01*
X150052535Y-56053500D01*
X150175465Y-56053500D01*
X150293416Y-56018866D01*
X150396832Y-55952405D01*
X150477334Y-55859501D01*
X150528401Y-55747679D01*
X150545896Y-55626000D01*
X150533531Y-55539998D01*
X169847948Y-55539998D01*
X169847948Y-55540001D01*
X169866076Y-55677703D01*
X169866078Y-55677708D01*
X169919227Y-55806023D01*
X169919228Y-55806025D01*
X169919229Y-55806026D01*
X170003782Y-55916218D01*
X170113974Y-56000771D01*
X170242295Y-56053923D01*
X170311147Y-56062987D01*
X170379999Y-56072052D01*
X170380000Y-56072052D01*
X170380001Y-56072052D01*
X170425901Y-56066009D01*
X170517705Y-56053923D01*
X170646026Y-56000771D01*
X170756218Y-55916218D01*
X170840771Y-55806026D01*
X170893923Y-55677705D01*
X170912052Y-55540000D01*
X170893923Y-55402295D01*
X170840771Y-55273974D01*
X170756218Y-55163782D01*
X170646026Y-55079229D01*
X170646025Y-55079228D01*
X170646023Y-55079227D01*
X170517708Y-55026078D01*
X170517703Y-55026076D01*
X170380001Y-55007948D01*
X170379999Y-55007948D01*
X170242296Y-55026076D01*
X170242291Y-55026078D01*
X170113976Y-55079227D01*
X170003782Y-55163782D01*
X169919227Y-55273976D01*
X169866078Y-55402291D01*
X169866076Y-55402296D01*
X169847948Y-55539998D01*
X150533531Y-55539998D01*
X150528401Y-55504321D01*
X150528400Y-55504317D01*
X150481808Y-55402296D01*
X150477334Y-55392499D01*
X150396832Y-55299595D01*
X150293416Y-55233134D01*
X150175465Y-55198500D01*
X150052535Y-55198500D01*
X149934584Y-55233134D01*
X149934582Y-55233134D01*
X149934582Y-55233135D01*
X149831169Y-55299594D01*
X149750667Y-55392497D01*
X149750665Y-55392500D01*
X149699599Y-55504317D01*
X149699598Y-55504321D01*
X149682104Y-55626000D01*
X142990492Y-55626000D01*
X142990493Y-55613168D01*
X142990500Y-55613114D01*
X142990500Y-55563480D01*
X142990695Y-55556528D01*
X142999356Y-55402295D01*
X143007838Y-55251259D01*
X143009392Y-55237460D01*
X143060024Y-54939464D01*
X143063118Y-54925912D01*
X143075861Y-54881682D01*
X143110917Y-54760000D01*
X157778104Y-54760000D01*
X157795598Y-54881678D01*
X157795599Y-54881682D01*
X157846665Y-54993499D01*
X157846666Y-54993501D01*
X157927168Y-55086405D01*
X158030584Y-55152866D01*
X158148535Y-55187500D01*
X158271465Y-55187500D01*
X158389416Y-55152866D01*
X158492832Y-55086405D01*
X158573334Y-54993501D01*
X158624401Y-54881679D01*
X158641896Y-54760000D01*
X158624401Y-54638321D01*
X158624400Y-54638317D01*
X158573334Y-54526500D01*
X158573334Y-54526499D01*
X158492832Y-54433595D01*
X158389416Y-54367134D01*
X158271465Y-54332500D01*
X158148535Y-54332500D01*
X158030584Y-54367134D01*
X158030582Y-54367134D01*
X158030582Y-54367135D01*
X157927169Y-54433594D01*
X157846667Y-54526497D01*
X157846665Y-54526500D01*
X157795599Y-54638317D01*
X157795598Y-54638321D01*
X157778104Y-54760000D01*
X143110917Y-54760000D01*
X143146795Y-54635462D01*
X143151387Y-54622342D01*
X143229568Y-54433595D01*
X143267055Y-54343091D01*
X143273077Y-54330585D01*
X143419295Y-54066025D01*
X143426690Y-54054257D01*
X143601602Y-53807741D01*
X143610258Y-53796887D01*
X143811682Y-53571492D01*
X143821492Y-53561682D01*
X144046887Y-53360258D01*
X144057741Y-53351602D01*
X144304262Y-53176686D01*
X144316025Y-53169295D01*
X144580585Y-53023077D01*
X144593091Y-53017055D01*
X144872342Y-52901387D01*
X144885462Y-52896795D01*
X145175917Y-52813116D01*
X145189464Y-52810024D01*
X145487460Y-52759392D01*
X145501259Y-52757838D01*
X145768020Y-52742857D01*
X145806529Y-52740695D01*
X145813481Y-52740500D01*
X177397249Y-52740500D01*
X177464288Y-52760185D01*
G37*
%TD.AperFunction*%
%TD*%
M02*
