%TF.GenerationSoftware,KiCad,Pcbnew,8.0.9-8.0.9-0~ubuntu24.04.1*%
%TF.CreationDate,2025-08-03T01:57:10-03:00*%
%TF.ProjectId,eeg,6565672e-6b69-4636-9164-5f7063625858,rev?*%
%TF.SameCoordinates,Original*%
%TF.FileFunction,Paste,Top*%
%TF.FilePolarity,Positive*%
%FSLAX46Y46*%
G04 Gerber Fmt 4.6, Leading zero omitted, Abs format (unit mm)*
G04 Created by KiCad (PCBNEW 8.0.9-8.0.9-0~ubuntu24.04.1) date 2025-08-03 01:57:10*
%MOMM*%
%LPD*%
G01*
G04 APERTURE LIST*
G04 Aperture macros list*
%AMRoundRect*
0 Rectangle with rounded corners*
0 $1 Rounding radius*
0 $2 $3 $4 $5 $6 $7 $8 $9 X,Y pos of 4 corners*
0 Add a 4 corners polygon primitive as box body*
4,1,4,$2,$3,$4,$5,$6,$7,$8,$9,$2,$3,0*
0 Add four circle primitives for the rounded corners*
1,1,$1+$1,$2,$3*
1,1,$1+$1,$4,$5*
1,1,$1+$1,$6,$7*
1,1,$1+$1,$8,$9*
0 Add four rect primitives between the rounded corners*
20,1,$1+$1,$2,$3,$4,$5,0*
20,1,$1+$1,$4,$5,$6,$7,0*
20,1,$1+$1,$6,$7,$8,$9,0*
20,1,$1+$1,$8,$9,$2,$3,0*%
G04 Aperture macros list end*
%ADD10RoundRect,0.225000X-0.250000X0.225000X-0.250000X-0.225000X0.250000X-0.225000X0.250000X0.225000X0*%
%ADD11R,1.200000X0.400000*%
%ADD12RoundRect,0.135000X-0.135000X-0.185000X0.135000X-0.185000X0.135000X0.185000X-0.135000X0.185000X0*%
%ADD13R,0.550000X0.600000*%
%ADD14RoundRect,0.140000X-0.140000X-0.170000X0.140000X-0.170000X0.140000X0.170000X-0.140000X0.170000X0*%
%ADD15RoundRect,0.135000X0.135000X0.185000X-0.135000X0.185000X-0.135000X-0.185000X0.135000X-0.185000X0*%
%ADD16RoundRect,0.135000X0.185000X-0.135000X0.185000X0.135000X-0.185000X0.135000X-0.185000X-0.135000X0*%
%ADD17RoundRect,0.135000X-0.185000X0.135000X-0.185000X-0.135000X0.185000X-0.135000X0.185000X0.135000X0*%
%ADD18RoundRect,0.140000X-0.170000X0.140000X-0.170000X-0.140000X0.170000X-0.140000X0.170000X0.140000X0*%
%ADD19RoundRect,0.147500X0.147500X0.172500X-0.147500X0.172500X-0.147500X-0.172500X0.147500X-0.172500X0*%
%ADD20RoundRect,0.140000X0.170000X-0.140000X0.170000X0.140000X-0.170000X0.140000X-0.170000X-0.140000X0*%
%ADD21RoundRect,0.140000X0.140000X0.170000X-0.140000X0.170000X-0.140000X-0.170000X0.140000X-0.170000X0*%
%ADD22R,0.650000X1.500000*%
%ADD23R,0.700000X1.500000*%
%ADD24R,0.800000X1.000000*%
%ADD25R,1.150000X1.050000*%
%ADD26R,0.400000X1.200000*%
%ADD27RoundRect,0.225000X0.250000X-0.225000X0.250000X0.225000X-0.250000X0.225000X-0.250000X-0.225000X0*%
%ADD28RoundRect,0.225000X0.225000X0.250000X-0.225000X0.250000X-0.225000X-0.250000X0.225000X-0.250000X0*%
%ADD29R,1.475000X0.300000*%
%ADD30R,0.300000X1.475000*%
%ADD31R,0.900000X0.300000*%
%ADD32R,1.550000X2.500000*%
%ADD33R,0.900000X1.000000*%
%ADD34R,0.300000X0.700000*%
%ADD35R,1.700000X1.000000*%
%ADD36RoundRect,0.225000X-0.225000X-0.250000X0.225000X-0.250000X0.225000X0.250000X-0.225000X0.250000X0*%
%ADD37R,1.100000X0.700000*%
%ADD38R,0.300000X1.425000*%
%ADD39R,1.880000X1.680000*%
G04 APERTURE END LIST*
D10*
%TO.C,C44*%
X193421000Y-64757000D03*
X193421000Y-66307000D03*
%TD*%
D11*
%TO.C,IC4*%
X154620000Y-55626000D03*
X154620000Y-54976000D03*
X154620000Y-54326000D03*
X152720000Y-54326000D03*
X152720000Y-55626000D03*
%TD*%
D12*
%TO.C,R36*%
X167440000Y-56740000D03*
X168460000Y-56740000D03*
%TD*%
D13*
%TO.C,FB1*%
X179640000Y-89310000D03*
X178340000Y-89310000D03*
%TD*%
D14*
%TO.C,C19*%
X162725000Y-66500000D03*
X163685000Y-66500000D03*
%TD*%
D15*
%TO.C,R27*%
X148970000Y-58970000D03*
X147950000Y-58970000D03*
%TD*%
%TO.C,R15*%
X148825000Y-70945000D03*
X147805000Y-70945000D03*
%TD*%
D12*
%TO.C,R11*%
X161655000Y-80770000D03*
X162675000Y-80770000D03*
%TD*%
D16*
%TO.C,R14*%
X172470000Y-87165000D03*
X172470000Y-86145000D03*
%TD*%
D17*
%TO.C,R32*%
X155480000Y-61650000D03*
X155480000Y-62670000D03*
%TD*%
D12*
%TO.C,R24*%
X167330000Y-68775000D03*
X168350000Y-68775000D03*
%TD*%
D14*
%TO.C,C12*%
X163840000Y-69850000D03*
X164800000Y-69850000D03*
%TD*%
%TO.C,C34*%
X202940000Y-74620000D03*
X203900000Y-74620000D03*
%TD*%
D18*
%TO.C,C39*%
X186657000Y-61005000D03*
X186657000Y-61965000D03*
%TD*%
D19*
%TO.C,L1*%
X196065000Y-64389000D03*
X195095000Y-64389000D03*
%TD*%
D20*
%TO.C,C31*%
X184115000Y-83610000D03*
X184115000Y-82650000D03*
%TD*%
D17*
%TO.C,R2*%
X156210000Y-54735000D03*
X156210000Y-55755000D03*
%TD*%
D20*
%TO.C,C24*%
X165550000Y-64800000D03*
X165550000Y-63840000D03*
%TD*%
D12*
%TO.C,R12*%
X167395000Y-80770000D03*
X168415000Y-80770000D03*
%TD*%
D14*
%TO.C,C5*%
X161655000Y-81870000D03*
X162615000Y-81870000D03*
%TD*%
D21*
%TO.C,C6*%
X168385000Y-81870000D03*
X167425000Y-81870000D03*
%TD*%
D18*
%TO.C,C18*%
X151330001Y-61680000D03*
X151330001Y-62640000D03*
%TD*%
D22*
%TO.C,U12*%
X170970000Y-59470000D03*
X169700000Y-59470000D03*
X168430000Y-59470000D03*
X167160000Y-59470000D03*
X167160000Y-64870000D03*
X168430000Y-64870000D03*
X169700000Y-64870000D03*
X170970000Y-64870000D03*
%TD*%
D23*
%TO.C,S1*%
X200930000Y-56895000D03*
X197930000Y-56895000D03*
X196430000Y-56895000D03*
D24*
X202330000Y-56110000D03*
X195030000Y-56110000D03*
X202330000Y-54180000D03*
X195030000Y-54180000D03*
%TD*%
D14*
%TO.C,C27*%
X199370000Y-88920000D03*
X200330000Y-88920000D03*
%TD*%
D25*
%TO.C,SW3*%
X184939000Y-62410000D03*
X184939000Y-60960000D03*
X181589000Y-62410000D03*
X181589000Y-60960000D03*
%TD*%
D12*
%TO.C,R9*%
X160600000Y-90595000D03*
X161620000Y-90595000D03*
%TD*%
D22*
%TO.C,U11*%
X160130000Y-64870000D03*
X161400000Y-64870000D03*
X162670000Y-64870000D03*
X163940000Y-64870000D03*
X163940000Y-59470000D03*
X162670000Y-59470000D03*
X161400000Y-59470000D03*
X160130000Y-59470000D03*
%TD*%
D21*
%TO.C,C22*%
X168430000Y-57780000D03*
X167470000Y-57780000D03*
%TD*%
D15*
%TO.C,R28*%
X152020000Y-64020000D03*
X151000000Y-64020000D03*
%TD*%
D26*
%TO.C,U6*%
X152625000Y-74545000D03*
X153275000Y-74545000D03*
X153925000Y-74545000D03*
X153925000Y-72645000D03*
X152625000Y-72645000D03*
%TD*%
D19*
%TO.C,D3*%
X207900000Y-83110000D03*
X206930000Y-83110000D03*
%TD*%
D27*
%TO.C,C36*%
X181610000Y-75705000D03*
X181610000Y-74155000D03*
%TD*%
D28*
%TO.C,C30*%
X187375000Y-68900000D03*
X185825000Y-68900000D03*
%TD*%
D12*
%TO.C,R44*%
X200021000Y-64008000D03*
X201041000Y-64008000D03*
%TD*%
D15*
%TO.C,R17*%
X153875000Y-76070000D03*
X152855000Y-76070000D03*
%TD*%
D29*
%TO.C,IC3*%
X185657000Y-73590000D03*
X185657000Y-74090000D03*
X185657000Y-74590000D03*
X185657000Y-75090000D03*
X185657000Y-75590000D03*
X185657000Y-76090000D03*
X185657000Y-76590000D03*
X185657000Y-77090000D03*
X185657000Y-77590000D03*
X185657000Y-78090000D03*
X185657000Y-78590000D03*
X185657000Y-79090000D03*
X185657000Y-79590000D03*
X185657000Y-80090000D03*
X185657000Y-80590000D03*
X185657000Y-81090000D03*
X185657000Y-81590000D03*
X185657000Y-82090000D03*
X185657000Y-82590000D03*
X185657000Y-83090000D03*
X185657000Y-83590000D03*
X185657000Y-84090000D03*
X185657000Y-84590000D03*
X185657000Y-85090000D03*
X185657000Y-85590000D03*
D30*
X187395000Y-87328000D03*
X187895000Y-87328000D03*
X188395000Y-87328000D03*
X188895000Y-87328000D03*
X189395000Y-87328000D03*
X189895000Y-87328000D03*
X190395000Y-87328000D03*
X190895000Y-87328000D03*
X191395000Y-87328000D03*
X191895000Y-87328000D03*
X192395000Y-87328000D03*
X192895000Y-87328000D03*
X193395000Y-87328000D03*
X193895000Y-87328000D03*
X194395000Y-87328000D03*
X194895000Y-87328000D03*
X195395000Y-87328000D03*
X195895000Y-87328000D03*
X196395000Y-87328000D03*
X196895000Y-87328000D03*
X197395000Y-87328000D03*
X197895000Y-87328000D03*
X198395000Y-87328000D03*
X198895000Y-87328000D03*
X199395000Y-87328000D03*
D29*
X201133000Y-85590000D03*
X201133000Y-85090000D03*
X201133000Y-84590000D03*
X201133000Y-84090000D03*
X201133000Y-83590000D03*
X201133000Y-83090000D03*
X201133000Y-82590000D03*
X201133000Y-82090000D03*
X201133000Y-81590000D03*
X201133000Y-81090000D03*
X201133000Y-80590000D03*
X201133000Y-80090000D03*
X201133000Y-79590000D03*
X201133000Y-79090000D03*
X201133000Y-78590000D03*
X201133000Y-78090000D03*
X201133000Y-77590000D03*
X201133000Y-77090000D03*
X201133000Y-76590000D03*
X201133000Y-76090000D03*
X201133000Y-75590000D03*
X201133000Y-75090000D03*
X201133000Y-74590000D03*
X201133000Y-74090000D03*
X201133000Y-73590000D03*
D30*
X199395000Y-71852000D03*
X198895000Y-71852000D03*
X198395000Y-71852000D03*
X197895000Y-71852000D03*
X197395000Y-71852000D03*
X196895000Y-71852000D03*
X196395000Y-71852000D03*
X195895000Y-71852000D03*
X195395000Y-71852000D03*
X194895000Y-71852000D03*
X194395000Y-71852000D03*
X193895000Y-71852000D03*
X193395000Y-71852000D03*
X192895000Y-71852000D03*
X192395000Y-71852000D03*
X191895000Y-71852000D03*
X191395000Y-71852000D03*
X190895000Y-71852000D03*
X190395000Y-71852000D03*
X189895000Y-71852000D03*
X189395000Y-71852000D03*
X188895000Y-71852000D03*
X188395000Y-71852000D03*
X187895000Y-71852000D03*
X187395000Y-71852000D03*
%TD*%
D20*
%TO.C,C41*%
X175330000Y-57440000D03*
X175330000Y-56480000D03*
%TD*%
D12*
%TO.C,R39*%
X204590000Y-81110000D03*
X205610000Y-81110000D03*
%TD*%
D16*
%TO.C,R30*%
X155480000Y-60595000D03*
X155480000Y-59575000D03*
%TD*%
D14*
%TO.C,C21*%
X161700000Y-57780000D03*
X162660000Y-57780000D03*
%TD*%
D22*
%TO.C,U8*%
X170860000Y-71525000D03*
X169590000Y-71525000D03*
X168320000Y-71525000D03*
X167050000Y-71525000D03*
X167050000Y-76925000D03*
X168320000Y-76925000D03*
X169590000Y-76925000D03*
X170860000Y-76925000D03*
%TD*%
D17*
%TO.C,R46*%
X197490000Y-63050000D03*
X197490000Y-64070000D03*
%TD*%
D21*
%TO.C,C26*%
X187925000Y-88910000D03*
X186965000Y-88910000D03*
%TD*%
D31*
%TO.C,U5*%
X146865002Y-72645000D03*
X146865002Y-73145000D03*
X146865002Y-73645000D03*
X146865002Y-74145000D03*
X149765002Y-74145000D03*
X149765002Y-73645000D03*
X149765002Y-73145000D03*
X149765002Y-72645000D03*
D32*
X148315002Y-73395000D03*
%TD*%
D20*
%TO.C,C28*%
X202765000Y-73590000D03*
X202765000Y-72630000D03*
%TD*%
D14*
%TO.C,C20*%
X163955000Y-57780000D03*
X164915000Y-57780000D03*
%TD*%
D15*
%TO.C,R25*%
X168055000Y-78600000D03*
X167035000Y-78600000D03*
%TD*%
D20*
%TO.C,C8*%
X165515000Y-88925000D03*
X165515000Y-87965000D03*
%TD*%
%TO.C,C25*%
X183007000Y-76090000D03*
X183007000Y-75130000D03*
%TD*%
D10*
%TO.C,C40*%
X175700000Y-65325000D03*
X175700000Y-66875000D03*
%TD*%
D15*
%TO.C,R1*%
X153672000Y-56896000D03*
X152652000Y-56896000D03*
%TD*%
D16*
%TO.C,R45*%
X176430000Y-57470000D03*
X176430000Y-56450000D03*
%TD*%
D33*
%TO.C,Y1*%
X182521000Y-77700000D03*
X182521000Y-79350000D03*
X183747000Y-79350000D03*
X183747000Y-77700000D03*
%TD*%
D21*
%TO.C,C14*%
X168325000Y-69850000D03*
X167365000Y-69850000D03*
%TD*%
D20*
%TO.C,C32*%
X183055000Y-83610000D03*
X183055000Y-82650000D03*
%TD*%
D15*
%TO.C,R5*%
X153955000Y-88075000D03*
X152935000Y-88075000D03*
%TD*%
D20*
%TO.C,C15*%
X172405000Y-72480000D03*
X172405000Y-71520000D03*
%TD*%
D17*
%TO.C,R42*%
X183261000Y-70020000D03*
X183261000Y-71040000D03*
%TD*%
D18*
%TO.C,C10*%
X151125000Y-73615000D03*
X151125000Y-74575000D03*
%TD*%
D26*
%TO.C,U19*%
X158140000Y-60650000D03*
X157490000Y-60650000D03*
X156840000Y-60650000D03*
X156840000Y-62550000D03*
X158140000Y-62550000D03*
%TD*%
D15*
%TO.C,R16*%
X151885000Y-76070000D03*
X150865000Y-76070000D03*
%TD*%
%TO.C,R13*%
X168120000Y-90595000D03*
X167100000Y-90595000D03*
%TD*%
D16*
%TO.C,R38*%
X172515000Y-63120000D03*
X172515000Y-62100000D03*
%TD*%
D18*
%TO.C,C1*%
X151275001Y-83640000D03*
X151275001Y-84600000D03*
%TD*%
D22*
%TO.C,U4*%
X170925000Y-83595000D03*
X169655000Y-83595000D03*
X168385000Y-83595000D03*
X167115000Y-83595000D03*
X167115000Y-88995000D03*
X168385000Y-88995000D03*
X169655000Y-88995000D03*
X170925000Y-88995000D03*
%TD*%
D20*
%TO.C,C23*%
X172515000Y-60440000D03*
X172515000Y-59480000D03*
%TD*%
D12*
%TO.C,R40*%
X204590000Y-83100000D03*
X205610000Y-83100000D03*
%TD*%
D14*
%TO.C,C4*%
X163910000Y-81870000D03*
X164870000Y-81870000D03*
%TD*%
D31*
%TO.C,U1*%
X146945002Y-84631000D03*
X146945002Y-85131000D03*
X146945002Y-85631000D03*
X146945002Y-86131000D03*
X149845002Y-86131000D03*
X149845002Y-85631000D03*
X149845002Y-85131000D03*
X149845002Y-84631000D03*
D32*
X148395002Y-85381000D03*
%TD*%
D34*
%TO.C,IC1*%
X196250000Y-60960000D03*
X195750000Y-60960000D03*
X195250000Y-60960000D03*
X194750000Y-60960000D03*
X194750000Y-63060000D03*
X195250000Y-63060000D03*
X195750000Y-63060000D03*
X196250000Y-63060000D03*
D35*
X195500000Y-62010000D03*
%TD*%
D14*
%TO.C,C3*%
X162680000Y-90595000D03*
X163640000Y-90595000D03*
%TD*%
D22*
%TO.C,U3*%
X160105000Y-88995000D03*
X161375000Y-88995000D03*
X162645000Y-88995000D03*
X163915000Y-88995000D03*
X163915000Y-83595000D03*
X162645000Y-83595000D03*
X161375000Y-83595000D03*
X160105000Y-83595000D03*
%TD*%
D15*
%TO.C,R4*%
X151965000Y-88075000D03*
X150945000Y-88075000D03*
%TD*%
D20*
%TO.C,C16*%
X165437500Y-76880000D03*
X165437500Y-75920000D03*
%TD*%
D16*
%TO.C,R18*%
X155362500Y-72425000D03*
X155362500Y-71405000D03*
%TD*%
D19*
%TO.C,D1*%
X203431000Y-64032000D03*
X202461000Y-64032000D03*
%TD*%
D15*
%TO.C,R29*%
X154010000Y-64020000D03*
X152990000Y-64020000D03*
%TD*%
D26*
%TO.C,U2*%
X152705000Y-86425000D03*
X153355000Y-86425000D03*
X154005000Y-86425000D03*
X154005000Y-84525000D03*
X152705000Y-84525000D03*
%TD*%
D15*
%TO.C,R22*%
X160130000Y-69850000D03*
X159110000Y-69850000D03*
%TD*%
D12*
%TO.C,R33*%
X160645000Y-66500000D03*
X161665000Y-66500000D03*
%TD*%
D26*
%TO.C,U17*%
X158110000Y-84525000D03*
X157460000Y-84525000D03*
X156810000Y-84525000D03*
X156810000Y-86425000D03*
X158110000Y-86425000D03*
%TD*%
D12*
%TO.C,R21*%
X160535000Y-78575000D03*
X161555000Y-78575000D03*
%TD*%
D36*
%TO.C,C43*%
X195245000Y-59385000D03*
X196795000Y-59385000D03*
%TD*%
D14*
%TO.C,C11*%
X162615000Y-78575000D03*
X163575000Y-78575000D03*
%TD*%
D16*
%TO.C,R43*%
X186500000Y-66510000D03*
X186500000Y-65490000D03*
%TD*%
%TO.C,R26*%
X172405000Y-75095000D03*
X172405000Y-74075000D03*
%TD*%
D14*
%TO.C,C33*%
X199370000Y-90050000D03*
X200330000Y-90050000D03*
%TD*%
D31*
%TO.C,U9*%
X147000002Y-60700000D03*
X147000002Y-61200000D03*
X147000002Y-61700000D03*
X147000002Y-62200000D03*
X149900002Y-62200000D03*
X149900002Y-61700000D03*
X149900002Y-61200000D03*
X149900002Y-60700000D03*
D32*
X148450002Y-61450000D03*
%TD*%
D12*
%TO.C,R23*%
X161580000Y-68775000D03*
X162600000Y-68775000D03*
%TD*%
D20*
%TO.C,C35*%
X184115000Y-76090000D03*
X184115000Y-75130000D03*
%TD*%
D15*
%TO.C,R34*%
X160245000Y-57780000D03*
X159225000Y-57780000D03*
%TD*%
D22*
%TO.C,U7*%
X160015000Y-76925000D03*
X161285000Y-76925000D03*
X162555000Y-76925000D03*
X163825000Y-76925000D03*
X163825000Y-71525000D03*
X162555000Y-71525000D03*
X161285000Y-71525000D03*
X160015000Y-71525000D03*
%TD*%
D15*
%TO.C,R31*%
X156840000Y-58392500D03*
X155820000Y-58392500D03*
%TD*%
D12*
%TO.C,R41*%
X204590000Y-85090000D03*
X205610000Y-85090000D03*
%TD*%
D18*
%TO.C,C37*%
X181229000Y-76990000D03*
X181229000Y-77950000D03*
%TD*%
D15*
%TO.C,R3*%
X148915000Y-82950000D03*
X147895000Y-82950000D03*
%TD*%
D14*
%TO.C,C13*%
X161585000Y-69850000D03*
X162545000Y-69850000D03*
%TD*%
D21*
%TO.C,C29*%
X187385000Y-70190000D03*
X186425000Y-70190000D03*
%TD*%
D20*
%TO.C,C7*%
X172470000Y-84600000D03*
X172470000Y-83640000D03*
%TD*%
D15*
%TO.C,R7*%
X156760000Y-82350000D03*
X155740000Y-82350000D03*
%TD*%
D17*
%TO.C,R8*%
X155407500Y-85660000D03*
X155407500Y-86680000D03*
%TD*%
D18*
%TO.C,C17*%
X151330001Y-59520000D03*
X151330001Y-60480000D03*
%TD*%
D12*
%TO.C,R35*%
X161695000Y-56670000D03*
X162715000Y-56670000D03*
%TD*%
D17*
%TO.C,R20*%
X155362500Y-73585000D03*
X155362500Y-74605000D03*
%TD*%
D25*
%TO.C,SW2*%
X181568500Y-65480000D03*
X184918500Y-65480000D03*
X181568500Y-66930000D03*
X184918500Y-66930000D03*
D37*
X183243500Y-64705000D03*
%TD*%
D19*
%TO.C,D2*%
X207900000Y-81120000D03*
X206930000Y-81120000D03*
%TD*%
D15*
%TO.C,R19*%
X156770000Y-70225000D03*
X155750000Y-70225000D03*
%TD*%
D27*
%TO.C,C42*%
X173960000Y-57245000D03*
X173960000Y-55695000D03*
%TD*%
D26*
%TO.C,U18*%
X158070000Y-72645000D03*
X157420000Y-72645000D03*
X156770000Y-72645000D03*
X156770000Y-74545000D03*
X158070000Y-74545000D03*
%TD*%
D15*
%TO.C,R37*%
X168140000Y-66500000D03*
X167120000Y-66500000D03*
%TD*%
D26*
%TO.C,U10*%
X152760000Y-62550000D03*
X153410000Y-62550000D03*
X154060000Y-62550000D03*
X154060000Y-60650000D03*
X152760000Y-60650000D03*
%TD*%
D15*
%TO.C,R10*%
X160200000Y-81870000D03*
X159180000Y-81870000D03*
%TD*%
D19*
%TO.C,D4*%
X207900000Y-85100000D03*
X206930000Y-85100000D03*
%TD*%
D18*
%TO.C,C9*%
X151125000Y-71440000D03*
X151125000Y-72400000D03*
%TD*%
%TO.C,C2*%
X151275001Y-85690000D03*
X151275001Y-86650000D03*
%TD*%
D38*
%TO.C,IC2*%
X174040000Y-63492000D03*
X174540000Y-63492000D03*
X175040000Y-63492000D03*
X175540000Y-63492000D03*
X176040000Y-63492000D03*
X176040000Y-59068000D03*
X175540000Y-59068000D03*
X175040000Y-59068000D03*
X174540000Y-59068000D03*
X174040000Y-59068000D03*
D39*
X175040000Y-61280000D03*
%TD*%
D20*
%TO.C,C38*%
X181229000Y-79894000D03*
X181229000Y-78934000D03*
%TD*%
D16*
%TO.C,R6*%
X155420000Y-84425000D03*
X155420000Y-83405000D03*
%TD*%
M02*
