M48
; DRILL file {KiCad 8.0.9-8.0.9-0~ubuntu24.04.1} date 2025-08-06T19:27:35-0300
; FORMAT={-:-/ absolute / inch / decimal}
; #@! TF.CreationDate,2025-08-06T19:27:35-03:00
; #@! TF.GenerationSoftware,Kicad,Pcbnew,8.0.9-8.0.9-0~ubuntu24.04.1
; #@! TF.FileFunction,Plated,1,4,PTH
FMAT,2
INCH
; #@! TA.AperFunction,Plated,PTH,ViaDrill
T1C0.0118
; #@! TA.AperFunction,Plated,PTH,ViaDrill
T2C0.0157
; #@! TA.AperFunction,Plated,PTH,ComponentDrill
T3C0.0394
; #@! TA.AperFunction,Plated,PTH,ComponentDrill
T4C0.0866
%
G90
G05
T1
X5.79Y-2.66
X5.8268Y-2.126
X5.8268Y-2.2835
X5.8268Y-2.5197
X5.8268Y-2.5984
X5.8268Y-2.7559
X5.8268Y-2.9921
X5.8268Y-3.0709
X5.8268Y-3.1496
X5.8268Y-3.2283
X5.8268Y-3.4646
X5.9055Y-2.7559
X5.9063Y-2.1063
X5.9063Y-2.7063
X5.9063Y-3.1063
X5.9063Y-3.2063
X5.9063Y-3.5063
X5.9063Y-3.6063
X5.91Y-2.19
X5.9622Y-2.5996
X5.9843Y-2.6772
X5.9843Y-3.5433
X6.0063Y-2.1063
X6.0063Y-3.6063
X6.0091Y-2.7531
X6.0102Y-3.2508
X6.0346Y-2.8972
X6.0449Y-2.2843
X6.0626Y-3.0402
X6.0969Y-2.7799
X6.0976Y-3.2445
X6.1165Y-3.5264
X6.1417Y-2.5984
X6.1417Y-2.6772
X6.1417Y-3.0709
X6.1417Y-3.1496
X6.155Y-2.33
X6.2205Y-2.6772
X6.2205Y-3.1496
X6.2287Y-2.1559
X6.2335Y-2.5449
X6.2354Y-3.0177
X6.2366Y-3.4811
X6.2555Y-2.9547
X6.2563Y-3.4224
X6.2614Y-2.4614
X6.3Y-2.2146
X6.3063Y-2.1063
X6.3063Y-2.3949
X6.3118Y-2.8677
X6.3295Y-3.3598
X6.378Y-2.9134
X6.4063Y-2.1063
X6.4063Y-3.4063
X6.4567Y-3.3858
X6.4807Y-3.087
X6.4811Y-2.9222
X6.4811Y-3.5618
X6.4827Y-2.6122
X6.4906Y-3.2618
X6.4992Y-2.3087
X6.5063Y-2.1063
X6.5098Y-3.539
X6.522Y-3.1126
X6.524Y-2.6496
X6.5276Y-3.2126
X6.5299Y-2.4307
X6.5307Y-2.7362
X6.5354Y-2.5984
X6.5354Y-3.3858
X6.6063Y-2.1063
X6.6063Y-2.4063
X6.6248Y-2.961
X6.6323Y-3.4354
X6.635Y-2.4862
X6.6654Y-3.122
X6.6929Y-2.2835
X6.6929Y-2.6772
X6.6929Y-2.7559
X6.6929Y-3.2283
X6.6929Y-3.622
X6.7063Y-2.1063
X6.7268Y-3.089
X6.7295Y-3.5642
X6.7307Y-2.6169
X6.7717Y-2.6772
X6.7717Y-2.7559
X6.8063Y-2.1063
X6.8063Y-2.3063
X6.8063Y-3.6063
X6.8417Y-3.5457
X6.8504Y-3.4646
X6.9063Y-2.1063
X6.9063Y-2.7063
X6.9063Y-2.8063
X6.9063Y-2.9063
X6.9063Y-3.0063
X6.9063Y-3.1063
X6.9063Y-3.6063
X6.9173Y-3.2598
X6.945Y-2.56
X7.0063Y-3.2063
X7.0063Y-3.4063
X7.1618Y-3.2378
X7.1654Y-2.1276
X7.1654Y-2.1866
X7.1654Y-2.2457
X7.1654Y-2.5
X7.1654Y-2.6772
X7.1654Y-2.7362
X7.1654Y-2.7953
X7.1654Y-2.8543
X7.1654Y-2.9134
X7.1654Y-2.9724
X7.1654Y-3.622
X7.1657Y-3.2815
X7.1709Y-3.4846
X7.2244Y-2.1276
X7.2244Y-2.1866
X7.2244Y-2.2457
X7.2244Y-2.3819
X7.2244Y-2.4409
X7.2244Y-2.5
X7.2244Y-3.5039
X7.2244Y-3.563
X7.2244Y-3.622
X7.2465Y-3.0161
X7.25Y-2.926
X7.2835Y-2.2457
X7.2835Y-2.5
X7.2835Y-3.5039
X7.2835Y-3.563
X7.2835Y-3.622
X7.2984Y-2.8319
X7.3228Y-2.126
X7.3425Y-2.2457
X7.3425Y-2.5
X7.3425Y-2.5591
X7.3425Y-3.5039
X7.3425Y-3.563
X7.3425Y-3.622
X7.3573Y-3.314
X7.3764Y-3.0957
X7.3776Y-2.6378
X7.378Y-2.4018
X7.4016Y-2.126
X7.4016Y-2.9134
X7.4016Y-2.9724
X7.4016Y-3.622
X7.4363Y-3.0937
X7.4606Y-2.2457
X7.4606Y-2.9134
X7.4606Y-3.1496
X7.4606Y-3.2087
X7.4606Y-3.2677
X7.4606Y-3.5039
X7.4606Y-3.563
X7.4606Y-3.622
X7.4803Y-2.126
X7.4803Y-2.5197
X7.4803Y-2.9921
X7.4917Y-2.6378
X7.5197Y-2.3819
X7.5197Y-3.0906
X7.5197Y-3.1496
X7.5197Y-3.2087
X7.5197Y-3.3858
X7.5591Y-2.126
X7.5787Y-2.2457
X7.5787Y-2.3819
X7.5787Y-2.4409
X7.5787Y-2.9724
X7.5787Y-3.0315
X7.5787Y-3.0906
X7.5787Y-3.1496
X7.5787Y-3.3268
X7.5787Y-3.3858
X7.6378Y-2.1276
X7.6378Y-2.1866
X7.6378Y-2.3819
X7.6378Y-2.4409
X7.6378Y-2.9724
X7.6378Y-3.0315
X7.6378Y-3.0906
X7.6378Y-3.1496
X7.6378Y-3.2087
X7.6378Y-3.3268
X7.6378Y-3.3858
X7.6646Y-2.7465
X7.6795Y-3.2783
X7.6969Y-2.6181
X7.6969Y-2.6772
X7.6969Y-3.0315
X7.6969Y-3.0906
X7.6969Y-3.1496
X7.6969Y-3.2087
X7.6969Y-3.3268
X7.6969Y-3.3858
X7.7165Y-2.126
X7.7559Y-2.3819
X7.7559Y-2.4409
X7.7559Y-2.7362
X7.7559Y-3.0906
X7.7559Y-3.1496
X7.7559Y-3.2087
X7.7559Y-3.2677
X7.7559Y-3.3268
X7.7559Y-3.3858
X7.7559Y-3.5039
X7.7559Y-3.563
X7.7559Y-3.622
X7.7752Y-2.6358
X7.815Y-2.1457
X7.815Y-2.3819
X7.815Y-2.4409
X7.815Y-2.5591
X7.815Y-2.7362
X7.815Y-2.9437
X7.815Y-3.622
X7.8496Y-3.385
X7.8729Y-2.9394
X7.874Y-2.126
X7.874Y-2.2638
X7.874Y-2.3819
X7.874Y-2.4409
X7.874Y-2.5591
X7.874Y-2.6181
X7.874Y-2.6772
X7.874Y-3.622
X7.9331Y-2.3819
X7.9331Y-2.4409
X7.9331Y-2.5591
X7.9331Y-2.6181
X7.9331Y-2.6772
X7.9331Y-3.4449
X7.9331Y-3.5039
X7.9331Y-3.563
X7.9331Y-3.622
X7.9921Y-2.2638
X7.9921Y-2.3819
X7.9921Y-2.4409
X7.9921Y-2.5591
X7.9921Y-2.6181
X7.9921Y-2.6772
X7.9921Y-2.7953
X7.9921Y-2.8543
X7.9921Y-3.1496
X7.9921Y-3.3858
X7.9921Y-3.4449
X7.9921Y-3.5039
X7.9921Y-3.563
X7.9921Y-3.622
X8.0315Y-3.2283
X8.0315Y-3.3071
X8.0433Y-3.0173
X8.0512Y-2.1457
X8.0512Y-2.2047
X8.0512Y-2.2638
X8.0512Y-2.3819
X8.0512Y-2.4409
X8.0512Y-2.5
X8.0512Y-2.5591
X8.0512Y-2.6181
X8.0512Y-2.6772
X8.0512Y-2.7362
X8.0512Y-2.8543
X8.0512Y-2.9134
X8.0512Y-3.1496
X8.0512Y-3.3858
X8.0512Y-3.4449
X8.0512Y-3.5039
X8.0512Y-3.563
X8.0512Y-3.622
X8.1102Y-2.6181
X8.1102Y-2.7559
X8.1102Y-2.8543
X8.1102Y-3.1496
X8.1102Y-3.2283
X8.1102Y-3.3071
X8.1102Y-3.3858
X8.1102Y-3.4449
X8.1693Y-2.3228
X8.1693Y-2.6181
X8.1693Y-3.1496
X8.1693Y-3.3858
X8.1693Y-3.4449
X8.2283Y-2.2638
X8.2283Y-2.3228
X8.2283Y-2.3819
X8.2283Y-2.4409
X8.2283Y-2.5
X8.2283Y-2.5591
X8.2283Y-2.6181
X8.2283Y-2.6772
X8.2283Y-2.7362
X8.2283Y-2.7953
X8.2283Y-2.8543
X8.2283Y-2.9134
X8.2283Y-2.9724
X8.2283Y-3.0315
X8.2283Y-3.0906
X8.2283Y-3.1496
X8.2283Y-3.2087
X8.2283Y-3.2677
X8.2283Y-3.3268
X8.2283Y-3.3858
X8.2283Y-3.4449
X8.2283Y-3.5039
T2
X6.7079Y-2.1866
X6.9555Y-3.5165
X6.9618Y-2.3228
X7.135Y-3.5161
X7.6083Y-2.6787
X7.6087Y-2.8917
X7.6598Y-2.2677
T3
X7.3295Y-2.1811
X7.4295Y-2.1811
X7.5295Y-2.1811
X8.1579Y-2.6955
X8.1579Y-2.7955
X8.1579Y-2.8955
X8.1579Y-2.9955
X8.1579Y-3.0955
X8.1602Y-2.4417
X8.1602Y-2.5417
T4
X5.74Y-3.59
X5.7406Y-2.1874
X8.1528Y-2.1874
X8.1528Y-3.59
M30
